<?xml version="1.0" ?><svg style="enable-background:new 0 0 128 128;" version="1.1" viewBox="0 0 128 128" xml:space="preserve" xmlns="http://www.w3.org/2000/svg" xmlns:xlink="http://www.w3.org/1999/xlink"><style type="text/css">
	.st0{fill:#74CBDE;}
	.st1{fill:#B3F4FB;}
	.st2{fill:#301F00;}
	.st3{fill:#2FB0C1;}
	.st4{fill:#F2F2F2;}
	.st5{fill:#CCCCCC;}
	.st6{fill:#FFFFFF;}
	.st7{fill:#629EE1;}
	.st8{fill:#4180D8;}
	.st9{fill:#FF0013;}
	.st10{fill:#FF4D4D;}
	.st11{fill:#C80004;}
	.st12{fill:#FFD81A;}
	.st13{fill:#FFEA55;}
	.st14{fill:#FFB6C6;}
	.st15{fill:#FF97A9;}
	.st16{fill:#FFD0DC;}
	.st17{fill:#FF7287;}
	.st18{fill:#FDAD4C;}
	.st19{fill:#EB9129;}
	.st20{fill:#C13202;}
	.st21{fill:#CA4508;}
	.st22{fill:#FEC769;}
	.st23{fill:#FFEA9A;}
	.st24{fill:#FFDB69;}
	.st25{fill:#999999;}
	.st26{fill:#808080;}
	.st27{fill:#EBEBEB;}
	.st28{opacity:0.8;fill:#B3B3B3;}
	.st29{fill:#BCBCBC;}
	.st30{fill:#A39095;}
	.st31{fill:#B3B3B3;}
	.st32{fill:#EDFFC5;}
	.st33{fill:#F5FFD9;}
	.st34{opacity:0.8;fill:#FCFFF0;}
	.st35{fill:#8CC63F;}
	.st36{fill:#5AA319;}
	.st37{fill:#ACDC57;}
	.st38{fill:#C69452;}
	.st39{fill:#8A4900;}
	.st40{fill:#B17637;}
	.st41{fill:#E1D6BA;}
	.st42{fill:#CCBB92;}
	.st43{fill:#D8AD68;}
	.st44{fill:#253542;}
	.st45{fill:#2B4753;}
	.st46{fill:#FFA227;}
	.st47{fill:#0F171C;}
	.st48{fill:#FFBBBB;}
	.st49{fill:#A9A69C;}
	.st50{fill:#827E74;}
	.st51{fill:#C0BEB4;}
	.st52{fill:#333333;}
	.st53{fill:#FFE581;}
	.st54{fill:#6F4A38;}
	.st55{fill:#FFF5AE;}
	.st56{fill:#FFD252;}
	.st57{fill:#825C4D;}
	.st58{fill:#C97F4E;}
	.st59{fill:#B86538;}
	.st60{fill:#666666;}
	.st61{fill:#4D4D4D;}
	.st62{fill:#D6925E;}
	.st63{fill:#F9C0A7;}
	.st64{fill:#F7AD90;}
	.st65{fill:#D38F5B;}
	.st66{fill:#CD7C4F;}
	.st67{fill:#C1693E;}
	.st68{fill:#A05B38;}
	.st69{fill:#F1D4A5;}
	.st70{fill:#DD9665;}
	.st71{fill:#E7B777;}
	.st72{fill:#4A290A;}
	.st73{fill:#53770C;}
	.st74{fill:#699010;}
	.st75{fill:#884326;}
	.st76{fill:#F6D5A9;}
	.st77{fill:#F1C087;}
	.st78{fill:#FFD4C5;}
	.st79{fill:#FF9797;}
	.st80{fill:#FF8484;}
	.st81{fill:#FFAAAA;}
	.st82{fill:#7C0000;}
	.st83{fill:#A6B855;}
	.st84{fill:#C3D272;}
	.st85{fill:#7D942D;}
	.st86{fill:#68782F;}
	.st87{fill:#4F5E20;}
	.st88{fill:#81923E;}
	.st89{fill:#EE6B2B;}
	.st90{fill:#D2501E;}
	.st91{fill:#FF6868;}
	.st92{fill:#F85E28;}
	.st93{fill:#D5DAE0;}
	.st94{fill:#BCC4CD;}
	.st95{fill:#FDB62E;}
	.st96{fill:#472D07;}
	.st97{fill:#FC9C1B;}
	.st98{fill:#2D1A03;}
	.st99{fill:#FFFFD5;}
	.st100{fill:#FED041;}
	.st101{fill:#61400B;}
	.st102{fill:#FFFF95;}
	.st103{fill:#D7D3C9;}
	.st104{fill:#E8E3DA;}
	.st105{fill:#DDD6CA;}
	.st106{fill:#9E9992;}
	.st107{fill:#847E77;}
	.st108{fill:#F0EDE7;}
	.st109{fill:#88D3ED;}
	.st110{fill:#68C1E4;}
	.st111{fill:#A8E5F6;}
	.st112{fill:#E6E6E6;}
	.st113{fill:#D6D6D6;}
</style><g id="Fish"/><g id="Chicken"/><g id="Pig"/><g id="Dog"/><g id="Cat"/><g id="Bird"/><g id="Koala"/><g id="Mice"/><g id="Snake"/><g id="Lion"/><g id="Caterpillar"/><g id="Dolphin"/><g id="Penguin"/><g id="Deer"/><g id="Elephant"/><g id="Panda"/><g id="Giraffe"/><g id="Cow"/><g id="Monkey"/><g id="Rabbit"/><g id="Bear"/><g id="Zebra"/><g id="Crab"/><g id="Crocodile"/><g id="Frog"/><g id="Owl"/><g id="Layer_28"/><g id="Octopus"/><g id="Turtle"/><g id="Squirrel"><g id="Tail_13_"><path class="st66" d="M69.9,100c0,0,21.3-24.7,6-47.4c-11.5-17-2.4-39,20.7-40.7c28.2-2,29,33,19.3,44.8c0,0-2.6-18.7-9.7-16.7    c-8,2.3,3.4,16.8,3.3,29.3C109.4,83.6,94,111,65.2,108.8l-9.7-7l5-7.8L69.9,100z"/><path class="st67" d="M113.8,17.3c8.6,10.8,9.1,27.9,2.9,35.5c0,0-1.2-24-12.7-18.6C91.5,40,99.5,54,102.2,66.6    c3,13.7-10.6,42.4-38.9,40.9l1.9,1.3c28.8,2.2,44.2-25.2,44.4-39.4c0.1-12.5-11.3-27-3.3-29.3c7.1-2.1,9.7,16.7,9.7,16.7    C123,48.2,124.4,27.3,113.8,17.3z"/><path class="st70" d="M96.6,12c-23.1,1.6-32.2,23.7-20.7,40.7c15.3,22.6-6,47.4-6,47.4l-9.5-6l-5,7.8l9.7,7c1.1,0.1,0-2.1,1-2.1    c4.4-4.4,32-28.9,18.8-48.5C74,42,81,20.8,102.9,22.2c10.3,0.6,19.8,18.5,13.8,30.6l-0.8,4C125.6,45,124.8,10,96.6,12z"/><path class="st2" d="M68.4,110.4c-1.1,0-2.2,0-3.4-0.1c-0.3,0-0.5-0.1-0.8-0.3l-9.7-7c-0.6-0.5-0.8-1.4-0.4-2l5-7.8    c0.4-0.7,1.4-0.9,2.1-0.5l8.3,5.3c3.6-4.8,17.9-25.6,5.1-44.5c-5.9-8.7-6.9-19.1-2.7-27.8c4.3-8.9,13.2-14.4,24.5-15.2    c13.4-0.9,19.9,6,23,12c6,11.6,3.6,27.9-2.4,35.3c-0.4,0.5-1,0.7-1.6,0.5c-0.6-0.2-1-0.6-1.1-1.2c-0.5-3.5-2.5-12.9-5.9-15.1    c-0.6-0.4-1.2-0.5-1.9-0.3c-1,0.3-1.3,0.7-1.5,1.1c-1,1.9,0.5,6.1,2.1,10.7c1.8,5,3.8,10.7,3.7,16.2c-0.1,7.9-4.9,20.7-15.1,30.1    C90.4,104.6,81.3,110.4,68.4,110.4z M65.7,107.3c13.4,0.9,22.7-4.9,28.2-10c9.6-8.8,14-20.6,14.1-27.9c0.1-4.9-1.8-10.3-3.5-15.1    c-2-5.6-3.5-10-2-13c0.6-1.2,1.8-2.1,3.3-2.6c1.5-0.4,3-0.2,4.4,0.7c3.6,2.3,5.6,9.1,6.5,13.4c3.8-7.5,4.8-20,0.1-29    c-2.7-5.2-8.4-11.2-20.2-10.4c-10.1,0.7-18.1,5.6-22,13.5c-3.8,7.7-2.8,17,2.4,24.8c15.8,23.3-5.9,48.9-6.1,49.2    c-0.5,0.6-1.3,0.7-1.9,0.3L60.9,96l-3.4,5.4L65.7,107.3z"/></g><g id="Body_28_"><g><path class="st66" d="M70.2,95.2c0,17.6-9.7,23.6-22.6,23.6s-26.3-10.6-26.3-23.6s10.4-23.6,23.3-23.6S70.2,82,70.2,95.2z"/><path class="st69" d="M35.2,107.7c-2.1,0.6-5.3,1.1-8.6,1.1c-2.5-2.9-4.2-6.3-5-10c1.6,0,3.5-0.4,5.8-1.1c0.1,0,0.3-0.1,0.4-0.2     C29.5,101.4,32.1,104.8,35.2,107.7z"/><path class="st67" d="M22.5,87.7c5.5,0.9,11.2,1.2,15,1.2c10.4,0,19.5-2.9,24.7-10.6c-4.8-4.2-11.2-6.8-17.6-6.8     C34.3,71.6,25.5,78.3,22.5,87.7z"/><path class="st2" d="M47.6,120.3c-13.1,0-27.8-10.7-27.8-25.1c0-13.8,11.1-25.1,24.8-25.1c14.4,0,27.1,11.7,27.1,25.1     C71.7,111.6,63.3,120.3,47.6,120.3z M44.6,73.1c-12,0-21.8,9.9-21.8,22.1c0,12.7,13.1,22.1,24.8,22.1c14,0,21.1-7.4,21.1-22.1     C68.7,82.2,56,73.1,44.6,73.1z"/></g><g id="Arm"><path class="st66" d="M27.7,86.8c-1.1,0.2-2.3,0.5-3.6,0.9c-6.5,2.1-9.1,5.4-8.2,8.2c0.9,2.8,4.7,4.1,11.5,1.9     c2.2-0.7,3.9-1.5,5.1-2.4"/><path class="st67" d="M31.8,94.2c-1.4,0.6-3,1.1-5.1,1.4c-6,1-9.4-0.2-10.6-2.3c-0.4,0.9-0.4,1.8-0.2,2.6     c0.9,2.8,4.7,4.1,11.5,1.9c2.2-0.7,3.9-1.5,5.1-2.4L31.8,94.2z"/><path class="st2" d="M21.3,100.4c-5,0-6.5-2.9-6.8-4c-1-3,0.8-7.4,9.1-10.1c1.3-0.4,2.6-0.7,3.8-0.9c0.8-0.1,1.6,0.4,1.7,1.2     c0.1,0.8-0.4,1.6-1.2,1.7c-1,0.2-2.2,0.4-3.3,0.8c-5.8,1.9-7.8,4.6-7.2,6.3c0.7,2.2,4.5,2.6,9.6,0.9c1.9-0.6,3.5-1.4,4.8-2.2     c0.7-0.5,1.6-0.3,2.1,0.4c0.5,0.7,0.3,1.6-0.4,2.1c-1.5,1-3.3,1.8-5.5,2.5C25.2,100.1,23,100.4,21.3,100.4z"/></g><g id="Leg_3_"><path class="st66" d="M50.3,94.2c-6.9,0-12.4,5.6-12.4,12.4c0,0.6-5.8,2.3-11.8,2.3c-5.3,0-8.2,2.5-8.2,5.5c0,3.1,3.2,4.8,8,4.8     c5.7,0,25.8-0.2,25.8-0.2c0,0,0,0,0,0c4.4-0.5,8.1-3.3,9.9-7.1"/><path class="st67" d="M51.7,116C51.7,116,51.7,116,51.7,116c0,0-20.1,0.2-25.8,0.2c-4,0-6.8-1.2-7.7-3.4c-0.2,0.5-0.3,1-0.3,1.5     c0,3.1,3.2,4.8,8,4.8c5.7,0,25.8-0.2,25.8-0.2c0,0,0,0,0,0c4.4-0.5,8.1-3.3,9.9-7.1l-0.9-1.4C58.7,113.4,55.5,115.5,51.7,116z"/><path class="st2" d="M25.9,120.7c-5.9,0-9.5-2.4-9.5-6.3c0-3.4,3-7,9.7-7c4.6,0,8.8-1,10.3-1.6c0.4-7.3,6.5-13.1,13.9-13.1     c0.8,0,1.5,0.7,1.5,1.5s-0.7,1.5-1.5,1.5c-6,0-10.9,4.9-10.9,10.9c0,3.4-13.1,3.8-13.3,3.8c-3.9,0-6.7,1.6-6.7,4     c0,2.5,3.4,3.3,6.5,3.3c4.4,0,17.4-0.1,23-0.2c1.3,0,2,0,2.5,0c0,0,0.1,0,0.1,0c3.8-0.4,7.1-2.8,8.7-6.3c0.3-0.8,1.2-1.1,2-0.7     c0.8,0.3,1.1,1.2,0.7,2c-2,4.4-6.2,7.4-11,8c-0.1,0-0.2,0-0.3,0v0c-0.1,0-1.1,0-2.8,0C43.4,120.5,30.3,120.7,25.9,120.7z"/></g></g><g id="Head_40_"><g id="Ear_1_2_"><path class="st66" d="M54,32.1c-2.7,4.9-8.8,6.7-13.6,4c-4.8-2.7-6.5-8.8-3.9-13.6s10.6-9.9,15.4-7.2S56.7,27.2,54,32.1z"/><path class="st2" d="M45.2,38.8c-1.9,0-3.8-0.5-5.5-1.4c-2.7-1.5-4.6-3.9-5.5-6.9c-0.8-3-0.5-6.1,1-8.8c3-5.4,11.6-11,17.4-7.8     c5.8,3.2,5.6,13.5,2.7,18.9l0,0C53.2,36.6,49.3,38.8,45.2,38.8z M48.9,16c-3.8,0-8.9,3.4-11,7.2c-1.1,2-1.4,4.3-0.8,6.5     c0.6,2.2,2,4,4,5.1c4.1,2.3,9.3,0.7,11.6-3.4c2.5-4.6,2.3-12.8-1.5-14.8C50.5,16.1,49.7,16,48.9,16z"/></g><g id="Head_39_"><path class="st66" d="M66.9,53.3C66.9,74.8,53.7,82,37.4,82c-7.6,0-23.4-1.6-28.7-5.5c-6-4.6-0.8-12.2-0.8-23.2     c0-15.8,13.2-28.7,29.5-28.7S66.9,37.4,66.9,53.3z"/><path class="st69" d="M62.8,67.2c-0.9,1.3-3.9,9.3-19.8,9.2c-6.2,0-10.8-3.9-15.9-5.7s-12.2-0.7-12.2-0.7l-9,0.9     c0.1,2.1,0.9,4,2.9,5.4c5.2,4,21.1,5.5,28.7,5.5c8.9,0,16.9-2.2,22.3-7.7C60.1,72.5,63,67,62.8,67.2z"/><path class="st70" d="M7.9,61.3c0-15.3,12.8-27.7,28.5-27.7c15.7,0,28.5,12.4,28.5,27.7c0,2-0.1,3.8-0.3,5.5     c1.5-3.7,2.3-8.2,2.3-13.6c0-15.8-13.2-28.7-29.5-28.7S7.9,37.4,7.9,53.3c0,8.8-3.3,15.4-1.6,20C7,69.9,7.9,65.9,7.9,61.3z"/><path class="st2" d="M37.4,83.5c-7.1,0-23.7-1.4-29.6-5.8c-4.6-3.5-3.7-8.5-2.6-14.2c0.6-3,1.2-6.4,1.2-10.1     c0-16.6,13.9-30.2,31-30.2s31,13.5,31,30.2C68.4,72.8,57.4,83.5,37.4,83.5z M37.4,26.1c-15.4,0-28,12.2-28,27.2     c0,4-0.7,7.5-1.2,10.7c-1.1,5.9-1.5,9,1.5,11.3c4.5,3.4,19,5.2,27.8,5.2c18.6,0,28-9.1,28-27.2C65.4,38.3,52.9,26.1,37.4,26.1z"/></g><g id="Teeth_2_"><path class="st4" d="M12.6,79.3l-1.6,0.3c-0.9,0.1-1.7-0.4-2-1.3l-1.5-5.7l6.1-1l0.4,5.9C14.1,78.4,13.5,79.2,12.6,79.3z"/><path class="st2" d="M10.8,81.1c-1.5,0-2.8-1-3.1-2.4l-1.5-5.7c-0.1-0.4,0-0.8,0.2-1.2c0.2-0.4,0.6-0.6,1-0.7l6-1     c0.4-0.1,0.8,0,1.2,0.3c0.3,0.3,0.5,0.7,0.6,1.1l0.4,5.9c0.1,1.7-1.1,3.2-2.7,3.4l-1.6,0.3C11.1,81.1,10.9,81.1,10.8,81.1z      M9.5,73.8l1.1,4.2c0,0.1,0.1,0.2,0.3,0.2l1.6-0.3c0,0,0,0,0,0c0.1,0,0.2-0.1,0.2-0.3l-0.3-4.3L9.5,73.8z"/><path class="st2" d="M7,72.8c-0.1,0-0.2,0-0.2,0c-0.8,0-1.5-0.7-1.5-1.5c0-0.8,0.7-1.5,1.5-1.5c0,0-0.1,0,0.1,0     c0.7,0,4.7,0,8.2-1c0.8-0.2,1.6,0.3,1.8,1.1c0.2,0.8-0.3,1.6-1.1,1.8C12.1,72.7,8,72.8,7,72.8z"/></g><circle class="st2" cx="21.3" cy="61.1" id="Eye_3_" r="3"/><g id="Ear_2_2_"><path class="st66" d="M43.7,34.4c-0.4-2.7,0-5.5,1.4-8c3.3-6,12.9-12.1,18.8-8.8s5.8,14.7,2.5,20.6c-1.6,3-4.3,5-7.3,5.9"/><path class="st2" d="M59.1,45.6c-0.6,0-1.2-0.4-1.4-1.1c-0.2-0.8,0.2-1.6,1-1.9c2.8-0.8,5.1-2.7,6.5-5.2c1.5-2.7,2.3-6.8,2-10.5     c-0.3-3.9-1.7-6.9-4-8.1c-5.1-2.8-13.9,3.1-16.8,8.2c-1.2,2.2-1.6,4.6-1.2,7.1c0.1,0.8-0.4,1.6-1.2,1.7c-0.8,0.1-1.6-0.4-1.7-1.2     c-0.5-3.1,0-6.3,1.6-9c3.6-6.5,13.9-13.3,20.9-9.4c3.2,1.7,5.1,5.5,5.5,10.5c0.3,4.3-0.6,8.9-2.4,12.2c-1.8,3.2-4.7,5.6-8.2,6.6     C59.4,45.6,59.3,45.6,59.1,45.6z"/></g></g></g><g id="Duck"/><g id="Squid"/><g id="Unicorn"/><g id="Parrot"/><g id="Layer_36"/><g id="Cockroach"/><g id="Gorilla"/><g id="Tiger"/><g id="Goat"/><g id="Whale"/></svg>