<?xml version="1.0" ?><svg style="enable-background:new 0 0 128 128;" version="1.1" viewBox="0 0 128 128" xml:space="preserve" xmlns="http://www.w3.org/2000/svg" xmlns:xlink="http://www.w3.org/1999/xlink"><style type="text/css">
	.st0{fill:#74CBDE;}
	.st1{fill:#B3F4FB;}
	.st2{fill:#301F00;}
	.st3{fill:#2FB0C1;}
	.st4{fill:#F2F2F2;}
	.st5{fill:#CCCCCC;}
	.st6{fill:#FFFFFF;}
	.st7{fill:#629EE1;}
	.st8{fill:#4180D8;}
	.st9{fill:#FF0013;}
	.st10{fill:#FF4D4D;}
	.st11{fill:#C80004;}
	.st12{fill:#FFD81A;}
	.st13{fill:#FFEA55;}
	.st14{fill:#FFB6C6;}
	.st15{fill:#FF97A9;}
	.st16{fill:#FFD0DC;}
	.st17{fill:#FF7287;}
	.st18{fill:#FDAD4C;}
	.st19{fill:#EB9129;}
	.st20{fill:#C13202;}
	.st21{fill:#CA4508;}
	.st22{fill:#FEC769;}
	.st23{fill:#FFEA9A;}
	.st24{fill:#FFDB69;}
	.st25{fill:#999999;}
	.st26{fill:#808080;}
	.st27{fill:#EBEBEB;}
	.st28{opacity:0.8;fill:#B3B3B3;}
	.st29{fill:#BCBCBC;}
	.st30{fill:#A39095;}
	.st31{fill:#B3B3B3;}
	.st32{fill:#EDFFC5;}
	.st33{fill:#F5FFD9;}
	.st34{opacity:0.8;fill:#FCFFF0;}
	.st35{fill:#8CC63F;}
	.st36{fill:#5AA319;}
	.st37{fill:#ACDC57;}
	.st38{fill:#C69452;}
	.st39{fill:#8A4900;}
	.st40{fill:#B17637;}
	.st41{fill:#E1D6BA;}
	.st42{fill:#CCBB92;}
	.st43{fill:#D8AD68;}
	.st44{fill:#253542;}
	.st45{fill:#2B4753;}
	.st46{fill:#FFA227;}
	.st47{fill:#0F171C;}
	.st48{fill:#FFBBBB;}
	.st49{fill:#A9A69C;}
	.st50{fill:#827E74;}
	.st51{fill:#C0BEB4;}
	.st52{fill:#333333;}
	.st53{fill:#FFE581;}
	.st54{fill:#6F4A38;}
	.st55{fill:#FFF5AE;}
	.st56{fill:#FFD252;}
	.st57{fill:#825C4D;}
	.st58{fill:#C97F4E;}
	.st59{fill:#B86538;}
	.st60{fill:#666666;}
	.st61{fill:#4D4D4D;}
	.st62{fill:#D6925E;}
	.st63{fill:#F9C0A7;}
	.st64{fill:#F7AD90;}
	.st65{fill:#D38F5B;}
	.st66{fill:#CD7C4F;}
	.st67{fill:#C1693E;}
	.st68{fill:#A05B38;}
	.st69{fill:#F1D4A5;}
	.st70{fill:#DD9665;}
	.st71{fill:#E7B777;}
	.st72{fill:#4A290A;}
	.st73{fill:#53770C;}
	.st74{fill:#699010;}
	.st75{fill:#884326;}
	.st76{fill:#F6D5A9;}
	.st77{fill:#F1C087;}
	.st78{fill:#FFD4C5;}
	.st79{fill:#FF9797;}
	.st80{fill:#FF8484;}
	.st81{fill:#FFAAAA;}
	.st82{fill:#7C0000;}
	.st83{fill:#A6B855;}
	.st84{fill:#C3D272;}
	.st85{fill:#7D942D;}
	.st86{fill:#68782F;}
	.st87{fill:#4F5E20;}
	.st88{fill:#81923E;}
	.st89{fill:#EE6B2B;}
	.st90{fill:#D2501E;}
	.st91{fill:#FF6868;}
	.st92{fill:#F85E28;}
	.st93{fill:#D5DAE0;}
	.st94{fill:#BCC4CD;}
	.st95{fill:#FDB62E;}
	.st96{fill:#472D07;}
	.st97{fill:#FC9C1B;}
	.st98{fill:#2D1A03;}
	.st99{fill:#FFFFD5;}
	.st100{fill:#FED041;}
	.st101{fill:#61400B;}
	.st102{fill:#FFFF95;}
	.st103{fill:#D7D3C9;}
	.st104{fill:#E8E3DA;}
	.st105{fill:#DDD6CA;}
	.st106{fill:#9E9992;}
	.st107{fill:#847E77;}
	.st108{fill:#F0EDE7;}
	.st109{fill:#88D3ED;}
	.st110{fill:#68C1E4;}
	.st111{fill:#A8E5F6;}
	.st112{fill:#E6E6E6;}
	.st113{fill:#D6D6D6;}
</style><g id="Fish"/><g id="Chicken"/><g id="Pig"/><g id="Dog"/><g id="Cat"/><g id="Bird"/><g id="Koala"/><g id="Mice"/><g id="Snake"/><g id="Lion"/><g id="Caterpillar"/><g id="Dolphin"/><g id="Penguin"/><g id="Deer"/><g id="Elephant"/><g id="Panda"/><g id="Giraffe"/><g id="Cow"/><g id="Monkey"/><g id="Rabbit"/><g id="Bear"/><g id="Zebra"/><g id="Crab"/><g id="Crocodile"/><g id="Frog"><g id="Body_25_"><g id="Legs_3_"><g><path class="st35" d="M82.4,93.2c0,0,8.2-6.2,11.2-5.4c4.1,1.1,5,8.7,1.7,15.4c0,0,5.8,1.5,5.4,4c-0.4,2.6-4.1,2.3-6.1,2      c-0.7-0.1-1.3,0.2-1.6,0.8c-0.7,1.5-2.4,4-5.2,3.1c-3.8-1.3,0.1-7.4,0.1-7.4l-5.5-4.6V93.2z"/><path class="st2" d="M89,114.8c-0.5,0-1.1-0.1-1.7-0.3c-1.2-0.4-2.1-1.2-2.5-2.4c-0.7-2,0.3-4.6,1.1-6.1l-4.5-3.8      c-0.3-0.3-0.5-0.7-0.5-1.2v-7.9c0-0.5,0.2-0.9,0.6-1.2c2.1-1.6,9.1-6.6,12.5-5.7c1.7,0.4,3,1.7,3.8,3.5c1.5,3.2,1.2,8-0.5,12.4      c2.2,0.8,5.3,2.4,4.8,5.2c-0.2,1-0.7,1.9-1.5,2.5c-1.7,1.2-4.4,1.1-6.3,0.7C93.1,113.3,91.2,114.8,89,114.8z M83.9,100.4l5,4.1      c0.6,0.5,0.7,1.3,0.3,2c-0.8,1.3-1.8,3.6-1.5,4.7c0.1,0.2,0.2,0.4,0.6,0.5c1.3,0.4,2.4-0.3,3.4-2.3c0.6-1.2,1.9-1.9,3.2-1.7      c1.8,0.3,3.4,0.2,4-0.2c0.2-0.1,0.3-0.3,0.3-0.5c0.1-0.5-2-1.8-4.3-2.3c-0.4-0.1-0.8-0.4-1-0.8c-0.2-0.4-0.2-0.9,0-1.3      c2-3.9,2.4-8.6,1.2-11.4c-0.5-1-1.1-1.7-1.9-1.9c-1.3-0.3-5.8,2.1-9.4,4.7V100.4z"/></g><g><path class="st35" d="M46.4,93.2c0,0-8.2-6.2-11.2-5.4c-4.1,1.1-5,8.7-1.7,15.4c0,0-5.8,1.5-5.4,4c0.4,2.6,4.1,2.3,6.1,2      c0.7-0.1,1.3,0.2,1.6,0.8c0.7,1.5,2.4,4,5.2,3.1c3.8-1.3-0.1-7.4-0.1-7.4l5.5-4.6V93.2z"/><path class="st2" d="M39.8,114.8c-2.1,0-4.1-1.4-5.4-4.1c-1.9,0.3-4.6,0.5-6.3-0.8c-0.8-0.6-1.4-1.5-1.5-2.5      c-0.5-2.8,2.7-4.4,4.8-5.2c-1.7-4.3-2-9.1-0.5-12.4c0.8-1.9,2.2-3.1,3.8-3.5c3.5-0.9,10.5,4.1,12.5,5.7c0.4,0.3,0.6,0.7,0.6,1.2      v7.9c0,0.4-0.2,0.9-0.5,1.2l-4.5,3.8c0.8,1.5,1.8,4.1,1.1,6.1c-0.4,1.1-1.2,1.9-2.5,2.4C40.9,114.7,40.3,114.8,39.8,114.8z       M34.4,107.7c1.1,0,2.2,0.6,2.7,1.7c1,2,2.1,2.7,3.4,2.3c0.4-0.1,0.5-0.3,0.6-0.5c0.4-1.1-0.6-3.4-1.5-4.7      c-0.4-0.6-0.3-1.5,0.3-2l5-4.1v-6.5c-3.6-2.6-8-5.1-9.4-4.7c-0.8,0.2-1.4,0.8-1.9,1.9c-1.3,2.8-0.8,7.5,1.2,11.4      c0.2,0.4,0.2,0.9,0,1.3s-0.6,0.7-1,0.8c-2.4,0.6-4.4,1.9-4.3,2.3c0,0.3,0.1,0.4,0.3,0.5c0.6,0.5,2.2,0.5,4,0.2      C34,107.7,34.2,107.7,34.4,107.7z"/></g></g><g id="Body_24_"><ellipse class="st35" cx="64" cy="87.3" rx="23.3" ry="20.9"/><path class="st36" d="M64,103.2c-11.9,0-21.8-8-23.2-18.4c-0.1,0.8-0.2,1.7-0.2,2.5c0,11.5,10.5,20.9,23.3,20.9     s23.3-9.3,23.3-20.9c0-0.8-0.1-1.7-0.2-2.5C85.8,95.2,75.9,103.2,64,103.2z"/><path class="st2" d="M64,109.7c-13.7,0-24.8-10-24.8-22.4S50.3,65,64,65s24.8,10,24.8,22.4S77.7,109.7,64,109.7z M64,68     c-12,0-21.8,8.7-21.8,19.4S52,106.7,64,106.7S85.8,98,85.8,87.3S76,68,64,68z"/></g><g id="Legs_4_"><g><path class="st35" d="M68.7,98.7v12.1c0,0-7.2,3.4-3.8,6.8c1.8,1.8,6.9,0.3,8.6-2.1c0.4-0.5,1.2-0.6,1.6-0.1      c1.6,1.8,4.8,4.4,7.5,1.3c2.8-3.3-3-5.9-3-5.9V98.7"/><path class="st2" d="M67.3,119.9c-1.4,0-2.6-0.4-3.5-1.2c-1.4-1.4-1.5-2.8-1.3-3.7c0.4-2.5,3.1-4.3,4.6-5.1V98.7      c0-0.8,0.7-1.5,1.5-1.5s1.5,0.7,1.5,1.5v12.1c0,0.6-0.3,1.1-0.9,1.4c-1.4,0.7-3.6,2.2-3.8,3.4c0,0.1-0.1,0.5,0.5,1      c0.3,0.3,0.9,0.4,1.7,0.4c1.8-0.1,3.8-1.1,4.6-2.3c0.5-0.6,1.2-1,1.9-1.1c0.8,0,1.5,0.3,2,0.8c1.3,1.4,2.6,2.2,3.6,2.2      c0,0,0,0,0,0c0.6,0,1.1-0.3,1.6-0.9c0.5-0.6,0.4-0.9,0.4-1c-0.2-1-2.1-2.1-2.9-2.5c-0.5-0.2-0.9-0.8-0.9-1.4V98.7      c0-0.8,0.7-1.5,1.5-1.5s1.5,0.7,1.5,1.5v11.2c1.2,0.7,3.3,2.1,3.7,4.1c0.2,0.9,0.2,2.2-1,3.6c-1.4,1.6-2.9,2-3.9,2      c-2.2,0-4.1-1.4-5.5-2.8c-1.4,1.7-4,2.9-6.4,3.1C67.8,119.9,67.5,119.9,67.3,119.9z"/></g><g><path class="st35" d="M49.3,98.7v12.1c0,0-7.2,3.4-3.8,6.8c1.8,1.8,6.9,0.3,8.6-2.1c0.4-0.5,1.2-0.6,1.6-0.1      c1.6,1.8,4.8,4.4,7.5,1.3c2.8-3.3-3-5.9-3-5.9V98.7"/><path class="st2" d="M48,119.9c-1.4,0-2.6-0.4-3.5-1.3c-1.4-1.4-1.5-2.8-1.3-3.7c0.4-2.5,3.1-4.3,4.6-5.1V98.7      c0-0.8,0.7-1.5,1.5-1.5s1.5,0.7,1.5,1.5v12.1c0,0.6-0.3,1.1-0.9,1.4c-1.4,0.7-3.6,2.2-3.8,3.4c0,0.1-0.1,0.5,0.5,1      c0.3,0.3,0.9,0.4,1.7,0.4c1.8-0.1,3.8-1.1,4.6-2.3c0.5-0.6,1.2-1,1.9-1.1c0.8,0,1.5,0.3,2,0.8c1.3,1.4,2.6,2.2,3.6,2.2      c0,0,0,0,0,0c0.6,0,1.1-0.3,1.6-0.9c0.5-0.6,0.4-0.9,0.4-1c-0.2-1-2.1-2.1-2.9-2.5c-0.5-0.2-0.9-0.8-0.9-1.4V98.7      c0-0.8,0.7-1.5,1.5-1.5s1.5,0.7,1.5,1.5v11.2c1.2,0.7,3.3,2.1,3.7,4.1c0.2,0.9,0.2,2.2-1,3.6c-1.4,1.6-2.9,2-3.9,2      c-2.2,0-4.1-1.4-5.5-2.8c-1.4,1.7-4,2.9-6.4,3.1C48.4,119.9,48.2,119.9,48,119.9z"/></g></g></g><g id="Head_33_"><g id="Head_32_"><path class="st35" d="M64,22.1c-22.9,0-41.5,13.9-41.5,33c0,19,12.2,36,41.5,36s41.5-17,41.5-36C105.5,36,86.9,22.1,64,22.1z"/><path class="st37" d="M64,26.1c22.2,0,40.3,13,41.4,31.1c0-0.7,0.1-1.4,0.1-2.2c0-19-18.6-33-41.5-33S22.5,36,22.5,55.1     c0,0.7,0,1.4,0.1,2.2C23.7,39.1,41.8,26.1,64,26.1z"/><path class="st36" d="M103.7,45.1c0.2,1.3,0.3,2.6,0.3,4c0,18.4-11.8,34.7-40,34.7S24,67.5,24,49.1c0-1.4,0.1-2.7,0.3-4     c-1.2,3.1-1.8,6.4-1.8,9.9c0,19,12.2,36,41.5,36s41.5-17,41.5-36C105.5,51.6,104.9,48.2,103.7,45.1z"/><path class="st2" d="M64,92.6c-31.7,0-43-19.4-43-37.5c0-19.3,18.9-34.4,43-34.4s43,15.1,43,34.4C107,73.2,95.7,92.6,64,92.6z      M64,23.6c-22.4,0-40,13.8-40,31.4c0,21.6,15,34.5,40,34.5s40-12.9,40-34.5C104,37.4,86.4,23.6,64,23.6z"/></g><path class="st2" d="M64,57.6c-7.3,0-14.3-3.1-19.2-8.5c-0.6-0.6-0.5-1.6,0.1-2.1c0.6-0.6,1.6-0.5,2.1,0.1    c4.3,4.8,10.5,7.5,17,7.5c6.4,0,12.6-2.7,17-7.5c0.6-0.6,1.5-0.7,2.1-0.1c0.6,0.6,0.7,1.5,0.1,2.1C78.3,54.5,71.3,57.6,64,57.6z" id="Mouth_8_"/><g id="Nostril_4_"><ellipse class="st2" cx="66.2" cy="42.1" rx="1.3" ry="1.9"/><ellipse class="st2" cx="61.8" cy="42.1" rx="1.3" ry="1.9"/></g><g id="Eyes_20_"><g><circle class="st4" cx="86.5" cy="28.1" r="14.6"/><path class="st2" d="M86.5,44.1c-8.9,0-16.1-7.2-16.1-16.1S77.6,12,86.5,12s16.1,7.2,16.1,16.1S95.4,44.1,86.5,44.1z M86.5,15      c-7.2,0-13.1,5.9-13.1,13.1c0,7.2,5.9,13.1,13.1,13.1s13.1-5.9,13.1-13.1C99.6,20.9,93.7,15,86.5,15z"/><circle class="st2" cx="86.5" cy="28.1" r="3"/></g><g><circle class="st4" cx="41.5" cy="28.1" r="14.6"/><path class="st2" d="M41.5,44.1c-8.9,0-16.1-7.2-16.1-16.1S32.6,12,41.5,12s16.1,7.2,16.1,16.1S50.4,44.1,41.5,44.1z M41.5,15      c-7.2,0-13.1,5.9-13.1,13.1c0,7.2,5.9,13.1,13.1,13.1s13.1-5.9,13.1-13.1C54.6,20.9,48.7,15,41.5,15z"/><circle class="st2" cx="41.5" cy="28.1" r="3"/></g></g></g></g><g id="Owl"/><g id="Layer_28"/><g id="Octopus"/><g id="Turtle"/><g id="Squirrel"/><g id="Duck"/><g id="Squid"/><g id="Unicorn"/><g id="Parrot"/><g id="Layer_36"/><g id="Cockroach"/><g id="Gorilla"/><g id="Tiger"/><g id="Goat"/><g id="Whale"/></svg>