<?xml version="1.0" ?><svg style="enable-background:new 0 0 128 128;" version="1.1" viewBox="0 0 128 128" xml:space="preserve" xmlns="http://www.w3.org/2000/svg" xmlns:xlink="http://www.w3.org/1999/xlink"><style type="text/css">
	.st0{fill:#74CBDE;}
	.st1{fill:#B3F4FB;}
	.st2{fill:#301F00;}
	.st3{fill:#2FB0C1;}
	.st4{fill:#F2F2F2;}
	.st5{fill:#CCCCCC;}
	.st6{fill:#FFFFFF;}
	.st7{fill:#629EE1;}
	.st8{fill:#4180D8;}
	.st9{fill:#FF0013;}
	.st10{fill:#FF4D4D;}
	.st11{fill:#C80004;}
	.st12{fill:#FFD81A;}
	.st13{fill:#FFEA55;}
	.st14{fill:#FFB6C6;}
	.st15{fill:#FF97A9;}
	.st16{fill:#FFD0DC;}
	.st17{fill:#FF7287;}
	.st18{fill:#FDAD4C;}
	.st19{fill:#EB9129;}
	.st20{fill:#C13202;}
	.st21{fill:#CA4508;}
	.st22{fill:#FEC769;}
	.st23{fill:#FFEA9A;}
	.st24{fill:#FFDB69;}
	.st25{fill:#999999;}
	.st26{fill:#808080;}
	.st27{fill:#EBEBEB;}
	.st28{opacity:0.8;fill:#B3B3B3;}
	.st29{fill:#BCBCBC;}
	.st30{fill:#A39095;}
	.st31{fill:#B3B3B3;}
	.st32{fill:#EDFFC5;}
	.st33{fill:#F5FFD9;}
	.st34{opacity:0.8;fill:#FCFFF0;}
	.st35{fill:#8CC63F;}
	.st36{fill:#5AA319;}
	.st37{fill:#ACDC57;}
	.st38{fill:#C69452;}
	.st39{fill:#8A4900;}
	.st40{fill:#B17637;}
	.st41{fill:#E1D6BA;}
	.st42{fill:#CCBB92;}
	.st43{fill:#D8AD68;}
	.st44{fill:#253542;}
	.st45{fill:#2B4753;}
	.st46{fill:#FFA227;}
	.st47{fill:#0F171C;}
	.st48{fill:#FFBBBB;}
	.st49{fill:#A9A69C;}
	.st50{fill:#827E74;}
	.st51{fill:#C0BEB4;}
	.st52{fill:#333333;}
	.st53{fill:#FFE581;}
	.st54{fill:#6F4A38;}
	.st55{fill:#FFF5AE;}
	.st56{fill:#FFD252;}
	.st57{fill:#825C4D;}
	.st58{fill:#C97F4E;}
	.st59{fill:#B86538;}
	.st60{fill:#666666;}
	.st61{fill:#4D4D4D;}
	.st62{fill:#D6925E;}
	.st63{fill:#F9C0A7;}
	.st64{fill:#F7AD90;}
	.st65{fill:#D38F5B;}
	.st66{fill:#CD7C4F;}
	.st67{fill:#C1693E;}
	.st68{fill:#A05B38;}
	.st69{fill:#F1D4A5;}
	.st70{fill:#DD9665;}
	.st71{fill:#E7B777;}
	.st72{fill:#4A290A;}
	.st73{fill:#53770C;}
	.st74{fill:#699010;}
	.st75{fill:#884326;}
	.st76{fill:#F6D5A9;}
	.st77{fill:#F1C087;}
	.st78{fill:#FFD4C5;}
	.st79{fill:#FF9797;}
	.st80{fill:#FF8484;}
	.st81{fill:#FFAAAA;}
	.st82{fill:#7C0000;}
	.st83{fill:#A6B855;}
	.st84{fill:#C3D272;}
	.st85{fill:#7D942D;}
	.st86{fill:#68782F;}
	.st87{fill:#4F5E20;}
	.st88{fill:#81923E;}
	.st89{fill:#EE6B2B;}
	.st90{fill:#D2501E;}
	.st91{fill:#FF6868;}
	.st92{fill:#F85E28;}
	.st93{fill:#D5DAE0;}
	.st94{fill:#BCC4CD;}
	.st95{fill:#FDB62E;}
	.st96{fill:#472D07;}
	.st97{fill:#FC9C1B;}
	.st98{fill:#2D1A03;}
	.st99{fill:#FFFFD5;}
	.st100{fill:#FED041;}
	.st101{fill:#61400B;}
	.st102{fill:#FFFF95;}
	.st103{fill:#D7D3C9;}
	.st104{fill:#E8E3DA;}
	.st105{fill:#DDD6CA;}
	.st106{fill:#9E9992;}
	.st107{fill:#847E77;}
	.st108{fill:#F0EDE7;}
	.st109{fill:#88D3ED;}
	.st110{fill:#68C1E4;}
	.st111{fill:#A8E5F6;}
	.st112{fill:#E6E6E6;}
	.st113{fill:#D6D6D6;}
</style><g id="Fish"/><g id="Chicken"/><g id="Pig"/><g id="Dog"/><g id="Cat"/><g id="Bird"/><g id="Koala"/><g id="Mice"/><g id="Snake"/><g id="Lion"/><g id="Caterpillar"/><g id="Dolphin"/><g id="Penguin"/><g id="Deer"/><g id="Elephant"/><g id="Panda"/><g id="Giraffe"/><g id="Cow"/><g id="Monkey"/><g id="Rabbit"/><g id="Bear"/><g id="Zebra"/><g id="Crab"/><g id="Crocodile"/><g id="Frog"/><g id="Owl"><g id="Feet_1_"><path class="st2" d="M61,117.3l-4.2-5.1c0.4-2.3,0.7-4.4,0.7-4.8c0.1-0.8-0.5-1.6-1.3-1.7c-0.8-0.1-1.6,0.5-1.7,1.3    c-0.1,1.1-0.3,2.5-0.6,3.9l-6.7,3.7c-0.7,0.4-1,1.3-0.6,2c0.3,0.5,0.8,0.8,1.3,0.8c0.2,0,0.5-0.1,0.7-0.2l4.4-2.4    c-0.4,1.5-0.8,2.8-1.3,3.5c-0.5,0.7-0.3,1.6,0.3,2.1c0.3,0.2,0.6,0.3,0.9,0.3c0.5,0,0.9-0.2,1.2-0.6c0.7-0.9,1.2-2.5,1.7-4.2    l2.7,3.3c0.3,0.4,0.7,0.5,1.2,0.5c0.3,0,0.7-0.1,1-0.3C61.4,118.9,61.5,117.9,61,117.3z"/><path class="st2" d="M82,116.9l-4.6-4.7c0.3-2.4,0.3-4.4,0.4-4.8c0-0.8-0.6-1.5-1.4-1.6c-0.8,0-1.5,0.6-1.6,1.4    c0,1.1-0.1,2.5-0.3,4l-6.3,4.2c-0.7,0.5-0.9,1.4-0.4,2.1c0.3,0.4,0.8,0.7,1.3,0.7c0.3,0,0.6-0.1,0.8-0.3l4.2-2.8    c-0.3,1.6-0.6,2.9-1,3.6c-0.4,0.7-0.2,1.6,0.5,2.1c0.2,0.1,0.5,0.2,0.8,0.2c0.5,0,1-0.3,1.3-0.7c0.6-1,1-2.6,1.4-4.3l3,3.1    c0.3,0.3,0.7,0.5,1.1,0.5c0.4,0,0.8-0.1,1-0.4C82.6,118.4,82.6,117.5,82,116.9z"/></g><g><path class="st66" d="M113.7,103c5.5,3.2-38.3,7-51.8,5.6C32.7,105.5,24,92.7,24,64c0,0-0.2-21.4,1.3-28.3    c2.7-12.4,12.5-23,33.8-23C87.3,12.7,99,30.3,99,55.2c0,0-1.8,23.5,0,31C100.4,91.8,108.2,99.8,113.7,103z"/><path class="st67" d="M63.8,105.6C34.7,102.5,26,89.7,26,61c0,0-0.2-21.4,1.3-28.3c0.6-2.9,1.7-5.8,3.2-8.4    c-2.6,3.4-4.3,7.3-5.2,11.4C23.8,42.6,24,64,24,64c0,28.7,8.7,41.5,37.8,44.6c12.8,1.3,52.6-2,52.3-5.1    C106,105.7,74.8,106.7,63.8,105.6z"/><path class="st70" d="M113.7,103c-5.5-3.2-13.3-11.2-14.7-16.8c-1.8-7.5,0-31,0-31c0-24.8-11.7-42.5-39.8-42.5    c-21.3,0-31.2,10.6-33.8,23C23.8,42.6,24,63.8,24,64c0-6,0.2-17.8,1.2-22.5c2.5-11.4,11.5-21.1,31.2-21.1    c25.9,0,36.7,16.2,36.7,39.1c0,0-1.7,21.6,0,28.5c1.2,5.2,8.4,12.6,13.5,15.5c4.2,2.4-22.3,5.2-38.8,5.4    C85,109.1,118.5,105.8,113.7,103z"/><path class="st2" d="M69.5,110.4c-3,0-5.7-0.1-7.8-0.3c-28.6-3-39.2-15.5-39.2-46.1c0-0.9-0.1-21.6,1.4-28.6    c1.9-9,9.1-24.1,35.3-24.1c26.6,0,41.3,15.6,41.3,44c0,0,0,0.1,0,0.1c0,0.2-1.8,23.3,0,30.5c1.2,5,8.6,12.8,14,15.9l0,0    c1.2,0.7,1.4,1.7,1.1,2.4c-0.3,1-1,3.1-23.1,5.1C85.2,109.9,76.4,110.4,69.5,110.4z M59.2,14.2c-24.1,0-30.6,13.6-32.4,21.8    c-1.4,6.7-1.3,27.8-1.3,28c0,29.4,9.2,40.2,36.5,43.1c11.7,1.2,42.3-1.5,49.6-3.7c-5.3-3.6-12.6-11-14-16.9    c-1.8-7.6-0.2-29.8,0-31.4C97.5,36.4,90.8,14.2,59.2,14.2z M112.9,104.3C112.9,104.3,112.9,104.3,112.9,104.3l0.7-1.3L112.9,104.3    z"/><path class="st2" d="M66.1,83.4c-0.8,0-1.5,0.7-1.5,1.5c0,2.2-1.8,4-4,4s-4-1.8-4-4c0-0.8-0.7-1.5-1.5-1.5s-1.5,0.7-1.5,1.5    c0,2.2-1.8,4-4,4s-4-1.8-4-4c0-0.8-0.7-1.5-1.5-1.5s-1.5,0.7-1.5,1.5c0,2.2-1.8,4-4,4s-4-1.8-4-4c0-0.8-0.7-1.5-1.5-1.5    s-1.5,0.7-1.5,1.5c0,3.9,3.1,7,7,7c2.2,0,4.2-1.1,5.5-2.7c1.3,1.6,3.3,2.7,5.5,2.7s4.2-1.1,5.5-2.7c1.3,1.6,3.3,2.7,5.5,2.7    c3.9,0,7-3.1,7-7C67.6,84.1,66.9,83.4,66.1,83.4z"/><path class="st2" d="M60.6,94.2c-0.8,0-1.5,0.7-1.5,1.5c0,2.2-1.8,4-4,4s-4-1.8-4-4c0-0.8-0.7-1.5-1.5-1.5s-1.5,0.7-1.5,1.5    c0,2.2-1.8,4-4,4s-4-1.8-4-4c0-0.8-0.7-1.5-1.5-1.5s-1.5,0.7-1.5,1.5c0,3.9,3.1,7,7,7c2.2,0,4.2-1.1,5.5-2.7    c1.3,1.6,3.3,2.7,5.5,2.7c3.9,0,7-3.1,7-7C62.1,94.9,61.4,94.2,60.6,94.2z"/></g><g><path class="st69" d="M60.4,41c-7.2,0-11.6,2.7-13.9,6.8c-2.3-4.1-6.7-6.8-13.9-6.8c-11.8,0-16,7.2-16,16s3.6,16,16,16    c7.4,0,11.7-2.6,13.9-6.5c2.2,4,6.5,6.5,13.9,6.5c12.4,0,16-7.2,16-16S72.3,41,60.4,41z"/><path class="st71" d="M61.4,69c-7.4,0-11.7-2.6-13.9-6.5c-2.2,4-6.5,6.5-13.9,6.5c-12.4,0-16-7.2-16-16c0-1.1,0.1-2.2,0.2-3.3    c-0.8,2.2-1.2,4.7-1.2,7.3c0,8.9,3.6,16,16,16c7.4,0,11.7-2.6,13.9-6.5c2.2,4,6.5,6.5,13.9,6.5c10.6,0,14.8-5.2,15.8-12.3    C74.3,65.7,69.9,69,61.4,69z"/><path class="st2" d="M60.4,74.5c-6.3,0-11-1.8-13.9-5.4c-2.9,3.6-7.6,5.4-13.9,5.4C21.1,74.5,15,68.5,15,57    c0-11.3,6.2-17.5,17.5-17.5c7.4,0,11.6,2.8,13.9,5.6c2.3-2.9,6.5-5.6,13.9-5.6C71.7,39.5,78,45.7,78,57    C78,68.5,71.9,74.5,60.4,74.5z M46.5,65L46.5,65c0.5,0,1,0.3,1.3,0.8c2.2,3.9,6.3,5.8,12.6,5.8C70.3,71.5,75,66.9,75,57    c0-6.6-2.5-14.5-14.5-14.5c-6.1,0-10.4,2-12.6,6c-0.3,0.5-0.8,0.8-1.3,0.8c-0.5,0-1-0.3-1.3-0.8c-2.3-4-6.5-6-12.6-6    C20.5,42.5,18,50.4,18,57c0,9.9,4.6,14.5,14.5,14.5c6.3,0,10.4-1.9,12.6-5.8C45.5,65.3,46,65,46.5,65z"/></g><g id="Eyes_21_"><circle class="st2" cx="59.2" cy="60" r="3"/><circle class="st2" cx="27.3" cy="60" r="3"/></g><g><path class="st68" d="M60.4,33.3C53,32.4,48.8,35.9,46.5,40c-2.3-4.1-6.5-7.6-13.9-6.7c-7.9,1-18.4,4.1-21.7,1.5    C14.1,48.4,22.3,41,32.6,41c5.8,0,9.7,1.7,12.3,4.5l1.7,2.3l1.7-2.3c2.5-2.8,6.5-4.5,12.3-4.5c10.3,0,18.5,7.4,21.7-6.1    C78.8,37.4,68.3,34.3,60.4,33.3z"/><path class="st75" d="M60.4,38c-5.8,0-9.7,1.7-12.3,4.5l-1.7,2.3l-1.7-2.3c-2.5-2.8-6.5-4.5-12.3-4.5c-9.2,0-16.7,5.9-20.6-2.6    c-0.5-0.1-0.9-0.3-1.2-0.6C14.1,48.4,22.3,41,32.6,41c5.8,0,9.7,1.7,12.3,4.5l1.7,2.3l1.7-2.3c2.5-2.8,6.5-4.5,12.3-4.5    c10.3,0,18.5,7.4,21.7-6.1c-0.3,0.2-0.7,0.4-1.2,0.6C77.1,43.9,69.6,38,60.4,38z"/><path class="st2" d="M46.5,49.3c-0.5,0-0.9-0.2-1.2-0.6l-1.6-2.3c-2.4-2.6-6.2-3.9-11.1-3.9c-2.8,0-5.3,0.6-7.9,1.1    c-6.2,1.3-12.6,2.7-15.4-8.4c-0.1-0.6,0.1-1.3,0.6-1.6c0.5-0.3,1.2-0.3,1.7,0.1c1.9,1.4,8.4,0.3,13.6-0.7c2.4-0.4,4.8-0.9,7-1.1    c7.2-0.9,11.6,2.1,14.1,5.5c2.5-3.3,6.9-6.4,14.1-5.5h0c2.2,0.3,4.7,0.7,7,1.1c5.2,0.9,11.7,2.1,13.6,0.7c0.5-0.4,1.2-0.4,1.7-0.1    c0.5,0.3,0.8,1,0.6,1.6c-2.7,11.1-9.1,9.7-15.4,8.4c-2.5-0.5-5.1-1.1-7.9-1.1c-4.9,0-8.7,1.3-11.1,3.9l-1.6,2.3    C47.4,49,47,49.3,46.5,49.3z M32.6,39.5c5.8,0,10.3,1.7,13.4,5c0,0,0.1,0.1,0.1,0.1l0.5,0.6l0.5-0.6c0,0,0.1-0.1,0.1-0.1    c3-3.3,7.5-5,13.4-5c3.1,0,6,0.6,8.5,1.2c5.5,1.2,8.9,1.9,11-3.4c-3.2,0.4-7.8-0.4-12.8-1.3c-2.3-0.4-4.7-0.9-6.9-1.1h0    c-5.6-0.7-9.8,1.3-12.4,5.9c-0.3,0.5-0.8,0.8-1.3,0.8s-1-0.3-1.3-0.8c-2.6-4.6-6.8-6.6-12.4-5.9c-2.1,0.3-4.5,0.7-6.9,1.1    c-5,0.9-9.5,1.7-12.8,1.3c2.1,5.4,5.5,4.6,11,3.4C26.6,40.1,29.5,39.5,32.6,39.5z"/></g><g id="Wing_2_"><path class="st68" d="M72.7,87.3c0,0-2.6-8.4,3-12.1c3.4-2.2,9.3-1.8,12.1,2.6c2.8,4.3,6.5,12.4,6.2,17c-0.3,4.7-3.6,4.8-6.1,2.1    c0,0,0.1,8.4-5.3,4C74,94,72.7,87.3,72.7,87.3z"/><path class="st75" d="M85.8,98.5C77.4,91.6,76,85.1,76,85.1s-2.1-6.8,1.7-10.8c-0.7,0.2-1.4,0.5-2,0.9c-5.6,3.7-3,12.1-3,12.1    S74,94,82.6,101c3.3,2.7,4.5,0.6,5-1.4C87.1,99.4,86.5,99.1,85.8,98.5z"/><path class="st2" d="M85.3,103.8c-1.1,0-2.3-0.5-3.7-1.6c-8.5-6.9-10.2-13.6-10.4-14.5c-0.3-0.9-2.6-9.6,3.7-13.7    c2.1-1.4,5-1.9,7.8-1.3c2.7,0.6,5,2.1,6.4,4.3c2.7,4.1,6.8,12.6,6.4,17.9c-0.3,3.6-2,4.7-3,5.1c-1,0.4-2.2,0.3-3.4-0.3    c-0.3,1.4-1,3-2.4,3.7C86.3,103.7,85.8,103.8,85.3,103.8z M74.1,87c0,0.1,1.4,6.3,9.4,12.8c1.1,0.9,1.7,1,1.9,0.9    c0.5-0.3,1-2.1,1-3.7c0-0.6,0.4-1.2,0.9-1.4c0.6-0.2,1.2-0.1,1.7,0.4c1,1.1,2,1.4,2.5,1.2c0.5-0.2,0.9-1.1,1-2.5    c0.3-3.9-2.9-11.4-5.9-16.1c-1-1.6-2.6-2.6-4.5-3c-1.9-0.4-4-0.1-5.5,0.9c-4.6,3-2.5,10.3-2.4,10.4C74.1,86.9,74.1,87,74.1,87z"/></g><g id="Beak_2_"><path class="st12" d="M38.1,68.3c2.1-2.9,15.3-3.1,17,0c1.7,3.1-4.2,11.7-8.5,11.7S35.9,71.3,38.1,68.3z"/><path class="st13" d="M54.7,72.3c0.7-1.6,0.9-3.1,0.3-4c-1.7-3.1-14.9-2.9-17,0c-0.7,0.9-0.5,2.5,0.3,4.2    C40.9,70,52.2,69.8,54.7,72.3z"/><path class="st2" d="M46.6,81.5c-3.5,0-7.3-3.9-9.2-7.6c-1.4-2.7-1.6-5-0.5-6.5l0,0c2-2.7,8.7-3.1,12-2.8c2.8,0.2,6.4,0.9,7.5,3    c1.3,2.4-0.5,6-1.3,7.4C53.1,78.2,49.8,81.5,46.6,81.5C46.6,81.5,46.6,81.5,46.6,81.5z M46.9,67.5c-4,0-7.1,0.9-7.6,1.7l0,0    C39,69.5,39,70.7,40,72.5c1.6,3.1,4.7,6,6.6,6c0,0,0,0,0,0c1.6,0,4.2-2.3,5.9-5.1c1.4-2.3,1.5-3.9,1.2-4.4    c-0.2-0.4-1.7-1.2-5.1-1.4C48,67.6,47.5,67.5,46.9,67.5z"/></g></g><g id="Layer_28"/><g id="Octopus"/><g id="Turtle"/><g id="Squirrel"/><g id="Duck"/><g id="Squid"/><g id="Unicorn"/><g id="Parrot"/><g id="Layer_36"/><g id="Cockroach"/><g id="Gorilla"/><g id="Tiger"/><g id="Goat"/><g id="Whale"/></svg>