<?xml version="1.0" ?><svg style="enable-background:new 0 0 128 128;" version="1.1" viewBox="0 0 128 128" xml:space="preserve" xmlns="http://www.w3.org/2000/svg" xmlns:xlink="http://www.w3.org/1999/xlink"><style type="text/css">
	.st0{fill:#74CBDE;}
	.st1{fill:#B3F4FB;}
	.st2{fill:#301F00;}
	.st3{fill:#2FB0C1;}
	.st4{fill:#F2F2F2;}
	.st5{fill:#CCCCCC;}
	.st6{fill:#FFFFFF;}
	.st7{fill:#629EE1;}
	.st8{fill:#4180D8;}
	.st9{fill:#FF0013;}
	.st10{fill:#FF4D4D;}
	.st11{fill:#C80004;}
	.st12{fill:#FFD81A;}
	.st13{fill:#FFEA55;}
	.st14{fill:#FFB6C6;}
	.st15{fill:#FF97A9;}
	.st16{fill:#FFD0DC;}
	.st17{fill:#FF7287;}
	.st18{fill:#FDAD4C;}
	.st19{fill:#EB9129;}
	.st20{fill:#C13202;}
	.st21{fill:#CA4508;}
	.st22{fill:#FEC769;}
	.st23{fill:#FFEA9A;}
	.st24{fill:#FFDB69;}
	.st25{fill:#999999;}
	.st26{fill:#808080;}
	.st27{fill:#EBEBEB;}
	.st28{opacity:0.8;fill:#B3B3B3;}
	.st29{fill:#BCBCBC;}
	.st30{fill:#A39095;}
	.st31{fill:#B3B3B3;}
	.st32{fill:#EDFFC5;}
	.st33{fill:#F5FFD9;}
	.st34{opacity:0.8;fill:#FCFFF0;}
	.st35{fill:#8CC63F;}
	.st36{fill:#5AA319;}
	.st37{fill:#ACDC57;}
	.st38{fill:#C69452;}
	.st39{fill:#8A4900;}
	.st40{fill:#B17637;}
	.st41{fill:#E1D6BA;}
	.st42{fill:#CCBB92;}
	.st43{fill:#D8AD68;}
	.st44{fill:#253542;}
	.st45{fill:#2B4753;}
	.st46{fill:#FFA227;}
	.st47{fill:#0F171C;}
	.st48{fill:#FFBBBB;}
	.st49{fill:#A9A69C;}
	.st50{fill:#827E74;}
	.st51{fill:#C0BEB4;}
	.st52{fill:#333333;}
	.st53{fill:#FFE581;}
	.st54{fill:#6F4A38;}
	.st55{fill:#FFF5AE;}
	.st56{fill:#FFD252;}
	.st57{fill:#825C4D;}
	.st58{fill:#C97F4E;}
	.st59{fill:#B86538;}
	.st60{fill:#666666;}
	.st61{fill:#4D4D4D;}
	.st62{fill:#D6925E;}
	.st63{fill:#F9C0A7;}
	.st64{fill:#F7AD90;}
	.st65{fill:#D38F5B;}
	.st66{fill:#CD7C4F;}
	.st67{fill:#C1693E;}
	.st68{fill:#A05B38;}
	.st69{fill:#F1D4A5;}
	.st70{fill:#DD9665;}
	.st71{fill:#E7B777;}
	.st72{fill:#4A290A;}
	.st73{fill:#53770C;}
	.st74{fill:#699010;}
	.st75{fill:#884326;}
	.st76{fill:#F6D5A9;}
	.st77{fill:#F1C087;}
	.st78{fill:#FFD4C5;}
	.st79{fill:#FF9797;}
	.st80{fill:#FF8484;}
	.st81{fill:#FFAAAA;}
	.st82{fill:#7C0000;}
	.st83{fill:#A6B855;}
	.st84{fill:#C3D272;}
	.st85{fill:#7D942D;}
	.st86{fill:#68782F;}
	.st87{fill:#4F5E20;}
	.st88{fill:#81923E;}
	.st89{fill:#EE6B2B;}
	.st90{fill:#D2501E;}
	.st91{fill:#FF6868;}
	.st92{fill:#F85E28;}
	.st93{fill:#D5DAE0;}
	.st94{fill:#BCC4CD;}
	.st95{fill:#FDB62E;}
	.st96{fill:#472D07;}
	.st97{fill:#FC9C1B;}
	.st98{fill:#2D1A03;}
	.st99{fill:#FFFFD5;}
	.st100{fill:#FED041;}
	.st101{fill:#61400B;}
	.st102{fill:#FFFF95;}
	.st103{fill:#D7D3C9;}
	.st104{fill:#E8E3DA;}
	.st105{fill:#DDD6CA;}
	.st106{fill:#9E9992;}
	.st107{fill:#847E77;}
	.st108{fill:#F0EDE7;}
	.st109{fill:#88D3ED;}
	.st110{fill:#68C1E4;}
	.st111{fill:#A8E5F6;}
	.st112{fill:#E6E6E6;}
	.st113{fill:#D6D6D6;}
</style><g id="Fish"/><g id="Chicken"/><g id="Pig"/><g id="Dog"/><g id="Cat"/><g id="Bird"/><g id="Koala"/><g id="Mice"/><g id="Snake"/><g id="Lion"/><g id="Caterpillar"><g id="Abdomen"><g><ellipse class="st12" cx="98.1" cy="93.9" rx="3.7" ry="5.1" transform="matrix(0.7791 -0.6269 0.6269 0.7791 -37.2009 82.2334)"/><path class="st2" d="M99.4,100c-1.9,0-3.9-1-5.3-2.8c-2.3-2.9-2.3-6.6-0.1-8.4c1.1-0.9,2.7-1.2,4.3-0.8c1.5,0.4,2.8,1.3,3.9,2.6     c2.3,2.9,2.3,6.6,0.1,8.4C101.4,99.7,100.4,100,99.4,100z M96.8,90.8c-0.3,0-0.7,0.1-1,0.3c-0.8,0.7-0.8,2.6,0.5,4.2     c1.3,1.6,3.2,2.1,4,1.4c0.8-0.7,0.8-2.6-0.5-4.2h0c-0.6-0.8-1.5-1.4-2.3-1.6C97.3,90.8,97.1,90.8,96.8,90.8z"/></g><g><ellipse class="st12" cx="107.6" cy="90" rx="3.3" ry="4.6" transform="matrix(0.7791 -0.6269 0.6269 0.7791 -32.6688 87.3578)"/><path class="st2" d="M108.8,95.7c-1.7,0-3.5-0.9-4.9-2.6c-2.1-2.6-2.1-6.1,0-7.8c1.1-0.9,2.5-1.1,4-0.7c1.3,0.4,2.6,1.2,3.6,2.4     l0,0c1,1.2,1.5,2.6,1.6,4c0.1,1.5-0.5,2.9-1.6,3.8C110.7,95.4,109.7,95.7,108.8,95.7z M106.5,87.4c-0.3,0-0.5,0.1-0.8,0.2     c-0.7,0.5-0.6,2.1,0.5,3.5s2.7,1.8,3.4,1.2c0.4-0.3,0.5-1,0.4-1.3c0-0.7-0.4-1.6-0.9-2.3h0c-0.6-0.7-1.3-1.2-2-1.4     C106.9,87.4,106.7,87.4,106.5,87.4z"/></g><g><path class="st35" d="M117.5,80.6c0,6.1-4,8.1-9,8.1s-9-2-9-8.1c0-4.6,4-8.5,9-8.5S117.5,76.1,117.5,80.6z"/><path class="st37" d="M103.5,85c0-4.6,4-8.5,9-8.5c1.6,0,3,0.4,4.3,1.1c-1.3-3.2-4.6-5.5-8.4-5.5c-5,0-9,3.9-9,8.5     c0,4.1,1.8,6.3,4.4,7.4C103.7,87.2,103.5,86.2,103.5,85z"/><path class="st2" d="M108.5,90.3c-6.8,0-10.5-3.4-10.5-9.6c0-5.5,4.7-10,10.5-10s10.5,4.5,10.5,10     C119,86.8,115.1,90.3,108.5,90.3z M108.5,73.7c-4.1,0-7.5,3.2-7.5,7c0,2.8,0.8,6.6,7.5,6.6c5,0,7.5-2.2,7.5-6.6     C116,76.9,112.5,73.7,108.5,73.7z"/></g><g><path class="st35" d="M110.5,82.6c0,7.9-5.2,10.6-11.7,10.6c-6.5,0-11.7-2.6-11.7-10.6c0-6,5.2-11,11.7-11     C105.3,71.6,110.5,76.6,110.5,82.6z"/><path class="st37" d="M91.5,88.6c0-6,5.2-11,11.7-11c2.6,0,5,0.8,6.9,2.2c-1.3-4.6-5.9-8.2-11.3-8.2c-6.5,0-11.7,5.1-11.7,11     c0,4.7,1.8,7.6,4.7,9.1C91.6,90.7,91.5,89.7,91.5,88.6z"/><path class="st2" d="M98.8,94.7c-8.5,0-13.2-4.3-13.2-12.1c0-6.9,5.9-12.5,13.2-12.5S112,75.7,112,82.6     C112,90.4,107.3,94.7,98.8,94.7z M98.8,73.1c-5.5,0-10.2,4.4-10.2,9.5c0,6.1,3.3,9.1,10.2,9.1s10.2-3,10.2-9.1     C109,77.4,104.3,73.1,98.8,73.1z"/></g><g><path class="st35" d="M102.9,82.9c0,10-6.6,13.3-14.7,13.3s-14.7-3.2-14.7-13.3c0-7.5,6.6-13.9,14.7-13.9S102.9,75.4,102.9,82.9z     "/><path class="st37" d="M75.1,90c0-7.5,6.6-13.9,14.7-13.9c5.7,0,10.6,3.1,13,7.5c0-0.3,0-0.5,0-0.8c0-7.5-6.6-13.9-14.7-13.9     c-8.1,0-14.7,6.4-14.7,13.9c0,3,0.6,5.4,1.6,7.3C75.1,90.1,75.1,90.1,75.1,90z"/><path class="st2" d="M88.2,97.7C77.7,97.7,72,92.4,72,82.9c0-8.5,7.3-15.4,16.2-15.4s16.2,6.9,16.2,15.4     C104.4,92.4,98.6,97.7,88.2,97.7z M88.2,70.5C81,70.5,75,76.2,75,82.9c0,7.9,4.3,11.8,13.2,11.8c8.7,0,13.2-4,13.2-11.8     C101.4,76.2,95.3,70.5,88.2,70.5z"/></g><g><ellipse class="st12" cx="53.9" cy="100.2" rx="4.9" ry="6.7" transform="matrix(0.9179 0.3969 -0.3969 0.9179 44.1923 -13.1573)"/><path class="st2" d="M52.7,108.1c-0.7,0-1.4-0.1-2-0.4c-1.6-0.7-2.8-2.2-3.3-4.2c-0.4-1.8-0.2-3.9,0.6-5.8     c0.8-1.9,2.2-3.5,3.8-4.5c1.7-1,3.7-1.2,5.3-0.5s2.8,2.2,3.3,4.2c0.4,1.8,0.2,3.9-0.6,5.8h0C58.3,106,55.4,108.1,52.7,108.1z      M55.1,95.2c-0.7,0-1.3,0.3-1.7,0.5c-1.1,0.6-2,1.7-2.6,3.1c-0.6,1.3-0.7,2.8-0.5,4c0.1,0.6,0.5,1.7,1.5,2.1     c1.7,0.7,4.1-0.8,5.2-3.4c0.6-1.3,0.7-2.8,0.5-4c-0.1-0.6-0.5-1.7-1.5-2.1C55.6,95.3,55.3,95.2,55.1,95.2z"/></g><g><ellipse class="st12" cx="87.5" cy="96.9" rx="4.5" ry="6.2" transform="matrix(0.7791 -0.6269 0.6269 0.7791 -41.4375 76.2871)"/><path class="st2" d="M89.1,104c-0.5,0-1.1-0.1-1.7-0.2c-1.7-0.5-3.3-1.5-4.5-3.1c-1.2-1.5-1.9-3.3-2-5.1     c-0.1-1.9,0.6-3.6,1.9-4.6c1.3-1,3.1-1.4,4.9-0.9c1.7,0.5,3.3,1.5,4.5,3.1c2.7,3.3,2.7,7.6,0.1,9.7C91.4,103.6,90.3,104,89.1,104     z M86,92.9c-0.5,0-1,0.1-1.4,0.4c-0.8,0.6-0.8,1.6-0.8,2.2c0,1.1,0.5,2.3,1.4,3.3c0.8,1,1.9,1.8,3,2.1c0.5,0.1,1.5,0.3,2.3-0.3     c1.3-1,1-3.6-0.6-5.5h0c-0.8-1-1.9-1.8-3-2.1C86.7,92.9,86.3,92.9,86,92.9z"/></g><g><path class="st35" d="M94.1,85.5c0,11.8-7.7,15.7-17.3,15.7s-17.3-3.8-17.3-15.7c0-8.8,7.7-16.3,17.3-16.3S94.1,76.7,94.1,85.5z"/><path class="st37" d="M62.5,92.5c0-8.8,7.7-16.3,17.3-16.3c5.8,0,11,2.8,14.1,7c-1.2-7.8-8.4-14-17.1-14     c-9.6,0-17.3,7.5-17.3,16.3c0,4.7,1.2,8.1,3.3,10.5C62.6,94.9,62.5,93.8,62.5,92.5z"/><path class="st2" d="M76.8,102.7c-12.3,0-18.8-5.9-18.8-17.2c0-9.8,8.4-17.8,18.8-17.8s18.8,8,18.8,17.8     C95.6,96.6,88.9,102.7,76.8,102.7z M76.8,70.7c-8.6,0-15.8,6.8-15.8,14.8c0,9.5,5.2,14.2,15.8,14.2c10.5,0,15.8-4.8,15.8-14.2     C92.6,77.5,85.4,70.7,76.8,70.7z"/></g><g><ellipse class="st12" cx="68.2" cy="100.2" rx="4.9" ry="6.7" transform="matrix(0.9179 0.3969 -0.3969 0.9179 45.3671 -18.8339)"/><path class="st2" d="M67,108.1c-0.7,0-1.4-0.1-2-0.4c-3.2-1.4-4.4-5.9-2.6-10.1c0.8-1.9,2.2-3.5,3.8-4.5c1.7-1,3.7-1.2,5.3-0.5     s2.8,2.2,3.3,4.2c0.4,1.8,0.2,3.9-0.6,5.8h0C72.6,106,69.7,108.1,67,108.1z M69.4,95.2c-0.7,0-1.3,0.3-1.7,0.5     c-1.1,0.6-2,1.7-2.6,3.1c-1.1,2.6-0.6,5.4,1.1,6.1c1.7,0.7,4.1-0.8,5.2-3.4l0,0c0.6-1.3,0.7-2.8,0.5-4c-0.1-0.6-0.5-1.7-1.5-2.1     C69.9,95.3,69.6,95.2,69.4,95.2z"/></g><g><ellipse class="st12" cx="75.6" cy="99.8" rx="5.1" ry="7" transform="matrix(0.7791 -0.6269 0.6269 0.7791 -45.8546 69.4245)"/><path class="st2" d="M77.3,107.6c-0.6,0-1.2-0.1-1.8-0.2c-1.9-0.5-3.7-1.7-5-3.4c-1.4-1.7-2.2-3.7-2.3-5.7     c-0.1-2.1,0.7-3.9,2.1-5.1c1.4-1.1,3.4-1.5,5.4-1c1.9,0.5,3.7,1.7,5,3.4h0c2.9,3.6,3,8.5,0.2,10.7     C79.9,107.2,78.7,107.6,77.3,107.6z M73.8,95c-0.5,0-1.2,0.1-1.7,0.5c-0.9,0.7-1,2-1,2.6c0.1,1.3,0.6,2.7,1.6,3.9     c1,1.2,2.2,2.1,3.5,2.4c0.6,0.2,1.8,0.3,2.8-0.4c1.5-1.2,1.2-4.2-0.6-6.5c-1-1.2-2.2-2.1-3.5-2.4C74.6,95.1,74.3,95,73.8,95z"/></g><g><path class="st35" d="M82.3,86.5c0,12.5-8.2,16.7-18.4,16.7s-18.4-4-18.4-16.7c0-9.4,8.2-17.3,18.4-17.3S82.3,77.1,82.3,86.5z"/><path class="st36" d="M75.5,78c0-1.9-0.3-3.8-0.9-5.5c-3-2.1-6.7-3.3-10.7-3.3c-10.2,0-18.4,8-18.4,17.3c0,3.5,0.7,6.3,1.8,8.6     c2.5,0.7,5.3,1,8.2,1C66.6,96.2,75.5,91.6,75.5,78z"/><path class="st2" d="M63.9,104.7c-13,0-19.9-6.3-19.9-18.2c0-10.4,8.9-18.8,19.9-18.8s19.9,8.5,19.9,18.8     C83.8,98.2,76.7,104.7,63.9,104.7z M63.9,70.7c-9.2,0-16.9,7.3-16.9,15.8c0,10.2,5.5,15.2,16.9,15.2c11.2,0,16.9-5.1,16.9-15.2     C80.8,77.9,73,70.7,63.9,70.7z"/></g><g><ellipse class="st12" cx="38" cy="89" rx="5.5" ry="7.5" transform="matrix(0.9179 0.3969 -0.3969 0.9179 38.4258 -7.7705)"/><path class="st2" d="M36.6,97.7c-0.8,0-1.5-0.1-2.2-0.5c-3.5-1.5-4.8-6.5-2.9-11c0.9-2.1,2.4-3.9,4.2-4.9c1.9-1.1,4-1.3,5.8-0.6     c1.8,0.8,3.1,2.4,3.6,4.6c0.5,2,0.2,4.3-0.7,6.4C42.8,95.4,39.7,97.7,36.6,97.7z M39.3,83.2c-0.6,0-1.3,0.2-2,0.6     c-1.2,0.7-2.3,2-3,3.5c-1.3,3-0.7,6.2,1.3,7.1c2,0.9,4.8-0.9,6.1-3.9c0.7-1.5,0.9-3.2,0.5-4.6c-0.3-1.2-0.9-2.1-1.8-2.5     C40,83.3,39.7,83.2,39.3,83.2z"/></g><g><ellipse class="st12" cx="66.5" cy="88.9" rx="5.5" ry="7.5" transform="matrix(0.7791 -0.6269 0.6269 0.7791 -41.0729 61.3209)"/><path class="st2" d="M68.4,97.2c-0.6,0-1.3-0.1-2-0.3c-2-0.5-3.9-1.8-5.4-3.6c-3.1-3.9-3.2-9-0.2-11.4c1.5-1.2,3.6-1.6,5.7-1     c2,0.5,3.9,1.8,5.4,3.6c1.5,1.8,2.3,3.9,2.4,6c0.1,2.2-0.7,4.2-2.2,5.4C71.1,96.8,69.8,97.2,68.4,97.2z M64.6,83.7     c-0.7,0-1.4,0.2-1.9,0.6c-1.7,1.4-1.4,4.6,0.6,7.2c1.1,1.3,2.4,2.2,3.8,2.6c1.2,0.3,2.3,0.2,3.1-0.4c0.8-0.6,1.2-1.6,1.1-2.9     c-0.1-1.4-0.7-3-1.7-4.3h0c-1.1-1.3-2.4-2.2-3.8-2.6C65.4,83.7,65,83.7,64.6,83.7z"/></g><g><path class="st35" d="M72.5,74c0,13.6-9,18.1-20,18.1s-20-4.4-20-18.1c0-10.2,9-18.9,20-18.9S72.5,63.8,72.5,74z"/><path class="st36" d="M70.2,65.4c-3.3-6-10-10.2-17.7-10.2c-11.1,0-20,8.7-20,18.9c0,1.6,0.1,3,0.4,4.4c3.6,1.2,7.8,1.8,12.2,1.8     C56.8,80.2,66.8,76.3,70.2,65.4z"/><path class="st2" d="M52.5,93.7C38.4,93.7,31,86.9,31,74c0-11.2,9.6-20.4,21.5-20.4S74,62.8,74,74C74,86.7,66.4,93.7,52.5,93.7z      M52.5,56.7c-10,0-18.5,8-18.5,17.4c0,11,6.2,16.6,18.5,16.6S71,85.1,71,74C71,64.6,62.5,56.7,52.5,56.7z"/></g></g><g id="Head_17_"><g id="Head_6_"><path class="st35" d="M69.5,51.2c0,18-11.9,24-26.5,24s-26.5-5.8-26.5-24c0-13.5,11.9-25,26.5-25S69.5,37.6,69.5,51.2z"/><path class="st37" d="M17.6,57.1c0-13,11.4-24,25.4-24c14,0,25.4,11,25.4,24c0,1,0,2-0.1,3c0.8-2.6,1.2-5.5,1.2-8.9     c0-13.5-11.9-25-26.5-25s-26.5,11.5-26.5,25c0,3.4,0.4,6.4,1.2,9C17.6,59.2,17.6,58.2,17.6,57.1z"/><path class="st36" d="M43,70.2c-13.8,0-25.2-5.2-26.4-21.2c-0.1,0.7-0.1,1.4-0.1,2.2c0,18.2,11.9,24,26.5,24s26.5-6,26.5-24     c0-0.7,0-1.5-0.1-2.2C68.2,64.8,56.8,70.2,43,70.2z"/><path class="st2" d="M43,76.7c-18.3,0-28-8.8-28-25.5c0-14.6,12.6-26.5,28-26.5s28,11.9,28,26.5C71,67.6,61.1,76.7,43,76.7z      M43,27.7c-13.6,0-25,10.8-25,23.5c0,14.9,8.4,22.5,25,22.5s25-7.6,25-22.5C68,38.4,56.6,27.7,43,27.7z"/></g><g id="Eyes_1_"><circle class="st2" cx="54.5" cy="55.2" r="3"/><circle class="st2" cx="30.5" cy="55.2" r="3"/></g><path class="st2" d="M36,61.7c0-0.8,0.7-1.5,1.5-1.5s1.5,0.7,1.5,1.5c0,2.2,1.8,4,4,4s4-1.8,4-4    c0-0.8,0.7-1.5,1.5-1.5s1.5,0.7,1.5,1.5c0,3.9-3.1,7-7,7S36,65.5,36,61.7z" id="Mouth_4_"/><g id="Tentacle"><g><path class="st35" d="M55.4,39.7c2-8,7.3-14.9,14.5-18.9c1.4-0.8,2-2.6,1.2-4.1c-0.8-1.4-2.6-2-4.1-1.2      c-8.7,4.8-15,13.1-17.5,22.7"/><path class="st2" d="M55.4,41.2c-0.1,0-0.2,0-0.4,0c-0.8-0.2-1.3-1-1.1-1.8c2.1-8.4,7.7-15.6,15.3-19.8c0.7-0.4,1-1.3,0.6-2      c-0.4-0.7-1.3-1-2-0.6C59.5,21.5,53.4,29.4,51,38.6c-0.2,0.8-1,1.3-1.8,1.1c-0.8-0.2-1.3-1-1.1-1.8c2.5-10,9.1-18.6,18.2-23.6      c2.2-1.2,4.9-0.4,6.1,1.7c1.2,2.2,0.4,4.9-1.7,6.1C63.8,25.9,58.8,32.5,56.9,40C56.7,40.7,56.1,41.2,55.4,41.2z"/></g><g><path class="st35" d="M28.6,39.7c-2-8-7.3-14.9-14.5-18.9c-1.4-0.8-2-2.6-1.2-4.1c0.8-1.4,2.6-2,4.1-1.2      c8.7,4.8,15,13.1,17.5,22.7"/><path class="st2" d="M28.6,41.2c-0.7,0-1.3-0.5-1.5-1.1c-1.9-7.6-7-14.1-13.8-17.9c-2.2-1.2-3-4-1.7-6.1c1.2-2.2,3.9-3,6.1-1.8      c9,5,15.7,13.6,18.2,23.6c0.2,0.8-0.3,1.6-1.1,1.8c-0.8,0.2-1.6-0.3-1.8-1.1c-2.3-9.2-8.4-17.1-16.7-21.7      c-0.7-0.4-1.6-0.1-2,0.6c-0.4,0.7-0.1,1.6,0.6,2c7.6,4.2,13.2,11.4,15.3,19.8c0.2,0.8-0.3,1.6-1.1,1.8      C28.8,41.2,28.7,41.2,28.6,41.2z"/></g></g></g></g><g id="Dolphin"/><g id="Penguin"/><g id="Deer"/><g id="Elephant"/><g id="Panda"/><g id="Giraffe"/><g id="Cow"/><g id="Monkey"/><g id="Rabbit"/><g id="Bear"/><g id="Zebra"/><g id="Crab"/><g id="Crocodile"/><g id="Frog"/><g id="Owl"/><g id="Layer_28"/><g id="Octopus"/><g id="Turtle"/><g id="Squirrel"/><g id="Duck"/><g id="Squid"/><g id="Unicorn"/><g id="Parrot"/><g id="Layer_36"/><g id="Cockroach"/><g id="Gorilla"/><g id="Tiger"/><g id="Goat"/><g id="Whale"/></svg>