<?xml version="1.0" ?><svg style="enable-background:new 0 0 128 128;" version="1.1" viewBox="0 0 128 128" xml:space="preserve" xmlns="http://www.w3.org/2000/svg" xmlns:xlink="http://www.w3.org/1999/xlink"><style type="text/css">
	.st0{fill:#74CBDE;}
	.st1{fill:#B3F4FB;}
	.st2{fill:#301F00;}
	.st3{fill:#2FB0C1;}
	.st4{fill:#F2F2F2;}
	.st5{fill:#CCCCCC;}
	.st6{fill:#FFFFFF;}
	.st7{fill:#629EE1;}
	.st8{fill:#4180D8;}
	.st9{fill:#FF0013;}
	.st10{fill:#FF4D4D;}
	.st11{fill:#C80004;}
	.st12{fill:#FFD81A;}
	.st13{fill:#FFEA55;}
	.st14{fill:#FFB6C6;}
	.st15{fill:#FF97A9;}
	.st16{fill:#FFD0DC;}
	.st17{fill:#FF7287;}
	.st18{fill:#FDAD4C;}
	.st19{fill:#EB9129;}
	.st20{fill:#C13202;}
	.st21{fill:#CA4508;}
	.st22{fill:#FEC769;}
	.st23{fill:#FFEA9A;}
	.st24{fill:#FFDB69;}
	.st25{fill:#999999;}
	.st26{fill:#808080;}
	.st27{fill:#EBEBEB;}
	.st28{opacity:0.8;fill:#B3B3B3;}
	.st29{fill:#BCBCBC;}
	.st30{fill:#A39095;}
	.st31{fill:#B3B3B3;}
	.st32{fill:#EDFFC5;}
	.st33{fill:#F5FFD9;}
	.st34{opacity:0.8;fill:#FCFFF0;}
	.st35{fill:#8CC63F;}
	.st36{fill:#5AA319;}
	.st37{fill:#ACDC57;}
	.st38{fill:#C69452;}
	.st39{fill:#8A4900;}
	.st40{fill:#B17637;}
	.st41{fill:#E1D6BA;}
	.st42{fill:#CCBB92;}
	.st43{fill:#D8AD68;}
	.st44{fill:#253542;}
	.st45{fill:#2B4753;}
	.st46{fill:#FFA227;}
	.st47{fill:#0F171C;}
	.st48{fill:#FFBBBB;}
	.st49{fill:#A9A69C;}
	.st50{fill:#827E74;}
	.st51{fill:#C0BEB4;}
	.st52{fill:#333333;}
	.st53{fill:#FFE581;}
	.st54{fill:#6F4A38;}
	.st55{fill:#FFF5AE;}
	.st56{fill:#FFD252;}
	.st57{fill:#825C4D;}
	.st58{fill:#C97F4E;}
	.st59{fill:#B86538;}
	.st60{fill:#666666;}
	.st61{fill:#4D4D4D;}
	.st62{fill:#D6925E;}
	.st63{fill:#F9C0A7;}
	.st64{fill:#F7AD90;}
	.st65{fill:#D38F5B;}
	.st66{fill:#CD7C4F;}
	.st67{fill:#C1693E;}
	.st68{fill:#A05B38;}
	.st69{fill:#F1D4A5;}
	.st70{fill:#DD9665;}
	.st71{fill:#E7B777;}
	.st72{fill:#4A290A;}
	.st73{fill:#53770C;}
	.st74{fill:#699010;}
	.st75{fill:#884326;}
	.st76{fill:#F6D5A9;}
	.st77{fill:#F1C087;}
	.st78{fill:#FFD4C5;}
	.st79{fill:#FF9797;}
	.st80{fill:#FF8484;}
	.st81{fill:#FFAAAA;}
	.st82{fill:#7C0000;}
	.st83{fill:#A6B855;}
	.st84{fill:#C3D272;}
	.st85{fill:#7D942D;}
	.st86{fill:#68782F;}
	.st87{fill:#4F5E20;}
	.st88{fill:#81923E;}
	.st89{fill:#EE6B2B;}
	.st90{fill:#D2501E;}
	.st91{fill:#FF6868;}
	.st92{fill:#BA0009;}
	.st93{fill:#F85E28;}
	.st94{fill:#D5DAE0;}
	.st95{fill:#BCC4CD;}
	.st96{display:none;fill:#BCC4CD;}
	.st97{fill:#FDB62E;}
	.st98{fill:#472D07;}
	.st99{fill:#FC9C1B;}
	.st100{fill:#2D1A03;}
	.st101{fill:#FFFFD5;}
	.st102{fill:#FED041;}
	.st103{fill:#61400B;}
	.st104{fill:#FFFF95;}
	.st105{fill:#D7D3C9;}
	.st106{fill:#E8E3DA;}
	.st107{fill:#DDD6CA;}
	.st108{fill:#9E9992;}
	.st109{fill:#847E77;}
	.st110{fill:#F0EDE7;}
	.st111{fill:#88D3ED;}
	.st112{fill:#68C1E4;}
	.st113{fill:#A8E5F6;}
	.st114{fill:#E6E6E6;}
	.st115{fill:#D6D6D6;}
</style><g id="Fish"/><g id="Chicken"/><g id="Pig"/><g id="Dog"/><g id="Cat"/><g id="Bird"/><g id="Koala"/><g id="Mice"/><g id="Snake"/><g id="Lion"/><g id="Caterpillar"/><g id="Dolphin"/><g id="Penguin"/><g id="Deer"/><g id="Elephant"/><g id="Panda"/><g id="Giraffe"/><g id="Cow"/><g id="Monkey"><g id="Tail_10_"><path class="st58" d="M89.5,112.8L89.5,112.8c-12.6,0-24.4-16-25.8-17.8c-1.1-1.6-0.8-3.8,0.8-4.9c1.6-1.1,3.8-0.8,4.9,0.8    c3,4.1,12.4,14.9,20.1,14.9h0c2.7,0,5-1.4,7-4.2c4.9-6.8,1.1-19.9-2.7-32.6c-4.7-16.1-9.6-32.7,4.3-38c5.6-2.1,11.7-1.2,16.8,2.5    c5.5,4,8.9,10.7,8.6,16.8c-0.1,1.9-1.8,3.4-3.7,3.3c-1.9-0.1-3.4-1.8-3.3-3.7c0.2-3.7-2.1-8.1-5.7-10.7c-1.8-1.3-5.6-3.3-10.2-1.6    c-7.3,2.8-4.9,13,0,29.5c4.2,14.3,8.6,29.2,1.6,38.7C97.9,111.5,92.9,112.8,89.5,112.8"/><path class="st2" d="M122.5,39.9c-1.6-3-3.9-5.7-6.7-7.7c-3.5-2.6-7.5-3.9-11.6-3.9c-2.2,0-4.5,0.4-6.7,1.2    c-3.7,1.4-6.3,3.6-7.9,6.4c-1.6,2.8-2.2,6.1-2.2,9.6c0,3.6,0.6,7.5,1.6,11.5c0.9,4,2.1,8.2,3.3,12.3c1.2,4.2,2.5,8.4,3.4,12.4    c0.9,4,1.5,7.8,1.5,11c0,3.3-0.6,6-2,7.9c-1,1.3-1.9,2.2-2.9,2.8c-1,0.6-1.9,0.8-3,0.8h0c-1.6,0-3.4-0.6-5.2-1.6    c-2.8-1.5-5.7-3.9-8.1-6.3c-2.4-2.4-4.4-4.9-5.5-6.3l0,0c-1-1.4-2.5-2.1-4.1-2.1c-1,0-2,0.3-2.9,0.9l0,0c-1.4,1-2.1,2.5-2.1,4.1    c0,1,0.3,2,0.9,2.9c0.7,1,4,5.5,8.8,9.8c2.4,2.2,5.2,4.3,8.2,5.9c3,1.6,6.4,2.7,9.8,2.7h0h0c1.9,0,4.2-0.3,6.7-1.5    c2.4-1.2,5-3.1,7.2-6.3c2.9-4,3.9-8.7,3.9-13.8c0-8.2-2.7-17.4-5.3-26.3c-1.3-4.5-2.5-8.5-3.3-12c-0.8-3.5-1.3-6.5-1.3-8.8    c0-1.9,0.3-3.4,0.9-4.5c0.6-1.1,1.4-1.8,2.8-2.3c1.1-0.4,2.1-0.6,3.1-0.6c1.2,0,2.3,0.3,3.3,0.7c1,0.4,1.8,0.9,2.3,1.3    c1.5,1.1,2.8,2.6,3.7,4.2c0.9,1.6,1.4,3.3,1.4,4.8c0,0.1,0,0.2,0,0.4v0c0,0.1,0,0.2,0,0.3c0,2.6,2.1,4.8,4.7,5l0,0l0.3,0    c2.6,0,4.8-2.1,5-4.7c0-0.3,0-0.6,0-0.9C125,46.1,124.1,42.8,122.5,39.9z M122,50c-0.1,1.1-0.9,1.9-2,1.9l-0.1,0    c-1.1-0.1-1.9-0.9-1.9-2l0-0.1l0,0c0-0.2,0-0.4,0-0.5c0-2.1-0.7-4.3-1.8-6.3c-1.1-2-2.7-3.8-4.6-5.2c-0.7-0.5-1.7-1.2-3-1.7    c-1.3-0.5-2.7-0.9-4.4-0.9c-1.3,0-2.7,0.2-4.2,0.8c-1.9,0.7-3.4,2-4.3,3.7c-0.9,1.7-1.2,3.7-1.2,5.9c0,2.7,0.5,5.9,1.3,9.5    c0.8,3.6,2,7.7,3.3,12.2c2.6,8.9,5.2,17.9,5.2,25.4c0,4.6-1,8.7-3.4,12c-2,2.8-4.1,4.4-6.1,5.3c-2,0.9-3.9,1.2-5.4,1.2h0    c-2.8,0-5.7-0.9-8.5-2.4c-4.1-2.2-7.9-5.5-10.8-8.5c-2.9-3-4.8-5.6-5.3-6.3c-0.3-0.4-0.4-0.8-0.4-1.2c0-0.6,0.3-1.2,0.8-1.6    c0.4-0.3,0.8-0.4,1.2-0.4c0.6,0,1.2,0.3,1.6,0.8l0,0c1.6,2.2,4.7,5.9,8.5,9.2c1.9,1.7,4,3.2,6.1,4.3c2.1,1.1,4.4,1.9,6.7,1.9h0h0    c1.6,0,3.1-0.4,4.5-1.3c1.4-0.8,2.6-2.1,3.7-3.6c1.9-2.7,2.6-6,2.6-9.7c0-3.6-0.7-7.5-1.6-11.7c-1-4.1-2.2-8.4-3.4-12.6    c-1.2-4.1-2.4-8.2-3.3-12.1c-0.9-3.9-1.5-7.6-1.5-10.9c0-3.2,0.5-5.9,1.8-8.1c1.3-2.2,3.2-3.9,6.3-5.1c1.8-0.7,3.7-1,5.6-1    c3.4,0,6.8,1.1,9.8,3.3c2.4,1.8,4.4,4.1,5.8,6.7c1.4,2.6,2.2,5.4,2.2,8C122,49.5,122,49.8,122,50z"/></g><g id="Body_18_"><path class="st58" d="M74.7,97.3c-1.1-3.7-4-4-4-4S64.3,92.1,58,92v0c-0.2,0-0.4,0-0.6,0c-0.2,0-0.4,0-0.6,0v0    C50.4,92.1,44,93.3,44,93.3s-2.9,0.3-4,4c-2.3,8.1-1.9,23.1,6,23c2.2,0,3.9-2,3.9-6.2c2,0.7,4.4,1.2,7.1,1.2c3,0,5.8-0.6,7.9-1.5    c-0.1,4.4,1.6,6.5,3.9,6.5C76.7,120.3,77.1,105.3,74.7,97.3z"/><path class="st59" d="M74.8,97.3c-1.1-3.7-4-4-4-4s-6.4-1.2-12.8-1.3v0c-0.2,0-0.4,0-0.6,0c-0.2,0-0.4,0-0.6,0v0    c-6.3,0.1-12.8,1.3-12.8,1.3s-2.9,0.3-4,4c-0.3,1-0.5,2.1-0.7,3.3c4.8,1.1,10.1,1.6,15.7,1.6c0.2,0,0.4,0,0.5,0c0.2,0,0.3,0,0.5,0    c7,0,13.6-0.8,19.3-2.6C75.2,98.8,75,98,74.8,97.3z"/><path class="st2" d="M76.2,96.8c-1.2-4.3-4.6-5-5.2-5.1c-0.5-0.1-6.6-1.2-12.8-1.3l-0.2,0h-1.3l-0.2,0c-6.2,0.2-12.2,1.2-12.8,1.3    c-0.6,0.1-4,0.8-5.2,5.1c-1.7,5.8-2.3,16.8,1.7,22c1.4,1.9,3.4,2.9,5.7,2.9H46c1.5,0,2.9-0.7,3.9-2c0.6-0.8,1.2-2,1.4-3.7    c1.7,0.4,3.7,0.6,5.7,0.6c2.4,0,4.6-0.3,6.5-0.8c0,0,0,0,0,0c0.2,1.8,0.8,3.1,1.4,3.9c0.9,1.3,2.3,1.9,3.9,2h0.1    c2.3,0,4.2-1,5.7-2.9C78.5,113.6,77.9,102.6,76.2,96.8z M72.1,117c-0.9,1.2-2,1.7-3.3,1.7h0c-0.6,0-1.1-0.3-1.5-0.8    c-0.6-0.7-1.7-3.2-0.1-9.3c0.2-0.8-0.3-1.6-1.1-1.8c-0.8-0.2-1.6,0.3-1.8,1.1c-0.5,1.8-0.8,3.5-0.9,4.8c0,0,0,0,0,0    c-1.8,0.6-4,1-6.4,1c-2.1,0-4-0.3-5.6-0.8c-0.1-1.5-0.4-3.1-0.9-5.1c-0.2-0.8-1-1.3-1.8-1.1c-0.8,0.2-1.3,1-1.1,1.8    c0.3,1.1,0.5,2.1,0.6,3c0.2,1.5,0.3,2.6,0.2,3.5c-0.1,1.6-0.6,2.5-0.9,2.9c-0.4,0.5-0.9,0.8-1.5,0.8c-1.4,0-2.4-0.5-3.3-1.7    c-2.9-3.8-3-13.3-1.2-19.4c0.7-2.6,2.5-2.9,2.7-2.9l0.1,0c0.1,0,6.4-1.2,12.5-1.3l0.1,0h0.9l0.1,0c6.1,0.1,12.5,1.3,12.6,1.3    c0.2,0,2,0.3,2.7,2.9C75.1,103.8,75,113.2,72.1,117z"/></g><g id="Head_24_"><g><path class="st58" d="M108.3,68.4c0,9.1-3.9,16.4-12.3,16.4c-6.8,0-12.3-7.4-12.3-16.4c0-9.1,5.5-16.4,12.3-16.4     C104.4,51.9,108.3,59.3,108.3,68.4"/><path class="st2" d="M106.5,55.9c-1.1-1.7-2.6-3-4.4-4c-1.8-1-3.9-1.5-6.2-1.5c-2,0-3.9,0.5-5.5,1.5c-2.5,1.4-4.6,3.7-6,6.6     c-1.4,2.8-2.3,6.2-2.3,9.9c0,4.8,1.5,9.3,3.9,12.5c1.2,1.6,2.7,3,4.4,3.9c1.7,0.9,3.6,1.5,5.5,1.5c2.3,0,4.4-0.5,6.2-1.5     c2.7-1.4,4.6-3.8,5.8-6.7c1.2-2.9,1.8-6.2,1.8-9.8C109.8,63.6,108.8,59.2,106.5,55.9z M104,79.2c-0.9,1.3-2,2.3-3.3,3     c-1.3,0.7-2.9,1.1-4.8,1.1c-1.4,0-2.8-0.4-4.1-1.1c-1.9-1.1-3.6-2.9-4.8-5.3c-1.2-2.4-1.9-5.3-1.9-8.5c0-4.2,1.3-8,3.3-10.7     c1-1.3,2.2-2.4,3.5-3.1c1.3-0.7,2.6-1.1,4.1-1.1c1.9,0,3.5,0.4,4.8,1.1c2,1.1,3.5,2.8,4.5,5.2c1,2.4,1.6,5.4,1.6,8.6     C106.8,72.7,105.8,76.5,104,79.2z"/><path class="st63" d="M103.5,68.4c0,5.5-2.4,10-7.5,10c-4.2,0-7.5-4.5-7.5-10s3.4-10,7.5-10C101.1,58.4,103.5,62.9,103.5,68.4"/><path class="st2" d="M102.9,60.5c-0.7-1.1-1.7-2-2.9-2.6c-1.2-0.6-2.5-1-4.1-1c-1.3,0-2.6,0.4-3.7,1c-1.7,0.9-3,2.4-3.9,4.3     c-0.9,1.8-1.4,4-1.4,6.3c0,3.1,0.9,5.9,2.5,8c0.8,1.1,1.8,1.9,2.9,2.6c1.1,0.6,2.4,1,3.7,1c1.5,0,2.9-0.3,4.1-1     c1.8-0.9,3-2.5,3.8-4.4c0.8-1.8,1.1-4,1.1-6.2C105,65.4,104.3,62.6,102.9,60.5z M100.4,74.6c-0.5,0.7-1.1,1.3-1.8,1.7     c-0.7,0.4-1.6,0.6-2.6,0.6c-0.8,0-1.5-0.2-2.2-0.6c-1-0.6-2-1.6-2.7-3c-0.7-1.4-1.1-3.1-1.1-4.9c0-2.5,0.8-4.7,1.9-6.2     c0.6-0.8,1.2-1.4,1.9-1.7c0.7-0.4,1.4-0.6,2.2-0.6c1.1,0,1.9,0.2,2.6,0.6c1.1,0.6,1.9,1.5,2.5,2.9c0.6,1.4,0.9,3.1,0.9,5     C102,70.9,101.4,73.2,100.4,74.6z"/></g><g><path class="st58" d="M5.5,68.4c0,9.1,3.9,16.4,12.3,16.4c6.8,0,12.3-7.4,12.3-16.4c0-9.1-5.5-16.4-12.3-16.4     C9.4,51.9,5.5,59.3,5.5,68.4"/><path class="st2" d="M27.8,55.9c-1.2-1.6-2.7-3-4.4-3.9c-1.7-0.9-3.6-1.5-5.5-1.5c-2.3,0-4.4,0.5-6.2,1.5C9,53.3,7,55.7,5.8,58.6     C4.6,61.5,4,64.8,4,68.4c0,4.8,1,9.1,3.3,12.5c1.1,1.7,2.6,3,4.4,4c1.8,1,3.9,1.5,6.2,1.5c2,0,3.9-0.5,5.5-1.5     c2.5-1.4,4.6-3.7,6-6.6c1.4-2.8,2.3-6.2,2.3-9.9C31.7,63.5,30.2,59.1,27.8,55.9z M25.4,79.1c-1,1.3-2.2,2.4-3.5,3.1     c-1.3,0.7-2.6,1.1-4.1,1.1c-1.9,0-3.5-0.4-4.8-1.1c-2-1.1-3.5-2.8-4.5-5.2c-1-2.4-1.6-5.4-1.6-8.6c0-4.3,1-8.2,2.8-10.8     c0.9-1.3,2-2.3,3.3-3c1.3-0.7,2.9-1.1,4.8-1.1c1.4,0,2.8,0.4,4.1,1.1c1.9,1.1,3.6,2.9,4.8,5.3c1.2,2.4,1.9,5.3,1.9,8.5     C28.7,72.6,27.4,76.4,25.4,79.1z"/><path class="st63" d="M10.3,68.4c0,5.5,2.4,10,7.5,10c4.2,0,7.5-4.5,7.5-10s-3.4-10-7.5-10C12.7,58.4,10.3,62.9,10.3,68.4"/><path class="st2" d="M24.4,60.4c-0.8-1.1-1.8-1.9-2.9-2.6c-1.1-0.6-2.4-1-3.7-1c-1.5,0-2.9,0.3-4.1,1c-1.8,0.9-3,2.5-3.8,4.4     c-0.8,1.8-1.1,4-1.1,6.2c0,3,0.6,5.8,2.1,7.9c0.7,1.1,1.7,2,2.9,2.6c1.2,0.6,2.5,1,4.1,1c1.3,0,2.6-0.4,3.7-1     c1.7-0.9,3-2.4,3.9-4.3c0.9-1.8,1.4-4,1.4-6.3C26.9,65.3,25.9,62.5,24.4,60.4z M22,74.6c-0.6,0.8-1.2,1.4-1.9,1.7     c-0.7,0.4-1.4,0.6-2.2,0.6c-1.1,0-1.9-0.2-2.6-0.6c-1.1-0.6-1.9-1.5-2.5-2.9c-0.6-1.4-0.9-3.1-0.9-5c0-2.6,0.6-4.8,1.6-6.2     c0.5-0.7,1.1-1.3,1.8-1.7c0.7-0.4,1.6-0.6,2.6-0.6c0.8,0,1.5,0.2,2.2,0.6c1,0.6,2,1.6,2.7,3c0.7,1.4,1.1,3.1,1.1,4.9     C23.9,70.9,23.1,73.1,22,74.6z"/></g><g><path class="st58" d="M95.8,69c0,20.4-17.5,28-39,28c-21.5,0-39-7.6-39-28c0-17.4,5.6-38.5,26.5-44.4c2-0.6,4.2-1,6.5-1.3     c0.9-0.1,1.8-0.2,2.8-0.2c1.1-0.1,2.1-0.1,3.2-0.1c1.1,0,2.2,0,3.2,0.1c0.9,0.1,1.9,0.1,2.8,0.2c2.3,0.3,4.5,0.7,6.5,1.3     C90.2,30.6,95.8,51.7,95.8,69"/><path class="st63" d="M87.1,74.3c-1.3-0.8-1.9-2.5-1.3-4c1-2.2,1.5-4.6,1.5-7.1c0-5.4-2.4-10.2-6.2-13.5c-2.4-2.1-5.4-3.5-8.7-4     c-0.9-0.2-1.9-0.2-2.8-0.2c-1.4,0-2.8,0.2-4.1,0.5c-2.8,0.7-5.3,2-7.3,3.7v0l0,0c-0.2,0.2-0.5,0.4-0.7,0.6l0,0l0,0     c-0.2-0.2-0.4-0.4-0.7-0.6l0,0v0c-2.1-1.8-4.6-3.1-7.3-3.7c-1.3-0.3-2.7-0.5-4.1-0.5c-1,0-1.9,0.1-2.8,0.2c-3.3,0.5-6.3,2-8.7,4     c-3.8,3.3-6.2,8.1-6.2,13.5c0,2.5,0.5,5,1.5,7.1c0.6,1.5,0.1,3.1-1.3,4c-2.2,1.4-4.6,4.1-6.7,7.7c5.9,10.8,19.8,15,35.9,15     c0.2,0,0.4,0,0.5,0c0.2,0,0.3,0,0.5,0c16.2,0,30-4.3,35.9-15C91.7,78.4,89.3,75.7,87.1,74.3z"/><path class="st59" d="M56.8,92C36,92,19,84.9,17.9,66c0,1-0.1,2-0.1,3c0,20.4,17.5,28,39,28s39-7.6,39-28c0-1,0-2-0.1-3     C94.7,84.9,77.7,92,56.8,92"/><path class="st64" d="M93.3,81.1c-0.5-0.8-1-1.6-1.6-2.3C85.3,88.2,72.1,92,56.8,92C42,92,29.1,88.4,22.5,79.5     c-0.5,0.8-1.1,1.6-1.6,2.5c0.1,0.2,0.2,0.3,0.3,0.5c0.2,0.4,0.4,0.7,0.7,1.1c0.2,0.3,0.4,0.5,0.5,0.8c0.2,0.3,0.4,0.5,0.6,0.8     c0.3,0.4,0.7,0.8,1.1,1.2c0.2,0.2,0.4,0.4,0.6,0.6c0.3,0.3,0.5,0.5,0.8,0.8c0.2,0.1,0.3,0.3,0.5,0.4c0.6,0.5,1.2,1,1.8,1.4     c0.1,0.1,0.2,0.2,0.3,0.2c0.4,0.3,0.8,0.5,1.2,0.8l0.2,0.1c7,4.4,16.7,6.3,27.4,6.3C73.5,97,87.6,92.5,93.3,81.1z"/><path class="st65" d="M56.8,23C56.8,23,56.8,23,56.8,23c-0.6,0-1.2,0-1.8,0c-0.5,0-1,0-1.4,0.1c-0.3,0-0.6,0-0.9,0.1     c-0.6,0-1.2,0.1-1.8,0.2c0,0,0,0,0,0c-2.3,0.3-4.5,0.7-6.5,1.3c-13.8,3.9-20.9,14.4-24.2,26c-0.3,1-0.5,1.9-0.7,2.9     c-0.2,1.1-0.5,2.2-0.6,3.3c-0.2,1-0.3,2-0.4,3c-0.3,2.4-0.5,4.8-0.5,7.2c0-0.4,0-0.7,0-1.1c0.1,1.5,0.3,2.9,0.6,4.3     c2.3-18,12-36.3,38.4-36.3c26.4,0,36,18.3,38.4,36.3c0.3-1.4,0.5-2.8,0.6-4.3c0,1,0.1,2,0.1,3c0,0.4,0,0.8,0,1.2     c0-0.4,0-0.8,0-1.1c0,0,0,0,0,0l0,0c0,0,0,0,0,0c0,0,0,0,0,0c0,0,0,0,0,0c0,0,0,0,0,0c0,0,0,0,0,0c0,0,0,0,0,0c0,0,0,0,0,0     c0,0,0,0,0,0c0,0,0,0,0,0c0,0,0,0,0,0c0,0,0,0,0,0c0,0,0,0,0,0c0,0,0,0,0,0v0c0,0,0,0,0,0c0,0,0,0,0,0c0,0,0,0,0,0c0,0,0,0,0,0     c0-0.1,0-0.1,0-0.1c0,0,0,0,0,0c0-2.8-0.2-5.6-0.5-8.5c-0.1-1-0.3-2-0.4-3c-0.2-1.1-0.4-2.2-0.6-3.3c-0.2-1-0.5-1.9-0.7-2.9     c-0.7-2.7-1.7-5.3-2.9-7.8c-0.7-1.4-1.4-2.8-2.2-4.1c-4.1-6.5-10.2-11.8-19.1-14.3c-2-0.6-4.2-1-6.5-1.3c0,0,0,0,0,0     c-0.6-0.1-1.2-0.1-1.8-0.2c-0.3,0-0.6,0-0.9-0.1c-0.5,0-1-0.1-1.5-0.1C58.1,23.1,57.5,23,56.8,23C56.9,23,56.9,23,56.8,23"/><path class="st2" d="M56.8,21.5c-36.5,0-40.5,33.2-40.5,47.5c0,8.7,3,15.6,8.8,20.6c6.8,5.8,17.5,8.9,31.7,8.9     c14.2,0,24.8-3.1,31.7-8.9c5.8-4.9,8.8-11.9,8.8-20.6C97.3,54.8,93.4,21.5,56.8,21.5z M87.1,86.7c-0.7,0.7-1.5,1.3-2.3,1.9     c-8.1,5.7-19.7,6.9-28,6.9S37,94.3,28.9,88.6c-0.8-0.6-1.6-1.2-2.4-1.9c-4.3-4-7.2-9.6-7.2-17.7c0-13.4,3.7-44.5,37.5-44.5     c33.8,0,37.5,31.1,37.5,44.5C94.3,77.1,91.5,82.8,87.1,86.7z"/><path class="st65" d="M50.8,26.5c0,0-7.5-7.3-3.1-11.7c2.8-2.8,8.9,3,8.9,3S52.3,7.5,59.1,7.5c10,0,9.5,13.9,6,19"/><path class="st2" d="M51.9,25.4L51.9,25.4c-0.1-0.1-1.2-1.2-2.2-2.6c-0.5-0.7-1-1.5-1.3-2.4c-0.3-0.8-0.5-1.6-0.5-2.3     c0-0.4,0.1-0.8,0.2-1.2c0.1-0.4,0.4-0.7,0.7-1.1c0.1-0.1,0.2-0.2,0.4-0.2c0.1,0,0.3-0.1,0.5-0.1c0.4,0,1.1,0.2,1.7,0.5     c1,0.5,2.1,1.2,2.9,1.8c0.4,0.3,0.7,0.6,1,0.8c0.1,0.1,0.2,0.2,0.3,0.2l0.1,0.1l0,0c0.5,0.5,1.3,0.5,1.9,0.1     c0.6-0.4,0.8-1.2,0.5-1.8l0,0c-0.1-0.1-0.4-1-0.7-2c-0.3-1.1-0.6-2.4-0.6-3.5c0-0.5,0-0.9,0.1-1.2c0.1-0.5,0.3-0.9,0.6-1.1     C57.8,9.2,58.2,9,59.1,9c1.3,0,2.3,0.3,3.1,0.7c1.2,0.7,2.1,1.7,2.7,3.2c0.6,1.4,0.9,3.2,0.9,5c0,1.5-0.2,3.1-0.6,4.5     c-0.4,1.4-0.9,2.6-1.4,3.4c-0.5,0.7-0.3,1.6,0.4,2.1c0.7,0.5,1.6,0.3,2.1-0.4c0.8-1.2,1.4-2.7,1.8-4.3c0.4-1.6,0.7-3.4,0.7-5.2     c0-2.8-0.6-5.6-2.1-7.9C66,8.7,64.9,7.7,63.6,7C62.3,6.3,60.8,6,59.1,6c-0.9,0-1.7,0.2-2.5,0.5c-1.1,0.5-1.9,1.4-2.3,2.3     c-0.4,1-0.5,2-0.5,2.9c0,1.7,0.4,3.3,0.7,4.6c0.4,1.3,0.7,2.1,0.7,2.1l1.4-0.6l1-1.1c0,0-1.1-1-2.6-2c-0.7-0.5-1.6-1-2.5-1.4     c-0.9-0.4-1.9-0.7-3-0.7c-0.5,0-1,0.1-1.6,0.3c-0.5,0.2-1,0.5-1.4,0.9c-0.6,0.6-1.1,1.4-1.4,2.1c-0.3,0.8-0.4,1.5-0.4,2.3     c0,1.3,0.3,2.5,0.8,3.6c0.7,1.6,1.7,3.1,2.6,4.1c0.8,1,1.5,1.7,1.5,1.7c0.6,0.6,1.5,0.6,2.1,0C52.5,26.9,52.5,26,51.9,25.4     L51.9,25.4z"/></g><g id="Eyes_15_"><circle class="st2" cx="72.8" cy="74" r="3"/><circle class="st2" cx="40.9" cy="74" r="3"/></g><path class="st2" d="M64.5,90.3c-0.8,0.3-1.6,0.5-2.5,0.5c-2,0-3.7-0.9-4.9-2.3c-1.2,1.4-2.9,2.3-4.9,2.3    c-0.9,0-1.7-0.2-2.5-0.5c-0.8-0.3-1.1-1.2-0.8-2s1.2-1.1,2-0.8c0.4,0.2,0.9,0.3,1.3,0.3c1.4,0,2.5-0.8,3.1-2    c0.2-0.4,0.3-0.9,0.3-1.4c0-0.6,0.4-1.1,0.9-1.4c0.3,0.1,0.7,0.2,1,0.2c0.2,0,0.3,0,0.5,0c0.4,0.3,0.7,0.7,0.7,1.3    c0,0.6,0.2,1.1,0.4,1.6c0.6,1.1,1.7,1.8,3,1.8c0.5,0,0.9-0.1,1.3-0.3c0.8-0.3,1.6,0,2,0.8C65.6,89,65.3,89.9,64.5,90.3z" id="Mouth_6_"/><g id="Nose_8_"><ellipse class="st2" cx="57.1" cy="80" rx="4.4" ry="3.2"/><path class="st2" d="M61.6,80h-1.5c0,0.2,0,0.3-0.1,0.5c-0.2,0.3-0.5,0.6-1,0.8c-0.5,0.2-1.1,0.4-1.8,0.4c-0.9,0-1.7-0.3-2.2-0.7     c-0.3-0.2-0.4-0.4-0.5-0.6c-0.1-0.2-0.1-0.3-0.1-0.5c0-0.2,0-0.3,0.1-0.5c0.2-0.3,0.5-0.6,1-0.8c0.5-0.2,1.1-0.4,1.8-0.4     c0.9,0,1.7,0.3,2.2,0.7c0.3,0.2,0.4,0.4,0.5,0.6c0.1,0.2,0.1,0.3,0.1,0.5H61.6h1.5c0-0.7-0.2-1.4-0.6-2c-0.5-0.9-1.3-1.6-2.2-2     c-0.9-0.5-2-0.7-3.1-0.7c-1.5,0-2.9,0.4-4,1.2c-0.5,0.4-1,0.9-1.4,1.5c-0.3,0.6-0.6,1.3-0.6,2c0,0.7,0.2,1.4,0.6,2     c0.5,0.9,1.3,1.6,2.2,2c0.9,0.5,2,0.7,3.1,0.7c1.5,0,2.9-0.4,4-1.2c0.5-0.4,1-0.9,1.4-1.5c0.3-0.6,0.6-1.3,0.6-2H61.6z"/></g></g></g><g id="Rabbit"/><g id="Bear"/><g id="Zebra"/><g id="Crab"/><g id="Crocodile"/><g id="Frog"/><g id="Owl"/><g id="Layer_28"/><g id="Octopus"/><g id="Turtle"/><g id="Squirrel"/><g id="Duck"/><g id="Squid"/><g id="Unicorn"/><g id="Parrot"/><g id="Layer_36"/><g id="Cockroach"/><g id="Gorilla"/><g id="Tiger"/><g id="Goat"/><g id="Whale"/></svg>