<?xml version="1.0" ?><svg style="enable-background:new 0 0 128 128;" version="1.1" viewBox="0 0 128 128" xml:space="preserve" xmlns="http://www.w3.org/2000/svg" xmlns:xlink="http://www.w3.org/1999/xlink"><style type="text/css">
	.st0{fill:#74CBDE;}
	.st1{fill:#B3F4FB;}
	.st2{fill:#301F00;}
	.st3{fill:#2FB0C1;}
	.st4{fill:#F2F2F2;}
	.st5{fill:#CCCCCC;}
	.st6{fill:#FFFFFF;}
	.st7{fill:#629EE1;}
	.st8{fill:#4180D8;}
	.st9{fill:#FF0013;}
	.st10{fill:#FF4D4D;}
	.st11{fill:#C80004;}
	.st12{fill:#FFD81A;}
	.st13{fill:#FFEA55;}
	.st14{fill:#FFB6C6;}
	.st15{fill:#FF97A9;}
	.st16{fill:#FFD0DC;}
	.st17{fill:#FF7287;}
	.st18{fill:#FDAD4C;}
	.st19{fill:#EB9129;}
	.st20{fill:#C13202;}
	.st21{fill:#CA4508;}
	.st22{fill:#FEC769;}
	.st23{fill:#FFEA9A;}
	.st24{fill:#FFDB69;}
	.st25{fill:#999999;}
	.st26{fill:#808080;}
	.st27{fill:#EBEBEB;}
	.st28{opacity:0.8;fill:#B3B3B3;}
	.st29{fill:#BCBCBC;}
	.st30{fill:#A39095;}
	.st31{fill:#B3B3B3;}
	.st32{fill:#EDFFC5;}
	.st33{fill:#F5FFD9;}
	.st34{opacity:0.8;fill:#FCFFF0;}
	.st35{fill:#8CC63F;}
	.st36{fill:#5AA319;}
	.st37{fill:#ACDC57;}
	.st38{fill:#C69452;}
	.st39{fill:#8A4900;}
	.st40{fill:#B17637;}
	.st41{fill:#E1D6BA;}
	.st42{fill:#CCBB92;}
	.st43{fill:#D8AD68;}
	.st44{fill:#253542;}
	.st45{fill:#2B4753;}
	.st46{fill:#FFA227;}
	.st47{fill:#0F171C;}
	.st48{fill:#FFBBBB;}
	.st49{fill:#A9A69C;}
	.st50{fill:#827E74;}
	.st51{fill:#C0BEB4;}
	.st52{fill:#333333;}
	.st53{fill:#FFE581;}
	.st54{fill:#6F4A38;}
	.st55{fill:#FFF5AE;}
	.st56{fill:#FFD252;}
	.st57{fill:#825C4D;}
	.st58{fill:#C97F4E;}
	.st59{fill:#B86538;}
	.st60{fill:#666666;}
	.st61{fill:#4D4D4D;}
	.st62{fill:#D6925E;}
	.st63{fill:#F9C0A7;}
	.st64{fill:#F7AD90;}
	.st65{fill:#D38F5B;}
	.st66{fill:#CD7C4F;}
	.st67{fill:#C1693E;}
	.st68{fill:#A05B38;}
	.st69{fill:#F1D4A5;}
	.st70{fill:#DD9665;}
	.st71{fill:#E7B777;}
	.st72{fill:#4A290A;}
	.st73{fill:#53770C;}
	.st74{fill:#699010;}
	.st75{fill:#884326;}
	.st76{fill:#F6D5A9;}
	.st77{fill:#F1C087;}
	.st78{fill:#FFD4C5;}
	.st79{fill:#FF9797;}
	.st80{fill:#FF8484;}
	.st81{fill:#FFAAAA;}
	.st82{fill:#7C0000;}
	.st83{fill:#A6B855;}
	.st84{fill:#C3D272;}
	.st85{fill:#7D942D;}
	.st86{fill:#68782F;}
	.st87{fill:#4F5E20;}
	.st88{fill:#81923E;}
	.st89{fill:#EE6B2B;}
	.st90{fill:#D2501E;}
	.st91{fill:#FF6868;}
	.st92{fill:#F85E28;}
	.st93{fill:#D5DAE0;}
	.st94{fill:#BCC4CD;}
	.st95{display:none;fill:#BCC4CD;}
	.st96{fill:#FDB62E;}
	.st97{fill:#472D07;}
	.st98{fill:#FC9C1B;}
	.st99{fill:#2D1A03;}
	.st100{fill:#FFFFD5;}
	.st101{fill:#FED041;}
	.st102{fill:#61400B;}
	.st103{fill:#FFFF95;}
	.st104{fill:#D7D3C9;}
	.st105{fill:#E8E3DA;}
	.st106{fill:#DDD6CA;}
	.st107{fill:#9E9992;}
	.st108{fill:#847E77;}
	.st109{fill:#F0EDE7;}
	.st110{fill:#88D3ED;}
	.st111{fill:#68C1E4;}
	.st112{fill:#A8E5F6;}
	.st113{fill:#E6E6E6;}
	.st114{fill:#D6D6D6;}
</style><g id="Fish"/><g id="Chicken"/><g id="Pig"/><g id="Dog"/><g id="Cat"/><g id="Bird"/><g id="Koala"/><g id="Mice"/><g id="Snake"/><g id="Lion"><g id="Tail_5_"><path class="st38" d="M97.6,97.6c8.3-3.4,16.8-15.8,16.8-15.8s-4.3,22-14.6,24.5"/><path class="st2" d="M99.8,107.7c-0.7,0-1.3-0.5-1.5-1.2c-0.2-0.8,0.3-1.6,1.1-1.8c5.4-1.3,9.3-9.5,11.5-16.3    c-3.3,3.9-8.1,8.5-12.8,10.5c-0.8,0.3-1.6-0.1-2-0.8c-0.3-0.8,0.1-1.6,0.8-2c7.8-3.1,16-15.2,16.1-15.3c0.4-0.6,1.2-0.8,1.8-0.5    c0.7,0.3,1,1,0.9,1.7c-0.2,0.9-4.6,23-15.7,25.6C100,107.7,99.9,107.7,99.8,107.7"/><path class="st39" d="M118.1,86.8c-2,2.3-5.1,2.9-7.1,1.2c-1.9-1.6-1.9-4.8,0.1-7.2c2-2.3,8.9-7,8.6-3.9    C119.5,80.6,120.1,84.5,118.1,86.8z"/><path class="st2" d="M113,90.4c-1.1-0.1-2.1-0.5-2.9-1.2c-2.6-2.2-2.6-6.3-0.1-9.3c1.2-1.4,7.1-6.4,9.9-5.3    c0.9,0.4,1.4,1.3,1.4,2.4c-0.1,0.9-0.1,1.8-0.1,2.7c0,2.9-0.1,5.9-1.9,8l0,0C117.6,89.7,115.2,90.7,113,90.4z M118.2,77.6    c-1.5,0.6-4.6,2.7-5.9,4.2c-1.4,1.7-1.5,3.9-0.3,5s3.5,0.6,4.9-1.1l0,0c1.1-1.3,1.2-3.7,1.2-6.1C118.2,79,118.2,78.3,118.2,77.6z"/></g><g id="Body_9_"><path class="st38" d="M91.6,81.4l-0.9-4.6l-41,10L48.8,92l-0.1-0.1c-4.8,4-6.2,30.7,0,30c0.8-0.1,1.5-0.1,2.1-0.2    c2.1-0.2,3.8-1.9,3.8-4.1c0-0.8,0.1-1.7,0.2-2.8c4.3,2.1,9.7,3.8,15.5,3.4c-0.1,1.9-0.3,3.4-0.6,3.7c-0.8,1,6.7,2.6,8,1    c0.5-0.6,1.4-3.5,2.1-6.7c3.8-1.1,7-2.5,9.6-3.8c-0.5,2.9-0.9,5.7-0.7,6.5c0.6,1.6,6,0,6,0C100.6,110.1,102.9,89.5,91.6,81.4"/><path class="st38" d="M65.1,100.4c13.8,0,25.9-3,32.5-11.1c-1.3-3.1-3.2-5.9-6-7.9l-0.9-4.6l-41,10L48.8,92l-0.1-0.1    c-1.1,0.9-2.1,3.2-2.8,6C51.6,99.6,58.1,100.4,65.1,100.4z"/><path class="st2" d="M100.4,93.1c-1.2-5.4-3.7-9.7-7.4-12.5l1,5.3c1.9,2.6,2.9,5.5,3.4,7.9c0.8,3.8,0.8,7.8,0.3,11.5    c-0.2,1.5-0.5,2.9-0.8,4.3c-0.8,3.2-1.9,5.9-3.2,8c-1.4,0.4-3,0.6-3.6,0.5c0-0.8,0.2-2.6,0.6-4.7l0-0.2c1.2-0.6,2.3-1.3,2.8-1.5    c0.7-0.4,1.4-1.1,1.2-1.9c-0.3-0.8-1.1-1.5-2-0.9l-0.2,0.1l-0.2,0.1l0,0v0l0,0h0c-0.2,0.1-0.5,0.3-0.8,0.5c-0.6,0.3-1.2,0.7-1.8,1    s-1.2,0.6-1.6,0.9v0c-1.8,0.9-4,1.8-6.4,2.6c0.3-2.5,0.2-4.9-0.5-6.7c-0.3-0.8-1.2-1.1-2-0.8s-1.1,1.2-0.8,2    c0.7,1.6,0.5,4.2,0.1,6.6c-0.2,1.2-0.4,2.3-0.7,3.3c-0.5,1.8-0.9,3.1-1.2,3.6c-0.8,0.4-3.8,0-5.2-0.5c0.1-0.5,0.2-1.1,0.3-1.9    c0.1-0.8,0.2-1.8,0.3-3.1c0.1-2.1,0.2-4.8,0.3-8.6c0-0.8-0.6-1.5-1.5-1.5h0c-0.8,0-1.5,0.7-1.5,1.5c-0.1,3-0.2,6.3-0.3,8.9    c-4.5,0.1-8.8-1.2-12.4-2.8c0.3-1.7,0.9-3.5,1.6-5.5c0.3-0.8-0.1-1.6-0.9-1.9c-0.8-0.3-1.6,0.1-1.9,0.9c-0.7,1.8-1.2,3.6-1.6,5.2    c-0.3,1.1-0.5,2.2-0.5,3.2c-0.1,0.7-0.1,1.3-0.1,1.9c0,1.4-1,2.5-2.4,2.6c-0.6,0-1.3,0.1-2.1,0.2c-0.5,0-1-1-1.2-1.4    c-0.8-1.9-1.2-4.7-1.3-7.8c-0.2-7.4,1.5-16.3,3.6-18.1c0.6-0.5,0.7-1.5,0.2-2.1c-0.5-0.6-1.5-0.7-2.1-0.2    c-0.1,0.1-0.2,0.2-0.3,0.3c-4.4,4.4-5.7,22.5-2.9,29.1c1.2,2.8,2.8,3.3,3.9,3.3c0.1,0,0.3,0,0.4,0c0.8-0.1,1.4-0.1,2-0.2    c2.9-0.2,5.1-2.6,5.1-5.6c0-0.2,0-0.4,0-0.6c3.6,1.5,7.9,2.7,12.5,2.7h0.1c-0.1,0.7-0.1,1.2-0.2,1.4c-0.4,0.7-0.4,1.7,0.6,2.4    c0.9,0.7,3.7,1.5,6.2,1.5c1.6,0,3-0.3,3.7-1.3c0.5-0.7,1.5-3.3,2.2-6.4c2.3-0.7,4.5-1.6,6.3-2.4c-0.3,2.1-0.4,3.7-0.1,4.4    c0.5,1.3,1.8,1.7,3.4,1.7c1.5,0,3.2-0.4,4.5-0.8c0.3-0.1,0.6-0.3,0.8-0.6C99.8,114,102.5,103,100.4,93.1z"/></g><g id="Head_16_"><g id="Mane"><path class="st39" d="M117.5,62.1c1-8.1-2.5-15.8-8.6-20.7c1.9-7.4,0-15.5-5.8-21.6c0,0,0,0,0,0c-6-6.3-14.7-8.7-22.7-7     C75.7,6.3,67.6,2.3,58.8,2.9c-8.8,0.7-16.1,5.8-19.6,13C31,15.5,22.8,19.1,18,26.2c-4.9,7.1-5.2,15.9-1.6,23.1     c-5.4,6-7.5,14.5-4.7,22.7c2.8,8.1,9.7,13.8,17.7,15.6c1.5,7.9,7.2,14.8,15.4,17.7c1.8,0.6,3.6,1.1,5.5,1.3     c6.5,0.8,13-1.1,18-5.1c7.3,3.7,16.3,3.8,23.8-0.7c7.5-4.5,11.5-12.3,11.4-20.2C110.9,77.4,116.5,70.6,117.5,62.1z"/><path class="st2" d="M53.2,108.3c-1,0-2-0.1-3-0.2c-2-0.2-3.9-0.7-5.8-1.4c-8.1-2.9-14.3-9.7-16.2-17.9     c-8.3-2.2-15.1-8.4-17.8-16.3c-2.7-8-1.1-16.9,4.3-23.4c-3.5-7.7-2.7-16.7,2.1-23.7c4.8-7,12.9-11.1,21.6-11     C42.4,7,50.1,2.1,58.7,1.4c8.6-0.6,17.1,3.1,22.3,9.7c8.4-1.4,17.2,1.4,23.1,7.5c0,0,0.1,0.1,0.1,0.1c5.7,6,8,14.1,6.4,22     c6.2,5.4,9.3,13.4,8.4,21.4l0,0c-1,8.4-6.3,15.7-14,19.4c-0.2,8.4-4.8,16.2-12.1,20.6c-7.4,4.4-16.6,4.8-24.4,1.2     C64.1,106.6,58.6,108.3,53.2,108.3z M37.9,17.4c-7.5,0-14.6,3.6-18.7,9.7c-4.4,6.4-4.9,14.6-1.5,21.6c0.3,0.6,0.2,1.2-0.2,1.7     c-5.2,5.8-6.9,13.9-4.4,21.2c2.5,7.3,8.8,12.9,16.6,14.6c0.6,0.1,1,0.6,1.1,1.2c1.5,7.6,7,13.9,14.5,16.6c1.7,0.6,3.4,1,5.2,1.2     c6,0.7,12.2-1,16.9-4.7c0.5-0.4,1.1-0.4,1.6-0.2c7,3.6,15.6,3.4,22.4-0.7c6.7-4,10.8-11.2,10.6-18.9c0-0.6,0.3-1.2,0.9-1.4     c7.2-3.1,12.3-9.8,13.2-17.4l0,0c0.9-7.3-2.1-14.6-8-19.4c-0.5-0.4-0.7-1-0.5-1.5c1.8-7.1-0.2-14.6-5.3-20.1c0,0-0.1-0.1-0.1-0.1     c-5.4-5.7-13.6-8.2-21.4-6.6c-0.6,0.1-1.2-0.1-1.5-0.6c-4.6-6.3-12.4-9.8-20.3-9.3C51,5,44,9.7,40.5,16.6     c-0.3,0.5-0.8,0.9-1.4,0.8C38.7,17.4,38.3,17.4,37.9,17.4z"/></g><g id="Head_5_"><path class="st38" d="M101.2,67.4c0,21-17,28-38,28s-38-7-38-28c0-21,0-48,38-48C101.2,19.4,101.2,46.4,101.2,67.4"/><path class="st40" d="M63.2,89.4c-20.7,0-37.5-6.8-38-27.2c0,1.7,0,3.5,0,5.2c0,21,17,28,38,28c21,0,38-7,38-28     c0-1.7,0-3.4,0-5.2C100.8,82.5,83.9,89.4,63.2,89.4z"/><path class="st41" d="M63.2,70.2c-13.1,0-24.5,6.7-30.2,16.5c6.9,6.2,17.9,8.7,30.2,8.7c12.3,0,23.3-2.4,30.2-8.7     C87.8,76.9,76.4,70.2,63.2,70.2"/><path class="st42" d="M90.7,82.8c-6.9,4.7-16.7,6.6-27.5,6.6c-10.8,0-20.6-1.9-27.5-6.6c-1,1.2-1.8,2.4-2.6,3.7     c0,0.1-0.1,0.1-0.1,0.2c0.4,0.4,0.9,0.7,1.3,1.1l0.1,0.1c0.4,0.3,0.8,0.6,1.3,0.9l0.1,0.1c0.5,0.3,0.9,0.6,1.4,0.9l0.1,0     c1.5,0.9,3.2,1.7,5,2.3l0.2,0.1c0.5,0.2,1,0.4,1.6,0.5c0.1,0,0.2,0.1,0.3,0.1c0.5,0.2,1,0.3,1.5,0.4c0.1,0,0.2,0.1,0.4,0.1     c0.5,0.1,1.1,0.3,1.6,0.4c0.1,0,0.2,0,0.3,0.1c1.3,0.3,2.6,0.5,4,0.7c0.1,0,0.2,0,0.3,0c0.6,0.1,1.1,0.2,1.7,0.2     c0.2,0,0.4,0,0.6,0.1c0.5,0.1,0.9,0.1,1.4,0.1c0.2,0,0.5,0,0.7,0.1c0.5,0,0.9,0.1,1.4,0.1c0.2,0,0.5,0,0.7,0c0.5,0,1,0,1.5,0.1     c0.2,0,0.4,0,0.7,0c0.7,0,1.4,0,2.1,0c0.7,0,1.4,0,2.1,0c0.2,0,0.4,0,0.7,0c0.5,0,1,0,1.5-0.1c0.2,0,0.5,0,0.7,0     c0.5,0,0.9-0.1,1.4-0.1c0.2,0,0.5,0,0.7-0.1c0.5,0,0.9-0.1,1.4-0.1c0.2,0,0.4,0,0.6-0.1c0.6-0.1,1.1-0.1,1.7-0.2     c0.1,0,0.2,0,0.3,0c1.4-0.2,2.7-0.4,4-0.7c0.1,0,0.2,0,0.3-0.1c0.5-0.1,1.1-0.3,1.6-0.4c0.1,0,0.2-0.1,0.4-0.1     c0.5-0.1,1-0.3,1.5-0.4c0.1,0,0.2-0.1,0.3-0.1c0.5-0.2,1.1-0.4,1.6-0.5l0.2-0.1c1.8-0.7,3.4-1.4,5-2.3l0.1,0     c0.5-0.3,1-0.6,1.4-0.9l0.1-0.1c0.4-0.3,0.9-0.6,1.3-0.9l0.1-0.1c0.4-0.3,0.9-0.7,1.3-1.1c0,0,0-0.1-0.1-0.1     C92.6,85.3,91.7,84,90.7,82.8"/><path class="st43" d="M63.2,19.4c-37.8,0-38,26.8-38,47.7v0v0v0v0v0v0v0.1c0,1.1,0.1,2.1,0.1,3c0.8-18.7,5.7-38,37.9-38     s37.1,19.4,37.9,38c0.1-1,0.1-2,0.1-3C101.2,46.4,101.2,19.4,63.2,19.4"/><path class="st2" d="M63.2,96.9c-25.8,0-39.5-10.2-39.5-29.5c0-20.9,0-49.5,39.5-49.5s39.5,28.6,39.5,49.5     C102.7,86.7,89.1,96.9,63.2,96.9z M63.2,20.9c-36.5,0-36.5,25.8-36.5,46.5c0,21.9,19.8,26.5,36.5,26.5s36.5-4.6,36.5-26.5     C99.7,46.7,99.7,20.9,63.2,20.9z"/></g><g id="Eyes_2_"><circle class="st2" cx="79.2" cy="68.9" r="3"/><circle class="st2" cx="47.3" cy="68.9" r="3"/></g><g id="Nose_5_"><path class="st39" d="M70.1,77.8c0,2.4-3.1,7-6.9,7c-3.8,0-6.9-4.5-6.9-7c0-2.4,3.1-4.4,6.9-4.4C67,73.4,70.1,75.3,70.1,77.8z"/><path class="st2" d="M63.2,86.2c-4.6,0-8.4-5.1-8.4-8.5c0-3.3,3.7-5.9,8.4-5.9s8.4,2.6,8.4,5.9C71.6,81.1,67.9,86.2,63.2,86.2z      M63.2,74.9c-3.2,0-5.4,1.5-5.4,2.9c0,1.7,2.5,5.5,5.4,5.5c2.8,0,5.4-3.7,5.4-5.5C68.6,76.4,66.4,74.9,63.2,74.9z"/></g><path class="st2" d="M63.2,96.9c-0.8,0-1.5-0.7-1.5-1.5V84.7c0-0.8,0.7-1.5,1.5-1.5c0.8,0,1.5,0.7,1.5,1.5v10.7    C64.7,96.2,64.1,96.9,63.2,96.9z" id="Mouth_3_"/></g></g><g id="Caterpillar"/><g id="Dolphin"/><g id="Penguin"/><g id="Deer"/><g id="Elephant"/><g id="Panda"/><g id="Giraffe"/><g id="Cow"/><g id="Monkey"/><g id="Rabbit"/><g id="Bear"/><g id="Zebra"/><g id="Crab"/><g id="Crocodile"/><g id="Frog"/><g id="Owl"/><g id="Layer_28"/><g id="Octopus"/><g id="Turtle"/><g id="Squirrel"/><g id="Duck"/><g id="Squid"/><g id="Unicorn"/><g id="Parrot"/><g id="Layer_36"/><g id="Cockroach"/><g id="Gorilla"/><g id="Tiger"/><g id="Goat"/><g id="Whale"/></svg>