<?xml version="1.0" ?><svg style="enable-background:new 0 0 128 128;" version="1.1" viewBox="0 0 128 128" xml:space="preserve" xmlns="http://www.w3.org/2000/svg" xmlns:xlink="http://www.w3.org/1999/xlink"><style type="text/css">
	.st0{fill:#74CBDE;}
	.st1{fill:#B3F4FB;}
	.st2{fill:#301F00;}
	.st3{fill:#2FB0C1;}
	.st4{fill:#F2F2F2;}
	.st5{fill:#CCCCCC;}
	.st6{fill:#FFFFFF;}
	.st7{fill:#629EE1;}
	.st8{fill:#4180D8;}
	.st9{fill:#FF0013;}
	.st10{fill:#FF4D4D;}
	.st11{fill:#C80004;}
	.st12{fill:#FFD81A;}
	.st13{fill:#FFEA55;}
	.st14{fill:#FFB6C6;}
	.st15{fill:#FF97A9;}
	.st16{fill:#FFD0DC;}
	.st17{fill:#FF7287;}
	.st18{fill:#FDAD4C;}
	.st19{fill:#EB9129;}
	.st20{fill:#C13202;}
	.st21{fill:#CA4508;}
	.st22{fill:#FEC769;}
	.st23{fill:#FFEA9A;}
	.st24{fill:#FFDB69;}
	.st25{fill:#999999;}
	.st26{fill:#808080;}
	.st27{fill:#EBEBEB;}
	.st28{opacity:0.8;fill:#B3B3B3;}
	.st29{fill:#BCBCBC;}
	.st30{fill:#A39095;}
	.st31{fill:#B3B3B3;}
	.st32{fill:#EDFFC5;}
	.st33{fill:#F5FFD9;}
	.st34{opacity:0.8;fill:#FCFFF0;}
	.st35{fill:#8CC63F;}
	.st36{fill:#5AA319;}
	.st37{fill:#ACDC57;}
	.st38{fill:#C69452;}
	.st39{fill:#8A4900;}
	.st40{fill:#B17637;}
	.st41{fill:#E1D6BA;}
	.st42{fill:#CCBB92;}
	.st43{fill:#D8AD68;}
	.st44{fill:#253542;}
	.st45{fill:#2B4753;}
	.st46{fill:#FFA227;}
	.st47{fill:#0F171C;}
	.st48{fill:#FFBBBB;}
	.st49{fill:#A9A69C;}
	.st50{fill:#827E74;}
	.st51{fill:#C0BEB4;}
	.st52{fill:#333333;}
	.st53{fill:#FFE581;}
	.st54{fill:#6F4A38;}
	.st55{fill:#FFF5AE;}
	.st56{fill:#FFD252;}
	.st57{fill:#825C4D;}
	.st58{fill:#C97F4E;}
	.st59{fill:#B86538;}
	.st60{fill:#666666;}
	.st61{fill:#4D4D4D;}
	.st62{fill:#D6925E;}
	.st63{fill:#F9C0A7;}
	.st64{fill:#F7AD90;}
	.st65{fill:#D38F5B;}
	.st66{fill:#CD7C4F;}
	.st67{fill:#C1693E;}
	.st68{fill:#A05B38;}
	.st69{fill:#F1D4A5;}
	.st70{fill:#DD9665;}
	.st71{fill:#E7B777;}
	.st72{fill:#4A290A;}
	.st73{fill:#53770C;}
	.st74{fill:#699010;}
	.st75{fill:#884326;}
	.st76{fill:#F6D5A9;}
	.st77{fill:#F1C087;}
	.st78{fill:#FFD4C5;}
	.st79{fill:#FF9797;}
	.st80{fill:#FF8484;}
	.st81{fill:#FFAAAA;}
	.st82{fill:#7C0000;}
	.st83{fill:#A6B855;}
	.st84{fill:#C3D272;}
	.st85{fill:#7D942D;}
	.st86{fill:#68782F;}
	.st87{fill:#4F5E20;}
	.st88{fill:#81923E;}
	.st89{fill:#EE6B2B;}
	.st90{fill:#D2501E;}
	.st91{fill:#FF6868;}
	.st92{fill:#F85E28;}
	.st93{fill:#D5DAE0;}
	.st94{fill:#BCC4CD;}
	.st95{fill:#FDB62E;}
	.st96{fill:#472D07;}
	.st97{fill:#FC9C1B;}
	.st98{fill:#2D1A03;}
	.st99{fill:#FFFFD5;}
	.st100{fill:#FED041;}
	.st101{fill:#61400B;}
	.st102{fill:#FFFF95;}
	.st103{fill:#D7D3C9;}
	.st104{fill:#E8E3DA;}
	.st105{fill:#DDD6CA;}
	.st106{fill:#9E9992;}
	.st107{fill:#847E77;}
	.st108{fill:#F0EDE7;}
	.st109{fill:#88D3ED;}
	.st110{fill:#68C1E4;}
	.st111{fill:#A8E5F6;}
	.st112{fill:#E6E6E6;}
	.st113{fill:#D6D6D6;}
</style><g id="Fish"/><g id="Chicken"/><g id="Pig"/><g id="Dog"/><g id="Cat"/><g id="Bird"/><g id="Koala"/><g id="Mice"/><g id="Snake"/><g id="Lion"/><g id="Caterpillar"/><g id="Dolphin"/><g id="Penguin"/><g id="Deer"/><g id="Elephant"/><g id="Panda"/><g id="Giraffe"/><g id="Cow"/><g id="Monkey"/><g id="Rabbit"/><g id="Bear"/><g id="Zebra"/><g id="Crab"/><g id="Crocodile"/><g id="Frog"/><g id="Owl"/><g id="Layer_28"><g id="Legs_5_"><g><path class="st76" d="M54.9,76.9c-3.4,0-6.2,2.8-6.2,6.2v31.4c0,3.4,2.8,6.2,6.2,6.2s6.2-2.8,6.2-6.2V83.1     C61.1,79.7,58.4,76.9,54.9,76.9z"/><path class="st2" d="M54.9,122.2c-4.2,0-7.7-3.5-7.7-7.7V83.1c0-4.2,3.5-7.7,7.7-7.7c4.2,0,7.7,3.5,7.7,7.7v31.4     C62.6,118.7,59.2,122.2,54.9,122.2z M54.9,78.4c-2.6,0-4.7,2.1-4.7,4.7v31.4c0,2.6,2.1,4.7,4.7,4.7s4.7-2.1,4.7-4.7V83.1     C59.6,80.5,57.5,78.4,54.9,78.4z"/></g><g><path class="st76" d="M73.1,76.9c-3.4,0-6.2,2.8-6.2,6.2v31.4c0,3.4,2.8,6.2,6.2,6.2c3.4,0,6.2-2.8,6.2-6.2V83.1     C79.2,79.7,76.5,76.9,73.1,76.9z"/><path class="st2" d="M73.1,122.2c-4.2,0-7.7-3.5-7.7-7.7V83.1c0-4.2,3.5-7.7,7.7-7.7c4.2,0,7.7,3.5,7.7,7.7v31.4     C80.7,118.7,77.3,122.2,73.1,122.2z M73.1,78.4c-2.6,0-4.7,2.1-4.7,4.7v31.4c0,2.6,2.1,4.7,4.7,4.7s4.7-2.1,4.7-4.7V83.1     C77.7,80.5,75.6,78.4,73.1,78.4z"/></g></g><g id="Body_26_"><path class="st4" d="M106.1,60.4c2.2-3.4,2.3-7.9,0-11.6c-1.4-2.2-3.5-3.8-5.8-4.6c-0.5-2.4-1.7-4.6-3.8-6.3    c-3.2-2.6-7.4-3.1-11-1.7c-1-3.7-3.8-6.8-7.8-7.8c-2.4-0.7-4.9-0.4-7.1,0.5c-1.8-1.4-4.1-2.3-6.7-2.3c-4.1,0-7.6,2.2-9.5,5.4    c-3-2.3-7.1-3-10.9-1.4c-2.4,1-4.2,2.7-5.3,4.8c-2.4,0-4.8,0.8-6.8,2.5c-3.3,2.7-4.6,6.8-3.8,10.7c-4,0.3-7.7,2.9-9.2,6.8    c-1,2.5-1,5.2-0.2,7.6c-1.7,1.9-2.7,4.4-2.7,7.1c0,4.4,2.5,8.1,6.2,9.9c-2.2,3.4-2.3,7.9-0.1,11.6c1.4,2.3,3.5,3.8,5.8,4.6    c0.5,2.4,1.7,4.6,3.8,6.3c3.2,2.6,7.4,3.1,11,1.7c0.9,3.7,3.8,6.8,7.7,7.9c2.4,0.7,4.9,0.4,7.1-0.5c1.8,1.4,4.1,2.3,6.7,2.3    c0,0,0,0,0,0c4,0,7.5-2.2,9.4-5.4c3,2.3,7.1,3,10.9,1.4c2.4-1,4.2-2.7,5.3-4.8c2.4,0,4.8-0.8,6.8-2.5c3.3-2.7,4.6-6.8,3.8-10.7    c4-0.3,7.7-2.8,9.2-6.8c1-2.5,1-5.2,0.2-7.6c1.7-1.9,2.7-4.4,2.7-7.1c0-0.1,0-0.1,0-0.2c0,0,0,0,0-0.1    C112.3,65.9,109.8,62.2,106.1,60.4z"/><path class="st5" d="M106.1,60.4c2.2-3.4,2.3-7.9,0-11.6c-1.4-2.2-3.5-3.8-5.8-4.6c-0.5-2.4-1.7-4.6-3.8-6.3    c-3.2-2.6-7.4-3.1-11-1.7c-1-3.7-3.8-6.8-7.8-7.8c-2.4-0.7-4.9-0.4-7.1,0.5c-1.8-1.4-4.1-2.3-6.7-2.3c-4.1,0-7.6,2.2-9.5,5.4    c-3-2.3-7.1-3-10.9-1.4c-2.4,1-4.2,2.7-5.3,4.8c-2.4,0-4.8,0.8-6.8,2.5c-3.3,2.7-4.6,6.8-3.8,10.7c-4,0.3-7.7,2.9-9.2,6.8    c-1,2.5-1,5.2-0.2,7.6c-1.7,1.9-2.7,4.4-2.7,7.1c0,4.4,2.5,8.1,6.2,9.9c-2.2,3.4-2.3,7.9-0.1,11.6c1.4,2.3,3.5,3.8,5.8,4.6    c0.5,2.4,1.7,4.6,3.8,6.3c3.2,2.6,7.4,3.1,11,1.7c0.9,3.7,3.8,6.8,7.7,7.9c2.4,0.7,4.9,0.4,7.1-0.5c1.8,1.4,4.1,2.3,6.7,2.3    c0,0,0,0,0,0c4,0,7.5-2.2,9.4-5.4c3,2.3,7.1,3,10.9,1.4c2.4-1,4.2-2.7,5.3-4.8c2.4,0,4.8-0.8,6.8-2.5c3.3-2.7,4.6-6.8,3.8-10.7    c4-0.3,7.7-2.8,9.2-6.8c1-2.5,1-5.2,0.2-7.6c1.7-1.9,2.7-4.4,2.7-7.1c0-0.1,0-0.1,0-0.2c0,0,0,0,0-0.1    C112.3,65.9,109.8,62.2,106.1,60.4z M105.7,67.4c0,0,0,0.1,0,0.1c0,2.4-0.9,4.5-2.3,6.2c0.7,2.1,0.7,4.4-0.2,6.6    c-1.4,3.4-4.5,5.6-8,5.9c0.7,3.3-0.4,6.9-3.3,9.2c-1.7,1.4-3.8,2.1-5.9,2.1c-1,1.8-2.6,3.3-4.6,4.1c-3.2,1.4-6.8,0.8-9.4-1.2    c-1.6,2.8-4.7,4.7-8.1,4.7c0,0,0,0,0,0c-2.2,0-4.2-0.7-5.7-2c-1.9,0.8-4,1-6.1,0.4c-3.4-0.9-5.9-3.6-6.7-6.8    c-3.1,1.2-6.7,0.8-9.5-1.5c-1.7-1.4-2.8-3.4-3.2-5.4c-2-0.7-3.8-2-5-4c-2-3.2-1.8-7,0-10c-3.2-1.5-5.4-4.8-5.4-8.5    c0-2.4,0.9-4.5,2.3-6.2c-0.7-2.1-0.7-4.4,0.2-6.6c1.4-3.4,4.5-5.6,8-5.9c-0.7-3.3,0.4-6.9,3.2-9.2c1.7-1.4,3.8-2.1,5.9-2.1    c1-1.8,2.6-3.3,4.6-4.1c3.2-1.4,6.8-0.8,9.4,1.2c1.6-2.8,4.7-4.7,8.2-4.7c2.2,0,4.2,0.7,5.7,2c1.9-0.8,4-1,6.1-0.4    c3.4,0.9,5.9,3.6,6.7,6.8c3.1-1.2,6.7-0.8,9.5,1.5c1.8,1.4,2.8,3.4,3.3,5.4c2,0.7,3.8,2,5,4c2,3.2,1.8,7,0,10    C103.5,60.3,105.7,63.6,105.7,67.4C105.7,67.3,105.7,67.4,105.7,67.4z"/><path class="st2" d="M63.9,115.4c-2.5,0-4.9-0.7-6.9-2.1c-2.3,0.8-4.8,0.9-7.2,0.2c-3.8-1-6.9-3.8-8.3-7.4c-3.8,1-7.9,0.1-11-2.4    c-2-1.6-3.4-3.9-4.1-6.3c-2.4-1-4.4-2.7-5.8-4.9c-2.2-3.6-2.4-8-0.7-11.8c-3.5-2.3-5.7-6.1-5.7-10.4c0-2.7,0.9-5.3,2.5-7.5    c-0.7-2.6-0.6-5.4,0.5-7.9c1.6-3.9,4.9-6.7,8.9-7.5c-0.3-4,1.3-8,4.5-10.6c2-1.6,4.4-2.6,6.9-2.8c1.4-2.1,3.3-3.7,5.6-4.7    c3.6-1.5,7.7-1.2,11,0.7c2.3-3,6-4.9,9.8-4.9c2.5,0,4.9,0.7,6.9,2.1c2.3-0.8,4.9-0.9,7.2-0.2c3.8,1,6.9,3.8,8.3,7.4    c3.8-1,7.9-0.1,11,2.4c2,1.6,3.4,3.8,4.1,6.3c2.4,1,4.4,2.7,5.8,4.9c2.3,3.6,2.5,8,0.7,11.8c3.5,2.3,5.7,6.2,5.7,10.4v0.2    c0,2.7-0.9,5.3-2.5,7.5c0.7,2.6,0.5,5.4-0.5,7.9c-1.6,3.9-4.9,6.7-8.9,7.5c0.3,4-1.3,8-4.5,10.6c-1.9,1.6-4.4,2.5-6.9,2.8    c-1.4,2.1-3.3,3.7-5.6,4.7c-3.6,1.5-7.7,1.2-11.1-0.8C71.4,113.6,67.8,115.4,63.9,115.4z M57.2,110.1c0.3,0,0.7,0.1,0.9,0.3    c1.6,1.3,3.6,2,5.7,2c3.4,0,6.5-1.8,8.2-4.7c0.2-0.4,0.6-0.6,1-0.7c0.4-0.1,0.9,0,1.2,0.3c2.7,2.1,6.3,2.5,9.4,1.2    c2-0.8,3.6-2.3,4.6-4.1c0.3-0.5,0.8-0.8,1.3-0.8c2.2,0,4.2-0.8,5.9-2.1c2.7-2.2,4-5.8,3.3-9.2c-0.1-0.4,0-0.9,0.3-1.2    c0.3-0.3,0.7-0.6,1.1-0.6c3.6-0.3,6.6-2.5,8-5.9c0.8-2.1,0.9-4.4,0.2-6.6c-0.2-0.5-0.1-1.1,0.3-1.5c1.5-1.7,2.3-3.9,2.3-6.2v-0.1    c0-3.7-2.1-7-5.4-8.6c-0.4-0.2-0.7-0.5-0.8-0.9s-0.1-0.9,0.2-1.2c1.9-3.1,1.9-6.9,0-10c-1.2-1.9-2.9-3.3-5-3.9    c-0.5-0.2-0.9-0.6-1-1.1c-0.4-2.1-1.6-4.1-3.3-5.4c-2.7-2.2-6.3-2.8-9.5-1.5c-0.4,0.2-0.9,0.1-1.2-0.1s-0.7-0.5-0.8-1    c-0.9-3.3-3.4-5.9-6.7-6.8c-2-0.5-4.1-0.4-6.1,0.4c-0.5,0.2-1.1,0.1-1.5-0.2c-1.7-1.3-3.6-2-5.7-2c0,0,0,0,0,0    c-3.3,0-6.5,1.8-8.1,4.7c-0.2,0.4-0.6,0.6-1,0.7c-0.4,0.1-0.9,0-1.2-0.3c-2.7-2.1-6.3-2.5-9.4-1.2c-2,0.8-3.6,2.3-4.6,4.1    c-0.3,0.5-0.8,0.8-1.3,0.8c-2.1,0-4.2,0.7-5.8,2.1c-2.7,2.2-4,5.8-3.2,9.2c0.1,0.4,0,0.9-0.3,1.2c-0.3,0.3-0.7,0.6-1.1,0.6    c-3.6,0.3-6.6,2.5-8,5.9c-0.8,2.1-0.9,4.4-0.2,6.6c0.2,0.5,0.1,1.1-0.3,1.5c-1.5,1.7-2.3,3.9-2.3,6.2c0,3.7,2.1,6.9,5.4,8.5    c0.4,0.2,0.7,0.5,0.8,0.9s0.1,0.9-0.2,1.2c-1.9,3-1.9,7,0,10c1.2,1.9,2.9,3.3,5,4c0.5,0.2,0.9,0.6,1,1.1c0.4,2.1,1.6,4.1,3.3,5.5    c2.6,2.2,6.3,2.7,9.5,1.5c0.4-0.2,0.9-0.1,1.2,0.1c0.4,0.2,0.7,0.5,0.8,1c0.8,3.3,3.4,5.9,6.7,6.8c2,0.5,4.1,0.4,6.1-0.4    C56.8,110.2,57,110.1,57.2,110.1z"/></g><g id="Head_34_"><g><path class="st76" d="M94.7,57.6c0,17-13.8,23.8-30.7,23.8s-30.7-6.8-30.7-23.8s4-37.6,30.7-37.6S94.7,40.6,94.7,57.6z"/><path class="st77" d="M64,19.9c-19,0-26.5,10.5-29.3,22.7c0.5,2.6,2.1,4.9,4.7,6.1c1.8,0.8,3.7,0.9,5.5,0.4     c1.1,1.4,2.7,2.4,4.6,2.7c2.9,0.6,5.8-0.5,7.7-2.6c1.4,2.4,4,4,7,4c2.3,0,4.4-1,5.9-2.6c1.7,1.4,4,2,6.3,1.6     c1.8-0.3,3.4-1.2,4.6-2.5c1.7,0.6,3.5,0.6,5.3-0.1c3.4-1.3,5.4-4.6,5.3-8c0.3,0,0.7,0.1,1,0.1c0.2,0,0.4,0,0.6,0     C90.2,29.9,82.6,19.9,64,19.9z"/><path class="st2" d="M64,82.9c-20.5,0-32.2-9.2-32.2-25.3c0-26.3,10.5-39.1,32.2-39.1s32.2,12.8,32.2,39.1     C96.2,73.6,84.5,82.9,64,82.9z M64,21.4c-19.9,0-29.2,11.5-29.2,36.1c0,20.1,20.4,22.3,29.2,22.3s29.2-2.2,29.2-22.3     C93.2,32.9,83.9,21.4,64,21.4z"/></g><path class="st2" d="M69.5,67.2c0,1.5-1.6,4.2-3.8,5.1c-0.5,0.3-1.1,0.4-1.7,0.4c-0.6,0-1.2-0.1-1.7-0.4    c-2.2-1-3.8-3.6-3.8-5.1c0-1.6,1.6-2.9,3.8-3.3c0.5-0.1,1.1-0.2,1.6-0.2c0.6,0,1.1,0.1,1.6,0.2C67.9,64.3,69.5,65.6,69.5,67.2z" id="Nose_11_"/><path class="st2" d="M65.7,64.4v12.2c0,0.9-0.8,1.7-1.7,1.7c-0.9,0-1.7-0.8-1.7-1.7V64.4c0-0.2,0-0.4,0.1-0.5    c0.5-0.1,1.1-0.2,1.6-0.2c0.6,0,1.1,0.1,1.6,0.2C65.7,64,65.7,64.2,65.7,64.4z" id="Mouth_9_"/><g id="Eyes_22_"><circle class="st2" cx="78" cy="61.7" r="3"/><circle class="st2" cx="50" cy="61.7" r="3"/></g><g id="Fur_1_"><path class="st4" d="M93.4,20.7c-0.2-2.9-2-5.6-4.8-6.9c-1.8-0.8-3.7-0.9-5.5-0.4C82,12,80.4,11,78.5,10.7     c-2.9-0.6-5.8,0.5-7.7,2.6c-1.4-2.4-4-4-7-4c-2.3,0-4.4,1-5.9,2.6c-1.7-1.4-4-2-6.3-1.6c-1.8,0.3-3.4,1.2-4.6,2.5     c-1.7-0.6-3.5-0.6-5.3,0.1c-3.4,1.3-5.4,4.6-5.3,8c-0.4,0-0.7-0.1-1.1-0.1c-4.5,0-8.1,3.8-8,8.3c0,4.2,3.2,7.7,7.2,8.1     c0.2,2.9,2,5.7,4.8,6.9c1.8,0.8,3.7,0.9,5.5,0.4c1.1,1.4,2.7,2.4,4.6,2.7c2.9,0.6,5.8-0.5,7.7-2.6c1.4,2.4,4,4,7,4     c2.3,0,4.4-1,5.9-2.6c1.7,1.4,4,2,6.3,1.6c1.8-0.3,3.4-1.2,4.6-2.5c1.7,0.6,3.5,0.6,5.3-0.1c3.4-1.3,5.4-4.6,5.3-8     c0.3,0,0.7,0.1,1,0.1c4.5,0,8.1-3.7,8.1-8.3c0,0,0-0.1,0-0.1c0-0.1,0-0.1,0-0.2C100.5,24.6,97.4,21.1,93.4,20.7z"/><path class="st5" d="M96.2,21.6c0.4,0.9,0.7,2,0.7,3.1c0,0,0,0.1,0,0.1c0,0,0,0.1,0,0.1c0,4.1-3.3,7.4-7.3,7.4     c-0.3,0-0.6,0-0.9-0.1c0.1,3.1-1.7,6.1-4.8,7.2c-1.6,0.6-3.3,0.6-4.8,0.1c-1.1,1.1-2.5,2-4.1,2.2c-2.1,0.3-4.1-0.2-5.6-1.5     c-1.3,1.4-3.2,2.3-5.3,2.3c-2.7,0-5-1.4-6.3-3.6c-1.7,1.9-4.3,2.9-6.9,2.3c-1.7-0.3-3.1-1.2-4.1-2.5c-1.6,0.4-3.3,0.3-4.9-0.4     c-2.5-1.1-4.1-3.6-4.3-6.2c-3.6-0.4-6.4-3.5-6.5-7.3c0-1.2,0.3-2.3,0.7-3.3c-2.6,1.4-4.4,4.2-4.4,7.4c0,4.2,3.2,7.7,7.2,8.1     c0.2,2.9,2,5.7,4.8,6.9c1.8,0.8,3.7,0.9,5.5,0.4c1.1,1.4,2.7,2.4,4.6,2.7c2.9,0.6,5.8-0.5,7.7-2.6c1.4,2.4,4,4,7,4     c2.3,0,4.4-1,5.9-2.6c1.7,1.4,4,2,6.3,1.6c1.8-0.3,3.4-1.2,4.6-2.5c1.7,0.6,3.5,0.6,5.3-0.1c3.4-1.3,5.4-4.6,5.3-8     c0.3,0,0.7,0.1,1,0.1c4.5,0,8.1-3.7,8.1-8.3c0,0,0-0.1,0-0.1c0-0.1,0-0.1,0-0.2C100.5,25.6,98.7,22.9,96.2,21.6z"/><path class="st6" d="M93.4,20.7c-0.2-2.9-2-5.6-4.8-6.9c-1.8-0.8-3.7-0.9-5.5-0.4C82,12,80.4,11,78.5,10.7     c-2.9-0.6-5.8,0.5-7.7,2.6c-1.4-2.4-4-4-7-4c-2.3,0-4.4,1-5.9,2.6c-1.7-1.4-4-2-6.3-1.6c-1.8,0.3-3.4,1.2-4.6,2.5     c-1.7-0.6-3.5-0.6-5.3,0.1c-3.4,1.3-5.4,4.6-5.3,8c-0.4,0-0.7-0.1-1.1-0.1c-4.5,0-8.1,3.8-8,8.3c0,0.7,0.1,1.5,0.3,2.1     c0.9-3.5,4-6,7.7-6c0.4,0,0.7,0,1.1,0.1c-0.1-3.5,1.9-6.8,5.3-8c1.8-0.7,3.7-0.7,5.3-0.1c1.2-1.3,2.8-2.2,4.6-2.5     c2.3-0.4,4.6,0.3,6.3,1.6c1.5-1.6,3.6-2.6,5.9-2.6c3,0,5.6,1.6,7,4c1.9-2.1,4.7-3.2,7.7-2.6c1.8,0.4,3.4,1.4,4.6,2.7     c1.8-0.5,3.7-0.4,5.5,0.4c2.8,1.3,4.6,4,4.8,6.9c3.3,0.4,6.1,2.8,7,6c0.2-0.7,0.3-1.4,0.3-2.2c0,0,0-0.1,0-0.1c0-0.1,0-0.1,0-0.2     C100.5,24.6,97.4,21.1,93.4,20.7z"/><path class="st2" d="M64,50.3c-2.8,0-5.4-1.2-7.2-3.3c-2.2,1.7-5,2.4-7.8,1.8c-1.8-0.4-3.5-1.3-4.8-2.6c-1.9,0.3-3.8,0.1-5.6-0.7     c-2.9-1.3-4.9-3.9-5.5-7c-4.2-1-7.3-4.9-7.4-9.4c0-5.3,4-9.6,9.2-9.8c0.5-3.6,2.8-6.6,6.2-7.9c1.7-0.7,3.6-0.8,5.4-0.4     c1.3-1.2,3-2,4.8-2.3c2.2-0.4,4.5,0,6.4,1.2c1.7-1.4,3.8-2.2,6-2.2c2.8,0,5.4,1.2,7.2,3.3c2.2-1.7,5-2.4,7.8-1.8     c1.8,0.4,3.5,1.3,4.8,2.5c1.9-0.3,3.8-0.1,5.6,0.7c2.9,1.3,4.9,3.9,5.5,7c4.2,1,7.3,4.8,7.4,9.3l0,0.3c0,5.3-4.1,9.6-9.2,9.8     c-0.5,3.5-2.8,6.6-6.2,7.9c-1.7,0.6-3.6,0.8-5.4,0.4c-1.4,1.2-3,2-4.8,2.3c-2.2,0.4-4.5-0.1-6.4-1.2C68.4,49.5,66.2,50.3,64,50.3     z M57.1,43.3c0,0,0.1,0,0.1,0c0.5,0,0.9,0.3,1.2,0.7c1.2,2.1,3.3,3.3,5.7,3.3c1.8,0,3.5-0.8,4.8-2.1c0.5-0.6,1.4-0.7,2-0.2     c1.5,1.2,3.3,1.6,5.1,1.3c1.4-0.2,2.7-0.9,3.7-2c0.4-0.4,1-0.6,1.6-0.4c1.4,0.5,2.9,0.5,4.3-0.1c2.7-1,4.4-3.7,4.3-6.6     c0-0.4,0.2-0.9,0.5-1.2c0.3-0.3,0.8-0.4,1.2-0.4c0.3,0,0.6,0.1,0.9,0.1c3.6,0,6.6-3,6.6-6.8v-0.3c-0.1-3.4-2.6-6.2-5.9-6.6     c-0.7-0.1-1.3-0.7-1.3-1.4c-0.2-2.5-1.7-4.6-3.9-5.7c-1.4-0.6-2.9-0.8-4.4-0.3c-0.6,0.2-1.2,0-1.6-0.5c-1-1.1-2.2-1.9-3.7-2.2     c-2.3-0.5-4.7,0.3-6.2,2.1c-0.3,0.4-0.8,0.6-1.3,0.5c-0.5,0-0.9-0.3-1.2-0.7c-1.2-2.1-3.3-3.3-5.7-3.3c-1.8,0-3.5,0.8-4.8,2.1     c-0.5,0.6-1.4,0.6-2,0.2c-1.4-1.1-3.3-1.6-5.1-1.3c-1.4,0.2-2.7,0.9-3.7,2c-0.4,0.4-1,0.6-1.6,0.4c-1.4-0.5-2.9-0.4-4.3,0.1     c-2.7,1-4.4,3.7-4.3,6.6c0,0.4-0.2,0.9-0.5,1.2c-0.3,0.3-0.8,0.4-1.2,0.4c-0.3,0-0.6,0-0.9,0c-3.7,0-6.6,3.1-6.6,6.8     c0,3.4,2.6,6.3,5.9,6.7c0.7,0.1,1.3,0.7,1.3,1.4c0.2,2.5,1.7,4.7,3.9,5.7c1.4,0.6,2.9,0.8,4.4,0.3c0.6-0.2,1.2,0,1.6,0.5     c1,1.2,2.3,1.9,3.7,2.2c2.3,0.5,4.7-0.3,6.2-2.1C56.2,43.5,56.6,43.3,57.1,43.3z"/></g></g></g><g id="Octopus"/><g id="Turtle"/><g id="Squirrel"/><g id="Duck"/><g id="Squid"/><g id="Unicorn"/><g id="Parrot"/><g id="Layer_36"/><g id="Cockroach"/><g id="Gorilla"/><g id="Tiger"/><g id="Goat"/><g id="Whale"/></svg>