<?xml version="1.0" ?><svg style="enable-background:new 0 0 128 128;" version="1.1" viewBox="0 0 128 128" xml:space="preserve" xmlns="http://www.w3.org/2000/svg" xmlns:xlink="http://www.w3.org/1999/xlink"><style type="text/css">
	.st0{fill:#74CBDE;}
	.st1{fill:#B3F4FB;}
	.st2{fill:#301F00;}
	.st3{fill:#2FB0C1;}
	.st4{fill:#F2F2F2;}
	.st5{fill:#CCCCCC;}
	.st6{fill:#FFFFFF;}
	.st7{fill:#629EE1;}
	.st8{fill:#4180D8;}
	.st9{fill:#FF0013;}
	.st10{fill:#FF4D4D;}
	.st11{fill:#C80004;}
	.st12{fill:#FFD81A;}
	.st13{fill:#FFEA55;}
	.st14{fill:#FFB6C6;}
	.st15{fill:#FF97A9;}
	.st16{fill:#FFD0DC;}
	.st17{fill:#FF7287;}
	.st18{fill:#FDAD4C;}
	.st19{fill:#EB9129;}
	.st20{fill:#C13202;}
	.st21{fill:#CA4508;}
	.st22{fill:#FEC769;}
	.st23{fill:#FFEA9A;}
	.st24{fill:#FFDB69;}
	.st25{fill:#999999;}
	.st26{fill:#808080;}
	.st27{fill:#EBEBEB;}
	.st28{opacity:0.8;fill:#B3B3B3;}
	.st29{fill:#BCBCBC;}
	.st30{fill:#A39095;}
	.st31{fill:#B3B3B3;}
	.st32{fill:#EDFFC5;}
	.st33{fill:#F5FFD9;}
	.st34{opacity:0.8;fill:#FCFFF0;}
	.st35{fill:#8CC63F;}
	.st36{fill:#5AA319;}
	.st37{fill:#ACDC57;}
	.st38{fill:#C69452;}
	.st39{fill:#8A4900;}
	.st40{fill:#B17637;}
	.st41{fill:#E1D6BA;}
	.st42{fill:#CCBB92;}
	.st43{fill:#D8AD68;}
	.st44{fill:#253542;}
	.st45{fill:#2B4753;}
	.st46{fill:#FFA227;}
	.st47{fill:#0F171C;}
	.st48{fill:#FFBBBB;}
	.st49{fill:#A9A69C;}
	.st50{fill:#827E74;}
	.st51{fill:#C0BEB4;}
	.st52{fill:#333333;}
	.st53{fill:#FFE581;}
	.st54{fill:#6F4A38;}
	.st55{fill:#FFF5AE;}
	.st56{fill:#FFD252;}
	.st57{fill:#825C4D;}
	.st58{fill:#C97F4E;}
	.st59{fill:#B86538;}
	.st60{fill:#666666;}
	.st61{fill:#4D4D4D;}
	.st62{fill:#D6925E;}
	.st63{fill:#F9C0A7;}
	.st64{fill:#F7AD90;}
	.st65{fill:#D38F5B;}
	.st66{fill:#CD7C4F;}
	.st67{fill:#C1693E;}
	.st68{fill:#A05B38;}
	.st69{fill:#F1D4A5;}
	.st70{fill:#DD9665;}
	.st71{fill:#E7B777;}
	.st72{fill:#4A290A;}
	.st73{fill:#53770C;}
	.st74{fill:#699010;}
	.st75{fill:#884326;}
	.st76{fill:#F6D5A9;}
	.st77{fill:#F1C087;}
	.st78{fill:#FFD4C5;}
	.st79{fill:#FF9797;}
	.st80{fill:#FF8484;}
	.st81{fill:#FFAAAA;}
	.st82{fill:#7C0000;}
	.st83{fill:#A6B855;}
	.st84{fill:#C3D272;}
	.st85{fill:#7D942D;}
	.st86{fill:#68782F;}
	.st87{fill:#4F5E20;}
	.st88{fill:#81923E;}
	.st89{fill:#EE6B2B;}
	.st90{fill:#D2501E;}
	.st91{fill:#FF6868;}
	.st92{fill:#F85E28;}
	.st93{fill:#D5DAE0;}
	.st94{fill:#BCC4CD;}
	.st95{fill:#FDB62E;}
	.st96{fill:#472D07;}
	.st97{fill:#FC9C1B;}
	.st98{fill:#2D1A03;}
	.st99{fill:#FFFFD5;}
	.st100{fill:#FED041;}
	.st101{fill:#61400B;}
	.st102{fill:#FFFF95;}
	.st103{fill:#D7D3C9;}
	.st104{fill:#E8E3DA;}
	.st105{fill:#DDD6CA;}
	.st106{fill:#9E9992;}
	.st107{fill:#847E77;}
	.st108{fill:#F0EDE7;}
	.st109{fill:#88D3ED;}
	.st110{fill:#68C1E4;}
	.st111{fill:#A8E5F6;}
	.st112{fill:#E6E6E6;}
	.st113{fill:#D6D6D6;}
</style><g id="Fish"/><g id="Chicken"/><g id="Pig"/><g id="Dog"/><g id="Cat"/><g id="Bird"/><g id="Koala"/><g id="Mice"/><g id="Snake"/><g id="Lion"/><g id="Caterpillar"/><g id="Dolphin"/><g id="Penguin"/><g id="Deer"/><g id="Elephant"/><g id="Panda"/><g id="Giraffe"/><g id="Cow"/><g id="Monkey"/><g id="Rabbit"/><g id="Bear"/><g id="Zebra"/><g id="Crab"/><g id="Crocodile"><g id="Scale"><g><path class="st73" d="M79.2,109c-0.6,0-1.2-0.3-1.6-0.8l-1.5-2.1c-0.3-0.4-0.4-1-0.2-1.5s0.7-0.8,1.2-0.9l3.4-0.4     c0.1,0,0.1,0,0.2,0c0.5,0,0.9,0.2,1.2,0.6c0.3,0.4,0.4,1,0.2,1.5l-1,2.4C80.7,108.5,80,109,79.2,109z"/><path class="st73" d="M75.8,104.9c0,0,0.1,0,0.1,0l3-1c0.2-0.1,0.4,0,0.5,0.1c0.1,0.1,0.2,0.3,0.1,0.4l-0.8,2     c-0.1,0.2-0.3,0.4-0.5,0.6c-0.4,0.2-0.8,0.2-1.1,0l-1.5-1.3c-0.1-0.1-0.2-0.3-0.1-0.4C75.5,105.1,75.7,105,75.8,104.9z"/><path class="st2" d="M80.7,104.8l-1,2.4c-0.1,0.2-0.3,0.3-0.4,0.3c-0.1,0-0.3-0.1-0.4-0.2l-1.5-2.1L80.7,104.8 M80.7,101.8     c-0.1,0-0.2,0-0.3,0l-3.4,0.4c-1.1,0.1-2,0.8-2.4,1.8c-0.4,1-0.3,2.1,0.3,3l1.5,2.1c0.7,0.9,1.7,1.4,2.8,1.4     c1.4,0,2.6-0.8,3.2-2.1l1-2.4c0.4-1,0.3-2.1-0.3-3C82.5,102.3,81.6,101.8,80.7,101.8L80.7,101.8z"/></g><g><path class="st74" d="M89.5,107c-0.5,0-1-0.2-1.3-0.5l-2.8-2.2c-0.4-0.3-0.6-0.9-0.6-1.4s0.4-1,0.9-1.2l4.4-1.7     c0.2-0.1,0.4-0.1,0.6-0.1c0.3,0,0.7,0.1,0.9,0.3c0.4,0.3,0.6,0.9,0.6,1.4l-0.5,3.5C91.5,106.2,90.6,107,89.5,107z"/><path class="st73" d="M85.9,102.8c0,0,0.1,0,0.1,0l3-1c0.2-0.1,0.4,0,0.5,0.1c0.1,0.1,0.2,0.3,0.1,0.4l-0.8,2     c-0.1,0.2-0.3,0.4-0.5,0.6c-0.4,0.2-0.8,0.2-1.1,0l-1.5-1.3c-0.1-0.1-0.2-0.3-0.1-0.4C85.7,103,85.8,102.9,85.9,102.8z"/><path class="st2" d="M90.6,101.4l-0.5,3.5c-0.1,0.4-0.4,0.6-0.7,0.6c-0.1,0-0.3,0-0.4-0.1l-2.8-2.2L90.6,101.4 M90.6,98.4     c-0.4,0-0.7,0.1-1.1,0.2l-4.4,1.7c-1,0.4-1.7,1.3-1.9,2.4c-0.2,1.1,0.3,2.1,1.1,2.8l2.8,2.2c0.6,0.5,1.5,0.8,2.3,0.8     c1.8,0,3.4-1.3,3.6-3.1l0.5-3.5c0.2-1.1-0.3-2.1-1.1-2.8C92,98.6,91.3,98.4,90.6,98.4L90.6,98.4z"/></g><g><path class="st74" d="M99.3,103c-0.5,0-1-0.2-1.5-0.5l-3.6-2.8c-0.4-0.3-0.6-0.9-0.6-1.4s0.4-1,0.9-1.2l5.6-2.2     c0.2-0.1,0.4-0.1,0.6-0.1c0.3,0,0.7,0.1,0.9,0.3c0.4,0.3,0.6,0.9,0.6,1.4l-0.7,4.5C101.5,102.2,100.5,103,99.3,103z"/><path class="st73" d="M95,98.9c0,0,0.1-0.1,0.1-0.1l3.4-1.8c0.2-0.1,0.4-0.1,0.6,0c0.2,0.1,0.2,0.3,0.2,0.5l-0.6,2.5     c-0.1,0.3-0.3,0.6-0.5,0.8c-0.4,0.3-1,0.4-1.3,0.2l-2-1.2c-0.2-0.1-0.2-0.3-0.2-0.5C94.8,99.1,94.9,99,95,98.9z"/><path class="st2" d="M100.8,96.3l-0.7,4.5c-0.1,0.4-0.4,0.7-0.8,0.7c-0.2,0-0.4-0.1-0.5-0.2l-3.6-2.8L100.8,96.3 M100.8,93.3     c-0.4,0-0.7,0.1-1.1,0.2l-5.6,2.2c-1,0.4-1.7,1.3-1.9,2.4c-0.2,1.1,0.3,2.1,1.1,2.8l3.6,2.8c0.7,0.5,1.5,0.8,2.4,0.8     c1.9,0,3.5-1.4,3.8-3.3l0.7-4.5c0.2-1.1-0.3-2.1-1.1-2.8C102.2,93.5,101.5,93.3,100.8,93.3L100.8,93.3z"/></g><g><path class="st74" d="M109.4,96c-0.2,0-0.4,0-0.5-0.1l-4.4-1c-0.5-0.1-0.9-0.5-1.1-1s0-1.1,0.3-1.5l4.1-4.4     c0.3-0.3,0.7-0.5,1.1-0.5c0.1,0,0.2,0,0.3,0c0.5,0.1,0.9,0.5,1.1,1l1.3,4.3c0.2,0.7,0.1,1.5-0.4,2.1     C110.9,95.6,110.1,96,109.4,96z"/><path class="st73" d="M104.7,93.2c0,0,0.1-0.1,0.1-0.1l2.8-2.6c0.2-0.2,0.4-0.2,0.6-0.2c0.2,0.1,0.3,0.2,0.3,0.4l0.1,2.6     c0,0.3-0.1,0.6-0.3,0.9c-0.3,0.4-0.8,0.6-1.2,0.5l-2.3-0.6c-0.2-0.1-0.3-0.2-0.3-0.4C104.6,93.5,104.6,93.3,104.7,93.2z"/><path class="st2" d="M108.9,89.1l1.3,4.3c0.2,0.6-0.3,1.1-0.8,1.1c-0.1,0-0.1,0-0.2,0l-4.4-1L108.9,89.1L108.9,89.1z M108.9,86.1     c-0.8,0-1.6,0.3-2.2,1l-4.1,4.4c-0.7,0.8-1,1.9-0.7,2.9c0.3,1,1.2,1.8,2.2,2l4.4,1c0.3,0.1,0.6,0.1,0.9,0.1     c1.2,0,2.4-0.6,3.1-1.6c0.7-1,0.9-2.3,0.6-3.4l-1.3-4.3c-0.3-1-1.2-1.8-2.2-2C109.3,86.1,109.1,86.1,108.9,86.1L108.9,86.1z"/></g><g><path class="st74" d="M113.3,87.2c-0.5,0-1-0.3-1.3-0.7c-0.3-0.5-0.3-1,0-1.5l3-5.2c0.3-0.5,0.8-0.8,1.3-0.8c0,0,0,0,0,0     c0.5,0,1,0.3,1.3,0.7l2.3,3.9c0.4,0.7,0.4,1.6,0,2.4c-0.4,0.7-1.2,1.2-2,1.2C117.8,87.2,113.3,87.2,113.3,87.2z"/><path class="st73" d="M112.1,85.2c0-0.1,0.1-0.1,0.1-0.2l2.7-3.9c0.2-0.2,0.4-0.4,0.7-0.4c0.2,0,0.4,0.2,0.5,0.4l0.9,3.1     c0.1,0.4,0.1,0.8-0.1,1.2c-0.3,0.6-0.8,1-1.4,1l-2.9-0.1c-0.2,0-0.4-0.2-0.5-0.4C112,85.6,112,85.4,112.1,85.2z"/><path class="st2" d="M116.2,80.5l2.3,3.9c0.3,0.6-0.1,1.3-0.7,1.3l-4.5,0L116.2,80.5 M116.2,77.5     C116.2,77.5,116.2,77.5,116.2,77.5c-1.1,0-2.1,0.6-2.6,1.5l-3,5.2c-0.5,0.9-0.5,2.1,0,3c0.5,0.9,1.5,1.5,2.6,1.5c0,0,0,0,0,0     l4.5,0c1.4,0,2.6-0.8,3.3-1.9s0.7-2.7,0-3.9l-2.3-3.9C118.3,78.1,117.3,77.5,116.2,77.5L116.2,77.5z"/></g><g><path class="st74" d="M116.3,78.7c-0.4,0-0.8-0.2-1.1-0.4c-0.4-0.4-0.5-0.9-0.4-1.4l1.8-6.7c0.1-0.5,0.5-0.9,1.1-1.1     c0.1,0,0.3-0.1,0.4-0.1c0.4,0,0.8,0.2,1.1,0.4l3.7,3.7c0.6,0.6,0.9,1.5,0.6,2.4c-0.2,0.9-0.9,1.5-1.8,1.7l-5,1.3     C116.5,78.6,116.4,78.7,116.3,78.7z"/><path class="st73" d="M116,76.9c0-0.1,0-0.1,0-0.2l1-4.6c0.1-0.3,0.2-0.5,0.5-0.6c0.2-0.1,0.5,0,0.6,0.2l2,2.5     c0.2,0.3,0.4,0.7,0.3,1.1c0,0.7-0.4,1.2-0.9,1.4l-2.7,1c-0.2,0.1-0.5,0-0.6-0.2C116.1,77.3,116,77.1,116,76.9z"/><path class="st2" d="M118,70.5l3.7,3.7c0.5,0.5,0.3,1.4-0.4,1.6l-5,1.3L118,70.5 M118,67.5c-0.3,0-0.5,0-0.8,0.1     c-1,0.3-1.8,1.1-2.1,2.1l-1.8,6.7c-0.3,1,0,2.1,0.8,2.9c0.6,0.6,1.3,0.9,2.1,0.9c0.3,0,0.5,0,0.8-0.1l5-1.3     c1.4-0.4,2.4-1.4,2.8-2.8s0-2.8-1-3.8l-3.7-3.7C119.6,67.8,118.8,67.5,118,67.5L118,67.5z"/></g><g><path class="st74" d="M117.9,69c-0.5,0-1-0.3-1.3-0.7l-3.7-5.8c-0.3-0.5-0.3-1-0.1-1.5c0.3-0.5,0.7-0.8,1.3-0.8     c0,0,5.2-0.2,5.2-0.2c1,0,1.8,0.4,2.2,1.2s0.5,1.7,0.1,2.4l-2.4,4.6C119,68.7,118.5,69,117.9,69C118,69,117.9,69,117.9,69z"/><path class="st73" d="M117.2,67.2c0,0-0.1-0.1-0.1-0.1l-2.6-3.9c-0.2-0.2-0.2-0.5-0.1-0.8c0.1-0.2,0.3-0.3,0.6-0.3l3.2,0.3     c0.4,0,0.7,0.2,1,0.5c0.5,0.5,0.6,1.1,0.4,1.6l-1.2,2.6c-0.1,0.2-0.3,0.3-0.6,0.3C117.5,67.5,117.3,67.4,117.2,67.2z"/><path class="st2" d="M119.5,61.5c0.7,0,1.2,0.8,0.9,1.4l-2.4,4.6l-3.7-5.8L119.5,61.5C119.5,61.5,119.5,61.5,119.5,61.5      M119.5,58.5c0,0-0.1,0-0.1,0l-5.2,0.2c-1.1,0-2,0.6-2.5,1.6c-0.5,0.9-0.5,2.1,0.1,3l3.7,5.8c0.5,0.9,1.5,1.4,2.5,1.4     c0,0,0.1,0,0.1,0c1.1,0,2-0.6,2.5-1.6l2.4-4.6c0.7-1.2,0.6-2.7-0.1-3.9C122.2,59.2,120.9,58.5,119.5,58.5L119.5,58.5z"/></g><g><path class="st74" d="M112.8,60.2c-0.3,0-0.6-0.1-0.9-0.3l-5.7-3.9c-0.4-0.3-0.7-0.8-0.6-1.4c0-0.5,0.4-1,0.9-1.2l4.7-2.2     c0.3-0.2,0.7-0.2,1.1-0.2c0.7,0,1.3,0.3,1.8,0.8c0.5,0.5,0.7,1.2,0.6,1.9l-0.4,5.2c0,0.5-0.4,1-0.9,1.2     C113.3,60.2,113.1,60.2,112.8,60.2z"/><path class="st73" d="M111.3,59.4c-0.1,0-0.1-0.1-0.2-0.1l-4.1-3.1c-0.3-0.2-0.4-0.5-0.4-0.7c0-0.3,0.2-0.5,0.5-0.5l3.3-0.8     c0.4-0.1,0.8,0,1.2,0.2c0.6,0.3,1,0.9,1,1.5l-0.3,3.1c0,0.3-0.2,0.5-0.5,0.5C111.8,59.6,111.5,59.6,111.3,59.4z"/><path class="st2" d="M112.3,52.5c0.5,0,1,0.5,1,1.1l-0.4,5.2l-5.7-3.9l4.7-2.2C112,52.5,112.1,52.5,112.3,52.5 M112.3,49.5     c-0.6,0-1.2,0.1-1.7,0.4l-4.7,2.2c-1,0.5-1.6,1.4-1.7,2.5c-0.1,1.1,0.4,2.1,1.3,2.7l5.7,3.9c0.5,0.4,1.1,0.5,1.7,0.5     c0.4,0,0.9-0.1,1.3-0.3c1-0.5,1.6-1.4,1.7-2.5l0.4-5.2c0.1-1.1-0.3-2.2-1-3C114.5,50,113.4,49.5,112.3,49.5L112.3,49.5z"/></g><g><path class="st74" d="M103.6,54.7c-0.2,0-0.4,0-0.6-0.1l-7.2-3c-0.5-0.2-0.8-0.7-0.9-1.2s0.2-1.1,0.6-1.4l4.7-3.6     c0.5-0.3,1-0.5,1.6-0.5c1.3,0,2.4,1,2.6,2.3l0.7,5.8c0.1,0.5-0.2,1.1-0.6,1.4C104.2,54.6,103.9,54.7,103.6,54.7z"/><path class="st73" d="M102,53.3c-0.1,0-0.1,0-0.2-0.1l-4.8-1.8c-0.3-0.1-0.5-0.3-0.6-0.6c-0.1-0.3,0.1-0.5,0.3-0.6l3-1.7     c0.4-0.2,0.8-0.3,1.2-0.2c0.7,0.1,1.3,0.6,1.4,1.2l0.6,3c0.1,0.3-0.1,0.5-0.3,0.6C102.5,53.3,102.3,53.3,102,53.3z"/><path class="st2" d="M101.7,46.4c0.5,0,1,0.4,1.1,1l0.7,5.9l-7.2-3l4.7-3.6C101.3,46.5,101.5,46.4,101.7,46.4 M101.7,43.4     c-0.9,0-1.8,0.3-2.5,0.8l-4.7,3.6c-0.9,0.6-1.3,1.7-1.2,2.8c0.1,1.1,0.8,2,1.8,2.4l7.2,3c0.4,0.2,0.8,0.2,1.2,0.2     c0.6,0,1.3-0.2,1.8-0.6c0.9-0.6,1.3-1.7,1.2-2.8l-0.7-5.9C105.6,44.9,103.8,43.4,101.7,43.4L101.7,43.4z"/></g><g><path class="st74" d="M93.6,51c-0.1,0-0.2,0-0.3,0l-8.3-1.9c-0.5-0.1-0.9-0.5-1.1-1c-0.2-0.5,0-1.1,0.3-1.5l4.4-4.7     c0.5-0.6,1.2-0.9,2-0.9c1.2,0,2.2,0.8,2.6,1.9l1.9,6.2c0.2,0.5,0,1.1-0.3,1.5C94.4,50.8,94,51,93.6,51z"/><path class="st73" d="M91.9,49.2c-0.1,0-0.1,0-0.2,0l-5-0.9c-0.3-0.1-0.6-0.2-0.7-0.5c-0.1-0.2,0-0.5,0.2-0.7l2.6-2.2     c0.3-0.3,0.7-0.4,1.2-0.4c0.7,0,1.3,0.4,1.6,0.9l1.2,2.9c0.1,0.2,0,0.5-0.2,0.7C92.4,49.1,92.2,49.2,91.9,49.2z"/><path class="st2" d="M90.5,42.5c0.5,0,1,0.3,1.2,0.9l1.9,6.2l-8.3-1.9l4.4-4.7C89.9,42.6,90.2,42.5,90.5,42.5 M90.5,39.5     c-1.2,0-2.3,0.5-3.1,1.4l-4.4,4.7c-0.7,0.8-1,1.9-0.7,2.9c0.3,1,1.2,1.8,2.2,2l8.3,1.9c0.2,0,0.4,0.1,0.7,0.1     c0.8,0,1.6-0.3,2.2-1c0.7-0.8,1-1.9,0.7-2.9l-1.9-6.2C94,40.7,92.4,39.5,90.5,39.5L90.5,39.5z"/></g><g><path class="st74" d="M83.3,48c-0.1,0-0.2,0-0.3,0l-8.3-1.9c-0.5-0.1-0.9-0.5-1.1-1c-0.2-0.5,0-1.1,0.3-1.5l4.4-4.7     c0.5-0.6,1.2-0.9,2-0.9c1.2,0,2.2,0.8,2.6,1.9l1.9,6.2c0.2,0.5,0,1.1-0.3,1.5C84.1,47.8,83.7,48,83.3,48z"/><path class="st73" d="M81.6,46.8c-0.1,0-0.1,0-0.2,0l-5-0.9c-0.3-0.1-0.6-0.2-0.7-0.5c-0.1-0.2,0-0.5,0.2-0.7l2.6-2.2     c0.3-0.3,0.7-0.4,1.2-0.4c0.7,0,1.3,0.4,1.6,0.9l1.2,2.9c0.1,0.2,0,0.5-0.2,0.7C82.1,46.8,81.8,46.8,81.6,46.8z"/><path class="st2" d="M80.2,39.5c0.5,0,1,0.3,1.2,0.9l1.9,6.2l-8.3-1.9l4.4-4.7C79.5,39.6,79.9,39.5,80.2,39.5 M80.2,36.5     c-1.2,0-2.3,0.5-3.1,1.4l-4.4,4.7c-0.7,0.8-1,1.9-0.7,2.9c0.3,1,1.2,1.8,2.2,2l8.3,1.9c0.2,0,0.4,0.1,0.7,0.1     c0.8,0,1.6-0.3,2.2-1c0.7-0.8,1-1.9,0.7-2.9l-1.9-6.2C83.7,37.7,82,36.5,80.2,36.5L80.2,36.5z"/></g><g><path class="st74" d="M71.3,46c-0.1,0-0.2,0-0.3,0l-9.4-2.1c-0.5-0.1-0.9-0.5-1.1-1s0-1.1,0.3-1.5l4.9-5.3     c0.5-0.6,1.3-0.9,2.1-0.9c1.3,0,2.4,0.8,2.7,2l2.2,6.9c0.2,0.5,0,1.1-0.3,1.5C72.1,45.8,71.7,46,71.3,46z"/><path class="st2" d="M67.8,36.6c0.6,0,1.1,0.3,1.3,1l2.2,6.9l-9.4-2.1l4.9-5.3C67.1,36.8,67.4,36.6,67.8,36.6 M67.8,33.6     c-1.2,0-2.4,0.5-3.2,1.4l-4.9,5.3c-0.7,0.8-1,1.9-0.7,2.9s1.2,1.8,2.2,2l9.4,2.1c0.2,0,0.4,0.1,0.7,0.1c0.8,0,1.6-0.3,2.2-1     c0.7-0.8,1-1.9,0.7-2.9L72,36.7C71.4,34.9,69.7,33.6,67.8,33.6L67.8,33.6z"/></g></g><g id="Body_23_"><path class="st35" d="M66.3,44.5l-20,30c0,0,1.4,0,3.8,0.2c0.2,0,0.4,0,0.6,0c0.2,0,0.5,0,0.7,0c0.5,0,1,0,1.5,0.1    c0.3,0,0.5,0,0.8,0c0.5,0,0.9,0,1.4,0.1c1.3,0.1,2.7,0.2,4.1,0.3c0.3,0,0.7,0,1,0.1c1,0.1,2,0.1,3.1,0.2c0.3,0,0.6,0,0.9,0.1    c0.6,0,1.2,0.1,1.8,0.1c0.6,0,1.2,0.1,1.8,0.1c0.4,0,0.7,0.1,1.1,0.1c0.6,0,1.2,0.1,1.7,0.2c1.8,0.2,3.7,0.4,5.5,0.6    c0.4,0,0.7,0.1,1.1,0.1c0.5,0.1,1.1,0.1,1.6,0.2c0.4,0,0.7,0.1,1.1,0.1c0.3,0,0.7,0.1,1,0.1c0.3,0,0.7,0.1,1,0.1    c0.1,0,0.2,0,0.3,0.1c0.6,0.1,1.1,0.2,1.6,0.3c0,0,0,0,0.1,0c0.3,0.1,0.6,0.1,0.9,0.2c0.4,0.1,0.9,0.2,1.3,0.2    c1.2,0.2,2.3,0.5,3.3,0.8c0.5,0.1,0.9,0.2,1.3,0.4c0.1,0,0.2,0.1,0.3,0.1c0.3,0.1,0.6,0.2,0.9,0.3c0.1,0,0.3,0.1,0.4,0.2    c0.6,0.3,1.1,0.5,1.4,0.8c0.1,0.1,0.2,0.1,0.2,0.2c0,0,0.1,0.1,0.1,0.1c0,0,0.1,0.1,0.1,0.1c0,0.1,0.1,0.1,0.1,0.2    c0,0.1,0,0.2,0.1,0.2c0,0.1,0,0.3,0,0.5c0,0.1,0,0.2,0,0.3v0c0,0.1,0,0.2-0.1,0.3c0,0.1-0.1,0.3-0.2,0.4c0,0.1-0.1,0.3-0.2,0.5    c-0.2,0.3-0.4,0.7-0.6,1.1c-0.1,0.2-0.2,0.4-0.4,0.6c-0.1,0.2-0.3,0.4-0.5,0.6c-0.4,0.6-0.9,1.2-1.5,1.9c-0.2,0.2-0.4,0.4-0.6,0.7    c-0.4,0.5-0.8,0.9-1.3,1.4c-0.2,0.2-0.5,0.5-0.7,0.7c-0.2,0.2-0.5,0.5-0.7,0.7c0,0,0,0,0,0c0,0,0,0,0,0c-0.9,0.9-1.9,1.9-2.9,2.8    c-2.9,2.8-6,5.5-8.5,7.6c-2.8,2.4-4.9,4-4.9,4s38.6-4.3,46-31C123.9,50.6,66.3,44.5,66.3,44.5z M92.8,78.4    c0.3-0.9,0.5-1.7,0.7-2.3c0.8,0.2,2,0.6,2.8,1.2c0.7,0.5,1.3,1.1,1.5,1.9c0.3,1.1-0.1,3.6-4.8,8.1c1.8-2.4,3-4.5,2.8-5.9    c0,0,0,0,0,0C95.7,80.4,95.2,79.4,92.8,78.4z"/><path class="st53" d="M92.8,78.4c0.3-0.9,0.5-1.7,0.7-2.3c0.8,0.2,2,0.6,2.8,1.2c-0.2-0.6-0.5-1.2-1-1.8c-0.4-0.4-0.9-0.8-1.5-1.2    c-0.7-0.4-1.4-0.8-2.3-1.1c-0.1,0-0.1-0.1-0.2-0.1c-1.9-0.8-4.2-1.4-6.6-2c-0.9-0.2-1.8-0.4-2.7-0.5c-8.5-1.6-17.8-2.1-17.8-2.1    h-12l-1.7,4.7L50,74.7v0c0.2,0,0.4,0,0.6,0c0.2,0,0.5,0,0.7,0c0.5,0,1,0,1.5,0.1c0.3,0,0.5,0,0.8,0c0.5,0,0.9,0,1.4,0.1    c1.3,0.1,2.7,0.2,4.1,0.3c0.3,0,0.7,0,1,0.1c1,0.1,2,0.1,3.1,0.2c0.3,0,0.6,0,0.9,0.1c0.6,0,1.2,0.1,1.8,0.1    c0.6,0,1.2,0.1,1.8,0.1c0.4,0,0.7,0.1,1.1,0.1c0.6,0,1.2,0.1,1.7,0.2c1.8,0.2,3.7,0.4,5.5,0.6c0.4,0,0.7,0.1,1.1,0.1    c0.5,0.1,1.1,0.1,1.6,0.2c0.4,0,0.7,0.1,1.1,0.1c0.3,0,0.7,0.1,1,0.2c0.3,0,0.7,0.1,1,0.1c0.1,0,0.2,0,0.3,0.1    c0.5,0.1,1.1,0.2,1.6,0.3c0,0,0,0,0.1,0c0.3,0.1,0.6,0.1,0.9,0.2c0.4,0.1,0.9,0.2,1.3,0.2c1.2,0.2,2.3,0.5,3.3,0.8    c0.5,0.1,0.9,0.2,1.3,0.4c0.1,0,0.2,0.1,0.3,0.1c0.3,0.1,0.6,0.2,0.9,0.3c0.1,0,0.3,0.1,0.4,0.2c0.3,0.1,0.5,0.2,0.8,0.4    C93.1,80.2,93.2,78.5,92.8,78.4z"/><path class="st56" d="M93.3,76.6C93.3,76.6,93.3,76.6,93.3,76.6c-0.4-0.1-0.8-0.2-1.3-0.4c-1-0.3-2.1-0.5-3.3-0.8    c-0.4-0.1-0.9-0.2-1.3-0.2c-0.3,0-0.6-0.1-0.9-0.2c0,0-0.1,0-0.1,0c-0.5-0.1-1.1-0.2-1.6-0.3c-0.1,0-0.2,0-0.3-0.1    c-0.3,0-0.7-0.1-1-0.1c-0.3-0.1-0.7-0.1-1-0.2c-0.4,0-0.7-0.1-1.1-0.1c-0.5-0.1-1.1-0.1-1.6-0.2c-0.3,0-0.7-0.1-1.1-0.1    c-1.8-0.2-3.7-0.4-5.5-0.6c-0.6-0.1-1.2-0.1-1.7-0.2c-0.4,0-0.7-0.1-1.1-0.1c-0.6,0-1.2-0.1-1.8-0.1c-0.6,0-1.2-0.1-1.8-0.1    c-0.3,0-0.6,0-0.9-0.1c-1-0.1-2.1-0.2-3.1-0.2c-0.3,0-0.7-0.1-1-0.1c-1.5-0.1-2.9-0.2-4.1-0.3c-0.5,0-1-0.1-1.4-0.1    c-0.3,0-0.5,0-0.8,0c-0.5,0-1,0-1.5-0.1c-0.2,0-0.5,0-0.7,0c-0.2,0-0.4,0-0.6,0v0l0.5-1.5l0.8-2.1h-1.7l-1.7,4.7L50,74.7v0    c0.2,0,0.4,0,0.6,0c0.2,0,0.5,0,0.7,0c0.5,0,1,0,1.5,0.1c0.3,0,0.5,0,0.8,0c0.5,0,0.9,0,1.4,0.1c1.3,0.1,2.7,0.2,4.1,0.3    c0.3,0,0.7,0,1,0.1c1,0.1,2,0.1,3.1,0.2c0.3,0,0.6,0,0.9,0.1c0.6,0,1.2,0.1,1.8,0.1c0.6,0,1.2,0.1,1.8,0.1c0.4,0,0.7,0.1,1.1,0.1    c0.6,0,1.2,0.1,1.7,0.2c1.8,0.2,3.7,0.4,5.5,0.6c0.4,0,0.7,0.1,1.1,0.1c0.5,0.1,1.1,0.1,1.6,0.2c0.4,0,0.7,0.1,1.1,0.1    c0.3,0,0.7,0.1,1,0.2c0.3,0,0.7,0.1,1,0.1c0.1,0,0.2,0,0.3,0.1c0.5,0.1,1.1,0.2,1.6,0.3c0,0,0,0,0.1,0c0.3,0.1,0.6,0.1,0.9,0.2    c0.4,0.1,0.9,0.2,1.3,0.2c1.2,0.2,2.3,0.5,3.3,0.8c0.5,0.1,0.9,0.2,1.3,0.4c0.1,0,0.2,0.1,0.3,0.1c0.3,0.1,0.6,0.2,0.9,0.3    c0.1,0,0.3,0.1,0.4,0.2c0.3,0.1,0.5,0.2,0.8,0.4c0,0,0.1-1.6-0.3-1.8C93,77.7,93.2,77.1,93.3,76.6z"/><path class="st37" d="M66.3,44.5l-2.8,4.2c10,1.3,54.9,8.5,49,29.8c-1.7,6.1-5,11.1-9.2,15c6.3-4.5,11.6-10.7,13.9-19    C123.9,50.6,66.3,44.5,66.3,44.5z"/><path class="st37" d="M71.3,105.5C71.3,105.5,71.3,105.5,71.3,105.5c0.4-0.3,0.7-0.5,1-0.8C71.6,105.2,71.3,105.5,71.3,105.5z"/><g><circle class="st74" cx="108" cy="87" r="1"/><circle class="st74" cx="92" cy="92" r="1"/><circle class="st74" cx="73" cy="52" r="1"/><circle class="st74" cx="91.5" cy="52.5" r="1.5"/><circle class="st74" cx="116" cy="70" r="2"/><circle class="st74" cx="111.5" cy="61.5" r="1.5"/><circle class="st74" cx="84" cy="50" r="1"/><circle class="st74" cx="89" cy="63" r="2"/><circle class="st74" cx="78" cy="56" r="2"/><circle class="st74" cx="89" cy="63" r="2"/><circle class="st74" cx="102" cy="74" r="2"/><circle class="st74" cx="93.5" cy="59.5" r="1.5"/><circle class="st74" cx="98" cy="62" r="1"/><circle class="st74" cx="104" cy="58" r="1"/><circle class="st74" cx="76" cy="62" r="1"/><circle class="st74" cx="101" cy="87" r="1"/><circle class="st74" cx="96" cy="94" r="1"/><circle class="st74" cx="86" cy="98" r="1"/><circle class="st74" cx="109" cy="69" r="1"/><circle class="st74" cx="78" cy="49" r="1"/><circle class="st74" cx="97" cy="55" r="1"/><circle class="st74" cx="85.5" cy="56.5" r="1.5"/><circle class="st74" cx="82.5" cy="62.5" r="1.5"/><circle class="st74" cx="98.5" cy="67.5" r="1.5"/><circle class="st74" cx="104.5" cy="65.5" r="1.5"/><circle class="st74" cx="109.5" cy="76.5" r="1.5"/><circle class="st74" cx="104.5" cy="81.5" r="1.5"/></g><path class="st2" d="M84.2,76.2c-0.1,0.5-0.2,1-0.3,1.5c0.3,0.1,0.6,0.1,0.9,0.2c0.4,0.1,0.9,0.2,1.3,0.2c1.2,0.2,2.3,0.5,3.3,0.8    c0.2-0.5,0.4-1,0.5-1.4C88.4,77,86.6,76.6,84.2,76.2z M116.7,62.6C106.3,47.4,68,43.2,66.4,43c-0.6-0.1-1.1,0.2-1.4,0.7l-20,30    c-0.3,0.5-0.3,1-0.1,1.5c0.3,0.5,0.7,0.8,1.3,0.8c12.1,0.4,25.1,1.5,34.4,2.7c1,0.2,2,0.3,3,0.5c2.1,0.3,3.9,0.7,5.3,1    c1.2,0.3,2.2,0.6,2.9,0.9c0.5,0.2,0.8,0.4,1,0.6c-0.1,2.4-7.7,10-16.3,17.4c0,0,0,0,0,0c-0.1,0.1-0.3,0.2-0.4,0.3    c-1.9,1.6-3.8,3.2-5.8,4.8c-0.5,0.4-0.7,1.1-0.5,1.7c0.2,0.6,0.8,0.9,1.4,0.9c0.1,0,0.1,0,0.2,0c1.6-0.2,39.7-4.7,47.3-32.1    C119.9,70.5,119.2,66.4,116.7,62.6z M115.8,74.1c-5.4,19.4-28.4,26.6-39.2,28.9c0.5-0.5,1.1-0.9,1.7-1.4c5-4.2,11.1-9.8,14.6-14.3    c0,0,0,0,0,0c1.8-2.4,3-4.5,2.8-5.9c0,0,0,0,0,0c-0.1-0.9-0.6-2-3-3c-0.8-0.3-1.7-0.6-2.9-0.9c-1.5-0.4-3.4-0.8-5.7-1.2    c-0.9-0.2-1.9-0.3-3-0.5c-3-0.4-6.6-0.8-11-1.2c-7.5-0.7-15.1-1.1-19.7-1.3c-0.6,0-1.1-0.1-1.6-0.1l18-27    c5.9,0.7,38.5,5.4,47.2,18.2C116.3,67.4,116.8,70.6,115.8,74.1z"/><path class="st53" d="M92.9,87.3c1.8-2.4,3-4.5,2.8-5.9c0,0,0,0,0,0c-0.1-0.9-0.6-2-3-3c0.3-0.9,0.5-1.7,0.7-2.3    c0.8,0.2,2,0.6,2.8,1.2c0.7,0.5,1.3,1.1,1.5,1.9C98,80.3,97.6,82.8,92.9,87.3z"/><path class="st56" d="M95.8,81.3C95.8,81.3,95.8,81.3,95.8,81.3c0.1,1.4-0.9,3.4-2.7,5.7c1.8-2.3,3.8-5.3,3.7-6.7c0,0,0,0,0,0    c-0.1-0.9-0.9-2.3-3.6-3.2c-0.1,0.4-0.2,0.8-0.4,1.3C95.2,79.4,95.7,80.4,95.8,81.3z"/><g><path class="st35" d="M78.3,70.5c0,0-1.7,10.1-6,12c-1.5,0.7-9-0.9-6-3c2.3-1.7,3-10,3-10s1.8-5.3,1.7-5c-0.1,0.3,7,2,7,2     L78.3,70.5z"/><path class="st36" d="M78.3,70.5c0,0-1.7,10.1-6,12c-1.5,0.7-9-0.9-6-3c0.4-0.3,0.8-0.9,1.1-1.5c0.5,0.2,0.9,0.3,1.5,0.4     c1.4,0.3,2.8,0.4,3.4,0.1c1.4-0.6,2.6-2.2,3.5-3.9c0.9-1.8,1.5-3.9,2-5.4C77.8,69,78,69,78.2,69L78.3,70.5z"/><path class="st35" d="M92.3,74.5c0,0-1.7,9.1-6,11c-1.5,0.7-9-0.9-6-3c2.3-1.7,3-11,3-11l0.7-4l8,2L92.3,74.5z"/><path class="st36" d="M92.3,74c0,0-1.7,10.1-6,12c-1.5,0.7-9-0.9-6-3c0.4-0.3,0.8-0.8,1.1-1.5c0.4,0.1,0.8,0.3,1.2,0.3     c1.5,0.4,3.1,0.4,3.7,0.2c1.4-0.6,2.6-2.2,3.5-4c0.8-1.6,1.4-3.4,1.8-4.8c0.2-0.1,0.4-0.2,0.7-0.2L92.3,74z"/><g><circle class="st74" cx="92" cy="70" r="1"/><circle class="st74" cx="87" cy="68" r="1"/><circle class="st74" cx="73.5" cy="65.5" r="1.5"/></g><path class="st2" d="M100.7,78.5c-1.1-4.8-8-5.6-8.3-5.7c-0.4,0-0.8,0.1-1.1,0.3c-0.3,0.2-0.5,0.6-0.6,1c0,0.1,0,0.1,0,0.2     c-0.1,0.7-0.4,1.9-0.8,3.1c-0.1,0.2-0.1,0.4-0.2,0.6c-0.1,0.3-0.2,0.5-0.3,0.8c-0.2,0.5-0.4,0.9-0.6,1.4C88,82,87,83.5,85.7,84.1     c-0.7,0.2-3.1-0.2-4.2-0.7c0.4-0.4,0.8-0.9,1.1-1.6c0.4-0.8,0.7-1.7,1-2.7c0.1-0.5,0.3-1,0.4-1.5c0.1-0.5,0.2-1,0.3-1.5     c0.3-1.9,0.5-3.7,0.6-4.6c0-0.1,0-0.3,0-0.4c-0.1-0.6-0.6-1-1.2-1.2l0,0l-0.1,0c0,0,0,0,0,0c0,0,0,0,0,0l-4.9-1l0,0c0,0,0,0,0,0     c-0.1,0-0.2,0-0.3,0c-0.2,0-0.3,0-0.5,0.1c-0.5,0.2-0.8,0.6-0.9,1.1c-0.2,1.2-0.6,2.8-1.1,4.3c-0.9,2.9-2.4,5.8-4,6.6     c-0.7,0.2-3.1-0.2-4.2-0.7c0.5-0.5,1-1.2,1.4-2c1.3-2.9,1.8-7.2,1.9-8.8c0.1-0.8-0.5-1.5-1.3-1.6l0,0l-4.9-1l-0.9,2.8l4,0.9     c-0.4,3.4-1.3,6.9-2.2,7.6c-1.5,1.1-1.5,2.5-1,3.4c1,1.7,4.3,2.5,6.6,2.5c0.8,0,1.4-0.1,1.8-0.3c4-1.8,5.9-8.6,6.6-11.7l2.2,0.5     c-0.1,1-0.2,2.1-0.4,3.1c-0.1,0.5-0.2,1-0.3,1.5c0,0,0,0,0,0c-0.1,0.5-0.2,1-0.3,1.5c-0.4,1.3-0.8,2.3-1.2,2.6     c-1.5,1.1-1.5,2.5-1,3.4c1,1.7,4.3,2.5,6.6,2.5c0.8,0,1.4-0.1,1.8-0.3c2.2-1,3.8-3.4,4.9-5.8c0.2-0.4,0.4-0.9,0.5-1.3     c0.2-0.5,0.4-1,0.5-1.4c0.3-0.9,0.5-1.7,0.7-2.3c0.8,0.2,2,0.6,2.8,1.2c0.7,0.5,1.3,1.1,1.5,1.9c0.3,1.1-0.1,3.6-4.8,8.1     c0,0,0,0,0,0c-1.9,1.9-4.6,4-8.3,6.6c-2.3,1.6-5,3.4-8.1,5.3c0,0,0,0,0,0c-0.1,0.1-0.3,0.2-0.4,0.3c-0.4,0.5-0.5,1.2-0.1,1.7     c0,0.1,0.1,0.1,0.1,0.2c0.3,0.3,0.7,0.5,1.1,0.5c0.3,0,0.5-0.1,0.8-0.2c0.1-0.1,0.2-0.1,0.3-0.2C94.6,91.6,101.9,84,100.7,78.5z"/></g></g><g id="Head_31_"><g id="Teeth_1_"><g><path class="st4" d="M14.3,55c-0.7,0-1.4-0.3-2-0.8l-4.6-4.6c-0.4-0.4-0.6-1.1-0.3-1.6S8.2,47,8.8,47h9.9c0.6,0,1.1,0.3,1.3,0.8      s0.2,1.1-0.1,1.6l-3.4,4.5C16.1,54.6,15.2,55,14.3,55L14.3,55z"/><path class="st2" d="M18.7,48.5L18.7,48.5 M18.7,48.5L15.4,53c-0.3,0.3-0.6,0.5-1,0.5c-0.3,0-0.7-0.1-0.9-0.4l-4.6-4.6H18.7       M18.8,45.5L18.8,45.5H8.8c-1.2,0-2.3,0.7-2.8,1.9c-0.5,1.1-0.2,2.4,0.7,3.3l4.6,4.6c0.8,0.8,1.9,1.3,3,1.3      c1.3,0,2.6-0.6,3.4-1.7l3.3-4.4c0.4-0.5,0.7-1.2,0.7-1.9C21.8,46.8,20.4,45.5,18.8,45.5L18.8,45.5z"/></g><g><path class="st4" d="M16.8,65.8c-0.5,0-1-0.3-1.3-0.7c-0.3-0.5-0.3-1.2,0.1-1.7l3.8-5.3c0.5-0.7,1.4-1.1,2.3-1.1      c0.7,0,1.4,0.3,1.9,0.8l4,3.9c0.4,0.4,0.6,1,0.4,1.5c-0.2,0.5-0.6,0.9-1.2,1L17,65.8C17,65.8,16.9,65.8,16.8,65.8z"/><path class="st2" d="M21.7,58.5c0.3,0,0.6,0.1,0.9,0.4l4,3.9l-9.8,1.6l3.8-5.3C20.9,58.7,21.3,58.5,21.7,58.5 M21.7,55.5      c-1.4,0-2.7,0.7-3.5,1.8l-3.8,5.3c-0.7,1-0.8,2.3-0.1,3.3c0.6,0.9,1.5,1.4,2.6,1.4c0.2,0,0.3,0,0.5,0l9.8-1.6      c1.1-0.2,2-1,2.4-2.1s0-2.3-0.8-3.1l-4-3.9C23.9,55.9,22.8,55.5,21.7,55.5L21.7,55.5z"/></g><g><path class="st4" d="M31.4,56c-0.7,0-1.4-0.3-2-0.8l-4.6-4.6c-0.4-0.4-0.6-1.1-0.3-1.6s0.8-0.9,1.4-0.9h9.9      c0.6,0,1.1,0.3,1.3,0.8s0.2,1.1-0.1,1.6l-3.4,4.5C33.1,55.6,32.2,56,31.4,56L31.4,56z"/><path class="st2" d="M35.8,49.5L35.8,49.5 M35.8,49.5L32.4,54c-0.3,0.3-0.6,0.5-1,0.5c-0.3,0-0.7-0.1-0.9-0.4l-4.6-4.6H35.8       M35.8,46.5L35.8,46.5h-9.9c-1.2,0-2.3,0.7-2.8,1.9c-0.5,1.1-0.2,2.4,0.7,3.3l4.6,4.6c0.8,0.8,1.9,1.3,3,1.3      c1.3,0,2.6-0.6,3.4-1.7l3.3-4.4c0.4-0.5,0.7-1.2,0.7-1.9C38.8,47.8,37.4,46.5,35.8,46.5L35.8,46.5z"/></g></g><path class="st35" d="M51.3,31.5c-13.7,0-16.7,7.8-17.6,10.3c-0.6,1.7-8.4,1-13.5,0c-1.9-1.9-3.9-4.5-8.5-4.3    c-4.3,0.2-7.8,4.6-7.8,7c0,3.8,2.6,5.4,6.1,6.3c0.6,0.1,1.2,0.2,1.7,0.2L40,52.5c0,10.8-35.5,9.2-35.5,9.2c0,5.5,1.8,9.9,7.8,11.4    c6.4,1.6,17.9,1.4,23.4,1.4c12.9,0,31,1.2,35-16C72.9,49.7,69.5,31.5,51.3,31.5z"/><path class="st36" d="M71,52.5c-4,17.2-22.2,16-35,16c-5.5,0-17,0.1-23.4-1.4c-3.6-0.9-5.6-2.8-6.7-5.3c-0.8,0-1.3,0-1.3,0    c0,5.5,1.8,9.9,7.8,11.4c6.4,1.6,17.9,1.4,23.4,1.4c12.9,0,31,1.2,35-16c0.5-2,0.7-4.6,0.4-7.2C71.2,51.7,71.1,52.1,71,52.5z"/><path class="st37" d="M12.7,42.3c3-0.1,4.9,1,6.4,2.3c1.7,1.5,3.8,2.3,6,2.6c4.5,0.5,10.5,0.6,10.9-0.7c0.9-2.4,2-10,15.4-10    c14.6,0,19.5,12,19.6,21.1c1.6-9-2.1-26.1-19.7-26.1c-13.7,0-16.7,7.8-17.6,10.3c-0.6,1.7-8.4,1-13.5,0c-1.9-1.9-3.9-4.5-8.5-4.3    c-4.3,0.2-7.8,4.6-7.8,7c0,1.7,0.5,2.9,1.4,3.9C5.8,46,8.9,42.5,12.7,42.3z"/><g id="Pattern"><circle class="st74" cx="8" cy="67" r="2"/><circle class="st74" cx="18" cy="73" r="2"/><circle class="st74" cx="23.5" cy="70.5" r="1.5"/><circle class="st74" cx="28" cy="73" r="1"/><circle class="st74" cx="27" cy="66" r="1"/><circle class="st74" cx="15.5" cy="67.5" r="1.5"/><circle class="st74" cx="41" cy="66" r="1"/><circle class="st74" cx="37" cy="73" r="2"/><circle class="st74" cx="35" cy="65" r="1"/><circle class="st74" cx="46.5" cy="72.5" r="1.5"/><circle class="st74" cx="60" cy="66" r="1"/><circle class="st74" cx="54" cy="72" r="2"/><circle class="st74" cx="54" cy="65" r="1"/></g><path class="st2" d="M40.5,76c-0.8,0-1.7,0-2.5,0c-0.8,0-1.6,0-2.3,0l-1.3,0c-6.1,0-16.4,0-22.5-1.5C6,73.1,3,68.8,3,61.7    c0-0.4,0.2-0.8,0.5-1.1c0.3-0.3,0.7-0.4,1.1-0.4c7.3,0.3,27.3,0,32.7-5.1c0.4-0.4,0.7-0.8,0.9-1.2l-26.7-1.4c-0.7,0-1.4-0.1-2-0.3    c-3.1-0.8-7.2-2.5-7.2-7.7c0-3.2,4.1-8.3,9.2-8.5c4.8-0.2,7.3,2.3,9.1,4.2c0.1,0.1,0.2,0.2,0.2,0.2c5.3,1,10.3,1.1,11.4,0.6    c2.9-7.3,9.3-11,18.9-11c6.9,0,12.6,2.5,16.4,7.4c5.1,6.5,6,15.6,4.6,21.5C68.5,75.1,52.9,76,40.5,76z M35.8,73c0.8,0,1.5,0,2.3,0    c12.4,0.1,27.7,0.1,31.3-14.8c1.2-5.3,0.2-13.5-4.1-18.9c-3.3-4.1-8-6.2-14-6.2c-12.7,0-15.3,7-16.2,9.3c-1.2,3.3-11,1.7-15.2,0.9    c-0.3-0.1-0.6-0.2-0.8-0.4c-0.2-0.2-0.4-0.4-0.6-0.6c-1.7-1.8-3.3-3.4-6.8-3.3c-3.5,0.2-6.4,4-6.4,5.5c0,2.5,1.4,3.9,5,4.8    c0.4,0.1,0.8,0.2,1.4,0.2L40.1,51c0.8,0,1.4,0.7,1.4,1.5c0,1.8-0.7,3.4-2.2,4.8c-6.5,6.2-27.3,6.2-33.3,6c0.4,4.7,2.4,7.3,6.6,8.4    C18.5,73,28.9,73,34.5,73L35.8,73z"/><circle class="st2" cx="49.3" cy="50.5" id="Eye_1_" r="3"/></g></g><g id="Frog"/><g id="Owl"/><g id="Layer_28"/><g id="Octopus"/><g id="Turtle"/><g id="Squirrel"/><g id="Duck"/><g id="Squid"/><g id="Unicorn"/><g id="Parrot"/><g id="Layer_36"/><g id="Cockroach"/><g id="Gorilla"/><g id="Tiger"/><g id="Goat"/><g id="Whale"/></svg>