<?xml version="1.0" ?><svg style="enable-background:new 0 0 128 128;" version="1.1" viewBox="0 0 128 128" xml:space="preserve" xmlns="http://www.w3.org/2000/svg" xmlns:xlink="http://www.w3.org/1999/xlink"><style type="text/css">
	.st0{fill:#74CBDE;}
	.st1{fill:#B3F4FB;}
	.st2{fill:#301F00;}
	.st3{fill:#2FB0C1;}
	.st4{fill:#F2F2F2;}
	.st5{fill:#CCCCCC;}
	.st6{fill:#FFFFFF;}
	.st7{fill:#629EE1;}
	.st8{fill:#4180D8;}
	.st9{fill:#FF0013;}
	.st10{fill:#FF4D4D;}
	.st11{fill:#C80004;}
	.st12{fill:#FFD81A;}
	.st13{fill:#FFEA55;}
	.st14{fill:#FFB6C6;}
	.st15{fill:#FF97A9;}
	.st16{fill:#FFD0DC;}
	.st17{fill:#FF7287;}
	.st18{fill:#FDAD4C;}
	.st19{fill:#EB9129;}
	.st20{fill:#C13202;}
	.st21{fill:#CA4508;}
	.st22{fill:#FEC769;}
	.st23{fill:#FFEA9A;}
	.st24{fill:#FFDB69;}
	.st25{fill:#999999;}
	.st26{fill:#808080;}
	.st27{fill:#EBEBEB;}
	.st28{opacity:0.8;fill:#B3B3B3;}
	.st29{fill:#BCBCBC;}
	.st30{fill:#A39095;}
	.st31{fill:#B3B3B3;}
	.st32{fill:#EDFFC5;}
	.st33{fill:#F5FFD9;}
	.st34{opacity:0.8;fill:#FCFFF0;}
	.st35{fill:#8CC63F;}
	.st36{fill:#5AA319;}
	.st37{fill:#ACDC57;}
	.st38{fill:#C69452;}
	.st39{fill:#8A4900;}
	.st40{fill:#B17637;}
	.st41{fill:#E1D6BA;}
	.st42{fill:#CCBB92;}
	.st43{fill:#D8AD68;}
	.st44{fill:#253542;}
	.st45{fill:#2B4753;}
	.st46{fill:#FFA227;}
	.st47{fill:#0F171C;}
	.st48{fill:#FFBBBB;}
	.st49{fill:#A9A69C;}
	.st50{fill:#827E74;}
	.st51{fill:#C0BEB4;}
	.st52{fill:#333333;}
	.st53{fill:#FFE581;}
	.st54{fill:#6F4A38;}
	.st55{fill:#FFF5AE;}
	.st56{fill:#FFD252;}
	.st57{fill:#825C4D;}
	.st58{fill:#C97F4E;}
	.st59{fill:#B86538;}
	.st60{fill:#666666;}
	.st61{fill:#4D4D4D;}
	.st62{fill:#D6925E;}
	.st63{fill:#F9C0A7;}
	.st64{fill:#F7AD90;}
	.st65{fill:#D38F5B;}
	.st66{fill:#CD7C4F;}
	.st67{fill:#C1693E;}
	.st68{fill:#A05B38;}
	.st69{fill:#F1D4A5;}
	.st70{fill:#DD9665;}
	.st71{fill:#E7B777;}
	.st72{fill:#4A290A;}
	.st73{fill:#53770C;}
	.st74{fill:#699010;}
	.st75{fill:#884326;}
	.st76{fill:#F6D5A9;}
	.st77{fill:#F1C087;}
	.st78{fill:#FFD4C5;}
	.st79{fill:#FF9797;}
	.st80{fill:#FF8484;}
	.st81{fill:#FFAAAA;}
	.st82{fill:#7C0000;}
	.st83{fill:#A6B855;}
	.st84{fill:#C3D272;}
	.st85{fill:#7D942D;}
	.st86{fill:#68782F;}
	.st87{fill:#4F5E20;}
	.st88{fill:#81923E;}
	.st89{fill:#EE6B2B;}
	.st90{fill:#D2501E;}
	.st91{fill:#FF6868;}
	.st92{fill:#F85E28;}
	.st93{fill:#D5DAE0;}
	.st94{fill:#BCC4CD;}
	.st95{fill:#FDB62E;}
	.st96{fill:#472D07;}
	.st97{fill:#FC9C1B;}
	.st98{fill:#2D1A03;}
	.st99{fill:#FFFFD5;}
	.st100{fill:#FED041;}
	.st101{fill:#61400B;}
	.st102{fill:#FFFF95;}
	.st103{fill:#D7D3C9;}
	.st104{fill:#E8E3DA;}
	.st105{fill:#DDD6CA;}
	.st106{fill:#9E9992;}
	.st107{fill:#847E77;}
	.st108{fill:#F0EDE7;}
	.st109{fill:#88D3ED;}
	.st110{fill:#68C1E4;}
	.st111{fill:#A8E5F6;}
	.st112{fill:#E6E6E6;}
	.st113{fill:#D6D6D6;}
</style><g id="Fish"/><g id="Chicken"/><g id="Pig"/><g id="Dog"/><g id="Cat"/><g id="Bird"/><g id="Koala"/><g id="Mice"/><g id="Snake"/><g id="Lion"/><g id="Caterpillar"/><g id="Dolphin"/><g id="Penguin"/><g id="Deer"/><g id="Elephant"/><g id="Panda"/><g id="Giraffe"/><g id="Cow"/><g id="Monkey"/><g id="Rabbit"/><g id="Bear"><g id="Body_20_"><g id="Arms_1_"><g><path class="st66" d="M29.1,94.8c0.3-1.4,1-2.6,2.1-3.7c7.4-7,15.4-8.3,20.6-3.1c2.9,2.9,2.9,7.6,0,10.5c-2.2,2.2-5.3,2.7-8,1.6      c-0.7,0.4-1.6,1.1-2.3,1.7c-3,2.8-7.7,2.7-10.5-0.3C29.2,99.8,28.6,97.2,29.1,94.8z"/><path class="st2" d="M36.4,105.5c-2.4,0-4.7-0.9-6.5-2.8c-2.1-2.2-2.9-5.2-2.2-8.2c0.4-1.7,1.3-3.2,2.5-4.4      c8-7.6,16.9-8.9,22.7-3.1c3.5,3.5,3.5,9.2,0,12.6c-2.3,2.3-5.7,3.2-8.9,2.2c-0.5,0.4-1.1,0.8-1.5,1.2      C40.8,104.7,38.6,105.5,36.4,105.5z M44.2,86.4c-3.7,0-7.9,2-12,5.8c-0.8,0.8-1.4,1.8-1.7,2.9l0,0c-0.5,1.9,0.1,4,1.5,5.4      c2.2,2.4,6,2.5,8.4,0.2c0.7-0.7,1.7-1.4,2.5-1.9c0.4-0.2,0.9-0.3,1.3-0.1c2.2,0.9,4.7,0.4,6.4-1.3c2.3-2.3,2.3-6.1,0-8.4      C48.9,87.3,46.7,86.4,44.2,86.4z"/></g><g><path class="st66" d="M97.2,94.8c-0.3-1.4-1-2.6-2.1-3.7c-7.4-7-15.4-8.3-20.6-3.1c-2.9,2.9-2.9,7.6,0,10.5      c2.2,2.2,5.3,2.7,8,1.6c0.7,0.4,1.6,1.1,2.3,1.7c3,2.8,7.7,2.7,10.5-0.3C97.2,99.8,97.8,97.2,97.2,94.8z"/><path class="st2" d="M90,105.5c-2.2,0-4.4-0.8-6.1-2.4c-0.4-0.4-0.9-0.8-1.5-1.2c-3.1,0.9-6.5,0.1-8.9-2.2      c-3.5-3.5-3.5-9.2,0-12.6c5.8-5.8,14.7-4.6,22.7,3.1c1.3,1.2,2.1,2.7,2.5,4.4l0,0c0.7,2.9-0.2,6-2.2,8.2      C94.7,104.5,92.3,105.5,90,105.5z M82.6,98.7c0.3,0,0.5,0.1,0.8,0.2c0.9,0.5,1.9,1.3,2.5,1.9c2.4,2.2,6.1,2.1,8.4-0.2      c1.4-1.5,1.9-3.5,1.5-5.4l0,0c-0.3-1.1-0.8-2.1-1.7-2.9c-6.7-6.4-14-7.7-18.5-3.1c-2.3,2.3-2.3,6.1,0,8.4      c1.7,1.7,4.2,2.2,6.4,1.3C82.2,98.7,82.4,98.7,82.6,98.7z"/></g></g><g id="Stomache"><path class="st66" d="M80.6,108.4c0,9.6-7.8,12.5-17.4,12.5s-17.4-2.9-17.4-12.5s-1.1-22.3,17.4-22.3S80.6,98.8,80.6,108.4z"/><path class="st67" d="M45.9,110.2c0.5-7.8,3.2-15.1,17.3-15.1s16.8,7.3,17.3,15.1c0.1-0.6,0.1-1.1,0.1-1.7     c0-9.6,1.1-22.3-17.4-22.3s-17.4,12.7-17.4,22.3C45.8,109,45.8,109.6,45.9,110.2z"/><path class="st2" d="M63.2,122.4c-15.6,0-18.9-7.6-18.9-14c0-0.5,0-1,0-1.6c0-6.1-0.1-13,4.5-17.6c3.1-3.1,7.8-4.7,14.4-4.7     c6.6,0,11.3,1.5,14.4,4.7c4.6,4.6,4.5,11.5,4.5,17.6c0,0.5,0,1.1,0,1.6C82.1,114.8,78.8,122.4,63.2,122.4z M63.2,87.6     c-5.8,0-9.8,1.2-12.3,3.8c-3.7,3.7-3.7,9.9-3.6,15.4c0,0.5,0,1.1,0,1.6c0,7.4,5.2,11,15.9,11c10.7,0,15.9-3.6,15.9-11     c0-0.5,0-1.1,0-1.6c0-5.5,0.1-11.7-3.6-15.4C73,88.8,68.9,87.6,63.2,87.6z"/></g><g id="Legs_1_"><g><path class="st68" d="M78.7,115.7c0,4.7-3,6.4-6.8,6.4c-3.7,0-6.8-1.8-6.8-6.4s1.5-10.4,6.8-10.4S78.7,111.1,78.7,115.7z"/><path class="st2" d="M71.9,123.7c-5.2,0-8.3-3-8.3-7.9c0-7.3,3.2-11.9,8.3-11.9s8.3,4.6,8.3,11.9      C80.2,120.7,77.1,123.7,71.9,123.7z M71.9,106.8c-4.9,0-5.3,6.8-5.3,8.9c0,3.3,1.8,4.9,5.3,4.9s5.3-1.7,5.3-4.9      C77.2,113.6,76.8,106.8,71.9,106.8z"/></g><g><path class="st68" d="M61.2,115.7c0,4.7-3,6.4-6.8,6.4s-6.8-1.8-6.8-6.4s1.5-10.4,6.8-10.4S61.2,111.1,61.2,115.7z"/><path class="st2" d="M54.4,123.7c-5.2,0-8.3-3-8.3-7.9c0-7.3,3.2-11.9,8.3-11.9s8.3,4.6,8.3,11.9      C62.7,120.7,59.6,123.7,54.4,123.7z M54.4,106.8c-4.9,0-5.3,6.8-5.3,8.9c0,3.3,1.8,4.9,5.3,4.9s5.3-1.7,5.3-4.9      C59.7,113.6,59.3,106.8,54.4,106.8z"/></g></g></g><g id="Head_27_"><g id="Ears_5_"><g><path class="st66" d="M110.9,30.5c0,11.6-9.4,21-21,21s-21-9.4-21-21s9.4-21,21-21S110.9,18.9,110.9,30.5"/><path class="st2" d="M89.9,53c-12.4,0-22.5-10.1-22.5-22.5S77.5,8,89.9,8c12.4,0,22.5,10.1,22.5,22.5S102.3,53,89.9,53 M89.9,11      c-10.8,0-19.5,8.7-19.5,19.5S79.2,50,89.9,50c10.8,0,19.5-8.7,19.5-19.5S100.7,11,89.9,11"/><path class="st69" d="M102.9,30.5c0,7.2-5.8,13-13,13c-7.2,0-13-5.8-13-13s5.8-13,13-13C97.1,17.5,102.9,23.3,102.9,30.5"/><path class="st2" d="M89.9,45c-8,0-14.5-6.5-14.5-14.5c0-8,6.5-14.5,14.5-14.5c8,0,14.5,6.5,14.5,14.5      C104.4,38.5,97.9,45,89.9,45 M89.9,19c-6.3,0-11.5,5.2-11.5,11.5S83.6,42,89.9,42s11.5-5.2,11.5-11.5S96.3,19,89.9,19"/></g><g><path class="st66" d="M57.4,30.5c0,11.6-9.4,21-21,21c-11.6,0-21-9.4-21-21s9.4-21,21-21C48,9.5,57.4,18.9,57.4,30.5"/><path class="st2" d="M36.4,53C24,53,13.9,42.9,13.9,30.5S24,8,36.4,8s22.5,10.1,22.5,22.5S48.8,53,36.4,53 M36.4,11      c-10.8,0-19.5,8.7-19.5,19.5S25.7,50,36.4,50c10.8,0,19.5-8.7,19.5-19.5S47.2,11,36.4,11"/><path class="st69" d="M49.4,30.5c0,7.2-5.8,13-13,13c-7.2,0-13-5.8-13-13s5.8-13,13-13C43.6,17.5,49.4,23.3,49.4,30.5"/><path class="st2" d="M36.4,45c-8,0-14.5-6.5-14.5-14.5c0-8,6.5-14.5,14.5-14.5c8,0,14.5,6.5,14.5,14.5      C50.9,38.5,44.4,45,36.4,45 M36.4,19c-6.3,0-11.5,5.2-11.5,11.5S30.1,42,36.4,42c6.3,0,11.5-5.2,11.5-11.5S42.8,19,36.4,19"/></g></g><g id="Head_28_"><path class="st66" d="M101.2,62c0,21-17,28-38,28s-38-7-38-28s0-48,38-48C101.2,14,101.2,41,101.2,62"/><path class="st67" d="M63.2,84c-20.7,0-37.5-6.8-38-27.2c0,1.7,0,3.5,0,5.2c0,21,17,28,38,28s38-7,38-28c0-1.7,0-3.4,0-5.2     C100.7,77.2,83.9,84,63.2,84z"/><path class="st70" d="M63.2,14c-0.1,0-0.2,0-0.3,0c0,0,0,0,0,0c0,0,0,0,0,0c0,0,0,0,0,0c0,0,0,0,0,0c-0.1,0-0.1,0-0.2,0     c0,0,0,0,0,0c0,0,0,0-0.1,0c0,0,0,0,0,0c0,0-0.1,0-0.1,0c0,0,0,0,0,0c0,0,0,0,0,0c0,0,0,0,0,0c0,0,0,0,0,0c0,0,0,0,0,0     c0,0,0,0,0,0c0,0,0,0,0,0c0,0,0,0,0,0c0,0,0,0,0,0c0,0,0,0-0.1,0l0,0c0,0,0,0,0,0c0,0,0,0,0,0c0,0,0,0,0,0c0,0,0,0,0,0     c0,0,0,0,0,0c0,0,0,0,0,0c0,0,0,0,0,0c0,0,0,0,0,0c0,0,0,0,0,0c0,0,0,0,0,0c0,0,0,0,0,0c0,0,0,0,0,0c0,0,0,0,0,0c0,0,0,0,0,0     c0,0,0,0,0,0c0,0,0,0,0,0c0,0,0,0,0,0c0,0,0,0,0,0s0,0,0,0c0,0,0,0,0,0c0,0,0,0,0,0c0,0,0,0,0,0c0,0,0,0,0,0c0,0,0,0,0,0     c0,0,0,0,0,0c0,0,0,0,0,0c0,0,0,0,0,0c0,0,0,0,0,0c0,0,0,0,0,0c0,0,0,0,0,0c0,0,0,0,0,0c0,0,0,0,0,0c0,0,0,0,0,0c0,0,0,0,0,0     c0,0,0,0,0,0c0,0,0,0,0,0c0,0,0,0,0,0c0,0,0,0,0,0c0,0,0,0,0,0c0,0,0,0,0,0c0,0,0,0,0,0c0,0,0,0,0,0c0,0,0,0,0,0c0,0,0,0,0,0     c0,0,0,0,0,0c0,0,0,0,0,0c0,0,0,0,0,0c0,0,0,0,0,0c0,0,0,0,0,0c0,0,0,0,0,0c0,0,0,0,0,0c0,0,0,0,0,0c0,0,0,0,0,0c0,0,0,0,0,0     c0,0,0,0,0,0c0,0,0,0,0,0c0,0,0,0,0,0c0,0,0,0,0,0c0,0,0,0,0,0c0,0,0,0,0,0c0,0,0,0,0,0c0,0,0,0,0,0c0,0,0,0,0,0c0,0,0,0,0,0     c0,0,0,0,0,0c0,0,0,0,0,0c0,0,0,0,0,0c0,0,0,0,0,0c0,0,0,0,0,0c0,0,0,0,0,0c0,0,0,0,0,0c0,0,0,0,0,0c0,0,0,0,0,0c0,0,0,0,0,0     c0,0,0,0,0,0s0,0,0,0c0,0,0,0,0,0c0,0,0,0,0,0c0,0,0,0,0,0c0,0,0,0,0,0s0,0,0,0c0,0,0,0,0,0c0,0,0,0,0,0c0,0,0,0,0,0c0,0,0,0,0,0     c0,0,0,0,0,0c0,0,0,0,0,0c0,0,0,0,0,0c0,0,0,0,0,0c0,0,0,0,0,0c0,0,0,0,0,0c0,0,0,0,0,0c0,0,0,0,0,0c0,0,0,0,0,0c0,0,0,0,0,0     c0,0,0,0,0,0c0,0,0,0,0,0c0,0,0,0,0,0c0,0,0,0,0,0c0,0,0,0,0,0c0,0,0,0,0,0s0,0,0,0c0,0,0,0,0,0c0,0,0,0,0,0c0,0,0,0,0,0     c0,0,0,0,0,0c0,0,0,0,0,0c0,0,0,0,0,0c0,0,0,0,0,0c0,0,0,0,0,0c0,0,0,0,0,0c0,0,0,0,0,0c0,0,0,0,0,0c0,0,0,0,0,0c0,0,0,0,0,0     s0,0,0,0c0,0,0,0,0,0c0,0,0,0,0,0c0,0,0,0,0,0c0,0,0,0,0,0c0,0,0,0,0,0c0,0,0,0,0,0c0,0,0,0,0,0c0,0,0,0,0,0c0,0,0,0,0,0     c0,0,0,0,0,0c0,0,0,0,0,0c0,0,0,0,0,0c0,0,0,0,0,0c0,0,0,0,0,0c0,0,0,0,0,0c0,0,0,0,0,0c0,0,0,0,0,0c0,0,0,0,0,0c0,0,0,0,0,0     c0,0,0,0,0,0c0,0,0,0,0,0c0,0,0,0,0,0c0,0,0,0,0,0c0,0,0,0,0,0c0,0,0,0,0,0c0,0,0,0,0,0c0,0,0,0,0,0c0,0,0,0,0,0c0,0,0,0,0,0     c0,0,0,0,0,0c0,0,0,0,0,0c0,0,0,0,0,0c0,0,0,0,0,0c0,0,0,0,0,0c0,0,0,0,0,0c0,0,0,0,0,0c0,0,0,0,0,0c0,0,0,0,0,0c0,0,0,0,0,0     c0,0,0,0,0,0c0,0,0,0,0,0c0,0,0,0,0,0c0,0,0,0,0,0c0,0,0,0,0,0c0,0,0,0,0,0c0,0,0,0,0,0c0,0,0,0,0,0c0,0,0,0,0,0c0,0,0,0,0,0     c0,0,0,0,0,0c0,0,0,0,0,0c0,0,0,0,0,0c0,0,0,0,0,0c0,0,0,0,0,0c0,0,0,0,0,0c0,0,0,0,0,0c0,0,0,0,0,0s0,0,0,0c0,0,0,0,0,0     c0,0,0,0,0,0c0,0,0,0,0,0c0,0,0,0,0,0c0,0,0,0,0,0s0,0,0,0s0,0,0,0c0,0,0,0,0,0c0,0,0,0,0,0c0,0,0,0,0,0c0,0,0,0,0,0c0,0,0,0,0,0     c0,0,0,0,0,0c0,0,0,0,0,0c0,0,0,0,0,0c0,0,0,0,0,0c0,0,0,0,0,0c0,0,0,0,0,0c0,0,0,0,0,0c0,0,0,0,0,0c0,0,0,0,0,0c0,0,0,0,0,0     c0,0,0,0,0,0c0,0,0,0,0,0c0,0,0,0,0,0c0,0,0,0,0,0c0,0,0,0,0,0c0,0,0,0,0,0c0,0,0,0,0,0c0,0,0,0,0,0c0,0,0,0,0,0c0,0,0,0,0,0     c0,0,0,0,0,0c0,0,0,0,0,0c0,0,0,0,0,0c0,0,0,0,0,0c0,0,0,0,0,0c0,0,0,0,0,0c0,0,0,0,0,0c0,0,0,0,0,0c0,0,0,0,0,0c0,0,0,0,0,0     c0,0,0,0,0,0c0,0,0,0,0,0c0,0,0,0,0,0c0,0,0,0,0,0c0,0,0,0,0,0c0,0,0,0,0,0c0,0,0,0,0,0c0,0,0,0,0,0c0,0,0,0,0,0c0,0,0,0,0,0     c0,0,0,0,0,0c0,0,0,0,0,0c0,0,0,0,0,0c0,0,0,0,0,0c0,0,0,0,0,0c0,0,0,0,0,0c0,0,0,0,0,0c0,0,0,0,0,0c0,0,0,0,0,0c0,0,0,0,0,0     c0,0,0,0,0,0c0,0,0,0,0,0c0,0,0,0,0,0c0,0,0,0,0,0c0,0,0,0,0,0c0,0,0,0,0,0c0,0,0,0,0,0c0,0,0,0,0,0c0,0,0,0,0,0c0,0,0,0,0,0     c0,0,0,0,0,0c0,0,0,0,0,0c0,0,0,0,0,0c0,0,0,0,0,0c0,0,0,0,0,0c0,0,0,0,0,0c0,0,0,0,0,0c0,0,0,0,0,0c0,0,0,0,0,0c0,0,0,0,0,0     c0,0,0,0,0,0c0,0,0,0,0,0c0,0,0,0,0,0c0,0,0,0,0,0c0,0,0,0,0,0c0,0,0,0,0,0c0,0,0,0,0,0c0,0,0,0,0,0c0,0,0,0,0,0c0,0,0,0,0,0     c0,0,0,0,0,0c0,0,0,0,0,0c0,0,0,0,0,0c0,0,0,0,0,0c0,0,0,0,0,0c0,0,0,0,0,0c0,0,0,0,0,0c0,0,0,0,0,0c0,0,0,0,0,0c0,0,0,0,0,0     c0,0,0,0,0,0c0,0,0,0,0,0c0,0,0,0,0,0c0,0,0,0,0,0c0,0,0,0,0,0c0,0,0,0,0,0c0,0,0,0,0,0c0,0,0,0,0,0c0,0,0,0,0,0c0,0,0,0,0,0     c0,0,0,0,0,0c0,0,0,0,0,0c0,0,0,0,0,0c0,0,0,0,0,0c0,0,0,0,0,0c0,0,0,0,0,0c0,0,0,0,0,0c0,0,0,0,0,0c0,0,0,0,0,0c0,0,0,0,0,0     c0,0,0,0,0,0c0,0,0,0,0,0c0,0,0,0,0,0c0,0,0,0,0,0c0,0,0,0,0,0c0,0,0,0,0,0c0,0,0,0,0,0c0,0,0,0,0,0c0,0,0,0,0,0c0,0,0,0,0,0     c0,0,0,0,0,0c0,0,0,0,0,0c0,0,0,0,0,0l0,0c0,0,0,0,0,0c0,0,0,0,0,0c0,0,0,0,0,0l0,0c0,0,0,0,0,0c0,0,0,0,0,0c0,0,0,0,0,0l0,0     c0,0,0,0,0,0c0,0,0,0,0,0c0,0,0,0,0,0c0,0,0,0,0,0c0,0,0,0,0,0c0,0,0,0,0,0c0,0,0,0,0,0c0,0,0,0,0,0c0,0,0,0,0,0c0,0,0,0,0,0     c0,0,0,0,0,0l0,0c0,0,0,0,0,0c0,0,0,0,0,0c0,0,0,0,0,0l0,0c0,0,0,0,0,0l0,0c0,0-0.1,0-0.1,0l0,0c0,0,0,0,0,0l0,0c0,0,0,0,0,0l0,0     c0,0-0.1,0-0.1,0c0,0,0,0,0,0c0,0,0,0,0,0l0,0c0,0,0,0,0,0c0,0,0,0,0,0c0,0-0.1,0-0.1,0c0,0,0,0,0,0C25.6,19,25.2,42.2,25.2,61.1     c0,0,0,0,0,0c0,0,0,0,0,0c0,0,0,0,0,0c0,0,0,0,0,0c0,0,0,0,0,0c0,0,0,0,0,0c0,0.3,0,0.5,0,0.8c0-1.7,0-3.4,0-5.2     c0,1.5,0.2,2.9,0.4,4.2c1.4-17.3,7.7-34,37.6-34c29.9,0,36.3,16.7,37.6,34c0.2-1.3,0.3-2.7,0.4-4.2c0,1.7,0,3.5,0,5.2     c0-3.8,0-7.8-0.2-11.8c-0.1-1.1-0.1-2.2-0.2-3.4c-0.2-1.9-0.4-3.9-0.8-5.7c-0.2-1.2-0.5-2.4-0.8-3.6c-1.9-7.2-5.5-13.7-12.4-18     c-1.1-0.7-2.2-1.3-3.4-1.8c-1.8-0.8-3.7-1.5-5.9-2c-1.1-0.3-2.3-0.5-3.6-0.8C70.7,14.3,67.1,14,63.2,14"/><path class="st69" d="M63.2,64.8C50,64.8,38.6,71.5,33,81.3c6.9,6.2,17.9,8.7,30.2,8.7s23.3-2.4,30.2-8.7     C87.7,71.5,76.3,64.8,63.2,64.8"/><path class="st71" d="M66,90c0.5,0,1,0,1.5-0.1c0.2,0,0.5,0,0.7,0c0.5,0,0.9-0.1,1.4-0.1c0.2,0,0.5,0,0.7-0.1     c0.5,0,0.9-0.1,1.4-0.1c0.2,0,0.4,0,0.6-0.1c0.6-0.1,1.1-0.1,1.7-0.2c0.1,0,0.2,0,0.3,0c1.4-0.2,2.7-0.4,4-0.7     c0.1,0,0.2,0,0.3-0.1c0.5-0.1,1.1-0.3,1.6-0.4c0.1,0,0.2-0.1,0.4-0.1c0.5-0.1,1-0.3,1.5-0.4c0.1,0,0.2-0.1,0.3-0.1     c0.5-0.2,1.1-0.4,1.6-0.5c0.1,0,0.1,0,0.2-0.1c1.8-0.7,3.4-1.4,5-2.3c0,0,0,0,0,0c0.5-0.3,1-0.6,1.4-0.9c0.1,0,0.1-0.1,0.2-0.1     c0.4-0.3,0.9-0.6,1.3-0.9c0,0,0.1-0.1,0.1-0.1c0.4-0.3,0.9-0.7,1.3-1.1c0,0,0,0,0,0c-0.8-1.4-1.7-2.7-2.7-3.9     C83.8,82.1,74,84,63.2,84s-20.6-1.9-27.5-6.6c-1,1.2-1.9,2.5-2.7,3.9c0.4,0.4,0.9,0.7,1.3,1.1c0,0,0.1,0.1,0.1,0.1     c0.4,0.3,0.8,0.6,1.3,0.9c0,0,0.1,0.1,0.1,0.1c0.5,0.3,0.9,0.6,1.4,0.9c0,0,0,0,0,0c1.5,0.9,3.2,1.7,5,2.3c0.1,0,0.1,0,0.2,0.1     c0.5,0.2,1,0.4,1.6,0.5c0.1,0,0.2,0.1,0.3,0.1c0.5,0.2,1,0.3,1.5,0.4c0.1,0,0.2,0.1,0.4,0.1c0.5,0.1,1.1,0.3,1.6,0.4     c0.1,0,0.2,0,0.3,0.1c1.3,0.3,2.6,0.5,4,0.7c0.1,0,0.2,0,0.3,0c0.6,0.1,1.1,0.2,1.7,0.2c0.2,0,0.4,0,0.6,0.1     c0.5,0.1,0.9,0.1,1.4,0.1c0.2,0,0.5,0,0.7,0.1c0.5,0,0.9,0.1,1.4,0.1c0.2,0,0.5,0,0.7,0c0.5,0,1,0,1.5,0.1c0.2,0,0.4,0,0.7,0     c0.7,0,1.4,0,2.1,0c0.7,0,1.4,0,2.1,0C65.5,90,65.8,90,66,90z"/><path class="st2" d="M63.2,91.5c-25.8,0-39.5-10.2-39.5-29.5c0-20.9,0-49.5,39.5-49.5s39.5,28.6,39.5,49.5     C102.7,81.3,89,91.5,63.2,91.5z M63.2,15.5c-36.5,0-36.5,25.8-36.5,46.5c0,21.9,19.8,26.5,36.5,26.5S99.7,83.9,99.7,62     C99.7,41.3,99.7,15.5,63.2,15.5z"/></g><g id="Eyes_17_"><circle class="st2" cx="79.1" cy="63.5" r="3"/><circle class="st2" cx="47.3" cy="63.5" r="3"/></g><g id="Nose_10_"><path class="st72" d="M70.1,72.4c0,2.4-3.1,7-6.9,7c-3.8,0-6.9-4.5-6.9-7s3.1-4.4,6.9-4.4C67,68,70.1,70,70.1,72.4z"/><path class="st2" d="M63.2,80.8c-4.6,0-8.4-5.1-8.4-8.5c0-3.3,3.7-5.9,8.4-5.9s8.4,2.6,8.4,5.9C71.6,75.7,67.8,80.8,63.2,80.8z      M63.2,69.5c-3.2,0-5.4,1.5-5.4,2.9c0,1.7,2.5,5.5,5.4,5.5s5.4-3.7,5.4-5.5C68.6,71,66.3,69.5,63.2,69.5z"/></g><path class="st2" d="M63.5,91.5c-0.8,0-1.5-0.7-1.5-1.5V79.3c0-0.8,0.7-1.5,1.5-1.5s1.5,0.7,1.5,1.5V90    C65,90.8,64.3,91.5,63.5,91.5z"/></g></g><g id="Zebra"/><g id="Crab"/><g id="Crocodile"/><g id="Frog"/><g id="Owl"/><g id="Layer_28"/><g id="Octopus"/><g id="Turtle"/><g id="Squirrel"/><g id="Duck"/><g id="Squid"/><g id="Unicorn"/><g id="Parrot"/><g id="Layer_36"/><g id="Cockroach"/><g id="Gorilla"/><g id="Tiger"/><g id="Goat"/><g id="Whale"/></svg>