<?xml version="1.0" ?><svg style="enable-background:new 0 0 128 128;" version="1.1" viewBox="0 0 128 128" xml:space="preserve" xmlns="http://www.w3.org/2000/svg" xmlns:xlink="http://www.w3.org/1999/xlink"><style type="text/css">
	.st0{fill:#74CBDE;}
	.st1{fill:#B3F4FB;}
	.st2{fill:#301F00;}
	.st3{fill:#2FB0C1;}
	.st4{fill:#F2F2F2;}
	.st5{fill:#CCCCCC;}
	.st6{fill:#FFFFFF;}
	.st7{fill:#629EE1;}
	.st8{fill:#4180D8;}
	.st9{fill:#FF0013;}
	.st10{fill:#FF4D4D;}
	.st11{fill:#C80004;}
	.st12{fill:#FFD81A;}
	.st13{fill:#FFEA55;}
	.st14{fill:#FFB6C6;}
	.st15{fill:#FF97A9;}
	.st16{fill:#FFD0DC;}
	.st17{fill:#FF7287;}
	.st18{fill:#FDAD4C;}
	.st19{fill:#EB9129;}
	.st20{fill:#C13202;}
	.st21{fill:#CA4508;}
	.st22{fill:#FEC769;}
	.st23{fill:#FFEA9A;}
	.st24{fill:#FFDB69;}
	.st25{fill:#999999;}
	.st26{fill:#808080;}
	.st27{fill:#EBEBEB;}
	.st28{opacity:0.8;fill:#B3B3B3;}
	.st29{fill:#BCBCBC;}
	.st30{fill:#A39095;}
	.st31{fill:#B3B3B3;}
	.st32{fill:#EDFFC5;}
	.st33{fill:#F5FFD9;}
	.st34{opacity:0.8;fill:#FCFFF0;}
	.st35{fill:#8CC63F;}
	.st36{fill:#5AA319;}
	.st37{fill:#ACDC57;}
	.st38{fill:#C69452;}
	.st39{fill:#8A4900;}
	.st40{fill:#B17637;}
	.st41{fill:#E1D6BA;}
	.st42{fill:#CCBB92;}
	.st43{fill:#D8AD68;}
	.st44{fill:#253542;}
	.st45{fill:#2B4753;}
	.st46{fill:#FFA227;}
	.st47{fill:#0F171C;}
	.st48{fill:#FFBBBB;}
	.st49{fill:#A9A69C;}
	.st50{fill:#827E74;}
	.st51{fill:#C0BEB4;}
	.st52{fill:#333333;}
	.st53{fill:#FFE581;}
	.st54{fill:#6F4A38;}
	.st55{fill:#FFF5AE;}
	.st56{fill:#FFD252;}
	.st57{fill:#825C4D;}
	.st58{fill:#C97F4E;}
	.st59{fill:#B86538;}
	.st60{fill:#666666;}
	.st61{fill:#4D4D4D;}
	.st62{fill:#D6925E;}
	.st63{fill:#F9C0A7;}
	.st64{fill:#F7AD90;}
	.st65{fill:#D38F5B;}
	.st66{fill:#CD7C4F;}
	.st67{fill:#C1693E;}
	.st68{fill:#A05B38;}
	.st69{fill:#F1D4A5;}
	.st70{fill:#DD9665;}
	.st71{fill:#E7B777;}
	.st72{fill:#4A290A;}
	.st73{fill:#53770C;}
	.st74{fill:#699010;}
	.st75{fill:#884326;}
	.st76{fill:#F6D5A9;}
	.st77{fill:#F1C087;}
	.st78{fill:#FFD4C5;}
	.st79{fill:#FF9797;}
	.st80{fill:#FF8484;}
	.st81{fill:#FFAAAA;}
	.st82{fill:#7C0000;}
	.st83{fill:#A6B855;}
	.st84{fill:#C3D272;}
	.st85{fill:#7D942D;}
	.st86{fill:#68782F;}
	.st87{fill:#4F5E20;}
	.st88{fill:#81923E;}
	.st89{fill:#EE6B2B;}
	.st90{fill:#D2501E;}
	.st91{fill:#FF6868;}
	.st92{fill:#F85E28;}
	.st93{fill:#D5DAE0;}
	.st94{fill:#BCC4CD;}
	.st95{fill:#FDB62E;}
	.st96{fill:#472D07;}
	.st97{fill:#FC9C1B;}
	.st98{fill:#2D1A03;}
	.st99{fill:#FFFFD5;}
	.st100{fill:#FED041;}
	.st101{fill:#61400B;}
	.st102{fill:#FFFF95;}
	.st103{fill:#D7D3C9;}
	.st104{fill:#E8E3DA;}
	.st105{fill:#DDD6CA;}
	.st106{fill:#9E9992;}
	.st107{fill:#847E77;}
	.st108{fill:#F0EDE7;}
	.st109{fill:#88D3ED;}
	.st110{fill:#68C1E4;}
	.st111{fill:#A8E5F6;}
	.st112{fill:#E6E6E6;}
	.st113{fill:#D6D6D6;}
</style><g id="Fish"/><g id="Chicken"/><g id="Pig"/><g id="Dog"/><g id="Cat"/><g id="Bird"/><g id="Koala"/><g id="Mice"/><g id="Snake"/><g id="Lion"/><g id="Caterpillar"/><g id="Dolphin"/><g id="Penguin"/><g id="Deer"/><g id="Elephant"/><g id="Panda"/><g id="Giraffe"/><g id="Cow"><path class="st2" d="M103.9,98c-0.8,0-1.5-0.7-1.5-1.5c0-4.1-6-6.6-6-6.6c-0.8-0.3-1.2-1.2-0.8-1.9s1.2-1.1,1.9-0.8   c0.3,0.1,8,3.2,8,9.4C105.4,97.3,104.8,98,103.9,98z" id="Tail_9_"/><g id="Body_17_"><path class="st4" d="M91.7,82.1l-0.9-4.6l-41,10l-0.9,5.1l-0.1-0.1c-4.8,4-6.2,30.7,0,30c0.8-0.1,1.5-0.1,2.1-0.2    c2.1-0.2,3.8-1.9,3.8-4.1c0-0.8,0.1-1.7,0.2-2.8c4.3,2.1,9.7,3.8,15.5,3.4c-0.1,1.9-0.3,3.4-0.6,3.7c-0.8,1,6.7,2.6,8,1    c0.5-0.6,1.4-3.5,2.1-6.7c3.8-1.1,7-2.5,9.6-3.8c-0.5,2.9-0.9,5.7-0.7,6.5c0.6,1.6,6,0,6,0C100.7,110.7,103,90.2,91.7,82.1"/><ellipse class="st60" cx="85.7" cy="93.3" rx="6.8" ry="5.6" transform="matrix(0.9456 -0.3252 0.3252 0.9456 -25.6853 32.9494)"/><path class="st60" d="M70,94.3c-1.3-1.4-3.9-0.1-5.5-0.7c-1.6-0.5-4-4.5-7.6-1.5c-2.8,2.3-2.2,6.7,0.6,8.8    c1.7,1.2,3.9,1.4,5.7,0.6c0,0,0,0,0.1,0c2.6,1.8,6.3,0.9,7.6-2.2C71.5,97.7,71.2,95.6,70,94.3z"/><path class="st60" d="M62.5,112c-2.5,0-4.5,1.6-4.5,3.5c0,0.5,0.1,0.9,0.4,1.4c2,0.7,4.1,1.3,6.4,1.7c1.4-0.6,2.3-1.7,2.3-3    C67,113.6,65,112,62.5,112z"/><path class="st60" d="M98.7,93.1c-2-0.4-4.1,0.9-4.6,3c-0.4,1.4,0.1,2.9,1.1,3.8c0,0,0,0,0,0c-0.6,2.1,1,4.3,3.3,4.4    c0.4,0,0.7,0,1.1-0.1C99.9,100.5,99.7,96.6,98.7,93.1z"/><path class="st60" d="M92.9,109.7c-0.3-1.2-1.3-2.3-2.5-2.6c-1.3-0.3-2.2,1.5-3.4,1.9c-1.1,0.3-4.1-0.9-4.9,2.3    c-0.5,1.7,0.5,3.4,1.9,4.2c2.1-0.8,3.9-1.6,5.6-2.4c-0.1,0.4-0.1,0.8-0.2,1.2c0.1-0.1,0.1-0.2,0.2-0.3c0,0,0,0,0.1,0    C91.7,114,93.4,112,92.9,109.7z"/><path class="st5" d="M63.1,101c14.4,0,27.1-3.4,33.8-11.8c-1.2-2.4-2.9-4.5-5.2-6.1l-0.9-4.6l-41,10l-0.9,5.1l-0.1-0.1    c-1.1,0.9-2,3-2.7,5.6C51.3,100.4,57,101,63.1,101z"/><path class="st61" d="M92.2,91.1c-1-2.9-4.7-4.3-8.3-3c-3.6,1.2-5.7,4.6-4.7,7.5c0.5,1.4,1.6,2.4,3,3c3.8-1.2,7.2-2.8,10.1-4.9    C92.5,92.8,92.5,91.9,92.2,91.1z"/><path class="st61" d="M69.9,100.8c0.3-0.4,0.6-0.9,0.9-1.4c0.7-1.7,0.5-3.7-0.8-5.1c-1.3-1.4-3.9-0.1-5.5-0.7    c-1.6-0.5-4-4.5-7.6-1.5c-2.8,2.3-2.3,6.6,0.5,8.7c1.9,0.1,3.8,0.2,5.8,0.2C65.4,101,67.7,100.9,69.9,100.8z"/><path class="st2" d="M100.5,93.8c-1.2-5.4-3.7-9.7-7.4-12.5l-0.2,3.7l1.2,1.7c1.9,2.6,2.9,5.5,3.4,7.9c0.8,3.8,0.8,7.8,0.3,11.5    c-0.2,1.5-0.5,2.9-0.8,4.3c-0.8,3.2-1.9,5.9-3.2,8c-1.4,0.4-3,0.6-3.6,0.5c0-0.8,0.2-2.6,0.6-4.7l0-0.2c1.2-0.6,2.3-1.3,2.8-1.5    c0.7-0.4,1.4-1.1,1.2-1.9c-0.3-0.8-1.1-1.5-2-0.9l-0.2,0.1l-0.2,0.1l0,0v0l0,0h0c-0.2,0.1-0.5,0.3-0.8,0.5c-0.6,0.3-1.2,0.7-1.8,1    s-1.2,0.6-1.6,0.9v0c-1.8,0.9-4,1.8-6.4,2.6c0.3-2.5,0.2-4.9-0.5-6.7c-0.3-0.8-1.2-1.1-2-0.8s-1.1,1.2-0.8,2    c0.7,1.6,0.5,4.2,0.1,6.6c-0.2,1.2-0.4,2.3-0.7,3.3c-0.5,1.8-0.9,3.1-1.2,3.6c-0.8,0.4-3.8,0-5.2-0.5c0.1-0.5,0.2-1.1,0.3-1.9    c0-0.2,0-0.4,0.1-0.6c0.1-0.7,0.1-1.5,0.2-2.4h0l0,0c0.1-2.1,0.2-4.8,0.3-8.6c0-0.8-0.6-1.5-1.5-1.5h0c-0.8,0-1.5,0.7-1.5,1.5    c-0.1,3-0.2,6.3-0.3,8.9c-4.5,0.1-8.8-1.2-12.4-2.8c0.3-1.7,0.9-3.5,1.6-5.5c0.3-0.8-0.1-1.6-0.9-1.9c-0.8-0.3-1.6,0.1-1.9,0.9    c-0.7,1.8-1.2,3.6-1.6,5.2c-0.3,1.1-0.5,2.2-0.6,3.2c-0.1,0.7-0.1,1.3-0.1,1.9c0,1.4-1,2.5-2.4,2.6c-0.6,0-1.3,0.1-2.1,0.2    c-0.5,0-1-1-1.2-1.4c-0.8-1.9-1.2-4.7-1.3-7.8c-0.2-7.4,1.5-16.3,3.6-18.1c0.6-0.5,0.7-1.5,0.2-2.1c-0.5-0.6-1.5-0.7-2.1-0.2    c-0.1,0.1-0.2,0.2-0.3,0.3c-4.4,4.4-5.7,22.5-2.9,29.1c1.2,2.8,2.9,3.3,3.9,3.3c0.1,0,0.3,0,0.4,0c0.8-0.1,1.4-0.1,2.1-0.2    c2.9-0.2,5.1-2.6,5.1-5.6c0-0.2,0-0.4,0-0.6c3.6,1.5,7.9,2.7,12.5,2.7h0.1c-0.1,0.7-0.1,1.2-0.2,1.4c-0.4,0.7-0.4,1.7,0.6,2.4    c0.9,0.7,3.7,1.5,6.2,1.5c1.6,0,3-0.3,3.7-1.3c0.5-0.7,1.5-3.3,2.2-6.4c2.3-0.7,4.5-1.6,6.3-2.4c-0.3,2.1-0.4,3.7-0.1,4.4    c0.5,1.3,1.8,1.7,3.4,1.7c1.5,0,3.2-0.4,4.5-0.8c0.3-0.1,0.6-0.3,0.8-0.6C99.9,114.6,102.6,103.7,100.5,93.8z"/></g><g id="Head_23_"><g id="Horns_1_"><g><path class="st62" d="M68.6,24.7C73.8,25,85.3,12.2,90.9,5.6c1-1.2,3-0.4,2.9,1.2c-0.7,8.6-2.6,25.4-7.5,28.4      C79.7,39.1,61.6,24.2,68.6,24.7z"/><path class="st58" d="M76.9,23.6c3.1,0.2,9.9-7.4,13.2-11.3c0.6-0.7,1.8-0.2,1.7,0.7c-0.4,5.1-1.5,15-4.4,16.8      C83.5,32.2,72.8,23.4,76.9,23.6z"/><path class="st2" d="M83.5,37.3c-4.7,0-10.7-3.5-14.3-6.6c-4.5-3.8-3.8-5.6-3.6-6.1c0.2-0.6,1-1.6,3-1.4      c2.5,0.1,9.3-4.6,21.1-18.5c0.9-1.1,2.3-1.4,3.6-0.9c1.3,0.5,2,1.8,1.9,3.1c-0.9,11.8-3.1,26.4-8.2,29.5      C86,37,84.8,37.3,83.5,37.3z M68.9,26.2c1.3,1.7,5.2,4.9,9.6,6.9c3.1,1.3,5.6,1.6,7,0.8c3-1.8,5.6-12.2,6.8-27.2      c0,0,0-0.1-0.1-0.1c-0.1,0-0.1,0-0.1,0C81.2,19.4,73.4,26,68.9,26.2z"/></g><g><path class="st62" d="M55.4,24.7C50.2,25,38.7,12.2,33.1,5.6c-1-1.2-3-0.4-2.9,1.2c0.7,8.6,2.6,25.4,7.5,28.4      C44.3,39.1,62.4,24.2,55.4,24.7z"/><path class="st58" d="M47.1,23.6c-3.1,0.2-9.9-7.4-13.2-11.3c-0.6-0.7-1.8-0.2-1.7,0.7c0.4,5.1,1.5,15,4.4,16.8      C40.5,32.2,51.2,23.4,47.1,23.6z"/><path class="st2" d="M40.5,37.3c-1.3,0-2.5-0.3-3.6-0.9c-5.1-3.1-7.3-17.8-8.2-29.5c-0.1-1.4,0.6-2.6,1.9-3.1      c1.3-0.5,2.7-0.2,3.6,0.9C46,18.5,52.8,23.3,55.3,23.2l0,0c2.1-0.1,2.8,0.8,3,1.4c0.2,0.6,0.9,2.3-3.6,6.1      C51.2,33.8,45.2,37.3,40.5,37.3z M31.9,6.5C31.9,6.5,31.8,6.5,31.9,6.5c-0.1,0.1-0.1,0.1-0.1,0.1c1.2,14.9,3.8,25.4,6.8,27.2      c1.4,0.8,3.9,0.5,7-0.8c4.4-1.9,8.3-5.2,9.6-6.9C50.6,26,42.8,19.4,31.9,6.5C31.9,6.5,31.9,6.5,31.9,6.5z"/></g></g><g id="Ears_3_"><g><path class="st4" d="M118.1,44.1c2.4,7-11.4,10.9-20.6,14.1c-9.1,3.2-18.5,0.1-21-6.9s3-15.3,12.1-18.5      C97.8,29.6,115.7,37.1,118.1,44.1z"/><path class="st6" d="M116.5,49.6c-3.1-6.9-20.3-13.9-29.2-10.8C82,40.6,78,44.1,76,48.1c-0.2-6.2,4.9-12.6,12.7-15.4      c9.1-3.2,27,4.3,29.4,11.3C118.8,46.2,118.1,48,116.5,49.6z"/><path class="st63" d="M109.1,44.7c1.4,4.1-6.7,6.4-12.1,8.3c-5.4,1.9-10.9,0-12.3-4.1s1.8-9,7.1-10.9      C97.2,36.2,107.7,40.6,109.1,44.7z"/><path class="st2" d="M92.8,55.3c-1.3,0-2.6-0.2-3.9-0.6c-2.8-0.9-4.8-2.8-5.6-5.2s-0.4-5.1,1.2-7.6c1.5-2.3,4-4.2,6.9-5.2      c2.8-1,7-0.6,11.2,1.1c4.2,1.7,7.2,4.1,8,6.5c0.4,1.1,0.3,2.2-0.2,3.3c-1.5,3.1-6.7,4.8-11.2,6.4c-0.5,0.2-1.1,0.4-1.6,0.5      C95.9,55,94.3,55.3,92.8,55.3z M94.8,39.1c-0.9,0-1.8,0.1-2.5,0.4c-2.3,0.8-4.2,2.2-5.4,4c-1.1,1.7-1.4,3.4-0.8,5      c0.5,1.5,1.9,2.7,3.7,3.4c2,0.7,4.4,0.6,6.7-0.2c0.5-0.2,1.1-0.4,1.6-0.6c3.6-1.2,8.6-2.9,9.5-4.8c0.2-0.3,0.2-0.6,0-1l0,0      c-0.5-1.5-3.1-3.4-6.3-4.7C99,39.6,96.7,39.1,94.8,39.1z"/><path class="st2" d="M90.4,60.9c-7.1,0-13.2-3.4-15.2-9.2c-1.3-3.8-0.7-8.1,1.9-12c2.5-3.8,6.4-6.7,11.2-8.4      c9.5-3.3,28.5,4.2,31.3,12.3c0.6,1.6,0.5,3.2-0.3,4.8c-2.4,4.8-10.9,7.7-18.5,10.3c-0.9,0.3-1.8,0.6-2.7,0.9      C95.5,60.5,92.9,60.9,90.4,60.9z M93.8,33.5c-1.7,0-3.3,0.2-4.6,0.7c-4.1,1.4-7.5,4-9.6,7.2c-2,3.1-2.6,6.4-1.6,9.3      c2.2,6.2,10.7,8.9,19.1,6c0.9-0.3,1.8-0.6,2.7-0.9c6.3-2.1,15-5.1,16.8-8.8c0.4-0.8,0.4-1.6,0.1-2.5      C114.9,39.4,102.8,33.5,93.8,33.5z"/></g><g><path class="st60" d="M5.9,44.1c-2.4,7,11.4,10.9,20.6,14.1c9.1,3.2,18.5,0.1,21-6.9c2.4-7-3-15.3-12.1-18.5      C26.2,29.6,8.3,37.1,5.9,44.1z"/><path class="st26" d="M7.5,49.6c3.1-6.9,20.3-13.9,29.2-10.8c5.3,1.8,9.3,5.4,11.3,9.4c0.2-6.2-4.9-12.6-12.7-15.4      c-9.1-3.2-27,4.3-29.4,11.3C5.2,46.2,5.9,48,7.5,49.6z"/><path class="st63" d="M14.3,44.7c-1.4,4.1,6.7,6.4,12.1,8.3c5.4,1.9,10.9,0,12.3-4.1c1.4-4.1-1.8-9-7.1-10.9      S15.7,40.6,14.3,44.7z"/><path class="st2" d="M30.6,55.2c-1.5,0-3.1-0.3-4.7-0.8c-0.5-0.2-1-0.4-1.6-0.5c-4.6-1.5-9.7-3.3-11.2-6.4      c-0.5-1-0.6-2.2-0.2-3.3l0,0c1.8-5.1,13.3-9.7,19.2-7.6c2.9,1,5.4,2.9,6.9,5.2c1.6,2.4,2,5.1,1.2,7.6      C38.9,53.1,35,55.2,30.6,55.2z M28.6,39.1c-5,0-11.9,3.3-12.9,6.1l0,0c-0.1,0.4-0.1,0.6,0,1c1,1.9,5.9,3.6,9.5,4.8      c0.6,0.2,1.1,0.4,1.6,0.6c4.6,1.6,9.3,0.2,10.4-3.2c0.5-1.5,0.2-3.3-0.9-5c-1.2-1.8-3.1-3.2-5.4-4      C30.4,39.2,29.5,39.1,28.6,39.1z"/><path class="st2" d="M33.6,60.9c-2.5,0-5.1-0.4-7.7-1.3c-0.9-0.3-1.8-0.6-2.7-0.9c-7.6-2.6-16.1-5.5-18.5-10.3      c-0.7-1.5-0.8-3.1-0.3-4.8c1.5-4.4,7.8-8.3,13-10.4c6.9-2.8,13.7-3.4,18.3-1.9c4.7,1.6,8.7,4.6,11.2,8.4c2.6,3.9,3.2,8.1,1.9,12      C46.8,57.5,40.7,60.9,33.6,60.9z M30.2,33.5c-3.4,0-7.5,0.9-11.6,2.5c-5.8,2.3-10.3,5.8-11.3,8.6C7,45.5,7,46.2,7.4,47      c1.8,3.7,10.5,6.6,16.8,8.8c0.9,0.3,1.9,0.6,2.7,0.9c8.3,2.9,16.9,0.2,19.1-6c1-2.9,0.5-6.3-1.6-9.3c-2.1-3.2-5.5-5.8-9.6-7.2      C33.5,33.7,32,33.5,30.2,33.5z"/></g></g><g id="Head_22_"><path class="st4" d="M101.1,67c0,20.4-17.5,28-39,28s-39-7.6-39-28c0-17.4,5.6-38.5,26.5-44.4c2-0.6,4.2-1,6.5-1.3     c0.9-0.1,1.8-0.2,2.8-0.2c1-0.1,2.1-0.1,3.2-0.1s2.2,0,3.2,0.1c1,0.1,1.9,0.1,2.8,0.2c2.3,0.3,4.5,0.7,6.5,1.3     C95.5,28.6,101.1,49.7,101.1,67z"/><path class="st60" d="M57.1,53c0-12.3-4.5-23.1-11.3-29C28,31.2,23.1,50.8,23.1,67c0,8.9,3.3,15.4,8.9,19.9     c0.5,0.1,1.1,0.1,1.6,0.1C46.6,87,57.1,71.8,57.1,53z"/><path class="st61" d="M23.2,69.4c0,0.4,0.1,0.8,0.1,1.1c0,0.2,0.1,0.4,0.1,0.6c0,0.3,0.1,0.7,0.1,1c0,0.2,0.1,0.4,0.1,0.6     c0.1,0.3,0.1,0.6,0.2,0.9c0,0.2,0.1,0.4,0.1,0.6c0.1,0.3,0.2,0.6,0.3,0.9c0.1,0.2,0.1,0.4,0.2,0.6c0.1,0.3,0.2,0.6,0.3,1     c0.1,0.2,0.1,0.3,0.2,0.5c0.2,0.5,0.4,0.9,0.6,1.4c0,0,0,0,0,0c0.2,0.4,0.4,0.9,0.7,1.3c0.1,0.1,0.2,0.3,0.2,0.4     c0.2,0.3,0.3,0.6,0.5,0.8c0.1,0.2,0.2,0.3,0.3,0.5c0.2,0.2,0.3,0.5,0.5,0.7c0.1,0.2,0.2,0.3,0.3,0.5c0.2,0.2,0.4,0.5,0.5,0.7     c0.1,0.1,0.2,0.3,0.4,0.4c0.2,0.2,0.4,0.4,0.6,0.6c0.1,0.1,0.2,0.3,0.4,0.4c0.2,0.2,0.5,0.4,0.7,0.7c0.1,0.1,0.2,0.2,0.3,0.3     c0.4,0.3,0.7,0.6,1.1,0.9c0,0,0,0,0,0c0.5,0.1,1.1,0.1,1.6,0.1c1.9,0,3.7-0.3,5.5-0.9c-9.1-3.9-15.3-10.9-15.9-22     c0,1-0.1,2-0.1,3c0,0.6,0,1.2,0,1.8C23.2,69,23.2,69.2,23.2,69.4z"/><path class="st6" d="M62.1,32c27.9,0,37.1,20.4,38.7,39.3c0.2-1.4,0.3-2.8,0.3-4.3c0-20.4-7.8-46-39-46c-31.3,0-39,25.6-39,46     c0,1.5,0.1,2.9,0.3,4.3C25.1,52.4,34.2,32,62.1,32z"/><path class="st26" d="M23.2,69.4c0,0.7,0.1,1.3,0.2,2c1.4-16.6,8.6-34.3,29.2-38.4c-1.8-3.6-4.1-6.6-6.7-9     c-0.1,0.1-0.3,0.1-0.4,0.2c-0.3,0.1-0.7,0.3-1,0.4c-0.3,0.1-0.6,0.3-0.8,0.4c-0.3,0.2-0.6,0.3-0.9,0.5c-0.5,0.3-1,0.6-1.5,0.9     c-0.3,0.2-0.6,0.4-0.9,0.6c-0.2,0.2-0.5,0.3-0.7,0.5c-0.3,0.2-0.6,0.4-0.8,0.6c-0.2,0.2-0.5,0.3-0.7,0.5     c-0.3,0.2-0.5,0.4-0.8,0.6c-0.2,0.2-0.4,0.4-0.6,0.6c-0.3,0.3-0.7,0.6-1,0.9c-0.3,0.3-0.6,0.6-0.9,0.9c-0.2,0.2-0.4,0.5-0.6,0.7     c-0.2,0.2-0.4,0.4-0.6,0.6c-0.2,0.2-0.4,0.5-0.6,0.7c-0.2,0.2-0.4,0.4-0.5,0.7c-0.2,0.3-0.4,0.5-0.6,0.8     c-0.2,0.2-0.3,0.5-0.5,0.7c-0.2,0.3-0.5,0.7-0.7,1c-0.2,0.4-0.5,0.7-0.7,1.1c-0.2,0.3-0.3,0.5-0.4,0.8c-0.2,0.3-0.3,0.5-0.4,0.8     c-0.1,0.3-0.3,0.5-0.4,0.8c-0.1,0.3-0.3,0.6-0.4,0.8c-0.1,0.3-0.3,0.5-0.4,0.8c-0.1,0.3-0.3,0.6-0.4,1c-0.1,0.3-0.2,0.6-0.3,0.8     c-0.2,0.5-0.4,1-0.5,1.4c-0.1,0.3-0.2,0.5-0.3,0.8c-0.1,0.3-0.2,0.7-0.3,1c-0.1,0.3-0.2,0.5-0.2,0.8c-0.1,0.3-0.2,0.7-0.3,1     c-0.1,0.3-0.1,0.5-0.2,0.8c-0.1,0.4-0.2,0.8-0.3,1.3c0,0.2-0.1,0.3-0.1,0.5c-0.1,0.6-0.3,1.1-0.4,1.7c0,0.2-0.1,0.5-0.1,0.7     c-0.1,0.4-0.1,0.8-0.2,1.2c0,0.2-0.1,0.5-0.1,0.7c-0.1,0.4-0.1,0.8-0.2,1.2c0,0.2-0.1,0.4-0.1,0.7c-0.1,0.5-0.1,1-0.2,1.6     c0,0.1,0,0.2,0,0.2c-0.1,0.6-0.1,1.2-0.2,1.8c0,0.2,0,0.4,0,0.6c0,0.4-0.1,0.8-0.1,1.3c0,0.2,0,0.4,0,0.6c0,0.4,0,0.8,0,1.2     c0,0.2,0,0.4,0,0.6c0,0.6,0,1.2,0,1.8c0,0.7,0,1.4,0.1,2.1C23.2,69.2,23.2,69.3,23.2,69.4z"/><path class="st63" d="M62.1,70.8c-13.1,0-24.5,6.7-30.2,16.5c6.9,6.2,17.9,8.7,30.2,8.7c12.3,0,23.3-2.4,30.2-8.7     C86.7,77.6,75.3,70.8,62.1,70.8"/><path class="st5" d="M101.1,64c-0.5,9.1-4.7,15.5-11.3,19.6c0.9,1.1,1.6,2.2,2.3,3.4c5.6-4.5,9-11,9-20     C101.1,66,101.1,65,101.1,64z"/><path class="st64" d="M34.5,83.6c-0.9,1.1-1.6,2.2-2.3,3.4c7.2,5.7,17.9,8,30,8s22.8-2.4,30-8c-0.7-1.2-1.5-2.3-2.3-3.4     C82.7,88.1,72.9,90,62.1,90S41.5,88.1,34.5,83.6z"/><path class="st2" d="M93.6,86.6c-0.4-0.7-0.8-1.3-1.2-1.9C86,75.2,74.6,69.3,62.1,69.3c-12.5,0-23.9,5.8-30.3,15.4     c-0.4,0.6-0.8,1.3-1.2,1.9c-0.2,0.3-0.2,0.6-0.2,1c6.8,5.8,17.5,8.9,31.7,8.9c14.2,0,24.8-3.1,31.7-8.9     C93.8,87.3,93.8,86.9,93.6,86.6z M62.1,94.5c-12.6,0-22.1-2.5-28.3-7.5c0.1-0.2,0.2-0.3,0.3-0.5c5.8-8.8,16.4-14.3,27.9-14.3     c11.6,0,22.1,5.4,28,14.3c0.1,0.2,0.2,0.3,0.3,0.5C84.2,92,74.7,94.5,62.1,94.5z"/><path class="st2" d="M62.1,19.5c-36.5,0-40.5,33.2-40.5,47.5c0,8.7,3,15.6,8.8,20.6c6.8,5.8,17.5,8.9,31.7,8.9     c14.2,0,24.8-3.1,31.7-8.9c5.8-4.9,8.8-11.9,8.8-20.6C102.6,52.8,98.7,19.5,62.1,19.5z M92.4,84.7c-0.7,0.7-1.5,1.3-2.3,1.9     c-8.1,5.7-19.7,6.9-28,6.9s-19.8-1.2-27.9-6.9c-0.8-0.6-1.6-1.2-2.4-1.9c-4.3-4-7.2-9.6-7.2-17.7c0-13.4,3.7-44.5,37.5-44.5     C96,22.5,99.6,53.7,99.6,67C99.6,75.1,96.8,80.8,92.4,84.7z"/></g><g id="Eyes_14_"><circle class="st2" cx="78" cy="66" r="3"/><circle class="st2" cx="46.2" cy="66" r="3"/></g><g id="Nostril_1_"><ellipse class="st2" cx="68.9" cy="82.4" rx="1.8" ry="2.7"/><ellipse class="st2" cx="56.1" cy="82.4" rx="1.8" ry="2.7"/></g></g></g><g id="Monkey"/><g id="Rabbit"/><g id="Bear"/><g id="Zebra"/><g id="Crab"/><g id="Crocodile"/><g id="Frog"/><g id="Owl"/><g id="Layer_28"/><g id="Octopus"/><g id="Turtle"/><g id="Squirrel"/><g id="Duck"/><g id="Squid"/><g id="Unicorn"/><g id="Parrot"/><g id="Layer_36"/><g id="Cockroach"/><g id="Gorilla"/><g id="Tiger"/><g id="Goat"/><g id="Whale"/></svg>