<?xml version="1.0" ?><svg style="enable-background:new 0 0 128 128;" version="1.1" viewBox="0 0 128 128" xml:space="preserve" xmlns="http://www.w3.org/2000/svg" xmlns:xlink="http://www.w3.org/1999/xlink"><style type="text/css">
	.st0{fill:#74CBDE;}
	.st1{fill:#B3F4FB;}
	.st2{fill:#301F00;}
	.st3{fill:#2FB0C1;}
	.st4{fill:#F2F2F2;}
	.st5{fill:#CCCCCC;}
	.st6{fill:#FFFFFF;}
	.st7{fill:#629EE1;}
	.st8{fill:#4180D8;}
	.st9{fill:#FF0013;}
	.st10{fill:#FF4D4D;}
	.st11{fill:#C80004;}
	.st12{fill:#FFD81A;}
	.st13{fill:#FFEA55;}
	.st14{fill:#FFB6C6;}
	.st15{fill:#FF97A9;}
	.st16{fill:#FFD0DC;}
	.st17{fill:#FF7287;}
	.st18{fill:#FDAD4C;}
	.st19{fill:#EB9129;}
	.st20{fill:#C13202;}
	.st21{fill:#CA4508;}
	.st22{fill:#FEC769;}
	.st23{fill:#FFEA9A;}
	.st24{fill:#FFDB69;}
	.st25{fill:#999999;}
	.st26{fill:#808080;}
	.st27{fill:#EBEBEB;}
	.st28{opacity:0.8;fill:#B3B3B3;}
	.st29{fill:#BCBCBC;}
	.st30{fill:#A39095;}
	.st31{fill:#B3B3B3;}
	.st32{fill:#EDFFC5;}
	.st33{fill:#F5FFD9;}
	.st34{opacity:0.8;fill:#FCFFF0;}
	.st35{fill:#8CC63F;}
	.st36{fill:#5AA319;}
	.st37{fill:#ACDC57;}
	.st38{fill:#C69452;}
	.st39{fill:#8A4900;}
	.st40{fill:#B17637;}
	.st41{fill:#E1D6BA;}
	.st42{fill:#CCBB92;}
	.st43{fill:#D8AD68;}
	.st44{fill:#253542;}
	.st45{fill:#2B4753;}
	.st46{fill:#FFA227;}
	.st47{fill:#0F171C;}
	.st48{fill:#FFBBBB;}
	.st49{fill:#A9A69C;}
	.st50{fill:#827E74;}
	.st51{fill:#C0BEB4;}
	.st52{fill:#333333;}
	.st53{fill:#FFE581;}
	.st54{fill:#6F4A38;}
	.st55{fill:#FFF5AE;}
	.st56{fill:#FFD252;}
	.st57{fill:#825C4D;}
	.st58{fill:#C97F4E;}
	.st59{fill:#B86538;}
	.st60{fill:#666666;}
	.st61{fill:#4D4D4D;}
	.st62{fill:#D6925E;}
	.st63{fill:#F9C0A7;}
	.st64{fill:#F7AD90;}
	.st65{fill:#D38F5B;}
	.st66{fill:#CD7C4F;}
	.st67{fill:#C1693E;}
	.st68{fill:#A05B38;}
	.st69{fill:#F1D4A5;}
	.st70{fill:#DD9665;}
	.st71{fill:#E7B777;}
	.st72{fill:#4A290A;}
	.st73{fill:#53770C;}
	.st74{fill:#699010;}
	.st75{fill:#884326;}
	.st76{fill:#F6D5A9;}
	.st77{fill:#F1C087;}
	.st78{fill:#FFD4C5;}
	.st79{fill:#FF9797;}
	.st80{fill:#FF8484;}
	.st81{fill:#FFAAAA;}
	.st82{fill:#7C0000;}
	.st83{fill:#A6B855;}
	.st84{fill:#C3D272;}
	.st85{fill:#7D942D;}
	.st86{fill:#68782F;}
	.st87{fill:#4F5E20;}
	.st88{fill:#81923E;}
	.st89{fill:#EE6B2B;}
	.st90{fill:#D2501E;}
	.st91{fill:#FF6868;}
	.st92{fill:#F85E28;}
	.st93{fill:#D5DAE0;}
	.st94{fill:#BCC4CD;}
	.st95{fill:#FDB62E;}
	.st96{fill:#472D07;}
	.st97{fill:#FC9C1B;}
	.st98{fill:#2D1A03;}
	.st99{fill:#FFFFD5;}
	.st100{fill:#FED041;}
	.st101{fill:#61400B;}
	.st102{fill:#FFFF95;}
	.st103{fill:#D7D3C9;}
	.st104{fill:#E8E3DA;}
	.st105{fill:#DDD6CA;}
	.st106{fill:#9E9992;}
	.st107{fill:#847E77;}
	.st108{fill:#F0EDE7;}
	.st109{fill:#88D3ED;}
	.st110{fill:#68C1E4;}
	.st111{fill:#A8E5F6;}
	.st112{fill:#E6E6E6;}
	.st113{fill:#D6D6D6;}
</style><g id="Fish"/><g id="Chicken"/><g id="Pig"/><g id="Dog"><g id="Tail_2_"><path class="st18" d="M97.7,89.3c8.3-3.4,16.8-15.8,16.8-15.8s-4.3,22-14.6,24.5"/><path class="st2" d="M99.9,99.5c-0.7,0-1.3-0.5-1.5-1.2c-0.2-0.8,0.3-1.6,1.1-1.8c5.4-1.3,9.3-9.5,11.5-16.3    c-3.3,3.9-8.1,8.5-12.8,10.5c-0.8,0.3-1.6-0.1-2-0.8c-0.3-0.8,0.1-1.6,0.8-2c7.8-3.1,16-15.2,16.1-15.3c0.4-0.6,1.2-0.8,1.8-0.5    c0.7,0.3,1,1,0.9,1.7c-0.2,0.9-4.6,23-15.7,25.6C100.2,99.5,100.1,99.5,99.9,99.5"/></g><g id="Body_3_"><path class="st18" d="M91.6,76.1l-0.9-4.6l-41,10l-0.9,5.1l-0.1-0.1c-4.8,4-6.2,30.7,0,30c0.8-0.1,1.5-0.1,2.1-0.2    c2.1-0.2,3.8-1.9,3.8-4.1c0-0.8,0.1-1.7,0.2-2.8c4.3,2.1,9.7,3.8,15.5,3.4c-0.1,1.9-0.3,3.4-0.6,3.7c-0.8,1,6.7,2.6,8,1    c0.5-0.6,1.4-3.5,2.1-6.7c3.8-1.1,7-2.5,9.6-3.8c-0.5,2.9-0.9,5.7-0.7,6.5c0.6,1.6,6,0,6,0C100.5,104.7,102.8,84.2,91.6,76.1"/><path class="st19" d="M65,95c13.8,0,25.9-3,32.5-11.1c-1.3-3.1-3.2-5.9-6-7.9l-0.9-4.6l-41,10l-0.9,5.1l-0.1-0.1    c-1.1,0.9-2.1,3.2-2.8,6C51.5,94.2,58,95,65,95z"/><path class="st2" d="M100.3,87.8c-1.2-5.4-3.7-9.7-7.4-12.5l1,5.3c1.9,2.6,2.9,5.5,3.4,7.9c0.8,3.8,0.8,7.8,0.3,11.5    c-0.2,1.5-0.5,2.9-0.8,4.3c-0.8,3.2-1.9,5.9-3.2,8c-1.4,0.4-3,0.6-3.6,0.5c0-0.8,0.2-2.6,0.6-4.7l0-0.2c1.2-0.6,2.3-1.3,2.8-1.5    c0.7-0.4,1.4-1.1,1.2-1.9c-0.3-0.8-1.1-1.5-2-0.9l-0.2,0.1l-0.2,0.1l0,0v0l0,0h0c-0.2,0.1-0.5,0.3-0.8,0.5    c-1.1,0.6-2.5,1.4-3.4,1.8c-1.8,0.9-4,1.8-6.4,2.6c0.3-2.5,0.2-4.9-0.5-6.7c-0.3-0.8-1.2-1.1-2-0.8s-1.1,1.2-0.8,2    c0.7,1.6,0.5,4.2,0.1,6.6c-0.2,1.2-0.4,2.3-0.7,3.3c-0.5,1.8-0.9,3.1-1.2,3.6c-0.8,0.4-3.8,0-5.2-0.5c0.1-0.5,0.2-1.1,0.3-1.9    c0.1-0.8,0.2-1.8,0.3-3.1c0.1-2.1,0.2-4.8,0.3-8.6c0-0.8-0.6-1.5-1.5-1.5h0c-0.8,0-1.5,0.7-1.5,1.5c-0.1,3-0.2,6.3-0.3,8.9    c-4.5,0.1-8.8-1.2-12.4-2.8c0.3-1.7,0.9-3.5,1.6-5.5c0.3-0.8-0.1-1.6-0.9-1.9c-0.8-0.3-1.6,0.1-1.9,0.9c-0.7,1.8-1.2,3.6-1.6,5.2    c-0.3,1.1-0.5,2.2-0.5,3.2c-0.1,0.7-0.1,1.3-0.1,1.9c0,1.4-1,2.5-2.4,2.6c-0.6,0-1.3,0.1-2.1,0.2c-0.5,0-1-1-1.2-1.4    c-0.8-1.9-1.2-4.7-1.3-7.9c-0.2-7.4,1.5-16.3,3.6-18.1c0.6-0.5,0.7-1.5,0.2-2.1c-0.5-0.6-1.5-0.7-2.1-0.2    c-0.1,0.1-0.2,0.2-0.3,0.3C43,90,41.7,108,44.5,114.7c1.2,2.8,2.8,3.3,3.9,3.3c0.1,0,0.3,0,0.4,0c0.8-0.1,1.4-0.1,2-0.2    c2.9-0.2,5.1-2.6,5.1-5.6c0-0.2,0-0.4,0-0.6c3.6,1.5,7.9,2.7,12.5,2.7h0.1c-0.1,0.7-0.1,1.2-0.2,1.4c-0.4,0.7-0.4,1.7,0.6,2.4    c0.9,0.7,3.7,1.5,6.2,1.5c1.6,0,3-0.3,3.7-1.3c0.5-0.7,1.5-3.3,2.2-6.4c2.3-0.7,4.5-1.6,6.3-2.4c-0.3,2.1-0.4,3.7-0.1,4.4    c0.5,1.3,1.8,1.7,3.4,1.7c1.5,0,3.2-0.4,4.5-0.8c0.3-0.1,0.6-0.3,0.8-0.6C99.7,108.6,102.4,97.7,100.3,87.8z"/></g><g id="Head_12_"><g id="Ear_1_"><g><path class="st20" d="M84.6,18.3c16.6-1.9,49.2,50.7,19,55.5c-23.8,3.8-10.5-21.3-10.5-21.3L95,27.6L84.6,18.3"/><path class="st21" d="M94.7,32c9.9,8.7,19.3,25.3,18.5,36.9c11.4-14.2-14.4-52.3-28.5-50.6L95,27.6L94.7,32z"/><path class="st2" d="M99.2,75.7c-4.5,0-7.6-1.3-9.5-3.9c-4.5-6.3,1-17.7,2-19.7l1.8-24.6c0.1-0.8,0.8-1.4,1.6-1.4      c0.8,0.1,1.4,0.8,1.4,1.6l-1.8,24.9c0,0.2-0.1,0.4-0.2,0.6C92.8,56.4,89,65.7,92.1,70c1.7,2.4,5.5,3.2,11.3,2.3      c8.5-1.3,12.1-6.7,10.8-15.9C112,40.2,94.6,18.6,84.8,19.8c-0.8,0.1-1.6-0.5-1.7-1.3c-0.1-0.8,0.5-1.6,1.3-1.7      c12.5-1.5,30.4,22.5,32.8,39.2c1.5,10.8-3.2,17.7-13.3,19.3C102.2,75.5,100.6,75.7,99.2,75.7"/></g><g><path class="st20" d="M40.8,18.3C24.3,16.3-8.3,69,21.8,73.8c23.8,3.8,10.5-21.3,10.5-21.3l-0.4-24.9L40.8,18.3"/><path class="st21" d="M39.9,18.2c-2.4,0-5,1-7.7,2.8l0,0l0,0l0,0l0,0c-13.6,8.8-29,36-20,47.7c-0.7-12.1,9.4-29.4,19.7-37.8      l-0.1-3.3l9-9.3C40.5,18.2,40.2,18.2,39.9,18.2"/><path class="st2" d="M26.3,75.7c-1.4,0-3-0.1-4.7-0.4C11.5,73.7,6.8,66.8,8.3,56C10.6,39.3,28.6,15.3,41,16.8      c0.8,0.1,1.4,0.8,1.3,1.7c-0.1,0.8-0.8,1.4-1.7,1.3c-9.9-1.2-27.2,20.4-29.4,36.6C10,65.6,13.6,71,22.1,72.3      c5.8,0.9,9.5,0.1,11.3-2.3c3.1-4.3-0.7-13.6-2.4-16.8c-0.1-0.2-0.2-0.4-0.2-0.7l-0.4-24.9c0-0.8,0.6-1.5,1.5-1.5      c0.8-0.1,1.5,0.6,1.5,1.5l0.4,24.6c1.1,2.1,6.4,13.4,2,19.7C33.9,74.4,30.8,75.7,26.3,75.7"/></g></g><g id="Head_2_"><g><path class="st18" d="M101.2,62c0,21-17,28-38,28c-21,0-38-7-38-28c0-21,0-48,38-48S101.2,41,101.2,62"/><path class="st22" d="M63.2,14c-37.8,0-38,26.8-38,47.7v0v0v0v0v0v0V62c0,1.1,0.1,2.1,0.1,3c0.8-18.7,5.7-38,37.9-38      s37.1,19.4,37.9,38c0.1-1,0.1-2,0.1-3C101.2,41,101.2,14,63.2,14"/><path class="st19" d="M63.1,90C63.2,90,63.2,90,63.1,90C63.2,90,63.2,90,63.1,90C63.2,90,63.2,90,63.1,90      C63.2,90,63.2,90,63.1,90 M63.2,90C63.2,90,63.2,90,63.2,90C63.2,90,63.2,90,63.2,90 M63.1,90C63.1,90,63.1,90,63.1,90      C63.1,90,63.1,90,63.1,90 M63.3,90C63.3,90,63.3,90,63.3,90C63.3,90,63.3,90,63.3,90 M63.1,90C63.1,90,63.1,90,63.1,90      C63.1,90,63.1,90,63.1,90 M63.3,90C63.3,90,63.3,90,63.3,90C63.3,90,63.3,90,63.3,90 M63,90C63,90,63.1,90,63,90      C63.1,90,63,90,63,90 M63.3,90C63.3,90,63.3,90,63.3,90C63.3,90,63.3,90,63.3,90 M63,90C63,90,63,90,63,90C63,90,63,90,63,90       M63.4,90C63.4,90,63.4,90,63.4,90C63.4,90,63.4,90,63.4,90 M62.9,90C62.9,90,63,90,62.9,90C63,90,62.9,90,62.9,90 M25.2,56.8      c0,1.7,0,3.5,0,5.2c0,20.9,16.9,27.9,37.7,28c-12.2,0-23-2.5-29.9-8.7l0,0l0,0c0-0.1,0.1-0.1,0.1-0.2c0.8-1.3,1.6-2.5,2.6-3.7      C29.4,73.2,25.4,66.5,25.2,56.8 M101.2,56.8c-0.2,9.7-4.2,16.3-10.5,20.6c1,1.2,1.8,2.5,2.6,3.8c0,0,0,0.1,0.1,0.1l0,0v0      C86.5,87.5,75.6,90,63.4,90c20.9-0.1,37.7-7.1,37.7-28l0,0C101.2,60.3,101.2,58.6,101.2,56.8"/><path class="st23" d="M63.2,64.8C50,64.8,38.6,71.5,33,81.3c6.9,6.2,17.9,8.7,30.2,8.7c12.3,0,23.3-2.4,30.2-8.7      C87.7,71.5,76.3,64.8,63.2,64.8"/><path class="st24" d="M90.7,77.4C83.8,82.1,74,84,63.2,84c-10.8,0-20.6-1.9-27.5-6.6c-1,1.2-1.8,2.4-2.6,3.7      c0,0.1-0.1,0.1-0.1,0.2c0.4,0.4,0.9,0.7,1.3,1.1l0.1,0.1c0.4,0.3,0.8,0.6,1.3,0.9l0.1,0.1c0.5,0.3,0.9,0.6,1.4,0.9l0.1,0      c1.5,0.9,3.2,1.7,5,2.3l0.2,0.1c0.5,0.2,1,0.4,1.6,0.5c0.1,0,0.2,0.1,0.3,0.1c0.5,0.2,1,0.3,1.5,0.4c0.1,0,0.2,0.1,0.4,0.1      c0.5,0.1,1.1,0.3,1.6,0.4c0.1,0,0.2,0,0.3,0.1c1.3,0.3,2.6,0.5,4,0.7c0.1,0,0.2,0,0.3,0c0.6,0.1,1.1,0.2,1.7,0.2      c0.2,0,0.4,0,0.6,0.1c0.5,0.1,0.9,0.1,1.4,0.1c0.2,0,0.5,0,0.7,0.1c0.5,0,0.9,0.1,1.4,0.1c0.2,0,0.5,0,0.7,0c0.5,0,1,0,1.5,0.1      c0.2,0,0.4,0,0.7,0c0.7,0,1.4,0,2.1,0c0.7,0,1.4,0,2.1,0c0.2,0,0.4,0,0.7,0c0.5,0,1,0,1.5-0.1c0.2,0,0.5,0,0.7,0      c0.5,0,0.9-0.1,1.4-0.1c0.2,0,0.5,0,0.7-0.1c0.5,0,0.9-0.1,1.4-0.1c0.2,0,0.4,0,0.6-0.1c0.6-0.1,1.1-0.1,1.7-0.2      c0.1,0,0.2,0,0.3,0c1.4-0.2,2.7-0.4,4-0.7c0.1,0,0.2,0,0.3-0.1c0.5-0.1,1.1-0.3,1.6-0.4c0.1,0,0.2-0.1,0.4-0.1      c0.5-0.1,1-0.3,1.5-0.4c0.1,0,0.2-0.1,0.3-0.1c0.5-0.2,1.1-0.4,1.6-0.5l0.2-0.1c1.8-0.7,3.4-1.4,5-2.3l0.1,0      c0.5-0.3,1-0.6,1.4-0.9l0.1-0.1c0.4-0.3,0.9-0.6,1.3-0.9l0.1-0.1c0.4-0.3,0.9-0.7,1.3-1.1c0,0,0-0.1-0.1-0.1      C92.5,79.9,91.6,78.6,90.7,77.4"/><path class="st2" d="M63.2,91.5c-25.8,0-39.5-10.2-39.5-29.5c0-20.9,0-49.5,39.5-49.5s39.5,28.6,39.5,49.5      C102.7,81.3,89,91.5,63.2,91.5z M63.2,15.5c-36.5,0-36.5,25.8-36.5,46.5c0,21.9,19.8,26.5,36.5,26.5S99.7,83.9,99.7,62      C99.7,41.3,99.7,15.5,63.2,15.5z"/></g></g><g id="Nose_1_"><path class="st20" d="M70.1,72.4c0,2.4-3.1,7-6.9,7s-6.9-4.5-6.9-7s3.1-4.4,6.9-4.4S70.1,70,70.1,72.4z"/><path class="st2" d="M63.2,80.8c-4.6,0-8.4-5.1-8.4-8.5c0-3.3,3.7-5.9,8.4-5.9s8.4,2.6,8.4,5.9C71.6,75.7,67.8,80.8,63.2,80.8z      M63.2,69.5c-3.2,0-5.4,1.5-5.4,2.9c0,1.7,2.5,5.5,5.4,5.5s5.4-3.7,5.4-5.5C68.6,71,66.3,69.5,63.2,69.5z"/></g><path class="st2" d="M63.2,91.5c-0.8,0-1.5-0.7-1.5-1.5V79.3c0-0.8,0.7-1.5,1.5-1.5s1.5,0.7,1.5,1.5V90    C64.7,90.8,64,91.5,63.2,91.5z" id="Mouth_1_"/><g id="Eyes_8_"><circle class="st2" cx="79.1" cy="63.5" r="3"/><circle class="st2" cx="47.3" cy="63.5" r="3"/></g></g></g><g id="Cat"/><g id="Bird"/><g id="Koala"/><g id="Mice"/><g id="Snake"/><g id="Lion"/><g id="Caterpillar"/><g id="Dolphin"/><g id="Penguin"/><g id="Deer"/><g id="Elephant"/><g id="Panda"/><g id="Giraffe"/><g id="Cow"/><g id="Monkey"/><g id="Rabbit"/><g id="Bear"/><g id="Zebra"/><g id="Crab"/><g id="Crocodile"/><g id="Frog"/><g id="Owl"/><g id="Layer_28"/><g id="Octopus"/><g id="Turtle"/><g id="Squirrel"/><g id="Duck"/><g id="Squid"/><g id="Unicorn"/><g id="Parrot"/><g id="Layer_36"/><g id="Cockroach"/><g id="Gorilla"/><g id="Tiger"/><g id="Goat"/><g id="Whale"/></svg>