<?xml version="1.0" ?><svg style="enable-background:new 0 0 128 128;" version="1.1" viewBox="0 0 128 128" xml:space="preserve" xmlns="http://www.w3.org/2000/svg" xmlns:xlink="http://www.w3.org/1999/xlink"><style type="text/css">
	.st0{fill:#74CBDE;}
	.st1{fill:#B3F4FB;}
	.st2{fill:#301F00;}
	.st3{fill:#2FB0C1;}
	.st4{fill:#F2F2F2;}
	.st5{fill:#CCCCCC;}
	.st6{fill:#FFFFFF;}
	.st7{fill:#629EE1;}
	.st8{fill:#4180D8;}
	.st9{fill:#FF0013;}
	.st10{fill:#FF4D4D;}
	.st11{fill:#C80004;}
	.st12{fill:#FFD81A;}
	.st13{fill:#FFEA55;}
	.st14{fill:#FFB6C6;}
	.st15{fill:#FF97A9;}
	.st16{fill:#FFD0DC;}
	.st17{fill:#FF7287;}
	.st18{fill:#FDAD4C;}
	.st19{fill:#EB9129;}
	.st20{fill:#C13202;}
	.st21{fill:#CA4508;}
	.st22{fill:#FEC769;}
	.st23{fill:#FFEA9A;}
	.st24{fill:#FFDB69;}
	.st25{fill:#999999;}
	.st26{fill:#808080;}
	.st27{fill:#EBEBEB;}
	.st28{opacity:0.8;fill:#B3B3B3;}
	.st29{fill:#BCBCBC;}
	.st30{fill:#A39095;}
	.st31{fill:#B3B3B3;}
	.st32{fill:#EDFFC5;}
	.st33{fill:#F5FFD9;}
	.st34{opacity:0.8;fill:#FCFFF0;}
	.st35{fill:#8CC63F;}
	.st36{fill:#5AA319;}
	.st37{fill:#ACDC57;}
	.st38{fill:#C69452;}
	.st39{fill:#8A4900;}
	.st40{fill:#B17637;}
	.st41{fill:#E1D6BA;}
	.st42{fill:#CCBB92;}
	.st43{fill:#D8AD68;}
	.st44{fill:#253542;}
	.st45{fill:#2B4753;}
	.st46{fill:#FFA227;}
	.st47{fill:#0F171C;}
	.st48{fill:#FFBBBB;}
	.st49{fill:#A9A69C;}
	.st50{fill:#827E74;}
	.st51{fill:#C0BEB4;}
	.st52{fill:#333333;}
	.st53{fill:#FFE581;}
	.st54{fill:#6F4A38;}
	.st55{fill:#FFF5AE;}
	.st56{fill:#FFD252;}
	.st57{fill:#825C4D;}
	.st58{fill:#C97F4E;}
	.st59{fill:#B86538;}
	.st60{fill:#666666;}
	.st61{fill:#4D4D4D;}
	.st62{fill:#D6925E;}
	.st63{fill:#F9C0A7;}
	.st64{fill:#F7AD90;}
	.st65{fill:#D38F5B;}
	.st66{fill:#CD7C4F;}
	.st67{fill:#C1693E;}
	.st68{fill:#A05B38;}
	.st69{fill:#F1D4A5;}
	.st70{fill:#DD9665;}
	.st71{fill:#E7B777;}
	.st72{fill:#4A290A;}
	.st73{fill:#53770C;}
	.st74{fill:#699010;}
	.st75{fill:#884326;}
	.st76{fill:#F6D5A9;}
	.st77{fill:#F1C087;}
	.st78{fill:#FFD4C5;}
	.st79{fill:#FF9797;}
	.st80{fill:#FF8484;}
	.st81{fill:#FFAAAA;}
	.st82{fill:#7C0000;}
	.st83{fill:#A6B855;}
	.st84{fill:#C3D272;}
	.st85{fill:#7D942D;}
	.st86{fill:#68782F;}
	.st87{fill:#4F5E20;}
	.st88{fill:#81923E;}
	.st89{fill:#EE6B2B;}
	.st90{fill:#D2501E;}
	.st91{fill:#FF6868;}
	.st92{fill:#F85E28;}
	.st93{fill:#D5DAE0;}
	.st94{fill:#BCC4CD;}
	.st95{fill:#FDB62E;}
	.st96{fill:#472D07;}
	.st97{fill:#FC9C1B;}
	.st98{fill:#2D1A03;}
	.st99{fill:#FFFFD5;}
	.st100{fill:#FED041;}
	.st101{fill:#61400B;}
	.st102{fill:#FFFF95;}
	.st103{fill:#D7D3C9;}
	.st104{fill:#E8E3DA;}
	.st105{fill:#DDD6CA;}
	.st106{fill:#9E9992;}
	.st107{fill:#847E77;}
	.st108{fill:#F0EDE7;}
	.st109{fill:#88D3ED;}
	.st110{fill:#68C1E4;}
	.st111{fill:#A8E5F6;}
	.st112{fill:#E6E6E6;}
	.st113{fill:#D6D6D6;}
</style><g id="Fish"/><g id="Chicken"><g id="Comb"><path class="st9" d="M44,27.5c0,0-6.6-5.8-4-10s8-2,8-2S44.1,5,55,5.5s13.4,12.5,5,21S44,27.5,44,27.5z"/><path class="st10" d="M55,5.5c-4.1-0.2-6.1,1.2-7,2.9c0.2,0,0.4,0,0.6,0C59.5,9,62,21,53.6,29.5c-0.4,0.4-0.8,0.7-1.1,1.1    c2.3-0.2,4.9-1.3,7.5-4C68.4,18,65.9,6,55,5.5z"/><path class="st2" d="M51.6,32.1c-4.7,0-8.1-3-8.6-3.4c-0.5-0.4-7.5-6.7-4.3-11.9c1.8-3,4.8-3.5,7.3-3.2c-0.3-1.9-0.3-4.5,1.2-6.6    c1.5-2.1,4.2-3.1,7.9-2.9c5.1,0.2,9,2.8,10.6,7c2,5.2,0.2,11.7-4.6,16.5C57.7,31,54.4,32.1,51.6,32.1z M45,26.4    c0.7,0.7,6.8,6.2,13.9-1c4-4,5.5-9.3,3.9-13.3c-1.2-3.1-4-4.9-7.9-5.1c-2.6-0.1-4.4,0.4-5.3,1.7C48,10.9,49.4,15,49.4,15    c0.2,0.6,0.1,1.2-0.4,1.6c-0.4,0.4-1.1,0.5-1.6,0.3c-0.2-0.1-4.2-1.7-6.1,1.4C39.4,21.4,44.9,26.3,45,26.4    C45,26.4,45,26.4,45,26.4L45,26.4z"/></g><g id="Sickle_Feather"><g><path class="st9" d="M92,86.5c0,0,15.5-5.7,20.6-1c5,4.7-0.6,11.4-8.6,8.1c-8.2-3.4-9.6-1.4-9.6-1.4L92,86.5z"/><path class="st11" d="M94.4,92.2c0,0,1-1.4,6.1,0.2c0.3-1.2,0.4-2.5,0.5-3.9c0-1.3-0.2-2.8-0.6-4.3c-4.5,0.8-8.4,2.3-8.4,2.3     L94.4,92.2z"/><path class="st10" d="M112.6,85.6c-2-1.9-5.8-2.1-9.5-1.7c1.6,0.3,3,0.8,4,1.7c3.4,3.2,1.9,7.2-1.8,8.5     C112.6,96.2,117.3,90,112.6,85.6z"/><path class="st2" d="M108.1,96c-1.4,0-3-0.3-4.7-1c-5.9-2.4-7.7-1.8-8-1.7c-0.3,0.3-0.8,0.5-1.2,0.4c-0.5-0.1-1-0.4-1.2-0.9     l-2.4-5.7c-0.2-0.4-0.2-0.8,0-1.2s0.5-0.7,0.9-0.8c1.7-0.6,16.6-5.9,22.2-0.7c2.5,2.4,3.1,5.6,1.4,8.2     C113.8,94.5,111.3,96,108.1,96z M96.4,90.2c1.7,0,4.3,0.5,8.1,2.1c3.9,1.6,6.9,0.5,8-1.2c0.9-1.4,0.5-3-0.9-4.4     c-2.9-2.8-11.8-1.1-17.6,0.8l1.2,2.9C95.5,90.2,95.9,90.2,96.4,90.2z"/></g><g><path class="st9" d="M91,86.3c0,0,12.6-18.3,21.2-14.6c8.5,3.6,4.5,14.6-7.1,14.2c-11.9-0.5-12.7,2.7-12.7,2.7L91,86.3z"/><path class="st10" d="M112.2,71.6c-4-1.7-8.8,1.3-12.8,5c1.8-0.6,3.5-0.6,5.1,0c4.4,1.9,5.4,5.8,3.8,9     C117.4,84.2,119.8,74.9,112.2,71.6z"/><path class="st11" d="M97.3,78.7c-3.7,3.8-6.3,7.6-6.3,7.6l1.4,2.2c0,0,0.6-2.3,8.4-2.7C100.3,83.5,99.1,80.9,97.3,78.7z"/><path class="st2" d="M92.4,90c-0.5,0-1-0.3-1.3-0.7L89.7,87c-0.3-0.5-0.3-1.1,0-1.6c1.4-2,13.6-19.2,23-15.2     c4,1.7,6.1,5.3,5.3,9.1c-0.9,4-5.4,8.3-13,8c-9.3-0.4-11.1,1.6-11.3,1.8c-0.2,0.5-0.6,0.8-1.2,0.9C92.5,90,92.4,90,92.4,90z      M109.7,72.7c-5.6,0-13.1,8.5-16.6,13.2c1.9-1,5.5-1.8,12-1.6c5.9,0.2,9.3-2.8,10-5.6c0.5-2.4-0.8-4.5-3.5-5.7     C111,72.8,110.4,72.7,109.7,72.7z"/></g><g><path class="st9" d="M87,84.2c0,0,6.4-25.2,17.4-24.7c10.8,0.5,10.9,14.2-2.1,18.5c-13.3,4.3-12.9,8.1-12.9,8.1L87,84.2z"/><path class="st11" d="M98,79.6c-1.7-2.4-4.1-4.6-7.2-6.2C88.3,79,87,84.2,87,84.2l2.4,1.9C89.4,86.1,89.1,83.2,98,79.6z"/><path class="st10" d="M104.4,59.5c-3.3-0.2-6.1,2-8.5,5c7.8,0.7,9.6,8.5,4.5,14.1c0.6-0.2,1.3-0.4,1.9-0.7     C115.3,73.8,115.1,60.1,104.4,59.5z"/><path class="st2" d="M89.4,87.6c-0.3,0-0.7-0.1-0.9-0.3l-2.4-1.9c-0.5-0.4-0.7-1-0.5-1.5c0.3-1.1,6.9-26.4,18.9-25.8     c5,0.2,8.6,3.2,9.2,7.6c0.6,4.7-2.5,11-10.9,13.8C92,82.9,91,85.9,90.9,86.2c0,0.5-0.3,1-0.8,1.3C89.9,87.6,89.6,87.6,89.4,87.6z      M88.7,83.7l0.1,0.1c1.4-1.9,4.8-4.5,13-7.2c6.8-2.2,9.3-7,8.9-10.5c-0.4-3-2.8-4.8-6.4-5C96.7,60.7,90.7,76.4,88.7,83.7z"/></g><g><path class="st9" d="M83.3,81.9c0,0-3-29.2,8.8-32.8c11.6-3.6,17,10.8,5,20.3C84.8,79.2,86.6,83,86.6,83L83.3,81.9z"/><path class="st11" d="M91.9,74c-2.4-1.4-5.4-2.4-8.8-2.7c-0.2,5.9,0.3,10.7,0.3,10.7l3.3,1.1C86.6,83,85.4,80.4,91.9,74z"/><path class="st10" d="M92.1,49.1c-2.7,0.9-4.7,3.1-6,6c0,0,0,0,0,0c9.8-3.1,15.2,6.8,9.4,15.7c0.5-0.4,1.1-0.9,1.6-1.3     C109.2,59.9,103.7,45.5,92.1,49.1z"/><path class="st2" d="M86.6,84.5c-0.2,0-0.3,0-0.5-0.1l-3.3-1.1c-0.6-0.2-1-0.7-1-1.3c-0.1-1.2-3-30.4,9.8-34.4     c5.3-1.7,10.2,0.1,12.5,4.4c2.5,4.7,1.6,12.5-6.1,18.6c-10.3,8.1-10,11.6-10,11.9c0.2,0.5,0.1,1.1-0.3,1.5     C87.5,84.4,87.1,84.5,86.6,84.5z M84.8,80.8l0.5,0.1c0.6-2.5,3.1-6.6,11-12.7c6.4-5,7.2-11.2,5.3-14.8c-1.6-3.1-5-4.2-8.9-2.9     C84.2,53.1,84,72.4,84.8,80.8z"/></g></g><g id="Leg"><path class="st2" d="M66,121.6l-4.2-5.1c0.4-2.3,0.7-4.4,0.7-4.8c0.1-0.8-0.5-1.6-1.3-1.7c-0.8-0.1-1.6,0.5-1.7,1.3    c-0.1,1.1-0.3,2.5-0.6,3.9l-6.7,3.7c-0.7,0.4-1,1.3-0.6,2c0.3,0.5,0.8,0.8,1.3,0.8c0.2,0,0.5-0.1,0.7-0.2l4.4-2.4    c-0.4,1.5-0.8,2.8-1.3,3.5c-0.5,0.7-0.3,1.6,0.3,2.1c0.3,0.2,0.6,0.3,0.9,0.3c0.5,0,0.9-0.2,1.2-0.6c0.7-0.9,1.2-2.5,1.7-4.2    l2.7,3.3c0.3,0.4,0.7,0.5,1.2,0.5c0.3,0,0.7-0.1,1-0.3C66.4,123.1,66.5,122.2,66,121.6z"/><path class="st2" d="M87.1,119.1l-4.6-4.7c0.3-2.4,0.3-4.4,0.4-4.8c0-0.8-0.6-1.5-1.4-1.6c-0.8,0-1.5,0.6-1.6,1.4    c0,1.1-0.1,2.5-0.3,4l-6.3,4.2c-0.7,0.5-0.9,1.4-0.4,2.1c0.3,0.4,0.8,0.7,1.3,0.7c0.3,0,0.6-0.1,0.8-0.3l4.2-2.8    c-0.3,1.6-0.6,2.9-1,3.6c-0.4,0.7-0.2,1.6,0.5,2.1c0.2,0.1,0.5,0.2,0.8,0.2c0.5,0,1-0.3,1.3-0.7c0.6-1,1-2.6,1.4-4.3l3,3.1    c0.3,0.3,0.7,0.5,1.1,0.5c0.4,0,0.8-0.1,1-0.4C87.6,120.7,87.7,119.7,87.1,119.1z"/></g><g id="Body_1_"><path class="st4" d="M75.7,75.2C80.2,70,83,63.3,83,56c0-17.3-13.7-30.3-30.5-29.5C35.7,27.3,22,39.7,22,56    c0,30.6,31,29.5,31.3,29.5c-2.7,3.1-4.3,6.6-4.3,10c0,8.8,10.1,16,22.5,16c13.9,0,25-5.8,25.5-19C97.3,85.6,90.2,74.7,75.7,75.2z"/><path class="st5" d="M86.3,77.2c3.2,3.3,4.8,7.4,4.7,10.6c-0.5,12.4-10.9,17.7-23.8,17.7c-7.5,0-14.1-2.8-17.8-7    c2,7.4,11.1,13,22.1,13c13.9,0,25-5.8,25.5-19C97.2,87.6,93.6,80.6,86.3,77.2z"/><path class="st6" d="M52.5,36.6c15.1-0.7,27.7,9.7,30.1,24.3c0.3-1.6,0.4-3.2,0.4-4.9c0-17.3-13.7-30.3-30.5-29.5    C35.7,27.3,22,39.7,22,56c0,2,0.1,3.8,0.4,5.5C24.6,47.5,37.3,37.3,52.5,36.6z"/><path class="st2" d="M71.5,113c-13.2,0-24-7.9-24-17.5c0-2.9,1-5.8,2.8-8.6c-4.9-0.3-14.5-1.9-21.5-8.8    c-5.5-5.3-8.3-12.8-8.3-22.1c0-16.8,13.7-30.1,31.9-31C61,24.6,69,27.5,75,33.3c6.1,5.8,9.5,13.9,9.5,22.7c0,6.4-2,12.5-5.7,17.7    c7,0.5,11.6,3.6,14.2,6.3c3.6,3.6,5.7,8.4,5.5,12.5C98,105.4,87.9,113,71.5,113z M53.3,84c0.6,0,1.1,0.3,1.4,0.9    c0.3,0.5,0.2,1.2-0.2,1.6c-2.6,3-3.9,6.1-3.9,9c0,8,9.4,14.5,21,14.5c7,0,23.4-1.7,24-17.6c0.1-2.6-1.1-6.7-4.6-10.3    c-2.6-2.7-7.4-5.8-15.1-5.5c-0.6,0-1.2-0.3-1.4-0.9c-0.3-0.5-0.2-1.2,0.2-1.6c4.5-5.1,6.9-11.5,6.9-18.2c0-8-3-15.3-8.6-20.6    c-5.4-5.2-12.6-7.8-20.4-7.4C36,28.8,23.5,40.9,23.5,56c0,8.5,2.5,15.2,7.4,20C39.5,84.3,52.7,84,53.3,84C53.3,84,53.3,84,53.3,84    z"/></g><g id="Eyes_10_"><circle class="st2" cx="36" cy="60.5" r="3"/><circle class="st2" cx="57" cy="60.5" r="3"/></g><g id="Beak"><path class="st12" d="M38.4,68.8c2.1-2.9,15.3-3.1,17,0c1.7,3.1-4.2,11.7-8.5,11.7C42.7,80.5,36.3,71.7,38.4,68.8z"/><path class="st13" d="M55.1,72.8c0.7-1.6,0.9-3.1,0.3-4c-1.7-3.1-14.9-2.9-17,0c-0.7,0.9-0.5,2.5,0.3,4.2    C41.3,70.5,52.5,70.3,55.1,72.8z"/><path class="st2" d="M46.9,82c-3.5,0-7.3-3.9-9.2-7.6c-1.4-2.7-1.6-5-0.5-6.5l0,0c2-2.7,8.7-3.1,12-2.8c2.8,0.2,6.4,0.9,7.5,3    c1.3,2.4-0.5,6-1.3,7.4C53.5,78.7,50.1,82,46.9,82C46.9,82,46.9,82,46.9,82z M47.3,68c-4,0-7.1,0.9-7.6,1.7l0,0    c-0.2,0.3-0.2,1.5,0.7,3.3c1.6,3.1,4.7,6,6.6,6c0,0,0,0,0,0c1.6,0,4.2-2.3,5.9-5.1c1.4-2.3,1.5-3.9,1.2-4.4    c-0.2-0.4-1.7-1.2-5.1-1.4C48.4,68,47.8,68,47.3,68z"/></g><g id="Wing"><path class="st4" d="M75,94.5c0,0,8.1,10.8,14,5.4c2.7-2.5-4-9-4-9"/><path class="st5" d="M75,94.5c0,0,9.1,10.2,15,5c-4.5,0.4-14-6-14-6"/><path class="st2" d="M85.3,102.9c-0.2,0-0.5,0-0.7,0c-5.5-0.5-10.6-7.2-10.8-7.5c-0.5-0.7-0.4-1.6,0.3-2.1    c0.7-0.5,1.6-0.4,2.1,0.3c1.2,1.6,5.2,6,8.6,6.3C86,100,87,99.6,88,98.8c0.1-0.1,0.2-0.2,0.2-0.4c0-1.6-2.4-4.7-4.2-6.4    c-0.6-0.6-0.6-1.5,0-2.1s1.5-0.6,2.1,0c0.9,0.8,5.1,5.2,5.1,8.6c0,1-0.4,1.9-1.1,2.6C88.6,102.3,87,102.9,85.3,102.9z"/></g></g><g id="Pig"/><g id="Dog"/><g id="Cat"/><g id="Bird"/><g id="Koala"/><g id="Mice"/><g id="Snake"/><g id="Lion"/><g id="Caterpillar"/><g id="Dolphin"/><g id="Penguin"/><g id="Deer"/><g id="Elephant"/><g id="Panda"/><g id="Giraffe"/><g id="Cow"/><g id="Monkey"/><g id="Rabbit"/><g id="Bear"/><g id="Zebra"/><g id="Crab"/><g id="Crocodile"/><g id="Frog"/><g id="Owl"/><g id="Layer_28"/><g id="Octopus"/><g id="Turtle"/><g id="Squirrel"/><g id="Duck"/><g id="Squid"/><g id="Unicorn"/><g id="Parrot"/><g id="Layer_36"/><g id="Cockroach"/><g id="Gorilla"/><g id="Tiger"/><g id="Goat"/><g id="Whale"/></svg>