<?xml version="1.0" ?><svg style="enable-background:new 0 0 128 128;" version="1.1" viewBox="0 0 128 128" xml:space="preserve" xmlns="http://www.w3.org/2000/svg" xmlns:xlink="http://www.w3.org/1999/xlink"><style type="text/css">
	.st0{fill:#74CBDE;}
	.st1{fill:#B3F4FB;}
	.st2{fill:#301F00;}
	.st3{fill:#2FB0C1;}
	.st4{fill:#F2F2F2;}
	.st5{fill:#CCCCCC;}
	.st6{fill:#FFFFFF;}
	.st7{fill:#629EE1;}
	.st8{fill:#4180D8;}
	.st9{fill:#FF0013;}
	.st10{fill:#FF4D4D;}
	.st11{fill:#C80004;}
	.st12{fill:#FFD81A;}
	.st13{fill:#FFEA55;}
	.st14{fill:#FFB6C6;}
	.st15{fill:#FF97A9;}
	.st16{fill:#FFD0DC;}
	.st17{fill:#FF7287;}
	.st18{fill:#FDAD4C;}
	.st19{fill:#EB9129;}
	.st20{fill:#C13202;}
	.st21{fill:#CA4508;}
	.st22{fill:#FEC769;}
	.st23{fill:#FFEA9A;}
	.st24{fill:#FFDB69;}
	.st25{fill:#999999;}
	.st26{fill:#808080;}
	.st27{fill:#EBEBEB;}
	.st28{opacity:0.8;fill:#B3B3B3;}
	.st29{fill:#BCBCBC;}
	.st30{fill:#A39095;}
	.st31{fill:#B3B3B3;}
	.st32{fill:#EDFFC5;}
	.st33{fill:#F5FFD9;}
	.st34{opacity:0.8;fill:#FCFFF0;}
	.st35{fill:#8CC63F;}
	.st36{fill:#5AA319;}
	.st37{fill:#ACDC57;}
	.st38{fill:#C69452;}
	.st39{fill:#8A4900;}
	.st40{fill:#B17637;}
	.st41{fill:#E1D6BA;}
	.st42{fill:#CCBB92;}
	.st43{fill:#D8AD68;}
	.st44{fill:#253542;}
	.st45{fill:#2B4753;}
	.st46{fill:#FFA227;}
	.st47{fill:#0F171C;}
	.st48{fill:#FFBBBB;}
	.st49{fill:#A9A69C;}
	.st50{fill:#827E74;}
	.st51{fill:#C0BEB4;}
	.st52{fill:#333333;}
	.st53{fill:#FFE581;}
	.st54{fill:#6F4A38;}
	.st55{fill:#FFF5AE;}
	.st56{fill:#FFD252;}
	.st57{fill:#825C4D;}
	.st58{fill:#C97F4E;}
	.st59{fill:#B86538;}
	.st60{fill:#666666;}
	.st61{fill:#4D4D4D;}
	.st62{fill:#D6925E;}
	.st63{fill:#F9C0A7;}
	.st64{fill:#F7AD90;}
	.st65{fill:#D38F5B;}
	.st66{fill:#CD7C4F;}
	.st67{fill:#C1693E;}
	.st68{fill:#A05B38;}
	.st69{fill:#F1D4A5;}
	.st70{fill:#DD9665;}
	.st71{fill:#E7B777;}
	.st72{fill:#4A290A;}
	.st73{fill:#53770C;}
	.st74{fill:#699010;}
	.st75{fill:#884326;}
	.st76{fill:#F6D5A9;}
	.st77{fill:#F1C087;}
	.st78{fill:#FFD4C5;}
	.st79{fill:#FF9797;}
	.st80{fill:#FF8484;}
	.st81{fill:#FFAAAA;}
	.st82{fill:#7C0000;}
	.st83{fill:#A6B855;}
	.st84{fill:#C3D272;}
	.st85{fill:#7D942D;}
	.st86{fill:#68782F;}
	.st87{fill:#4F5E20;}
	.st88{fill:#81923E;}
	.st89{fill:#EE6B2B;}
	.st90{fill:#D2501E;}
	.st91{fill:#FF6868;}
	.st92{fill:#F85E28;}
	.st93{fill:#D5DAE0;}
	.st94{fill:#BCC4CD;}
	.st95{fill:#FDB62E;}
	.st96{fill:#472D07;}
	.st97{fill:#FC9C1B;}
	.st98{fill:#2D1A03;}
	.st99{fill:#FFFFD5;}
	.st100{fill:#FED041;}
	.st101{fill:#61400B;}
	.st102{fill:#FFFF95;}
	.st103{fill:#D7D3C9;}
	.st104{fill:#E8E3DA;}
	.st105{fill:#DDD6CA;}
	.st106{fill:#9E9992;}
	.st107{fill:#847E77;}
	.st108{fill:#F0EDE7;}
	.st109{fill:#88D3ED;}
	.st110{fill:#68C1E4;}
	.st111{fill:#A8E5F6;}
	.st112{fill:#E6E6E6;}
	.st113{fill:#D6D6D6;}
</style><g id="Fish"/><g id="Chicken"/><g id="Pig"/><g id="Dog"/><g id="Cat"><g id="Tail_3_"><path class="st2" d="M96,97c-1.5,0-2.9-0.7-3.9-1.8c-1.8-2.1-1.4-5.3,0.7-7c7.1-5.8,13-12.4,13.4-14.2c0.5-2.3,2.5-4,4.9-4    c0.3,0,0.7,0,1,0.1c1.3,0.3,2.4,1,3.2,2.2c0.7,1.1,1,2.5,0.7,3.8c-1.4,6.7-13.2,16.9-16.8,19.8C98.3,96.6,97.2,97,96,97z"/><path class="st25" d="M111.5,73c-1.1-0.2-2.1,0.5-2.4,1.5c-0.7,3.5-9.2,11.6-14.4,15.9c-0.9,0.7-1,2-0.3,2.8    c0.4,0.5,1,0.7,1.5,0.7c0.4,0,0.9-0.1,1.3-0.5c1.5-1.2,14.5-12.1,15.8-18.1C113.3,74.3,112.6,73.3,111.5,73z"/></g><g id="Body_4_"><path class="st25" d="M90.6,76.1l-0.9-4.6l-41,10l-0.9,5.1l-0.1-0.1c-4.8,4-6.2,30.7,0,30c0.8-0.1,1.5-0.1,2.1-0.2    c2.1-0.2,3.8-1.9,3.8-4.1c0-0.8,0.1-1.7,0.2-2.8c4.3,2.1,9.7,3.8,15.5,3.4c-0.1,1.9-0.3,3.4-0.6,3.7c-0.8,1,6.7,2.6,8,1    c0.5-0.6,1.4-3.5,2.1-6.7c3.8-1.1,7-2.5,9.6-3.8c-0.5,2.9-0.9,5.7-0.7,6.5c0.6,1.6,6,0,6,0C99.6,104.7,101.9,84.2,90.6,76.1"/><path class="st26" d="M62,95c14.4,0,27.1-3.4,33.8-11.8c-1.2-2.4-2.9-4.5-5.2-6.1l-0.9-4.6l-41,10l-0.9,5.1l-0.1-0.1    c-1.1,0.9-2,3-2.7,5.6C50.2,94.4,55.9,95,62,95z"/><path class="st2" d="M99.3,87.8c-1.2-5.4-3.7-9.7-7.4-12.5l-0.2,3.7l1.2,1.7c1.9,2.6,2.9,5.5,3.4,7.9c0.8,3.8,0.8,7.8,0.3,11.5    c-0.2,1.5-0.5,2.9-0.8,4.3c-0.8,3.2-1.9,5.9-3.2,8c-1.4,0.4-3,0.6-3.6,0.5c0-0.8,0.2-2.6,0.6-4.7l0-0.2c1.2-0.6,2.3-1.3,2.8-1.5    c0.7-0.4,1.4-1.1,1.2-1.9c-0.3-0.8-1.1-1.5-2-0.9l-0.2,0.1l-0.2,0.1l0,0v0l0,0h0c-0.2,0.1-0.5,0.3-0.8,0.5    c-1.1,0.6-2.5,1.4-3.4,1.8c-1.8,0.9-4,1.8-6.4,2.6c0.3-2.5,0.2-4.9-0.5-6.7c-0.3-0.8-1.2-1.1-2-0.8s-1.1,1.2-0.8,2    c0.7,1.6,0.5,4.2,0.1,6.6c-0.2,1.2-0.4,2.3-0.7,3.3c-0.5,1.8-0.9,3.1-1.2,3.6c-0.8,0.4-3.8,0-5.2-0.5c0.1-0.5,0.2-1.1,0.3-1.9    c0-0.2,0-0.4,0.1-0.6c0.1-0.7,0.1-1.5,0.2-2.4h0l0,0c0.1-2.1,0.2-4.8,0.3-8.6c0-0.8-0.6-1.5-1.5-1.5h0c-0.8,0-1.5,0.7-1.5,1.5    c-0.1,3-0.2,6.3-0.3,8.9c-4.5,0.1-8.8-1.2-12.4-2.8c0.3-1.7,0.9-3.5,1.6-5.5c0.3-0.8-0.1-1.6-0.9-1.9c-0.8-0.3-1.6,0.1-1.9,0.9    c-0.7,1.8-1.2,3.6-1.6,5.2c-0.3,1.1-0.5,2.2-0.6,3.2c-0.1,0.7-0.1,1.3-0.1,1.9c0,1.4-1,2.5-2.4,2.6c-0.6,0-1.3,0.1-2.1,0.2    c-0.5,0-1-1-1.2-1.4c-0.8-1.9-1.2-4.7-1.3-7.9c-0.2-7.4,1.5-16.3,3.6-18.1c0.6-0.5,0.7-1.5,0.2-2.1c-0.5-0.6-1.5-0.7-2.1-0.2    c-0.1,0.1-0.2,0.2-0.3,0.3c-4.4,4.4-5.7,22.5-2.9,29.1c1.2,2.8,2.9,3.3,3.9,3.3c0.1,0,0.3,0,0.4,0c0.8-0.1,1.4-0.1,2.1-0.2    c2.9-0.2,5.1-2.6,5.1-5.6c0-0.2,0-0.4,0-0.6c3.6,1.5,7.9,2.7,12.5,2.7h0.1c-0.1,0.7-0.1,1.2-0.2,1.4c-0.4,0.7-0.4,1.7,0.6,2.4    c0.9,0.7,3.7,1.5,6.2,1.5c1.6,0,3-0.3,3.7-1.3c0.5-0.7,1.5-3.3,2.2-6.4c2.3-0.7,4.5-1.6,6.3-2.4c-0.3,2.1-0.4,3.7-0.1,4.4    c0.5,1.3,1.8,1.7,3.4,1.7c1.5,0,3.2-0.4,4.5-0.8c0.3-0.1,0.6-0.3,0.8-0.6C98.8,108.6,101.5,97.7,99.3,87.8z"/></g><g id="Head_13_"><g id="Ear_2_"><g><path class="st25" d="M63.6,26.6c0,0,19.1-15.5,29-18.8c12.6-4.2,5,40.9,5,40.9l-15.9,0.9L63.6,26.6z"/><path class="st2" d="M81.8,51.1c-0.5,0-0.9-0.2-1.2-0.6l-18.1-23c-0.5-0.6-0.4-1.6,0.2-2.1c0.8-0.6,19.5-15.7,29.5-19      c2.6-0.9,4.3,0,5.3,0.9c7.3,6.3,2.2,38.1,1.6,41.8c-0.1,0.7-0.7,1.2-1.4,1.2L81.8,51.1C81.8,51.1,81.8,51.1,81.8,51.1z       M65.7,26.8l16.7,21.3l13.9-0.7c2.1-13.1,3.6-34-0.8-37.8c-0.4-0.4-1.1-0.7-2.4-0.3C85,12,70,23.5,65.7,26.8z"/><path class="st27" d="M71.4,28.4c0,0,12.4-10,18.8-12.1c8.1-2.7,3.2,26.5,3.2,26.5l-10.3,0.6L71.4,28.4z"/><path class="st2" d="M83.1,44.8c-0.5,0-0.9-0.2-1.2-0.6L70.2,29.3c-0.5-0.6-0.4-1.6,0.2-2.1c0.5-0.4,12.7-10.2,19.2-12.4      c1.9-0.6,3.2,0,3.9,0.7c4.9,4.2,1.9,23.6,1.2,27.5c-0.1,0.7-0.7,1.2-1.4,1.2L83.1,44.8C83.1,44.8,83.1,44.8,83.1,44.8z       M73.5,28.6l10.3,13.1l8.3-0.4c1.4-8.9,2.1-21.4-0.4-23.5c-0.2-0.2-0.4-0.3-1-0.1C85.7,19.3,76.7,26.1,73.5,28.6z"/></g><g><path class="st25" d="M58.2,26.6c0,0-19.1-15.5-29-18.8c-12.6-4.2-5,40.9-5,40.9l15.9,0.9L58.2,26.6z"/><path class="st2" d="M40.1,51.1C40.1,51.1,40,51.1,40.1,51.1l-15.9-0.9c-0.7,0-1.3-0.6-1.4-1.2c-0.6-3.6-5.7-35.5,1.6-41.8      c1-0.9,2.8-1.7,5.3-0.9c10,3.3,28.7,18.4,29.5,19c0.6,0.5,0.7,1.4,0.2,2.1l-18.1,23C41,50.9,40.5,51.1,40.1,51.1z M25.5,47.3      l13.9,0.7l16.7-21.3C51.9,23.5,36.9,12,28.7,9.2c-1.3-0.4-2-0.1-2.4,0.3C21.9,13.3,23.4,34.2,25.5,47.3z"/><path class="st27" d="M50.5,28.4c0,0-12.4-10-18.8-12.1c-8.1-2.7-3.2,26.5-3.2,26.5l10.3,0.6L50.5,28.4z"/><path class="st2" d="M38.8,44.8C38.7,44.8,38.7,44.8,38.8,44.8l-10.3-0.6c-0.7,0-1.3-0.6-1.4-1.2c-0.7-3.9-3.7-23.3,1.2-27.5      c0.8-0.6,2.1-1.3,3.9-0.7c6.6,2.2,18.7,12,19.2,12.4c0.6,0.5,0.7,1.4,0.2,2.1L39.9,44.2C39.7,44.6,39.2,44.8,38.8,44.8z       M29.8,41.3l8.3,0.4l10.3-13.1c-3.2-2.5-12.2-9.3-17.1-11c-0.6-0.2-0.9-0.1-1,0.1C27.7,19.9,28.4,32.4,29.8,41.3z"/></g></g><g id="Head_1_"><path class="st25" d="M22,61c0,20.4,17.5,28,39,28c21.5,0,39-7.6,39-28c0-20.4-7.7-46-39-46C29.7,15,22,40.6,22,61"/><path class="st26" d="M61,84c-20.8,0-37.8-7.1-38.9-26c0,1-0.1,2-0.1,3c0,20.4,17.5,28,39,28s39-7.6,39-28c0-1,0-2-0.1-3     C98.8,76.9,81.8,84,61,84z"/><path class="st28" d="M61,26c27.9,0,37.1,20.4,38.7,39.3c0.2-1.4,0.3-2.8,0.3-4.3c0-20.4-7.8-46-39-46c-31.3,0-39,25.6-39,46     c0,1.5,0.1,2.9,0.3,4.3C23.9,46.4,33.1,26,61,26z"/><g><path class="st27" d="M55,15.3v15.9c0,1.8-1.5,3.2-3.2,3.2c-1.8,0-3.2-1.5-3.2-3.2V16.6C50.5,16,52.7,15.6,55,15.3z"/><path class="st27" d="M64.2,15.1v19.1c0,1.8-1.4,3.2-3.2,3.2s-3.2-1.5-3.2-3.2V15.1c1-0.1,2.1-0.1,3.2-0.1S63.2,15,64.2,15.1z"/><path class="st27" d="M73.5,16.6v14.6c0,1.8-1.4,3.2-3.2,3.2c-1.8,0-3.2-1.5-3.2-3.2V15.3C69.3,15.6,71.5,16,73.5,16.6z"/></g><path class="st27" d="M61,64.8c-13.1,0-24.5,6.7-30.2,16.5C37.7,87.6,48.7,90,61,90c12.3,0,23.3-2.4,30.2-8.7     C85.5,71.5,74.1,64.8,61,64.8"/><path class="st29" d="M33.4,77.6c-0.9,1.1-1.6,2.2-2.3,3.4c7.2,5.7,17.9,8,30,8s22.8-2.4,30-8c-0.7-1.2-1.5-2.3-2.3-3.4     C81.6,82.1,71.8,84,61,84S40.4,82.1,33.4,77.6z"/><path class="st2" d="M61,90.5C34.9,90.5,20.5,80,20.5,61c0-14.3,3.9-47.5,40.5-47.5s40.5,33.2,40.5,47.5     C101.5,80,87.1,90.5,61,90.5z M61,16.5c-33.8,0-37.5,31.1-37.5,44.5C23.5,84.1,47,87.5,61,87.5S98.5,84.1,98.5,61     C98.5,47.6,94.8,16.5,61,16.5z"/></g><g id="Nose_2_"><path class="st30" d="M61,68c-3.8,0-6.9,2-6.9,4.4c0,2.4,3.1,7,6.9,7c3.8,0,6.9-4.5,6.9-7C67.9,70,64.8,68,61,68"/><path class="st2" d="M61,66.5c-4.7,0-8.4,2.6-8.4,5.9c0,2.8,2.6,6.8,6.2,8.1c0.7,0.3,1.4,0.4,2.2,0.4c0.5,0,1.1-0.1,1.6-0.2     c3.9-1,6.8-5.3,6.8-8.3C69.4,69.1,65.7,66.5,61,66.5z M61.5,77.8c-0.2,0-0.3,0-0.5,0c-0.3,0-0.7,0-1-0.2     c-2.4-0.7-4.4-3.8-4.4-5.3c0-1.4,2.2-2.9,5.4-2.9s5.4,1.5,5.4,2.9C66.4,74,64.1,77.4,61.5,77.8z"/></g><g id="Eyes_7_"><circle class="st2" cx="76.9" cy="63.5" r="3"/><circle class="st2" cx="45.1" cy="63.5" r="3"/></g><g id="Whisker"><g><g><path class="st25" d="M82.4,68.5c0,0,9.5-2.5,22.2-1.4"/><path class="st2" d="M82.4,70c-0.7,0-1.3-0.4-1.4-1.1c-0.2-0.8,0.3-1.6,1.1-1.8c0.4-0.1,9.9-2.6,22.8-1.5       c0.8,0.1,1.4,0.8,1.4,1.6c-0.1,0.8-0.8,1.4-1.6,1.4c-12.3-1.1-21.6,1.3-21.7,1.4C82.6,70,82.5,70,82.4,70z"/></g><g><path class="st25" d="M82.4,75.7c0,0,12.4-0.1,20.1,0.9"/><path class="st2" d="M102.4,78c-0.1,0-0.1,0-0.2,0c-7.4-1-19.7-0.8-19.8-0.8c0,0,0,0,0,0c-0.8,0-1.5-0.7-1.5-1.5       c0-0.8,0.7-1.5,1.5-1.5c0.5,0,12.6-0.1,20.3,0.9c0.8,0.1,1.4,0.9,1.3,1.7C103.8,77.5,103.2,78,102.4,78z"/></g><g><path class="st25" d="M81.4,82.1c0,0,12.3,1.7,18,3.6"/><path class="st2" d="M99.4,87.2c-0.2,0-0.3,0-0.5-0.1c-5.6-1.8-17.6-3.5-17.8-3.5c-0.8-0.1-1.4-0.9-1.3-1.7       c0.1-0.8,0.9-1.4,1.7-1.3c0.5,0.1,12.4,1.8,18.2,3.6c0.8,0.3,1.2,1.1,1,1.9C100.6,86.8,100,87.2,99.4,87.2z"/></g></g><g><g><path class="st25" d="M39.6,68.5c0,0-9.5-2.5-22.2-1.4"/><path class="st2" d="M39.6,70c-0.1,0-0.3,0-0.4-0.1c-0.1,0-9.4-2.5-21.7-1.4c-0.8,0.1-1.6-0.5-1.6-1.4       c-0.1-0.8,0.5-1.6,1.4-1.6c12.8-1.1,22.4,1.4,22.8,1.5c0.8,0.2,1.3,1,1.1,1.8C40.9,69.6,40.3,70,39.6,70z"/></g><g><path class="st25" d="M39.6,75.7c0,0-12.4-0.1-20.1,0.9"/><path class="st2" d="M19.6,78c-0.7,0-1.4-0.5-1.5-1.3c-0.1-0.8,0.5-1.6,1.3-1.7c7.7-1,19.8-0.9,20.3-0.9c0.8,0,1.5,0.7,1.5,1.5       c0,0.8-0.7,1.5-1.5,1.5c-0.1,0-12.4-0.1-19.8,0.8C19.7,78,19.6,78,19.6,78z"/></g><g><path class="st25" d="M40.6,82.1c0,0-12.3,1.7-18,3.6"/><path class="st2" d="M22.6,87.2c-0.6,0-1.2-0.4-1.4-1c-0.3-0.8,0.2-1.6,1-1.9c5.8-1.9,17.7-3.6,18.2-3.6       c0.8-0.1,1.6,0.5,1.7,1.3c0.1,0.8-0.5,1.6-1.3,1.7c-0.1,0-12.2,1.7-17.8,3.5C22.9,87.1,22.8,87.2,22.6,87.2z"/></g></g></g><path class="st2" d="M68,84.9c-0.8,0.3-1.6,0.5-2.5,0.5c-2,0-3.7-0.9-4.9-2.3c-1.2,1.4-2.9,2.3-4.9,2.3    c-0.9,0-1.7-0.2-2.5-0.5c-0.8-0.3-1.1-1.2-0.8-2s1.2-1.1,2-0.8c0.4,0.2,0.9,0.3,1.3,0.3c1.4,0,2.5-0.8,3.1-2    c0.2-0.4,0.3-0.9,0.3-1.4c0-0.6,0.4-1.1,0.9-1.4c0.3,0.1,0.7,0.2,1,0.2c0.2,0,0.3,0,0.5,0c0.4,0.3,0.7,0.7,0.7,1.3    c0,0.6,0.2,1.1,0.4,1.6c0.6,1.1,1.7,1.8,3,1.8c0.5,0,0.9-0.1,1.3-0.3c0.8-0.3,1.6,0,2,0.8C69.1,83.7,68.8,84.6,68,84.9z" id="Mouth"/></g></g><g id="Bird"/><g id="Koala"/><g id="Mice"/><g id="Snake"/><g id="Lion"/><g id="Caterpillar"/><g id="Dolphin"/><g id="Penguin"/><g id="Deer"/><g id="Elephant"/><g id="Panda"/><g id="Giraffe"/><g id="Cow"/><g id="Monkey"/><g id="Rabbit"/><g id="Bear"/><g id="Zebra"/><g id="Crab"/><g id="Crocodile"/><g id="Frog"/><g id="Owl"/><g id="Layer_28"/><g id="Octopus"/><g id="Turtle"/><g id="Squirrel"/><g id="Duck"/><g id="Squid"/><g id="Unicorn"/><g id="Parrot"/><g id="Layer_36"/><g id="Cockroach"/><g id="Gorilla"/><g id="Tiger"/><g id="Goat"/><g id="Whale"/></svg>