<?xml version="1.0" ?><svg style="enable-background:new 0 0 128 128;" version="1.1" viewBox="0 0 128 128" xml:space="preserve" xmlns="http://www.w3.org/2000/svg" xmlns:xlink="http://www.w3.org/1999/xlink"><style type="text/css">
	.st0{fill:#74CBDE;}
	.st1{fill:#B3F4FB;}
	.st2{fill:#301F00;}
	.st3{fill:#2FB0C1;}
	.st4{fill:#F2F2F2;}
	.st5{fill:#CCCCCC;}
	.st6{fill:#FFFFFF;}
	.st7{fill:#629EE1;}
	.st8{fill:#4180D8;}
	.st9{fill:#FF0013;}
	.st10{fill:#FF4D4D;}
	.st11{fill:#C80004;}
	.st12{fill:#FFD81A;}
	.st13{fill:#FFEA55;}
	.st14{fill:#FFB6C6;}
	.st15{fill:#FF97A9;}
	.st16{fill:#FFD0DC;}
	.st17{fill:#FF7287;}
	.st18{fill:#FDAD4C;}
	.st19{fill:#EB9129;}
	.st20{fill:#C13202;}
	.st21{fill:#CA4508;}
	.st22{fill:#FEC769;}
	.st23{fill:#FFEA9A;}
	.st24{fill:#FFDB69;}
	.st25{fill:#999999;}
	.st26{fill:#808080;}
	.st27{fill:#EBEBEB;}
	.st28{opacity:0.8;fill:#B3B3B3;}
	.st29{fill:#BCBCBC;}
	.st30{fill:#A39095;}
	.st31{fill:#B3B3B3;}
	.st32{fill:#F5FFD9;}
	.st33{opacity:0.8;fill:#FCFFF0;}
	.st34{fill:#8CC63F;}
	.st35{fill:#5AA319;}
	.st36{fill:#ACDC57;}
	.st37{fill:#C69452;}
	.st38{fill:#8A4900;}
	.st39{fill:#B17637;}
	.st40{fill:#E1D6BA;}
	.st41{fill:#CCBB92;}
	.st42{fill:#D8AD68;}
	.st43{fill:#253542;}
	.st44{fill:#2B4753;}
	.st45{fill:#FFA227;}
	.st46{fill:#0F171C;}
	.st47{fill:#FFBBBB;}
	.st48{fill:#A9A69C;}
	.st49{fill:#827E74;}
	.st50{fill:#C0BEB4;}
	.st51{fill:#333333;}
	.st52{fill:#FFE581;}
	.st53{fill:#6F4A38;}
	.st54{fill:#FFF5AE;}
	.st55{fill:#FFD252;}
	.st56{fill:#825C4D;}
	.st57{fill:#C97F4E;}
	.st58{fill:#B86538;}
	.st59{fill:#666666;}
	.st60{fill:#4D4D4D;}
	.st61{fill:#D6925E;}
	.st62{fill:#F9C0A7;}
	.st63{fill:#F7AD90;}
	.st64{fill:#D38F5B;}
	.st65{fill:#CD7C4F;}
	.st66{fill:#C1693E;}
	.st67{fill:#A05B38;}
	.st68{fill:#F1D4A5;}
	.st69{fill:#DD9665;}
	.st70{fill:#E7B777;}
	.st71{fill:#4A290A;}
	.st72{fill:#53770C;}
	.st73{fill:#699010;}
	.st74{fill:#884326;}
	.st75{fill:#F6D5A9;}
	.st76{fill:#F1C087;}
	.st77{fill:#FFD4C5;}
	.st78{fill:#FF9797;}
	.st79{fill:#FF8484;}
	.st80{fill:#FFAAAA;}
	.st81{fill:#7C0000;}
	.st82{fill:#A6B855;}
	.st83{fill:#C3D272;}
	.st84{fill:#7D942D;}
	.st85{fill:#68782F;}
	.st86{fill:#4F5E20;}
	.st87{fill:#81923E;}
	.st88{fill:#EE6B2B;}
	.st89{fill:#D2501E;}
	.st90{fill:#FF6868;}
	.st91{fill:#BA0009;}
	.st92{fill:#F85E28;}
	.st93{fill:#D5DAE0;}
	.st94{fill:#BCC4CD;}
	.st95{display:none;fill:#BCC4CD;}
	.st96{fill:#FDB62E;}
	.st97{fill:#472D07;}
	.st98{fill:#FC9C1B;}
	.st99{fill:#2D1A03;}
	.st100{fill:#FFFFD5;}
	.st101{fill:#FED041;}
	.st102{fill:#61400B;}
	.st103{fill:#FFFF95;}
	.st104{display:none;fill:#2D1A03;}
	.st105{fill:#D7D3C9;}
	.st106{fill:#E8E3DA;}
	.st107{fill:#DDD6CA;}
	.st108{fill:#9E9992;}
	.st109{fill:#847E77;}
	.st110{fill:#F0EDE7;}
	.st111{fill:#88D3ED;}
	.st112{fill:#68C1E4;}
	.st113{fill:#A8E5F6;}
	.st114{fill:#E6E6E6;}
	.st115{fill:#D6D6D6;}
</style><g id="Fish"/><g id="Chicken"/><g id="Pig"/><g id="Dog"/><g id="Cat"/><g id="Bird"/><g id="Koala"/><g id="Mice"/><g id="Snake"/><g id="Lion"/><g id="Caterpillar"/><g id="Dolphin"/><g id="Penguin"/><g id="Deer"/><g id="Elephant"/><g id="Panda"/><g id="Giraffe"/><g id="Cow"/><g id="Monkey"/><g id="Rabbit"/><g id="Bear"/><g id="Zebra"/><g id="Crab"/><g id="Crocodile"/><g id="Frog"/><g id="Owl"/><g id="Layer_28"/><g id="Octopus"/><g id="Turtle"/><g id="Squirrel"/><g id="Duck"/><g id="Squid"/><g id="Unicorn"/><g id="Parrot"/><g id="Layer_36"/><g id="Cockroach"/><g id="Gorilla"/><g id="Tiger"><g id="Tail_15_"><path class="st96" d="M110.6,109.9c-0.2,0-0.4,0-0.6,0C99.6,108.1,89.5,89.7,87.6,86c-0.9-1.7-0.2-3.8,1.5-4.7    c1.7-0.9,3.8-0.2,4.7,1.5c4.1,7.8,12.2,19.3,17.3,20.1c1.9,0.3,3.2,2.1,2.9,4C113.7,108.6,112.2,109.9,110.6,109.9z"/><path class="st97" d="M96,99.2c1.1,1.4,2.3,2.8,3.6,4.1l4.8-5.1c-1.2-1.3-2.4-2.7-3.5-4.2L96,99.2z"/><path class="st97" d="M103.1,106.5c1.5,1.2,3.1,2.1,4.7,2.7l3.6-6.2c-0.1,0-0.2-0.1-0.3-0.1c-1.3-0.2-2.9-1.2-4.5-2.5L103.1,106.5    z"/><path class="st2" d="M110.6,111.4c-0.3,0-0.5,0-0.8-0.1C98.9,109.5,89,92,86.2,86.7c-1.3-2.4-0.3-5.5,2.1-6.7    c2.4-1.3,5.5-0.3,6.7,2.1c4.6,8.8,12.2,18.7,16.2,19.3c1.3,0.2,2.5,0.9,3.3,2c0.8,1.1,1.1,2.4,0.9,3.7    C115.1,109.6,113,111.4,110.6,111.4z M90.7,82.4c-0.3,0-0.6,0.1-0.9,0.2c-1,0.5-1.4,1.7-0.9,2.7c5.1,9.8,13.8,21.8,21.3,23    c1.1,0.2,2.1-0.6,2.3-1.7c0.1-0.5,0-1.1-0.4-1.5c-0.3-0.4-0.8-0.7-1.3-0.8c-6.7-1.1-15.6-15.5-18.4-20.9    C92.1,82.8,91.4,82.4,90.7,82.4z"/></g><g id="Body_34_"><path class="st96" d="M88.2,76.7l-0.9-4.6l-41,10l-0.9,5.1l-0.1-0.1c-4.8,4-6.2,30.7,0,30c0.8-0.1,1.5-0.1,2.1-0.2    c2.1-0.2,3.8-1.9,3.8-4.1c0-0.8,0.1-1.7,0.2-2.8c4.3,2.1,9.7,3.8,15.5,3.4c-0.1,1.9-0.3,3.4-0.6,3.7c-0.8,1,6.7,2.6,8,1    c0.5-0.6,1.4-3.5,2.1-6.7c3.8-1.1,7-2.5,9.6-3.8c-0.5,2.9-0.9,5.7-0.7,6.5c0.6,1.6,6,0,6,0C97.1,105.4,99.4,84.8,88.2,76.7"/><path class="st96" d="M91.3,114.1c0,0-1.1,0.3-2.4,0.5c-0.7,0.1-1.5,0.2-2.1,0.2c-0.7-0.1-1.2-0.3-1.4-0.7c-0.3-0.7,0-3,0.5-5.5v0    c0.1-0.3,0.1-0.6,0.2-0.9c-0.1,0-0.1,0.1-0.2,0.1c-0.8,0.4-1.6,0.8-2.5,1.2c-1.3,0.6-2.7,1.1-4.2,1.6c-0.9,0.3-1.8,0.6-2.7,0.9    c-0.6,3.2-1.6,6.1-2.1,6.7c-1.3,1.6-8.8,0-8-1c0.2-0.3,0.4-1.8,0.6-3.7c-1.8,0.1-3.6,0-5.3-0.2c-1.4-0.2-2.8-0.5-4.2-0.9    c-2.2-0.6-4.2-1.4-6-2.3c-0.2,1.1-0.2,2-0.2,2.8c0,2.1-1.6,3.9-3.8,4.1c-0.6,0-1.3,0.1-2.1,0.2c-6.2,0.7-4.8-26,0-30l0.1,0.1    l0.9-5.1l9.2-2.2l2.7-0.7l4.4-1.1l1.4-0.3h0l23.4-5.7l0.7,3.8v0l0.2,0.8c1.5,1.1,2.7,2.3,3.7,3.8C98.7,90,96.4,106.5,91.3,114.1z"/><path class="st98" d="M59.6,95.7c14.4,0,27.1-3.4,33.8-11.8c-1.2-2.4-2.9-4.5-5.2-6.1l-0.9-4.6l-41,10l-0.9,5.1l-0.1-0.1    c-1.1,0.9-2,3-2.7,5.6C47.7,95.1,53.5,95.7,59.6,95.7z"/><path class="st97" d="M83.2,108.9c-1.3,0.6-2.7,1.1-4.2,1.6c0-0.2,0-0.5,0-0.7c0-6.3,0.9-11.3,2.1-11.3    C82.2,98.5,83.1,103.1,83.2,108.9z"/><ellipse class="st97" cx="79.5" cy="86.1" rx="2.1" ry="11.3"/><path class="st97" d="M58.9,88.2c0,6.3-0.9,11.3-2.1,11.3s-2.1-5.1-2.1-11.3c0-3.3,0.3-6.2,0.7-8.3l2.7-0.7    C58.6,81.3,58.9,84.5,58.9,88.2z"/><path class="st99" d="M54.8,88.2c0,2.8,0.2,5.4,0.5,7.4c1,0.1,2.1,0.1,3.1,0.1c0.3-2,0.5-4.6,0.5-7.5c0-3.1-0.2-5.9-0.6-8    l-3.1,0.7C55,82.9,54.8,85.4,54.8,88.2z"/><path class="st97" d="M65.4,88.7c0,6.3-0.9,11.3-2.1,11.3c-1.1,0-2.1-5.1-2.1-11.3c0-4.8,0.5-8.8,1.3-10.5l1.4-0.3h0    C64.7,79.2,65.4,83.6,65.4,88.7z"/><path class="st97" d="M61.6,112.6c0,0.2,0,0.4,0,0.6c-1.4-0.2-2.8-0.5-4.2-0.9c0-6.1,1-11.1,2.1-11.1    C60.6,101.3,61.6,106.3,61.6,112.6z"/><ellipse class="st97" cx="84.9" cy="84.8" rx="2.1" ry="11.3"/><path class="st97" d="M91.9,81.3c0,6.3-0.9,11.3-2.1,11.3c-1.2,0-2.1-5.1-2.1-11.3c0-2,0.1-3.8,0.3-5.4l0.2,0.8    c1.5,1.1,2.7,2.3,3.7,3.8C91.9,80.8,91.9,81,91.9,81.3z"/><path class="st99" d="M81.6,86.1c0,2.3-0.1,4.4-0.3,6.1c-1.1,0.4-2.2,0.8-3.4,1.2c-0.3-2-0.5-4.5-0.5-7.3c0-5.2,0.7-9.7,1.6-10.9    c0.2-0.3,0.3-0.4,0.5-0.4c0.1,0,0.2,0.1,0.4,0.2C80.9,75.8,81.6,80.5,81.6,86.1z"/><path class="st97" d="M81.3,92.2c-0.4,3.1-1,5.2-1.8,5.2c-0.6,0-1.2-1.6-1.6-4C79.1,93,80.2,92.6,81.3,92.2z"/><path class="st99" d="M65.4,88.7c0,2.6-0.2,4.9-0.4,6.8c-1.1,0.1-2.2,0.1-3.3,0.1c-0.3-1.9-0.5-4.3-0.5-7c0-3.9,0.4-7.4,0.9-9.4    c0.1-0.4,0.3-0.8,0.4-1.1l1.4-0.3h0c0.1,0.2,0.3,0.5,0.4,0.9C64.9,80.7,65.4,84.4,65.4,88.7z"/><path class="st97" d="M64.9,95.5c-0.4,2.7-1,4.5-1.7,4.5c-0.7,0-1.3-1.7-1.6-4.3C62.8,95.6,63.9,95.6,64.9,95.5z"/><path class="st99" d="M87,84.8c0,1.7-0.1,3.3-0.2,4.7c-1.1,0.7-2.3,1.3-3.6,1.9c-0.3-1.9-0.4-4.1-0.4-6.6c0-5.3,0.7-9.7,1.6-11    c0.2-0.2,0.3-0.4,0.5-0.4c0.1,0,0.2,0.1,0.3,0.2C86.2,74.5,87,79.2,87,84.8z"/><path class="st97" d="M86.8,89.5c-0.3,3.9-1,6.6-1.9,6.6c-0.7,0-1.3-1.8-1.7-4.7C84.5,90.9,85.7,90.2,86.8,89.5z"/><path class="st99" d="M91.9,81.6c-0.2-0.3-0.4-0.6-0.6-0.8c-0.1-0.1-0.2-0.2-0.3-0.3c-0.4-0.4-0.7-0.8-1.1-1.2    c-0.1-0.1-0.2-0.2-0.3-0.3c-0.4-0.4-0.9-0.8-1.4-1.1l-0.2-1.2c-0.1,1.4-0.2,3-0.2,4.7c0,2.8,0.2,5.3,0.5,7.3    c1.3-0.9,2.5-1.9,3.5-3C91.9,84.4,91.9,83,91.9,81.6z"/><path class="st97" d="M88,105c0.3-0.2,0.6-0.3,0.8-0.5h0l0,0v0l0,0l0.2-0.1l0.2-0.1c0.2-0.1,0.4-0.2,0.6-0.2    c-0.1-5.7-1-10.2-2.1-10.2c-1.2,0-2.1,5.1-2.1,11.3c0,0.4,0,0.7,0,1C86.4,105.8,87.3,105.4,88,105z"/><path class="st2" d="M96.9,88.4c-1.2-5.4-3.7-9.7-7.4-12.6l-0.2,3.7l1.2,1.7c1.9,2.6,2.9,5.5,3.4,7.9c0.8,3.8,0.8,7.8,0.3,11.5    c-0.2,1.5-0.5,2.9-0.8,4.3c-0.8,3.2-1.9,5.9-3.2,8c-1.4,0.4-3,0.6-3.6,0.5c0-0.8,0.2-2.6,0.6-4.7l0-0.2h0c1.2-0.6,2.3-1.3,2.8-1.5    c0.7-0.4,1.4-1.1,1.2-1.9c-0.3-0.8-1.1-1.5-2-0.9l-0.2,0.1l-0.2,0.1l0,0v0l0,0h0c-0.2,0.1-0.5,0.3-0.8,0.5    c-0.3,0.2-0.6,0.3-0.9,0.5c-0.9,0.5-1.9,1-2.6,1.4v0c-1.8,0.9-4,1.8-6.4,2.6c0.3-2.5,0.2-4.9-0.5-6.7c-0.3-0.8-1.2-1.1-2-0.8    c-0.8,0.3-1.1,1.2-0.8,1.9c0.7,1.6,0.5,4.2,0.1,6.6c-0.2,1.2-0.4,2.3-0.7,3.3c-0.5,1.8-0.9,3.1-1.2,3.6c-0.8,0.4-3.8,0-5.2-0.5    c0.1-0.4,0.2-1.1,0.3-1.9c0.1-0.8,0.2-1.8,0.3-3.1l0,0l0,0c0.1-2.1,0.2-4.8,0.3-8.6c0-0.8-0.6-1.5-1.5-1.5h0    c-0.8,0-1.5,0.7-1.5,1.5c-0.1,3-0.2,6.3-0.3,8.9c-4.5,0.1-8.8-1.2-12.4-2.8c0.3-1.7,0.9-3.5,1.6-5.5c0.3-0.8-0.1-1.6-0.9-1.9    c-0.8-0.3-1.6,0.1-1.9,0.9c-0.7,1.8-1.2,3.6-1.6,5.2c-0.3,1.1-0.5,2.2-0.6,3.2c-0.1,0.7-0.1,1.3-0.1,1.9c0,1.4-1,2.5-2.4,2.6    c-0.6,0-1.3,0.1-2.1,0.2c-0.5,0-1-1-1.2-1.4c-0.8-1.9-1.2-4.7-1.3-7.9c-0.2-7.4,1.5-16.3,3.6-18.1c0.6-0.5,0.7-1.5,0.2-2.1    c-0.5-0.6-1.5-0.7-2.1-0.2c-0.1,0.1-0.2,0.2-0.3,0.3c-4.4,4.4-5.7,22.4-2.9,29.1c1.2,2.8,2.9,3.3,3.9,3.3c0.1,0,0.3,0,0.4,0    c0.8-0.1,1.4-0.1,2.1-0.2c2.9-0.2,5.1-2.6,5.1-5.6c0-0.2,0-0.4,0-0.6c3.6,1.5,7.9,2.7,12.5,2.7h0.1h0c-0.1,0.7-0.1,1.1-0.2,1.4    c-0.4,0.7-0.4,1.7,0.6,2.4c0.9,0.7,3.7,1.5,6.2,1.5c1.6,0,3-0.3,3.7-1.3c0.5-0.7,1.5-3.3,2.2-6.4c2.3-0.7,4.5-1.6,6.3-2.4    c-0.3,2.1-0.4,3.7-0.1,4.4c0.5,1.3,1.8,1.7,3.3,1.7c1.5,0,3.2-0.4,4.5-0.8c0.3-0.1,0.6-0.3,0.8-0.6C96.3,109.3,99,98.3,96.9,88.4z    "/></g><g id="Head_47_"><g id="Ears_6_"><g><path class="st96" d="M96.8,39.6C90.5,46,82,44.1,75.7,37.7c-6.3-6.3-8.2-14.8-1.9-21.1c6.3-6.3,18.5-8.2,24.8-1.9      C105,21.1,103.2,33.3,96.8,39.6z"/><path class="st2" d="M87.8,45c-0.6,0-1.2,0-1.8-0.1c-4-0.5-7.9-2.6-11.4-6.1c-7.5-7.5-8.3-16.8-1.9-23.2      c6.7-6.7,19.9-8.9,27-1.9c7.1,7.1,4.8,20.3-1.9,27C95,43.5,91.6,45,87.8,45z M88.3,12.3c-4.9,0-10.1,2.1-13.4,5.4      c-6.3,6.3-3,14.2,1.9,19c4.8,4.8,12.7,8.2,19,1.9c2.9-2.9,4.8-7.2,5.3-11.5c0.5-4.6-0.7-8.6-3.4-11.2      C95.2,13.4,91.8,12.3,88.3,12.3z"/><path class="st100" d="M92.2,33.2c-3.3,3.3-7.7,2.3-11-1c-3.3-3.3-4.3-7.7-1-11s9.6-4.3,12.9-1C96.5,23.6,95.5,29.9,92.2,33.2z"/><path class="st2" d="M87.5,36.8c-2.5,0-5.1-1.2-7.4-3.5c-4.2-4.2-4.6-9.5-1-13.1c3.8-3.8,11-5,15.1-1c4,4,2.8,11.3-1,15.1      C91.6,35.9,89.6,36.8,87.5,36.8z M87.8,19.7c-2.4,0-4.9,1-6.5,2.6c-1.2,1.2-1.8,2.7-1.6,4.3c0.2,1.5,1.1,3.2,2.5,4.6      c1.4,1.4,3.1,2.3,4.6,2.5c1.6,0.2,3-0.3,4.3-1.6c1.4-1.4,2.3-3.5,2.5-5.6c0.2-2.2-0.3-4-1.6-5.3C91,20.2,89.4,19.7,87.8,19.7z"/></g><g><path class="st96" d="M20.3,39.6c6.3,6.3,14.8,4.5,21.1-1.9s8.2-14.8,1.9-21.1s-18.5-8.2-24.8-1.9S13.9,33.3,20.3,39.6z"/><path class="st2" d="M29.3,45c-3.7,0-7.2-1.4-10.1-4.3c-3.4-3.4-5.6-8.2-6.1-13.3c-0.6-5.5,1-10.3,4.3-13.6      c3.3-3.3,8.1-4.8,13.6-4.3c5.1,0.5,10,2.7,13.3,6.1c6.4,6.4,5.7,15.7-1.9,23.2C38.4,42.9,33.7,45,29.3,45z M28.8,12.3      c-3.8,0-7.1,1.2-9.3,3.5c-2.7,2.7-3.9,6.6-3.4,11.2c0.4,4.4,2.4,8.7,5.3,11.5c6.3,6.3,14.2,3,19-1.9c4.8-4.8,8.2-12.7,1.9-19      c-2.9-2.9-7.2-4.8-11.5-5.3C30.1,12.4,29.4,12.3,28.8,12.3z"/><path class="st100" d="M24.9,33.2c3.3,3.3,7.7,2.3,11-1c3.3-3.3,4.3-7.7,1-11s-9.6-4.3-12.9-1S21.6,29.9,24.9,33.2z"/><path class="st2" d="M29.6,36.8c-2.1,0-4.1-0.8-5.7-2.5l0,0l0,0c-3.8-3.8-5-11-1-15.1c1.9-1.9,4.6-2.7,7.7-2.4      c2.8,0.3,5.5,1.5,7.4,3.4c3.6,3.6,3.2,8.9-1,13.1c-1.9,1.9-4.1,3.1-6.4,3.4C30.3,36.7,29.9,36.8,29.6,36.8z M29.4,19.7      c-1.8,0-3.3,0.6-4.4,1.6c-2.7,2.7-1.7,8.2,1,10.8l0,0c1.2,1.2,2.7,1.8,4.3,1.6c1.5-0.2,3.2-1.1,4.6-2.5c2.4-2.4,3.9-6,1-8.9      c-1.4-1.4-3.5-2.3-5.6-2.5C30,19.7,29.6,19.7,29.4,19.7z"/></g></g><g><path class="st96" d="M19.6,61.7c0,20.4,17.5,28,39,28c21.5,0,39-7.6,39-28c0-20.4-7.7-46-39-46C27.3,15.7,19.6,41.2,19.6,61.7"/><path class="st101" d="M58.6,26.7c27.9,0,37.1,20.4,38.7,39.3c0.2-1.4,0.3-2.8,0.3-4.3c0-20.4-7.8-46-39-46     c-31.3,0-39,25.6-39,46c0,1.5,0.1,2.9,0.3,4.3C21.5,47.1,30.6,26.7,58.6,26.7z"/><path class="st97" d="M35,57.9c0-2.4-7-1.6-15.1-3.1c-0.2,2.3-0.3,4.7-0.3,6.9c0,0.6,0,1.1,0,1.6C28.6,62.5,35,60.3,35,57.9z"/><path class="st97" d="M21.7,44c-0.8,2.9-1.3,5.8-1.6,8.7c9.8-0.7,16.9-3,16.9-5.6C37,44.8,29.9,45.6,21.7,44z"/><path class="st102" d="M22.4,52.5c0.9-2.7,2-5.4,3.3-7.9c-1.3-0.2-2.7-0.3-4.1-0.6c-0.2,0.7-0.4,1.4-0.5,2.1c0,0.1,0,0.2-0.1,0.3     c-0.1,0.6-0.3,1.3-0.4,1.9c0,0.1,0,0.1,0,0.2c-0.1,0.7-0.2,1.3-0.3,2c0,0,0,0.1,0,0.1c-0.1,0.7-0.2,1.4-0.3,2.1c0,0,0,0,0,0     C20.9,52.7,21.7,52.6,22.4,52.5z"/><path class="st97" d="M36,68.2c0-2.5-7.7-1.5-16.3-3.3c0.3,3.2,1.1,6.1,2.3,8.7C30.3,72.6,36,70.5,36,68.2z"/><path class="st97" d="M97.4,64.8c-8.6,1.8-16.3,0.9-16.3,3.3c0,2.4,5.7,4.4,14,5.3C96.3,70.9,97.1,68.1,97.4,64.8z"/><path class="st97" d="M97,52.8c-0.3-2.9-0.9-5.9-1.6-8.7c-8.2,1.5-15.3,0.7-15.3,3.1C80.1,49.8,87.2,52,97,52.8z"/><path class="st102" d="M96.4,48.5c0-0.1,0-0.1,0-0.2c-0.1-0.6-0.2-1.3-0.4-1.9c0-0.1,0-0.2-0.1-0.3c-0.2-0.7-0.3-1.4-0.5-2.1     c-1.4,0.3-2.8,0.5-4.1,0.6c1.4,2.5,2.5,5.2,3.3,7.9c0.8,0.1,1.6,0.2,2.4,0.2c-0.1-0.7-0.2-1.4-0.3-2.1c0,0,0-0.1,0-0.1     C96.6,49.9,96.5,49.2,96.4,48.5z"/><path class="st97" d="M82.1,57.9c0,2.5,6.4,4.6,15.4,5.5c0-0.5,0-1.1,0-1.6c0-2.3-0.1-4.6-0.3-6.9C89.1,56.2,82.1,55.5,82.1,57.9     z"/><path class="st98" d="M58.6,84.7c-20.8,0-37.8-7.1-38.9-26c0,1-0.1,2-0.1,3c0,20.4,17.5,28,39,28s39-7.6,39-28c0-1,0-2-0.1-3     C96.4,77.6,79.4,84.7,58.6,84.7z"/><path class="st99" d="M24.9,73.1c-1.9-2.3-3.3-5-4.2-8.1c-0.3-0.1-0.7-0.1-1-0.2c0,0,0,0,0,0c0.2,1.6,0.4,3.1,0.8,4.5     c0,0.1,0,0.1,0.1,0.2c0.2,0.7,0.4,1.3,0.6,1.9c0,0,0,0.1,0,0.1c0.2,0.7,0.5,1.3,0.8,1.9c0,0,0,0,0,0C23,73.4,24,73.2,24.9,73.1z"/><path class="st100" d="M58.6,89.7c7.9,0,15.3-1,21.5-3.3c-3.4-9.1-11.7-15.6-21.5-15.6c-9.7,0-18.1,6.4-21.5,15.6     C43.2,88.6,50.6,89.7,58.6,89.7z"/><path class="st103" d="M61.8,89.6c0.8,0,1.7-0.1,2.5-0.1c0,0,0.1,0,0.1,0c0.9-0.1,1.7-0.1,2.6-0.2c0.2,0,0.3,0,0.5-0.1     c0.8-0.1,1.6-0.2,2.5-0.3c0,0,0,0,0,0c0.9-0.1,1.7-0.3,2.5-0.4c0.1,0,0.2,0,0.3-0.1c0.8-0.2,1.6-0.3,2.4-0.5c0,0,0,0,0,0     c0.8-0.2,1.6-0.4,2.4-0.7c0.1,0,0.1,0,0.2-0.1c0.8-0.2,1.5-0.5,2.2-0.8c0,0,0,0,0,0c-0.6-1.5-1.3-2.9-2.1-4.3     c-5.7,1.8-12.3,2.6-19.4,2.6S44.9,83.9,39.2,82c-0.8,1.3-1.5,2.8-2.1,4.3c0,0,0,0,0,0c0.7,0.3,1.5,0.5,2.2,0.8     c0.1,0,0.1,0,0.2,0.1c0.8,0.2,1.6,0.5,2.4,0.7c0,0,0,0,0,0c0.8,0.2,1.6,0.4,2.4,0.5c0.1,0,0.2,0,0.3,0.1c0.8,0.2,1.7,0.3,2.5,0.4     c0,0,0,0,0,0c0.8,0.1,1.6,0.2,2.5,0.3c0.2,0,0.3,0,0.5,0.1c0.8,0.1,1.7,0.2,2.6,0.2c0,0,0.1,0,0.1,0c0.8,0.1,1.6,0.1,2.5,0.1     c0.2,0,0.4,0,0.7,0c0.9,0,1.7,0,2.6,0s1.8,0,2.6,0C61.4,89.6,61.6,89.6,61.8,89.6z"/><path class="st99" d="M96.4,65c-0.9,3.1-2.4,5.8-4.2,8.1c0.9,0.1,1.9,0.3,2.9,0.4c0,0,0,0,0,0c0.3-0.6,0.6-1.3,0.8-1.9     c0,0,0-0.1,0-0.1c0.2-0.6,0.4-1.2,0.6-1.9c0-0.1,0-0.1,0.1-0.2c0.4-1.4,0.6-2.9,0.8-4.5C97.1,64.9,96.7,64.9,96.4,65z"/><path class="st104" d="M24.9,73.1c-1.9-2.3-3.3-5-4.2-8.1c-0.3-0.1-0.7-0.1-1-0.2v0c0.2,1.6,0.4,3.1,0.8,4.5c0,0.1,0,0.1,0.1,0.2     c0.2,0.7,0.4,1.3,0.6,1.9c0,0,0,0.1,0,0.1c0.2,0.7,0.5,1.3,0.8,1.9c0,0,0,0,0,0C23,73.4,24,73.2,24.9,73.1z"/><path class="st2" d="M58.6,91.2c-26.1,0-40.5-10.5-40.5-29.5c0-14.3,3.9-47.5,40.5-47.5s40.5,33.2,40.5,47.5     C99.1,80.7,84.7,91.2,58.6,91.2z M58.6,17.2c-33.8,0-37.5,31.1-37.5,44.5c0,23.1,23.5,26.5,37.5,26.5s37.5-3.4,37.5-26.5     C96.1,48.3,92.4,17.2,58.6,17.2z"/><path class="st102" d="M58.6,20c-11.8,0-22,6.9-22,10.2c0,0.5,0.2,0.8,0.4,0.9c0.8,0.6,2.4,0,5.2-1.1c3.9-1.5,9.8-3.7,16.3-3.7     s12.4,2.2,16.3,3.7c2.1,0.8,3.5,1.3,4.4,1.3c0.3,0,0.6-0.1,0.8-0.2c0.2-0.1,0.4-0.4,0.4-0.9C80.5,26.9,70.4,20,58.6,20z"/><path class="st97" d="M58.6,28.3c-9.1,0-16.9,5.3-16.9,7.9c0,0.4,0.2,0.6,0.3,0.7c0.6,0.4,1.8,0,4-0.8c3-1.1,7.5-2.8,12.5-2.8     s9.5,1.7,12.5,2.8c1.6,0.6,2.7,1,3.4,1c0.2,0,0.5-0.1,0.6-0.2c0.2-0.1,0.3-0.3,0.3-0.7C75.4,33.6,67.6,28.3,58.6,28.3z"/></g><g id="Eyes_29_"><circle class="st2" cx="74.5" cy="64.2" r="3"/><circle class="st2" cx="42.6" cy="64.2" r="3"/></g><path class="st2" d="M65.6,85.6c-0.8,0.3-1.6,0.5-2.5,0.5c-2,0-3.7-0.9-4.9-2.3c-1.2,1.4-2.9,2.3-4.9,2.3    c-0.9,0-1.7-0.2-2.5-0.5c-0.8-0.3-1.1-1.2-0.8-2s1.2-1.1,2-0.8c0.4,0.2,0.9,0.3,1.3,0.3c1.4,0,2.5-0.8,3.1-2    c0.2-0.4,0.3-0.9,0.3-1.4c0-0.6,0.4-1.1,0.9-1.4c0.3,0.1,0.7,0.2,1,0.2c0.2,0,0.3,0,0.5,0c0.4,0.3,0.7,0.7,0.7,1.3    c0,0.6,0.2,1.1,0.4,1.6c0.6,1.1,1.7,1.8,3,1.8c0.5,0,0.9-0.1,1.3-0.3c0.8-0.3,1.6,0,2,0.8C66.7,84.4,66.3,85.3,65.6,85.6z" id="Mouth_12_"/><g id="Nose_14_"><path class="st97" d="M59.5,69.7c-0.6,0.3-1.3,0.3-2,0c-2.4-1-5.2,1.6-5.2,3.5c0,2.2,2.8,6.3,6.2,6.3s6.2-4.1,6.2-6.3     C64.7,71.3,61.9,68.6,59.5,69.7z"/><path class="st2" d="M58.6,81c-4.2,0-7.7-4.7-7.7-7.8c0-1.5,1.1-3.3,2.7-4.3c1.5-1,3.2-1.2,4.6-0.6c0.2,0.1,0.5,0.1,0.8,0l0,0     c1.4-0.6,3.1-0.4,4.6,0.6c1.6,1.1,2.7,2.8,2.7,4.3C66.2,76.3,62.8,81,58.6,81z M56.4,70.9c-0.5,0-1,0.2-1.2,0.4     c-0.9,0.6-1.3,1.4-1.3,1.8c0,1.5,2.3,4.8,4.7,4.8s4.7-3.3,4.7-4.8c0-0.4-0.5-1.2-1.3-1.8c-0.4-0.2-1.1-0.6-1.8-0.3h0     c-1,0.4-2.2,0.4-3.2,0C56.8,71,56.6,70.9,56.4,70.9z"/></g></g></g><g id="Goat"/><g id="Whale"/></svg>