<?xml version="1.0" ?><svg style="enable-background:new 0 0 128 128;" version="1.1" viewBox="0 0 128 128" xml:space="preserve" xmlns="http://www.w3.org/2000/svg" xmlns:xlink="http://www.w3.org/1999/xlink"><style type="text/css">
	.st0{fill:#74CBDE;}
	.st1{fill:#B3F4FB;}
	.st2{fill:#301F00;}
	.st3{fill:#2FB0C1;}
	.st4{fill:#F2F2F2;}
	.st5{fill:#CCCCCC;}
	.st6{fill:#FFFFFF;}
	.st7{fill:#629EE1;}
	.st8{fill:#4180D8;}
	.st9{fill:#FF0013;}
	.st10{fill:#FF4D4D;}
	.st11{fill:#C80004;}
	.st12{fill:#FFD81A;}
	.st13{fill:#FFEA55;}
	.st14{fill:#FFB6C6;}
	.st15{fill:#FF97A9;}
	.st16{fill:#FFD0DC;}
	.st17{fill:#FF7287;}
	.st18{fill:#FDAD4C;}
	.st19{fill:#EB9129;}
	.st20{fill:#C13202;}
	.st21{fill:#CA4508;}
	.st22{fill:#FEC769;}
	.st23{fill:#FFEA9A;}
	.st24{fill:#FFDB69;}
	.st25{fill:#999999;}
	.st26{fill:#808080;}
	.st27{fill:#EBEBEB;}
	.st28{opacity:0.8;fill:#B3B3B3;}
	.st29{fill:#BCBCBC;}
	.st30{fill:#A39095;}
	.st31{fill:#B3B3B3;}
	.st32{fill:#EDFFC5;}
	.st33{fill:#F5FFD9;}
	.st34{opacity:0.8;fill:#FCFFF0;}
	.st35{fill:#8CC63F;}
	.st36{fill:#5AA319;}
	.st37{fill:#ACDC57;}
	.st38{fill:#C69452;}
	.st39{fill:#8A4900;}
	.st40{fill:#B17637;}
	.st41{fill:#E1D6BA;}
	.st42{fill:#CCBB92;}
	.st43{fill:#D8AD68;}
	.st44{fill:#253542;}
	.st45{fill:#2B4753;}
	.st46{fill:#FFA227;}
	.st47{fill:#0F171C;}
	.st48{fill:#FFBBBB;}
	.st49{fill:#A9A69C;}
	.st50{fill:#827E74;}
	.st51{fill:#C0BEB4;}
	.st52{fill:#333333;}
	.st53{fill:#FFE581;}
	.st54{fill:#6F4A38;}
	.st55{fill:#FFF5AE;}
	.st56{fill:#FFD252;}
	.st57{fill:#825C4D;}
	.st58{fill:#C97F4E;}
	.st59{fill:#B86538;}
	.st60{fill:#666666;}
	.st61{fill:#4D4D4D;}
	.st62{fill:#D6925E;}
	.st63{fill:#F9C0A7;}
	.st64{fill:#F7AD90;}
	.st65{fill:#D38F5B;}
	.st66{fill:#CD7C4F;}
	.st67{fill:#C1693E;}
	.st68{fill:#A05B38;}
	.st69{fill:#F1D4A5;}
	.st70{fill:#DD9665;}
	.st71{fill:#E7B777;}
	.st72{fill:#4A290A;}
	.st73{fill:#53770C;}
	.st74{fill:#699010;}
	.st75{fill:#884326;}
	.st76{fill:#F6D5A9;}
	.st77{fill:#F1C087;}
	.st78{fill:#FFD4C5;}
	.st79{fill:#FF9797;}
	.st80{fill:#FF8484;}
	.st81{fill:#FFAAAA;}
	.st82{fill:#7C0000;}
	.st83{fill:#A6B855;}
	.st84{fill:#C3D272;}
	.st85{fill:#7D942D;}
	.st86{fill:#68782F;}
	.st87{fill:#4F5E20;}
	.st88{fill:#81923E;}
	.st89{fill:#EE6B2B;}
	.st90{fill:#D2501E;}
	.st91{fill:#FF6868;}
	.st92{fill:#F85E28;}
	.st93{fill:#D5DAE0;}
	.st94{fill:#BCC4CD;}
	.st95{fill:#FDB62E;}
	.st96{fill:#472D07;}
	.st97{fill:#FC9C1B;}
	.st98{fill:#2D1A03;}
	.st99{fill:#FFFFD5;}
	.st100{fill:#FED041;}
	.st101{fill:#61400B;}
	.st102{fill:#FFFF95;}
	.st103{fill:#D7D3C9;}
	.st104{fill:#E8E3DA;}
	.st105{fill:#DDD6CA;}
	.st106{fill:#9E9992;}
	.st107{fill:#847E77;}
	.st108{fill:#F0EDE7;}
	.st109{fill:#88D3ED;}
	.st110{fill:#68C1E4;}
	.st111{fill:#A8E5F6;}
	.st112{fill:#E6E6E6;}
	.st113{fill:#D6D6D6;}
</style><g id="Fish"/><g id="Chicken"/><g id="Pig"><g id="Body_2_"><path class="st14" d="M91.4,74.6L90.5,70l-41,10l-0.9,5.1L48.5,85c-4.8,4-6.2,30.7,0,30c0.8-0.1,1.5-0.1,2.1-0.2    c2.1-0.2,3.8-1.9,3.8-4.1c0-0.8,0.1-1.7,0.2-2.8c4.3,2.1,9.7,3.8,15.5,3.4c-0.1,1.9-0.3,3.4-0.6,3.7c-0.8,1,6.8,2.6,8,1    c0.5-0.6,1.4-3.5,2.1-6.7c3.8-1.1,7-2.5,9.6-3.8c-0.5,2.9-0.9,5.7-0.7,6.5c0.6,1.6,6,0,6,0C100.3,103.2,102.6,82.7,91.4,74.6z"/><path class="st15" d="M61.5,93c15.9,0,29.6-1.2,36.6-8.4c-1.2-4-3.4-7.6-6.7-10L90.5,70l-41,10l-0.9,5.1L48.5,85    c-1.3,1.1-2.4,3.9-3.1,7.3C50.4,92.8,55.8,93,61.5,93z"/><path class="st2" d="M100.1,86.3c-1.2-5.4-3.7-9.7-7.4-12.5l1,5.3c1.9,2.6,2.9,5.5,3.4,7.9c0.8,3.8,0.8,7.8,0.3,11.5    c-0.2,1.5-0.5,2.9-0.8,4.3c-0.8,3.2-1.9,5.9-3.2,8c-1.4,0.4-3,0.6-3.6,0.5c0-0.8,0.2-2.6,0.6-4.7l0-0.2c1.2-0.6,2.3-1.3,2.8-1.5    c0.7-0.4,1.4-1.1,1.2-1.9c-0.3-0.8-1.1-1.5-2-0.9c-0.1,0-0.2,0.1-0.2,0.1c0,0-0.1,0.1-0.2,0.1c0,0,0,0,0,0v0c0,0,0,0,0,0    c0,0,0,0,0,0c-0.2,0.1-0.5,0.3-0.8,0.5c-1.1,0.6-2.5,1.4-3.4,1.8c-1.8,0.9-4,1.8-6.4,2.6c0.3-2.5,0.2-4.9-0.5-6.7    c-0.3-0.8-1.2-1.1-2-0.8s-1.1,1.2-0.8,2c0.7,1.6,0.5,4.2,0.1,6.6c-0.2,1.2-0.4,2.3-0.7,3.3c-0.5,1.8-0.9,3.1-1.2,3.6    c-0.8,0.4-3.8,0-5.2-0.5c0.1-0.5,0.2-1.1,0.3-1.9c0.1-0.8,0.2-1.8,0.3-3.1c0.1-2.1,0.2-4.8,0.3-8.6c0-0.8-0.6-1.5-1.5-1.5h0    c-0.8,0-1.5,0.7-1.5,1.5c-0.1,3-0.2,6.3-0.3,8.9c-4.5,0.1-8.8-1.2-12.4-2.8c0.3-1.7,0.9-3.5,1.6-5.5c0.3-0.8-0.1-1.6-0.9-1.9    c-0.8-0.3-1.6,0.1-1.9,0.9c-0.7,1.8-1.2,3.6-1.6,5.2c-0.3,1.1-0.5,2.2-0.5,3.1c-0.1,0.7-0.1,1.3-0.1,1.9c0,1.4-1,2.5-2.4,2.6    c-0.6,0-1.3,0.1-2.1,0.2c-0.5,0-1-1-1.2-1.4c-0.8-1.9-1.2-4.7-1.3-7.9c-0.2-7.4,1.5-16.3,3.6-18.1c0.6-0.5,0.7-1.5,0.2-2.1    c-0.5-0.6-1.5-0.7-2.1-0.2c-0.1,0.1-0.2,0.2-0.3,0.3c-4.4,4.4-5.7,22.5-2.9,29.1c1.2,2.8,2.8,3.3,3.9,3.3c0.1,0,0.3,0,0.4,0    c0.8-0.1,1.4-0.1,2.1-0.2c2.9-0.2,5.1-2.6,5.1-5.6c0-0.2,0-0.4,0-0.6c3.6,1.5,7.9,2.7,12.5,2.7h0.1c-0.1,0.7-0.1,1.2-0.2,1.4    c-0.4,0.7-0.4,1.7,0.6,2.4c0.9,0.7,3.7,1.5,6.2,1.5c1.6,0,3-0.3,3.7-1.3c0.5-0.7,1.5-3.3,2.2-6.4c2.3-0.7,4.5-1.6,6.3-2.4    c-0.3,2.1-0.4,3.7-0.1,4.4c0.5,1.3,1.8,1.7,3.4,1.7c1.5,0,3.2-0.4,4.5-0.8c0.3-0.1,0.6-0.3,0.8-0.6    C99.5,107.1,102.3,96.2,100.1,86.3z"/></g><path class="st2" d="M99.5,93.5c-0.6-0.1-1-0.5-1.2-1.1c-0.2-0.8,0.3-1.6,1.1-1.8l0,0c0,0,3.6-0.8,6-2.9   c-1.2-0.6-2.3-1.6-3.1-3c-1-1.7-1-3.6,0.1-5.2c0.9-1.4,2.5-2.1,3.9-1.9c1,0.1,2.8,0.8,3.7,3.7c0.3,1.1,0.5,2.2,0.4,3.2   c0.7-0.4,1.4-1,2.1-1.8c3.2-3.6,2.5-7.8,2.5-7.8c-0.1-0.8,0.4-1.6,1.2-1.7c0.8-0.1,1.6,0.4,1.7,1.2c0,0.2,0.9,5.6-3.2,10.3   c-1.8,2-3.8,3.2-5.8,3.5c-2.8,3.8-8.6,5.2-8.9,5.2C99.9,93.5,99.6,93.5,99.5,93.5z M105.9,80.7C105.9,80.7,105.9,80.7,105.9,80.7   c-0.4-0.1-0.8,0.2-1.1,0.6c-0.2,0.3-0.5,1,0,2c0.5,0.8,1.2,1.7,2.3,2c0.3-0.9,0.3-1.8-0.1-2.9C106.8,81.4,106.4,80.7,105.9,80.7z" id="Tail_1_"/><g id="Head_11_"><g id="Ear"><g><path class="st14" d="M100.5,51.5c-6.8,3-15.7,3.3-21-2c-5.3-5.3-5.3-10.7,0-16c5.3-5.3,26.7-18.5,32-13.2      C116.7,25.5,117,44.2,100.5,51.5z"/><path class="st16" d="M79.5,37.9c5.3-5.3,26.7-18.5,32-13.2c1.6,1.6,2.7,4.5,3.1,7.8c0.5-5.2-0.8-10-3.1-12.2      c-5.3-5.3-26.7,8-32,13.2c-3.4,3.4-4.6,6.8-3.6,10.2C76.3,41.7,77.5,39.8,79.5,37.9z"/><path class="st15" d="M99.2,45.6c-4.2,1.8-9.6,2-12.8-1.2c-3.2-3.2-3.2-6.5,0-9.7c3.2-3.2,16.2-11.3,19.4-8.1      C109,29.8,109.2,41.2,99.2,45.6z"/><path class="st2" d="M90.6,55.1c-4.5,0-8.9-1.3-12.2-4.6c-2.9-2.9-4.4-6-4.4-9.1c0-3.1,1.5-6.1,4.4-9.1      c4.9-4.9,27.6-19.8,34.1-13.2c3.1,3.1,4.4,9.4,3.2,15.6c-0.9,4.7-4,13.4-14.6,18.1l0,0C97.9,54.2,94.2,55.1,90.6,55.1z       M107.7,20.4c-6.9,0-22.5,9.3-27.2,14.1c-2.3,2.3-3.5,4.7-3.5,6.9c0,2.3,1.2,4.6,3.5,6.9c4.9,4.9,13.2,4.4,19.3,1.7l0,0      c9.4-4.1,12.1-11.7,12.9-15.9c1.1-5.8-0.4-10.9-2.4-13C109.8,20.7,108.9,20.4,107.7,20.4z"/></g><g><path class="st14" d="M21.2,51.5c6.8,3,15.7,3.3,21-2s5.3-10.7,0-16s-26.7-18.5-32-13.2S4.7,44.2,21.2,51.5z"/><path class="st16" d="M9.1,24.6c5.3-5.3,26.7,8,32,13.2c2.6,2.6,3.9,5.2,3.9,7.9c2.2-4.1,1.2-8.2-2.8-12.3      c-5.3-5.3-26.7-18.5-32-13.2c-1.5,1.5-2.6,4.2-3,7.4C7.7,26.4,8.3,25.4,9.1,24.6z"/><path class="st15" d="M21.8,45.6c4.2,1.8,9.6,2,12.8-1.2c3.2-3.2,3.2-6.5,0-9.7c-3.2-3.2-16.2-11.3-19.4-8.1      S11.8,41.2,21.8,45.6z"/><path class="st2" d="M31.1,55.1c-3.6,0-7.3-0.9-10.5-2.2C9.9,48.1,6.8,39.5,5.9,34.8C4.8,28.5,6,22.2,9.1,19.2      c6.5-6.5,29.2,8.3,34.1,13.2c5.8,5.8,5.8,12.3,0,18.1C40,53.8,35.6,55.1,31.1,55.1z M13.9,20.4c-1.2,0-2.1,0.3-2.6,0.8      c-2,2-3.5,7.1-2.4,12.9c0.8,4.2,3.5,11.7,12.9,15.9l0,0c6.1,2.7,14.4,3.2,19.3-1.7c4.7-4.7,4.7-9.2,0-13.9      C36.4,29.8,20.8,20.4,13.9,20.4z"/></g></g><g id="Head_3_"><path class="st14" d="M103,66c0,19.6-18.6,22-41.5,22S20,85.6,20,66s4-49,41.5-49C96,17,103,46.4,103,66z"/><path class="st15" d="M61.5,84C39,84,20.8,81.7,20,63.1c0,1,0,1.9,0,2.9c0,19.6,18.6,22,41.5,22S103,85.6,103,66     c0-0.8,0-1.7,0-2.5C102,81.7,83.8,84,61.5,84z"/><path class="st16" d="M61.5,30c29.9,0,39.1,22.1,41.1,40.8c0.3-1.5,0.4-3,0.4-4.8c0-19.6-7-49-41.5-49C24,17,20,46.4,20,66     c0,1.5,0.1,2.9,0.3,4.2C21.8,51.6,29.3,30,61.5,30z"/><path class="st2" d="M61.5,89.5c-21.8,0-43-1.8-43-23.5c0-8.9,0.7-22,6.9-32.6c6.9-11.9,19-17.9,36.1-17.9c15.9,0,27.6,6,35,17.9     c6.6,10.7,8,23.7,8,32.6C104.5,87.7,83.3,89.5,61.5,89.5z M61.5,18.5c-35.9,0-40,27.1-40,47.5c0,17.1,14.7,20.5,40,20.5     c25.3,0,40-3.4,40-20.5C101.5,51.7,97.6,18.5,61.5,18.5z"/></g><g id="Nose"><path class="st17" d="M74,72.5c0,4.1-5.6,7.5-12.5,7.5S49,76.6,49,72.5S54.6,63,61.5,63S74,68.4,74,72.5z"/><path class="st15" d="M61.5,67c5.8,0,10.6,3.8,12.1,7.4c0.3-0.6,0.4-1.3,0.4-1.9c0-4.1-5.6-9.5-12.5-9.5S49,68.4,49,72.5     c0,0.7,0.2,1.3,0.4,1.9C50.9,70.8,55.7,67,61.5,67z"/><path class="st2" d="M61.5,81.5c-7.9,0-14-4-14-9c0-5,6.2-11,14-11s14,6,14,11C75.5,77.5,69.4,81.5,61.5,81.5z M61.5,64.5     c-6.3,0-11,4.9-11,8c0,3.3,5,6,11,6c6,0,11-2.7,11-6C72.5,69.4,67.8,64.5,61.5,64.5z"/><ellipse class="st2" cx="57.5" cy="72.5" rx="2" ry="4"/><ellipse class="st2" cx="65.5" cy="72.5" rx="2" ry="4"/></g><g id="Eyes_9_"><circle class="st2" cx="78" cy="60" r="3"/><circle class="st2" cx="46" cy="60" r="3"/></g></g></g><g id="Dog"/><g id="Cat"/><g id="Bird"/><g id="Koala"/><g id="Mice"/><g id="Snake"/><g id="Lion"/><g id="Caterpillar"/><g id="Dolphin"/><g id="Penguin"/><g id="Deer"/><g id="Elephant"/><g id="Panda"/><g id="Giraffe"/><g id="Cow"/><g id="Monkey"/><g id="Rabbit"/><g id="Bear"/><g id="Zebra"/><g id="Crab"/><g id="Crocodile"/><g id="Frog"/><g id="Owl"/><g id="Layer_28"/><g id="Octopus"/><g id="Turtle"/><g id="Squirrel"/><g id="Duck"/><g id="Squid"/><g id="Unicorn"/><g id="Parrot"/><g id="Layer_36"/><g id="Cockroach"/><g id="Gorilla"/><g id="Tiger"/><g id="Goat"/><g id="Whale"/></svg>