<?xml version="1.0" ?><svg style="enable-background:new 0 0 128 128;" version="1.1" viewBox="0 0 128 128" xml:space="preserve" xmlns="http://www.w3.org/2000/svg" xmlns:xlink="http://www.w3.org/1999/xlink"><style type="text/css">
	.st0{fill:#74CBDE;}
	.st1{fill:#B3F4FB;}
	.st2{fill:#301F00;}
	.st3{fill:#2FB0C1;}
	.st4{fill:#F2F2F2;}
	.st5{fill:#CCCCCC;}
	.st6{fill:#FFFFFF;}
	.st7{fill:#629EE1;}
	.st8{fill:#4180D8;}
	.st9{fill:#FF0013;}
	.st10{fill:#FF4D4D;}
	.st11{fill:#C80004;}
	.st12{fill:#FFD81A;}
	.st13{fill:#FFEA55;}
	.st14{fill:#FFB6C6;}
	.st15{fill:#FF97A9;}
	.st16{fill:#FFD0DC;}
	.st17{fill:#FF7287;}
	.st18{fill:#FDAD4C;}
	.st19{fill:#EB9129;}
	.st20{fill:#C13202;}
	.st21{fill:#CA4508;}
	.st22{fill:#FEC769;}
	.st23{fill:#FFEA9A;}
	.st24{fill:#FFDB69;}
	.st25{fill:#999999;}
	.st26{fill:#808080;}
	.st27{fill:#EBEBEB;}
	.st28{opacity:0.8;fill:#B3B3B3;}
	.st29{fill:#BCBCBC;}
	.st30{fill:#A39095;}
	.st31{fill:#B3B3B3;}
	.st32{fill:#EDFFC5;}
	.st33{fill:#F5FFD9;}
	.st34{opacity:0.8;fill:#FCFFF0;}
	.st35{fill:#8CC63F;}
	.st36{fill:#5AA319;}
	.st37{fill:#ACDC57;}
	.st38{fill:#C69452;}
	.st39{fill:#8A4900;}
	.st40{fill:#B17637;}
	.st41{fill:#E1D6BA;}
	.st42{fill:#CCBB92;}
	.st43{fill:#D8AD68;}
	.st44{fill:#253542;}
	.st45{fill:#2B4753;}
	.st46{fill:#FFA227;}
	.st47{fill:#0F171C;}
	.st48{fill:#FFBBBB;}
	.st49{fill:#A9A69C;}
	.st50{fill:#827E74;}
	.st51{fill:#C0BEB4;}
	.st52{fill:#333333;}
	.st53{fill:#FFE581;}
	.st54{fill:#6F4A38;}
	.st55{fill:#FFF5AE;}
	.st56{fill:#FFD252;}
	.st57{fill:#825C4D;}
	.st58{fill:#C97F4E;}
	.st59{fill:#B86538;}
	.st60{fill:#666666;}
	.st61{fill:#4D4D4D;}
	.st62{fill:#D6925E;}
	.st63{fill:#F9C0A7;}
	.st64{fill:#F7AD90;}
	.st65{fill:#D38F5B;}
	.st66{fill:#CD7C4F;}
	.st67{fill:#C1693E;}
	.st68{fill:#A05B38;}
	.st69{fill:#F1D4A5;}
	.st70{fill:#DD9665;}
	.st71{fill:#E7B777;}
	.st72{fill:#4A290A;}
	.st73{fill:#53770C;}
	.st74{fill:#699010;}
	.st75{fill:#884326;}
	.st76{fill:#F6D5A9;}
	.st77{fill:#F1C087;}
	.st78{fill:#FFD4C5;}
	.st79{fill:#FF9797;}
	.st80{fill:#FF8484;}
	.st81{fill:#FFAAAA;}
	.st82{fill:#7C0000;}
	.st83{fill:#A6B855;}
	.st84{fill:#C3D272;}
	.st85{fill:#7D942D;}
	.st86{fill:#68782F;}
	.st87{fill:#4F5E20;}
	.st88{fill:#81923E;}
	.st89{fill:#EE6B2B;}
	.st90{fill:#D2501E;}
	.st91{fill:#FF6868;}
	.st92{fill:#F85E28;}
	.st93{fill:#D5DAE0;}
	.st94{fill:#BCC4CD;}
	.st95{fill:#FDB62E;}
	.st96{fill:#472D07;}
	.st97{fill:#FC9C1B;}
	.st98{fill:#2D1A03;}
	.st99{fill:#FFFFD5;}
	.st100{fill:#FED041;}
	.st101{fill:#61400B;}
	.st102{fill:#FFFF95;}
	.st103{fill:#D7D3C9;}
	.st104{fill:#E8E3DA;}
	.st105{fill:#DDD6CA;}
	.st106{fill:#9E9992;}
	.st107{fill:#847E77;}
	.st108{fill:#F0EDE7;}
	.st109{fill:#88D3ED;}
	.st110{fill:#68C1E4;}
	.st111{fill:#A8E5F6;}
	.st112{fill:#E6E6E6;}
	.st113{fill:#D6D6D6;}
</style><g id="Fish"/><g id="Chicken"/><g id="Pig"/><g id="Dog"/><g id="Cat"/><g id="Bird"/><g id="Koala"/><g id="Mice"/><g id="Snake"/><g id="Lion"/><g id="Caterpillar"/><g id="Dolphin"/><g id="Penguin"/><g id="Deer"/><g id="Elephant"/><g id="Panda"><g id="Body_15_"><g id="Arms"><g><path class="st52" d="M28.5,91.8c0.3-1.4,1-2.6,2.1-3.7c7.4-7,15.4-8.3,20.6-3.1c2.9,2.9,2.9,7.6,0,10.5c-2.2,2.2-5.3,2.7-8,1.6      c-0.7,0.4-1.6,1.1-2.3,1.7c-3,2.8-7.7,2.7-10.5-0.3C28.5,96.8,27.9,94.2,28.5,91.8z"/><path class="st2" d="M35.7,102.5c-2.4,0-4.7-0.9-6.5-2.8c-2.1-2.2-2.9-5.2-2.2-8.2c0.4-1.7,1.3-3.2,2.5-4.4      c8-7.6,16.9-8.9,22.7-3.1c3.5,3.5,3.5,9.2,0,12.6c-2.3,2.3-5.7,3.2-8.9,2.2c-0.5,0.4-1.1,0.8-1.5,1.2      C40.1,101.7,37.9,102.5,35.7,102.5z M43.6,83.4c-3.7,0-7.9,2-12,5.8c-0.8,0.8-1.4,1.8-1.7,2.9l0,0c-0.5,1.9,0.1,4,1.5,5.4      c2.2,2.4,6,2.5,8.4,0.2c0.7-0.7,1.7-1.4,2.5-1.9c0.4-0.2,0.9-0.3,1.3-0.1c2.2,0.9,4.7,0.4,6.4-1.3c2.3-2.3,2.3-6.1,0-8.4      C48.3,84.3,46,83.4,43.6,83.4z"/></g><g><path class="st52" d="M96.5,91.8c-0.3-1.4-1-2.6-2.1-3.7c-7.4-7-15.4-8.3-20.6-3.1c-2.9,2.9-2.9,7.6,0,10.5      c2.2,2.2,5.3,2.7,8,1.6c0.7,0.4,1.6,1.1,2.3,1.7c3,2.8,7.7,2.7,10.5-0.3C96.5,96.8,97.1,94.2,96.5,91.8z"/><path class="st2" d="M89.3,102.5c-2.2,0-4.4-0.8-6.1-2.4c-0.4-0.4-0.9-0.8-1.5-1.2c-3.1,0.9-6.5,0.1-8.9-2.2      c-3.5-3.5-3.5-9.2,0-12.6c5.8-5.8,14.7-4.6,22.7,3.1c1.3,1.2,2.1,2.7,2.5,4.4l0,0c0.7,2.9-0.2,6-2.2,8.2      C94,101.5,91.7,102.5,89.3,102.5z M81.9,95.7c0.3,0,0.5,0.1,0.8,0.2c0.9,0.5,1.9,1.3,2.5,1.9c2.4,2.2,6.1,2.1,8.4-0.2      c1.4-1.5,1.9-3.5,1.5-5.4l0,0c-0.3-1.1-0.8-2.1-1.7-2.9c-6.7-6.4-14-7.7-18.5-3.1c-2.3,2.3-2.3,6.1,0,8.4      c1.7,1.7,4.2,2.2,6.4,1.3C81.5,95.7,81.7,95.7,81.9,95.7z"/></g></g><g id="Body_14_"><path class="st4" d="M79.9,105.4c0,9.6-7.8,12.5-17.4,12.5s-17.4-2.9-17.4-12.5s-1.1-22.3,17.4-22.3S79.9,95.8,79.9,105.4z"/><path class="st5" d="M45.2,107.2c0.5-7.8,3.2-15.1,17.3-15.1s16.8,7.3,17.3,15.1c0.1-0.6,0.1-1.1,0.1-1.7     c0-9.6,1.1-22.3-17.4-22.3s-17.4,12.7-17.4,22.3C45.1,106,45.1,106.6,45.2,107.2z"/><path class="st2" d="M62.5,119.4c-15.6,0-18.9-7.6-18.9-14c0-0.5,0-1,0-1.6c0-6.1-0.1-13,4.5-17.6c3.1-3.1,7.8-4.7,14.4-4.7     c6.6,0,11.3,1.5,14.4,4.7c4.6,4.6,4.5,11.5,4.5,17.6c0,0.5,0,1.1,0,1.6C81.4,111.8,78.1,119.4,62.5,119.4z M62.5,84.6     c-5.8,0-9.8,1.2-12.3,3.8c-3.7,3.7-3.7,9.9-3.6,15.4c0,0.5,0,1.1,0,1.6c0,7.4,5.2,11,15.9,11c10.7,0,15.9-3.6,15.9-11     c0-0.5,0-1.1,0-1.6c0-5.5,0.1-11.7-3.6-15.4C72.3,85.8,68.3,84.6,62.5,84.6z"/></g><g id="Legs"><g><path class="st52" d="M78,112.7c0,4.7-3,6.4-6.8,6.4c-3.7,0-6.8-1.8-6.8-6.4c0-4.7,1.5-10.4,6.8-10.4S78,108.1,78,112.7z"/><path class="st2" d="M71.3,120.7c-5.2,0-8.3-3-8.3-7.9c0-7.3,3.2-11.9,8.3-11.9s8.3,4.6,8.3,11.9      C79.5,117.7,76.4,120.7,71.3,120.7z M71.3,103.8c-4.9,0-5.3,6.8-5.3,8.9c0,3.3,1.8,4.9,5.3,4.9s5.3-1.7,5.3-4.9      C76.5,110.6,76.1,103.8,71.3,103.8z"/></g><g><path class="st52" d="M60.5,112.7c0,4.7-3,6.4-6.8,6.4s-6.8-1.8-6.8-6.4c0-4.7,1.5-10.4,6.8-10.4S60.5,108.1,60.5,112.7z"/><path class="st2" d="M53.7,120.7c-5.2,0-8.3-3-8.3-7.9c0-7.3,3.2-11.9,8.3-11.9s8.3,4.6,8.3,11.9      C62,117.7,58.9,120.7,53.7,120.7z M53.7,103.8c-4.9,0-5.3,6.8-5.3,8.9c0,3.3,1.8,4.9,5.3,4.9s5.3-1.7,5.3-4.9      C59,110.6,58.6,103.8,53.7,103.8z"/></g></g></g><g id="Head_10_"><g id="Ears_2_"><g><circle class="st52" cx="91.5" cy="33.7" r="22"/><path class="st2" d="M91.5,57.2c-13,0-23.5-10.5-23.5-23.5s10.5-23.5,23.5-23.5S115,20.7,115,33.7S104.5,57.2,91.5,57.2z       M91.5,13.2C80.2,13.2,71,22.4,71,33.7s9.2,20.5,20.5,20.5S112,45,112,33.7S102.8,13.2,91.5,13.2z"/></g><g><circle class="st52" cx="33.5" cy="33.7" r="22"/><path class="st2" d="M33.5,57.2c-13,0-23.5-10.5-23.5-23.5s10.5-23.5,23.5-23.5S57,20.7,57,33.7S46.5,57.2,33.5,57.2z       M33.5,13.2C22.2,13.2,13,22.4,13,33.7s9.2,20.5,20.5,20.5S54,45,54,33.7S44.8,13.2,33.5,13.2z"/></g></g><g id="Head_9_"><path class="st4" d="M101.6,59.1c0,20.4-17.5,28-39,28s-39-7.6-39-28c0-17.4,5.6-38.5,26.5-44.4c2-0.6,4.2-1,6.5-1.3     c0.9-0.1,1.8-0.2,2.8-0.2c1-0.1,2.1-0.1,3.2-0.1s2.2,0,3.2,0.1c1,0.1,1.9,0.1,2.8,0.2c2.3,0.3,4.5,0.7,6.5,1.3     C96,20.6,101.6,41.7,101.6,59.1z"/><path class="st5" d="M62.6,82.1c-20.8,0-37.8-7.1-38.9-26c0,1-0.1,2-0.1,3c0,20.4,17.5,28,39,28s39-7.6,39-28c0-1,0-2-0.1-3     C100.5,75,83.4,82.1,62.6,82.1z"/><path class="st6" d="M62.6,24.1c27.9,0,37.1,20.4,38.7,39.3c0.2-1.4,0.3-2.8,0.3-4.3c0-20.4-7.8-46-39-46c-31.3,0-39,25.6-39,46     c0,1.5,0.1,2.9,0.3,4.3C25.6,44.4,34.7,24.1,62.6,24.1z"/><path class="st2" d="M62.6,88.6c-26.1,0-40.5-10.5-40.5-29.5c0-14.3,3.9-47.5,40.5-47.5s40.5,33.2,40.5,47.5     C103.1,78.1,88.7,88.6,62.6,88.6z M62.6,14.6c-33.8,0-37.5,31.1-37.5,44.5c0,23.1,23.5,26.5,37.5,26.5s37.5-3.4,37.5-26.5     C100.1,45.7,96.5,14.6,62.6,14.6z"/><ellipse class="st52" cx="44.8" cy="63.8" rx="12" ry="14.1" transform="matrix(0.7071 0.7071 -0.7071 0.7071 58.2325 -13.0034)"/><ellipse class="st52" cx="80.4" cy="63.8" rx="12" ry="14.1" transform="matrix(-0.7071 0.7071 -0.7071 -0.7071 182.4091 52.0259)"/></g><g id="Nose_7_"><path class="st52" d="M62.6,68.6c-2.1,0-3.8,1.1-3.8,2.4c0,1.4,1.7,3.9,3.8,3.9c2.1,0,3.8-2.5,3.8-3.9     C66.5,69.7,64.7,68.6,62.6,68.6"/><path class="st2" d="M62.6,76.4c-3,0-5.3-3.3-5.3-5.4c0-2.2,2.3-3.9,5.3-3.9S68,68.8,68,71C68,73.1,65.7,76.4,62.6,76.4z      M62.6,70.1c-1.5,0-2.3,0.7-2.3,0.9c0,0.6,1.2,2.4,2.3,2.4S65,71.6,65,71C65,70.8,64.1,70.1,62.6,70.1z"/></g><path class="st2" d="M69.6,83c-0.8,0.3-1.6,0.5-2.5,0.5c-2,0-3.7-0.9-4.9-2.3c-1.2,1.4-2.9,2.3-4.9,2.3    c-0.9,0-1.7-0.2-2.5-0.5c-0.8-0.3-1.1-1.2-0.8-2s1.2-1.1,2-0.8c0.4,0.2,0.9,0.3,1.3,0.3c1.4,0,2.5-0.8,3.1-2    c0.2-0.4,0.3-0.9,0.3-1.4c0-0.6,0.4-1.1,0.9-1.4c0.3,0.1,0.7,0.2,1,0.2c0.2,0,0.3,0,0.5,0c0.4,0.3,0.7,0.7,0.7,1.3    c0,0.6,0.2,1.1,0.4,1.6c0.6,1.1,1.7,1.8,3,1.8c0.5,0,0.9-0.1,1.3-0.3c0.8-0.3,1.6,0,2,0.8C70.8,81.8,70.4,82.6,69.6,83z" id="Mouth_5_"/><g id="Eyes_12_"><circle class="st4" cx="46.7" cy="61.6" r="3"/><circle class="st4" cx="78.5" cy="61.6" r="3"/></g></g></g><g id="Giraffe"/><g id="Cow"/><g id="Monkey"/><g id="Rabbit"/><g id="Bear"/><g id="Zebra"/><g id="Crab"/><g id="Crocodile"/><g id="Frog"/><g id="Owl"/><g id="Layer_28"/><g id="Octopus"/><g id="Turtle"/><g id="Squirrel"/><g id="Duck"/><g id="Squid"/><g id="Unicorn"/><g id="Parrot"/><g id="Layer_36"/><g id="Cockroach"/><g id="Gorilla"/><g id="Tiger"/><g id="Goat"/><g id="Whale"/></svg>