<?xml version="1.0" ?><svg style="enable-background:new 0 0 128 128;" version="1.1" viewBox="0 0 128 128" xml:space="preserve" xmlns="http://www.w3.org/2000/svg" xmlns:xlink="http://www.w3.org/1999/xlink"><style type="text/css">
	.st0{fill:#74CBDE;}
	.st1{fill:#B3F4FB;}
	.st2{fill:#301F00;}
	.st3{fill:#2FB0C1;}
	.st4{fill:#F2F2F2;}
	.st5{fill:#CCCCCC;}
	.st6{fill:#FFFFFF;}
	.st7{fill:#629EE1;}
	.st8{fill:#4180D8;}
	.st9{fill:#FF0013;}
	.st10{fill:#FF4D4D;}
	.st11{fill:#C80004;}
	.st12{fill:#FFD81A;}
	.st13{fill:#FFEA55;}
	.st14{fill:#FFB6C6;}
	.st15{fill:#FF97A9;}
	.st16{fill:#FFD0DC;}
	.st17{fill:#FF7287;}
	.st18{fill:#FDAD4C;}
	.st19{fill:#EB9129;}
	.st20{fill:#C13202;}
	.st21{fill:#CA4508;}
	.st22{fill:#FEC769;}
	.st23{fill:#FFEA9A;}
	.st24{fill:#FFDB69;}
	.st25{fill:#999999;}
	.st26{fill:#808080;}
	.st27{fill:#EBEBEB;}
	.st28{opacity:0.8;fill:#B3B3B3;}
	.st29{fill:#BCBCBC;}
	.st30{fill:#A39095;}
	.st31{fill:#B3B3B3;}
	.st32{fill:#EDFFC5;}
	.st33{fill:#F5FFD9;}
	.st34{opacity:0.8;fill:#FCFFF0;}
	.st35{fill:#8CC63F;}
	.st36{fill:#5AA319;}
	.st37{fill:#ACDC57;}
	.st38{fill:#C69452;}
	.st39{fill:#8A4900;}
	.st40{fill:#B17637;}
	.st41{fill:#E1D6BA;}
	.st42{fill:#CCBB92;}
	.st43{fill:#D8AD68;}
	.st44{fill:#253542;}
	.st45{fill:#2B4753;}
	.st46{fill:#FFA227;}
	.st47{fill:#0F171C;}
	.st48{fill:#FFBBBB;}
	.st49{fill:#A9A69C;}
	.st50{fill:#827E74;}
	.st51{fill:#C0BEB4;}
	.st52{fill:#333333;}
	.st53{fill:#FFE581;}
	.st54{fill:#6F4A38;}
	.st55{fill:#FFF5AE;}
	.st56{fill:#FFD252;}
	.st57{fill:#825C4D;}
	.st58{fill:#C97F4E;}
	.st59{fill:#B86538;}
	.st60{fill:#666666;}
	.st61{fill:#4D4D4D;}
	.st62{fill:#D6925E;}
	.st63{fill:#F9C0A7;}
	.st64{fill:#F7AD90;}
	.st65{fill:#D38F5B;}
	.st66{fill:#CD7C4F;}
	.st67{fill:#C1693E;}
	.st68{fill:#A05B38;}
	.st69{fill:#F1D4A5;}
	.st70{fill:#DD9665;}
	.st71{fill:#E7B777;}
	.st72{fill:#4A290A;}
	.st73{fill:#53770C;}
	.st74{fill:#699010;}
	.st75{fill:#884326;}
	.st76{fill:#F6D5A9;}
	.st77{fill:#F1C087;}
	.st78{fill:#FFD4C5;}
	.st79{fill:#FF9797;}
	.st80{fill:#FF8484;}
	.st81{fill:#FFAAAA;}
	.st82{fill:#7C0000;}
	.st83{fill:#A6B855;}
	.st84{fill:#C3D272;}
	.st85{fill:#7D942D;}
	.st86{fill:#68782F;}
	.st87{fill:#4F5E20;}
	.st88{fill:#81923E;}
	.st89{fill:#EE6B2B;}
	.st90{fill:#D2501E;}
	.st91{fill:#FF6868;}
	.st92{fill:#F85E28;}
	.st93{fill:#D5DAE0;}
	.st94{fill:#BCC4CD;}
	.st95{fill:#FDB62E;}
	.st96{fill:#472D07;}
	.st97{fill:#FC9C1B;}
	.st98{fill:#2D1A03;}
	.st99{fill:#FFFFD5;}
	.st100{fill:#FED041;}
	.st101{fill:#61400B;}
	.st102{fill:#FFFF95;}
	.st103{fill:#D7D3C9;}
	.st104{fill:#E8E3DA;}
	.st105{fill:#DDD6CA;}
	.st106{fill:#9E9992;}
	.st107{fill:#847E77;}
	.st108{fill:#F0EDE7;}
	.st109{fill:#88D3ED;}
	.st110{fill:#68C1E4;}
	.st111{fill:#A8E5F6;}
	.st112{fill:#E6E6E6;}
	.st113{fill:#D6D6D6;}
</style><g id="Fish"/><g id="Chicken"/><g id="Pig"/><g id="Dog"/><g id="Cat"/><g id="Bird"><g id="Leg_1_"><path class="st2" d="M57.1,113l-4.2-5.1c0.4-2.3,0.7-4.4,0.7-4.8c0.1-0.8-0.5-1.6-1.3-1.7c-0.8-0.1-1.6,0.5-1.7,1.3    c-0.1,1.1-0.3,2.5-0.6,3.9l-6.7,3.7c-0.7,0.4-1,1.3-0.6,2c0.3,0.5,0.8,0.8,1.3,0.8c0.2,0,0.5-0.1,0.7-0.2l4.4-2.4    c-0.4,1.5-0.8,2.8-1.3,3.5c-0.5,0.7-0.3,1.6,0.3,2.1c0.3,0.2,0.6,0.3,0.9,0.3c0.5,0,0.9-0.2,1.2-0.6c0.7-0.9,1.2-2.5,1.7-4.2    l2.7,3.3c0.3,0.4,0.7,0.5,1.2,0.5c0.3,0,0.7-0.1,1-0.3C57.5,114.6,57.6,113.7,57.1,113z"/><path class="st2" d="M78.1,112.6l-4.6-4.7c0.3-2.4,0.3-4.4,0.4-4.8c0-0.8-0.6-1.5-1.4-1.6c-0.8,0-1.5,0.6-1.6,1.4    c0,1.1-0.1,2.5-0.3,4l-6.3,4.2c-0.7,0.5-0.9,1.4-0.4,2.1c0.3,0.4,0.8,0.7,1.3,0.7c0.3,0,0.6-0.1,0.8-0.3l4.2-2.8    c-0.3,1.6-0.6,2.9-1,3.6c-0.4,0.7-0.2,1.6,0.5,2.1c0.2,0.1,0.5,0.2,0.8,0.2c0.5,0,1-0.3,1.3-0.7c0.6-1,1-2.6,1.4-4.3l3,3.1    c0.3,0.3,0.7,0.5,1.1,0.5c0.4,0,0.8-0.1,1-0.4C78.7,114.2,78.7,113.2,78.1,112.6z"/></g><g id="Tail_Feather"><path class="st0" d="M83.6,78.3c0,0,20.5-20.3,28.7-20c8.2,0.3-2,13.3-2.4,13.5s8.5-0.9,2.7,6.6c-5.8,7.5-19.6,9.9-19.6,9.9    L83.6,78.3z"/><path class="st1" d="M109.9,71.9c0.4-0.3,10.6-13.2,2.4-13.5c-3.6-0.2-9.4,3.6-15,7.9c2.8-1.7,5.4-2.8,7.3-2.7    c7.6,0.3-1.9,12.2-2.2,12.5c-0.4,0.3,7.9-0.8,2.5,6.1c-1.4,1.8-3.3,3.3-5.4,4.5c4.4-1.5,9.9-4,13.1-8.1    C118.5,71,109.5,72.2,109.9,71.9z"/><path class="st2" d="M93,89.9c-0.4,0-0.8-0.2-1.1-0.5l-9.4-10.1c-0.6-0.6-0.5-1.5,0-2.1c2.1-2.1,20.9-20.4,29.6-20.4    c0.1,0,0.2,0,0.3,0c3.1,0.1,4.1,1.9,4.4,2.9c0.9,3.2-2,8-4.1,10.9c1.2,0.3,2.4,0.9,3.1,2.2c0.8,1.7,0.1,3.8-2,6.6    c-6.1,7.9-20,10.4-20.6,10.5C93.2,89.9,93.1,89.9,93,89.9z M85.7,78.4l7.8,8.4c2.9-0.6,13.3-3.2,17.9-9.2c2-2.6,1.6-3.4,1.6-3.5    c-0.1-0.2-0.5-0.6-2.8-0.7c-0.5,0-1.5-0.1-1.8-1.1c-0.2-0.6,0-1.2,0.4-1.6c1.3-1.4,5.9-8.1,5-10.3c-0.2-0.4-0.7-0.6-1.6-0.7    c-0.1,0-0.1,0-0.2,0C106.2,59.8,92,72.4,85.7,78.4z"/></g><g id="Body_5_"><path class="st0" d="M91.6,59.2c6.7,11.1,9.3,32.1-7,40c-10.8,5.2-23.4,6.5-38,2.6c-34.6-9.2-29.8-45.6-27-59.6    c2.7-13.1,13-24.8,29-24.8C84.9,17.5,85,48.3,91.6,59.2z"/><path class="st3" d="M86.4,94.6c-10.8,5.2-23.4,6.5-38,2.6c-34.6-9.2-29.8-45.6-27-59.6c0.2-1,0.5-2.1,0.8-3.1    c-1.1,2.4-2,5-2.5,7.7c-2.8,14-7.6,50.3,27,59.6c14.6,3.9,27.2,2.6,38-2.6c6.3-3.1,9.8-8.1,11.3-13.8C94,89.2,90.9,92.4,86.4,94.6    z"/><path class="st1" d="M91,93.5c4.4-8.5-1.7-21.3-6.3-28.9c-1.4-2.3-4.5-4.3-5.2-8.1c-2.5-13.3-9.8-28-34-28    c-14,0-23.2,10.2-25.6,21.6c-1,4.9-2.2,12.9-1.5,21.2c-2-11.2-0.3-22.6,1-29.1c2.7-13.1,13-24.8,29-24.8c36.3,0,36.4,30.8,43,41.7    c5.5,9.2,8.3,24.9,0,34.7L91,93.5z"/><path class="st4" d="M78.3,101.8C52.5,79.9,39,86,32,94.9c3.8,2.9,8.6,5.3,14.6,6.9C58.5,105,69,104.8,78.3,101.8z"/><path class="st5" d="M49.9,102.6c0.6,0.1,1.1,0.2,1.7,0.4c0.3,0.1,0.6,0.1,0.9,0.2c0.5,0.1,1.1,0.2,1.6,0.3c0.3,0,0.6,0.1,0.8,0.1    c0.6,0.1,1.3,0.2,1.9,0.2c0.2,0,0.3,0,0.5,0.1c0.8,0.1,1.5,0.1,2.3,0.2c0.2,0,0.5,0,0.7,0c0.5,0,1,0,1.5,0.1c0.3,0,0.6,0,0.9,0    c0.5,0,0.9,0,1.4,0c0.3,0,0.6,0,0.9,0c0.5,0,1,0,1.5-0.1c0.2,0,0.5,0,0.7,0c0.7-0.1,1.4-0.1,2.1-0.2c0.2,0,0.5-0.1,0.7-0.1    c0.5-0.1,0.9-0.1,1.4-0.2c0.3,0,0.6-0.1,0.9-0.2c0.4-0.1,0.8-0.2,1.2-0.2c0.3-0.1,0.6-0.1,0.9-0.2c0.4-0.1,0.8-0.2,1.2-0.3    c0.3-0.1,0.6-0.1,0.8-0.2c0.6-0.2,1.3-0.4,1.9-0.6c-1.3-1.1-2.6-2.2-3.9-3.2c-7.8,1.5-16.5,1.2-26-1.4c-5.2-1.4-9.5-3.4-13-5.8    c-1.2,1.1-2.3,2.3-3.3,3.5c0.4,0.3,0.9,0.7,1.3,1c0.1,0.1,0.2,0.2,0.4,0.2c0.4,0.2,0.7,0.5,1.1,0.7c0.1,0.1,0.2,0.1,0.3,0.2    c0.5,0.3,1,0.6,1.5,0.9c0.1,0,0.2,0.1,0.2,0.1c0.4,0.2,0.9,0.5,1.3,0.7c0.2,0.1,0.3,0.1,0.5,0.2c0.5,0.2,0.9,0.4,1.4,0.6    c0.1,0,0.2,0.1,0.3,0.1c0.6,0.2,1.2,0.5,1.8,0.7c0.2,0.1,0.3,0.1,0.5,0.2c0.5,0.2,1,0.3,1.4,0.5c0.2,0.1,0.4,0.1,0.5,0.2    c0.6,0.2,1.3,0.4,2,0.6c0.8,0.2,1.7,0.4,2.5,0.6C49.4,102.5,49.6,102.6,49.9,102.6z"/><path class="st2" d="M63,105.6c-5.4,0-11-0.8-16.8-2.3c-33.5-9-32-42.3-28.1-61.3C20.8,29,31.2,16,48.6,16    C78,16,84.7,36,89.2,49.2c1.3,3.8,2.4,7,3.7,9.3l0,0c4.2,7,7.2,18.4,4.3,28.1c-1.9,6.3-6,11.1-11.9,14    C78.4,103.9,70.9,105.6,63,105.6z M48.6,19c-15.7,0-25.1,11.8-27.5,23.6c-3.7,18-5.2,49.5,25.9,57.8c13.6,3.6,26,2.8,37-2.5    c5.2-2.5,8.7-6.6,10.4-12.2c2.6-8.9-0.1-19.3-4-25.7l0,0c-1.5-2.5-2.7-6-4-9.9C81.9,37,75.8,19,48.6,19z"/></g><g id="Eyes_6_"><circle class="st2" cx="58.6" cy="58.5" r="3"/><circle class="st2" cx="26.6" cy="58.5" r="3"/></g><g id="Beak_1_"><g><path class="st12" d="M34.5,69.3c2.1-2.9,15.3-3.1,17,0c1.7,3.1-4.2,11.7-8.5,11.7S32.4,72.2,34.5,69.3z"/></g><g><path class="st13" d="M51.2,73.3c0.7-1.6,0.9-3.1,0.3-4c-1.7-3.1-14.9-2.9-17,0c-0.7,0.9-0.5,2.5,0.3,4.2     C37.4,71,48.6,70.7,51.2,73.3z"/></g><g><path class="st2" d="M43,82.5c-3.5,0-7.3-3.9-9.2-7.6c-1.4-2.7-1.6-5-0.5-6.5l0,0c2-2.7,8.7-3.1,12-2.8c2.8,0.2,6.4,0.9,7.5,3     c1.3,2.4-0.5,6-1.3,7.4C49.6,79.2,46.2,82.5,43,82.5C43.1,82.5,43,82.5,43,82.5z M43.4,68.5c-4,0-7.1,0.9-7.6,1.7l0,0     c-0.2,0.3-0.2,1.5,0.7,3.3c1.6,3.1,4.7,6,6.6,6c0,0,0,0,0,0c1.6,0,4.2-2.3,5.9-5.1c1.4-2.3,1.5-3.9,1.2-4.4     c-0.2-0.4-1.7-1.2-5.1-1.4C44.5,68.5,43.9,68.5,43.4,68.5z"/></g></g><g id="Wing_1_"><path class="st0" d="M100.1,79.2c-2.6,5.5-14.7,5.2-21.1,2.2s-9.5-9.9-6.9-15.3c2.6-5.5,9.8-7.5,16.2-4.5    C94.8,64.6,102.7,73.7,100.1,79.2z"/><path class="st3" d="M85,80.7c-7-3.3-10.4-10.8-7.5-16.8c0.7-1.4,1.6-2.6,2.8-3.6c-3.6,0.5-6.6,2.5-8.1,5.7    c-2.6,5.5,0.5,12.3,6.9,15.3c4.1,1.9,10.6,2.7,15.4,1.6C91,82.7,87.6,81.9,85,80.7z"/><path class="st1" d="M88.4,61.6c-4.1-1.9-8.5-1.8-11.9,0c2.3-0.2,4.9,0.2,7.2,1.4c6.4,3,14.3,12.2,11.7,17.7    c-0.6,1.2-1.6,2.1-2.9,2.8c3.5-0.4,6.4-1.7,7.5-4.1C102.7,73.7,94.8,64.6,88.4,61.6z"/><path class="st2" d="M89.5,85c-4,0-8.1-0.9-11.1-2.3c-7.1-3.4-10.5-11.1-7.6-17.3c2.9-6.2,11.1-8.5,18.2-5.2    c7,3.3,15.5,13.2,12.5,19.7C99.8,83.5,94.8,85,89.5,85z M82.3,61.7c-3.8,0-7.2,1.8-8.7,5c-2.2,4.7,0.5,10.7,6.2,13.3    c6.3,3,17.1,2.8,19.1-1.4c2-4.2-4.7-12.7-11-15.7C85.9,62.1,84.1,61.7,82.3,61.7z"/></g></g><g id="Koala"/><g id="Mice"/><g id="Snake"/><g id="Lion"/><g id="Caterpillar"/><g id="Dolphin"/><g id="Penguin"/><g id="Deer"/><g id="Elephant"/><g id="Panda"/><g id="Giraffe"/><g id="Cow"/><g id="Monkey"/><g id="Rabbit"/><g id="Bear"/><g id="Zebra"/><g id="Crab"/><g id="Crocodile"/><g id="Frog"/><g id="Owl"/><g id="Layer_28"/><g id="Octopus"/><g id="Turtle"/><g id="Squirrel"/><g id="Duck"/><g id="Squid"/><g id="Unicorn"/><g id="Parrot"/><g id="Layer_36"/><g id="Cockroach"/><g id="Gorilla"/><g id="Tiger"/><g id="Goat"/><g id="Whale"/></svg>