<?xml version="1.0" ?><svg style="enable-background:new 0 0 128 128;" version="1.1" viewBox="0 0 128 128" xml:space="preserve" xmlns="http://www.w3.org/2000/svg" xmlns:xlink="http://www.w3.org/1999/xlink"><style type="text/css">
	.st0{fill:#74CBDE;}
	.st1{fill:#B3F4FB;}
	.st2{fill:#301F00;}
	.st3{fill:#2FB0C1;}
	.st4{fill:#F2F2F2;}
	.st5{fill:#CCCCCC;}
	.st6{fill:#FFFFFF;}
	.st7{fill:#629EE1;}
	.st8{fill:#4180D8;}
	.st9{fill:#FF0013;}
	.st10{fill:#FF4D4D;}
	.st11{fill:#C80004;}
	.st12{fill:#FFD81A;}
	.st13{fill:#FFEA55;}
	.st14{fill:#FFB6C6;}
	.st15{fill:#FF97A9;}
	.st16{fill:#FFD0DC;}
	.st17{fill:#FF7287;}
	.st18{fill:#FDAD4C;}
	.st19{fill:#EB9129;}
	.st20{fill:#C13202;}
	.st21{fill:#CA4508;}
	.st22{fill:#FEC769;}
	.st23{fill:#FFEA9A;}
	.st24{fill:#FFDB69;}
	.st25{fill:#999999;}
	.st26{fill:#808080;}
	.st27{fill:#EBEBEB;}
	.st28{opacity:0.8;fill:#B3B3B3;}
	.st29{fill:#BCBCBC;}
	.st30{fill:#A39095;}
	.st31{fill:#B3B3B3;}
	.st32{fill:#EDFFC5;}
	.st33{fill:#F5FFD9;}
	.st34{opacity:0.8;fill:#FCFFF0;}
	.st35{fill:#8CC63F;}
	.st36{fill:#5AA319;}
	.st37{fill:#ACDC57;}
	.st38{fill:#C69452;}
	.st39{fill:#8A4900;}
	.st40{fill:#B17637;}
	.st41{fill:#E1D6BA;}
	.st42{fill:#CCBB92;}
	.st43{fill:#D8AD68;}
	.st44{fill:#253542;}
	.st45{fill:#2B4753;}
	.st46{fill:#FFA227;}
	.st47{fill:#0F171C;}
	.st48{fill:#FFBBBB;}
	.st49{fill:#A9A69C;}
	.st50{fill:#827E74;}
	.st51{fill:#C0BEB4;}
	.st52{fill:#333333;}
	.st53{fill:#FFE581;}
	.st54{fill:#6F4A38;}
	.st55{fill:#FFF5AE;}
	.st56{fill:#FFD252;}
	.st57{fill:#825C4D;}
	.st58{fill:#C97F4E;}
	.st59{fill:#B86538;}
	.st60{fill:#666666;}
	.st61{fill:#4D4D4D;}
	.st62{fill:#D6925E;}
	.st63{fill:#F9C0A7;}
	.st64{fill:#F7AD90;}
	.st65{fill:#D38F5B;}
	.st66{fill:#CD7C4F;}
	.st67{fill:#C1693E;}
	.st68{fill:#A05B38;}
	.st69{fill:#F1D4A5;}
	.st70{fill:#DD9665;}
	.st71{fill:#E7B777;}
	.st72{fill:#4A290A;}
	.st73{fill:#53770C;}
	.st74{fill:#699010;}
	.st75{fill:#884326;}
	.st76{fill:#F6D5A9;}
	.st77{fill:#F1C087;}
	.st78{fill:#FFD4C5;}
	.st79{fill:#FF9797;}
	.st80{fill:#FF8484;}
	.st81{fill:#FFAAAA;}
	.st82{fill:#7C0000;}
	.st83{fill:#A6B855;}
	.st84{fill:#C3D272;}
	.st85{fill:#7D942D;}
	.st86{fill:#68782F;}
	.st87{fill:#4F5E20;}
	.st88{fill:#81923E;}
	.st89{fill:#EE6B2B;}
	.st90{fill:#D2501E;}
	.st91{fill:#FF6868;}
	.st92{fill:#F85E28;}
	.st93{fill:#D5DAE0;}
	.st94{fill:#BCC4CD;}
	.st95{fill:#FDB62E;}
	.st96{fill:#472D07;}
	.st97{fill:#FC9C1B;}
	.st98{fill:#2D1A03;}
	.st99{fill:#FFFFD5;}
	.st100{fill:#FED041;}
	.st101{fill:#61400B;}
	.st102{fill:#FFFF95;}
	.st103{fill:#D7D3C9;}
	.st104{fill:#E8E3DA;}
	.st105{fill:#DDD6CA;}
	.st106{fill:#9E9992;}
	.st107{fill:#847E77;}
	.st108{fill:#F0EDE7;}
	.st109{fill:#88D3ED;}
	.st110{fill:#68C1E4;}
	.st111{fill:#A8E5F6;}
	.st112{fill:#E6E6E6;}
	.st113{fill:#D6D6D6;}
</style><g id="Fish"><g id="Top_Fin"><path class="st0" d="M36,37c0,0,9.8-12.5,17-15c6-2.1,17.3,2.7,26,12c10.4,11.1,6,18,6,18L36,37z"/><path class="st1" d="M79,34c-8.8-9.3-20-14.1-26-12c-7.3,2.5-17,15-17,15l0.3,0.1c3.5-3.8,8.6-8.6,12.8-10.1c6-2.1,17.3,2.7,26,12    c4.6,4.9,6.3,9,6.8,12l3.2,1C85,52,89.4,45.1,79,34z"/><path class="st2" d="M85,53.5c-0.1,0-0.3,0-0.4-0.1l-49-15c-0.5-0.1-0.8-0.5-1-1c-0.1-0.5-0.1-1,0.2-1.4    c0.4-0.5,10.1-12.9,17.7-15.5c6.9-2.4,18.7,3,27.6,12.4c11,11.8,6.4,19.5,6.2,19.8C86,53.2,85.5,53.5,85,53.5z M38.6,36.2    l45.6,13.9c0.6-2.1,1-7.4-6.2-15.1c-8.8-9.3-19.5-13.3-24.4-11.6C48.3,25.2,41.5,32.8,38.6,36.2z"/></g><g id="Bottom_Fin"><path class="st0" d="M38,95.5c0,0,18.8,9.6,26,11.7c6,1.7,12.1,1.4,17-8.3C86.9,87.2,87,83,87,83L38,95.5z"/><path class="st3" d="M51.4,102c3.1,1.4,6.3,2.8,9,3.9c7.1-0.9,13.6-2.4,19.2-4.6c0.5-0.7,1-1.5,1.4-2.5c0.7-1.3,1.2-2.5,1.7-3.6    C74.3,99.3,63.5,101.4,51.4,102z"/><path class="st2" d="M69.1,109.5c-1.9,0-3.8-0.4-5.5-0.9c-7.3-2.1-25.5-11.4-26.3-11.8c-0.6-0.3-0.9-0.9-0.8-1.5s0.5-1.1,1.1-1.3    l49-12.5c0.5-0.1,0.9,0,1.3,0.3c0.4,0.3,0.6,0.7,0.6,1.2c0,0.5-0.3,4.9-6.2,16.5C78.4,107.4,73.6,109.5,69.1,109.5z M42.3,96    c5.8,2.9,17,8.3,22.1,9.8c5.2,1.5,10.6,1.6,15.2-7.6c3.4-6.7,4.8-10.9,5.4-13.1L42.3,96z"/></g><g id="Tail"><path class="st0" d="M95,61c0,0,2-11.8,15-14s8.8,8.8,6,13s-7.4,9.2,0,14c7,4.5,3.6,21.7-8,14c-13.6-9-15-16-15-16L95,61z"/><path class="st3" d="M106.1,86.7c5.7-0.4,6.6-10.4,1.9-13.5c-6.3-4.1-2.4-8.4,0-11.9c2.4-3.5,5.9-12.9-5.1-11    c-0.4,0.1-0.8,0.1-1.1,0.2C96.1,54.7,95,61,95,61l-2,11C93,72,94.3,78.3,106.1,86.7z"/><path class="st2" d="M113.4,91.4c-1.7,0-3.7-0.6-6.2-2.2c-14-9.2-15.6-16.6-15.6-17c0-0.2,0-0.4,0-0.6l2-11    c0.1-0.6,2.6-12.9,16.2-15.2c4.9-0.8,8.2,0,9.7,2.5c2.5,3.9-0.4,10.1-2.3,12.8c-0.3,0.4-0.5,0.8-0.8,1.2c-1.6,2.3-3.3,4.7-2.9,6.9    c0.3,1.3,1.4,2.6,3.3,3.9c2.9,1.9,4.5,5.6,4.3,9.8c-0.2,3.8-1.9,6.9-4.6,8.2C115.7,91.1,114.7,91.4,113.4,91.4z M94.5,71.9    c0.4,1.2,2.9,7.3,14.3,14.8c1.8,1.2,4.3,2.3,6.3,1.3c1.7-0.8,2.8-3,2.9-5.7c0.2-3.1-1-5.8-2.9-7.1c-2.7-1.7-4.2-3.6-4.6-5.8    c-0.7-3.4,1.5-6.5,3.4-9.1c0.3-0.4,0.5-0.7,0.8-1.1c1.7-2.5,3.6-7.3,2.2-9.5c-1.1-1.7-4.3-1.6-6.7-1.2    c-11.8,2-13.7,12.7-13.8,12.8c0,0,0,0,0,0L94.5,71.9z"/></g><g id="Body"><path class="st4" d="M101,68.8c0,24-25.2,33.5-57.6,33.5c-11.3,0-21.3-5.9-27.2-14.8c2.5-4.1,5.2-9.3,3.7-10.1    c-1.3-0.7-5.8-2.4-8.9-3.6c-0.2-1.6-0.4-3.2-0.4-4.9c0-18.5,14.6-33.5,32.7-33.5C74.7,35.3,101,50.3,101,68.8z"/><path class="st0" d="M43.4,35.3c-1.9,0-3.7,0.2-5.5,0.5C46.5,44.7,54,54.2,54,70c0,10.3-4.4,24.4-8.4,32.2    c31.3-0.4,55.4-10,55.4-33.4C101,50.3,74.7,35.3,43.4,35.3z"/><path class="st5" d="M45.6,102.2c1.1-2.1,2.2-4.6,3.2-7.4c-1.8,0.1-3.6,0.1-5.4,0.1c-9.9,0-18.8-4.5-24.8-11.7    c-0.7,1.4-1.5,2.8-2.3,4.2c5.9,9,15.8,14.8,27.2,14.8c1.7,0,3.4,0,5-0.1C47.5,102.2,46.6,102.2,45.6,102.2z"/><path class="st3" d="M100.7,65.6c-2.6,19.7-24,28.3-51.9,29.2c-1,2.8-2.1,5.3-3.2,7.4c1,0,1.9,0,2.8-0.1c0,0,0.1,0,0.1,0    c0.9,0,1.8-0.1,2.7-0.1c0.1,0,0.1,0,0.2,0c0.9,0,1.7-0.1,2.6-0.2c0.1,0,0.2,0,0.3,0c0.8-0.1,1.6-0.1,2.5-0.2c0.1,0,0.2,0,0.4,0    c0.8-0.1,1.6-0.2,2.3-0.2c0.1,0,0.3,0,0.4,0c0.7-0.1,1.5-0.2,2.2-0.3c0.2,0,0.3,0,0.5-0.1c0.7-0.1,1.4-0.2,2.1-0.3    c0.2,0,0.4-0.1,0.5-0.1c0.7-0.1,1.3-0.2,2-0.4c0.2,0,0.4-0.1,0.6-0.1c0.6-0.1,1.3-0.3,1.9-0.4c0.2,0,0.4-0.1,0.6-0.1    c0.6-0.1,1.2-0.3,1.8-0.4c0.2-0.1,0.4-0.1,0.6-0.2c0.6-0.2,1.1-0.3,1.7-0.5c0.2-0.1,0.4-0.1,0.7-0.2c0.5-0.2,1.1-0.3,1.6-0.5    c0.2-0.1,0.5-0.2,0.7-0.2c0.5-0.2,1-0.4,1.5-0.5c0.2-0.1,0.5-0.2,0.7-0.3c0.5-0.2,0.9-0.4,1.4-0.6c0.2-0.1,0.5-0.2,0.7-0.3    c0.4-0.2,0.9-0.4,1.3-0.6c0.2-0.1,0.5-0.2,0.7-0.3c0.4-0.2,0.8-0.4,1.2-0.6c0.2-0.1,0.5-0.3,0.7-0.4c0.4-0.2,0.8-0.4,1.1-0.6    c0.2-0.1,0.5-0.3,0.7-0.4c0.4-0.2,0.7-0.4,1-0.7c0.2-0.2,0.5-0.3,0.7-0.5c0.3-0.2,0.6-0.5,1-0.7c0.2-0.2,0.4-0.3,0.7-0.5    c0.3-0.2,0.6-0.5,0.9-0.7c0.2-0.2,0.4-0.4,0.6-0.6c0.3-0.2,0.5-0.5,0.8-0.8c0.2-0.2,0.4-0.4,0.6-0.6c0.2-0.3,0.5-0.5,0.7-0.8    c0.2-0.2,0.4-0.4,0.6-0.7c0.2-0.3,0.4-0.5,0.7-0.8c0.2-0.2,0.4-0.5,0.5-0.7c0.2-0.3,0.4-0.5,0.6-0.8c0.2-0.3,0.3-0.5,0.5-0.8    c0.2-0.3,0.3-0.6,0.5-0.8c0.2-0.3,0.3-0.6,0.4-0.8c0.1-0.3,0.3-0.6,0.4-0.9c0.1-0.3,0.3-0.6,0.4-0.9c0.1-0.3,0.2-0.6,0.4-0.9    c0.1-0.3,0.2-0.7,0.3-1c0.1-0.3,0.2-0.6,0.3-0.9c0.1-0.3,0.2-0.7,0.3-1.1c0.1-0.3,0.2-0.6,0.2-0.9c0.1-0.4,0.1-0.8,0.2-1.2    c0-0.3,0.1-0.6,0.1-0.8c0.1-0.4,0.1-0.9,0.1-1.4c0-0.2,0.1-0.5,0.1-0.7c0-0.7,0.1-1.4,0.1-2.2c0-0.5,0-1.1-0.1-1.6    C100.9,66.7,100.8,66.1,100.7,65.6z"/><path class="st6" d="M37.9,35.8c-15.4,2.7-27.2,16.4-27.2,33c0,1.7,0.1,3.3,0.4,4.9c0.3,0.1,0.6,0.2,0.9,0.3c0,0,0,0,0,0    c0-15.2,13.4-26.7,31.4-26.7c1.3,0,2.7,0,4,0.1C44.7,43.2,41.4,39.4,37.9,35.8z"/><path class="st1" d="M41.1,35.4c-0.2,0-0.4,0-0.6,0c-0.4,0-0.7,0.1-1.1,0.1c-0.1,0-0.2,0-0.3,0c-0.4,0.1-0.8,0.1-1.2,0.2l0,0    c3.5,3.6,6.8,7.4,9.5,11.6c27.9,0.9,50.9,11.6,53.3,25.1c0.1-0.6,0.1-1.2,0.2-1.8c0-0.6,0.1-1.2,0.1-1.9    c0-18.5-26.3-33.5-57.6-33.5c-0.5,0-1,0-1.5,0C41.6,35.4,41.4,35.4,41.1,35.4z"/><path class="st2" d="M43.4,103.8c-11.4,0-22-5.8-28.4-15.5c-0.3-0.5-0.3-1.1,0-1.6c3.3-5.5,3.8-7.6,3.9-8.3    c-1.2-0.6-4.3-1.8-8.3-3.3c-0.5-0.2-0.9-0.6-1-1.2c-0.2-1.7-0.4-3.4-0.4-5.1c0-19.3,15.3-35,34.2-35c32.6,0,59.1,15.7,59.1,35    C102.5,91.3,81.5,103.8,43.4,103.8z M18,87.3c5.9,8.4,15.3,13.4,25.4,13.4c20.9,0,56.1-4.2,56.1-32c0-17.3-25.7-32-56.1-32    c-17.2,0-31.2,14.3-31.2,32c0,1.3,0.1,2.5,0.2,3.8c3.3,1.2,7,2.6,8.3,3.4c0.4,0.2,0.9,0.6,1.1,1.4C22,78.1,22.4,79.8,18,87.3z"/><circle class="st2" cx="33.5" cy="73.5" id="Eye" r="3"/><g><path class="st2" d="M71.5,61c-0.8,0-1.5-0.7-1.5-1.5s0.7-1.5,1.5-1.5c2.2,0,4-1.8,4-4s-1.8-4-4-4c-0.8,0-1.5-0.7-1.5-1.5     s0.7-1.5,1.5-1.5c3.9,0,7,3.1,7,7S75.4,61,71.5,61z"/><path class="st2" d="M78.5,79c-0.8,0-1.5-0.7-1.5-1.5s0.7-1.5,1.5-1.5c2.2,0,4-1.8,4-4s-1.8-4-4-4c-0.8,0-1.5-0.7-1.5-1.5     s0.7-1.5,1.5-1.5c3.9,0,7,3.1,7,7S82.4,79,78.5,79z"/><path class="st2" d="M88,69c-0.8,0-1.5-0.7-1.5-1.5S87.2,66,88,66c2.2,0,4-1.8,4-4s-1.8-4-4-4c-0.8,0-1.5-0.7-1.5-1.5     S87.2,55,88,55c3.9,0,7,3.1,7,7S91.9,69,88,69z"/></g></g><g id="Side_Fin"><path class="st7" d="M61.4,79c1.5,0.1,4.2,0,8.2-0.8c0.8-0.2,1.5,0.3,1.7,1.1c0.5,1.9,1.4,5.2,2.7,6.6c1.9,2.1,2.9,6.6-3,7    c-6.6,0.4-11.6,0.8-11.1-12.5C60,79.6,60.6,79,61.4,79z"/><path class="st8" d="M64,79.4c0-0.2,0-0.3,0.1-0.5C63,79,62.1,79,61.4,79c-0.8,0-1.5,0.6-1.5,1.4C59.4,93.7,64.4,93.3,71,92.9    c1.5-0.1,2.5-0.4,3.2-0.9C68.1,92.3,63.5,92.1,64,79.4z"/><path class="st2" d="M67.7,94.5c-2.5,0-4.8-0.4-6.5-2.1c-2.2-2.1-3.1-6-2.8-12.1c0-0.8,0.4-1.5,1-2.1c0.6-0.5,1.3-0.8,2.1-0.8l0,0    c1.5,0.1,4,0,7.8-0.8c1.6-0.3,3.1,0.6,3.4,2.2c0.7,2.9,1.6,5.1,2.4,6c1.4,1.6,2.4,4.2,1.5,6.4c-0.5,1.3-1.9,2.9-5.5,3.1l-0.2,0    C69.9,94.4,68.8,94.5,67.7,94.5z M61.4,80.5c-0.2,5.1,0.4,8.3,1.9,9.8c1.5,1.5,4.1,1.3,7.4,1.1l0.2,0c0.9-0.1,2.6-0.3,3-1.3    c0.4-0.9-0.2-2.4-1-3.2c-1.4-1.6-2.4-4.9-3-7.3C65.8,80.5,63.1,80.6,61.4,80.5z"/></g></g><g id="Chicken"/><g id="Pig"/><g id="Dog"/><g id="Cat"/><g id="Bird"/><g id="Koala"/><g id="Mice"/><g id="Snake"/><g id="Lion"/><g id="Caterpillar"/><g id="Dolphin"/><g id="Penguin"/><g id="Deer"/><g id="Elephant"/><g id="Panda"/><g id="Giraffe"/><g id="Cow"/><g id="Monkey"/><g id="Rabbit"/><g id="Bear"/><g id="Zebra"/><g id="Crab"/><g id="Crocodile"/><g id="Frog"/><g id="Owl"/><g id="Layer_28"/><g id="Octopus"/><g id="Turtle"/><g id="Squirrel"/><g id="Duck"/><g id="Squid"/><g id="Unicorn"/><g id="Parrot"/><g id="Layer_36"/><g id="Cockroach"/><g id="Gorilla"/><g id="Tiger"/><g id="Goat"/><g id="Whale"/></svg>